G04*
G04 #@! TF.GenerationSoftware,Altium Limited,Altium Designer,20.0.10 (225)*
G04*
G04 Layer_Color=2752767*
%FSLAX25Y25*%
%MOIN*%
G70*
G01*
G75*
%ADD10C,0.01181*%
%ADD11C,0.00787*%
%ADD12C,0.00500*%
%ADD13C,0.00600*%
%ADD15C,0.00050*%
%ADD16C,0.00394*%
%ADD17C,0.00197*%
%ADD54C,0.00200*%
%ADD55C,0.00267*%
D10*
X56287Y191890D02*
G03*
X56287Y191890I-394J0D01*
G01*
X56787Y261890D02*
G03*
X56787Y261890I-394J0D01*
G01*
X131504Y119894D02*
G03*
X131504Y119894I-394J0D01*
G01*
D11*
X519524Y342622D02*
G03*
X519524Y342622I-394J0D01*
G01*
X136894Y161437D02*
G03*
X136894Y161437I-394J0D01*
G01*
X76894D02*
G03*
X76894Y161437I-394J0D01*
G01*
X100167Y234751D02*
G03*
X100167Y234751I-394J0D01*
G01*
D12*
X44161Y195000D02*
Y225000D01*
X66996D01*
Y195000D02*
Y225000D01*
X44161Y195000D02*
X66996D01*
X118786Y259457D02*
Y266543D01*
X114849Y259457D02*
Y266543D01*
Y259457D02*
X118786D01*
X114849Y266543D02*
X118786D01*
X200150Y373104D02*
X206449D01*
X200150Y360506D02*
X206449D01*
Y373104D01*
X200150Y360506D02*
Y373104D01*
X522004Y376658D02*
X594996D01*
Y178665D02*
Y376658D01*
X522004Y178665D02*
X594996D01*
X522004D02*
Y376658D01*
X205957Y337968D02*
X213043D01*
X205957Y334032D02*
X213043D01*
Y337968D01*
X205957Y334032D02*
Y337968D01*
X44661Y265000D02*
Y295000D01*
X67496D01*
Y265000D02*
Y295000D01*
X44661Y265000D02*
X67496D01*
X204492Y59276D02*
X268075D01*
Y93803D01*
X204492D02*
X268075D01*
X204492Y59276D02*
Y93803D01*
X272228Y67425D02*
Y70575D01*
X269472Y69000D02*
X272228Y70575D01*
X269472Y69000D02*
X272228Y67425D01*
X87500Y108161D02*
X128000D01*
X87500D02*
Y131000D01*
X128000D01*
Y108161D02*
Y131000D01*
X122031Y259457D02*
Y266543D01*
X125969Y259457D02*
Y266543D01*
X122031D02*
X125969D01*
X122031Y259457D02*
X125969D01*
X85834Y231968D02*
X92920D01*
X85834Y228031D02*
X92920D01*
Y231968D01*
X85834Y228031D02*
Y231968D01*
X101604Y232133D02*
X106722D01*
X101604Y220715D02*
Y232133D01*
Y220715D02*
X106722D01*
Y232133D01*
D13*
X226800Y368700D02*
X246200D01*
D15*
X440970Y236245D02*
G03*
X440970Y236245I-204724J0D01*
G01*
X236245Y117545D02*
Y149041D01*
Y117545D02*
X271678D01*
Y149041D01*
X236245D02*
X271678D01*
X236245Y117545D02*
Y149041D01*
X200812Y117545D02*
X236245D01*
X200812D02*
Y149041D01*
X236245D01*
X288017Y261836D02*
X358883Y210655D01*
X288017D02*
X358883Y261836D01*
Y210655D02*
Y261836D01*
X288017Y210655D02*
X358883D01*
X288017D02*
Y261836D01*
X358883D01*
X200812Y176600D02*
X271678Y121482D01*
X200812D02*
X271678Y176600D01*
X293585Y149041D02*
X323450Y178906D01*
X178906Y149041D02*
X293585D01*
X149041Y178906D02*
X178906Y149041D01*
X149041Y178906D02*
Y293585D01*
X178906Y323450D01*
X293585D01*
X323450Y293585D01*
Y178906D02*
Y293585D01*
D16*
X131750Y316004D02*
X141250D01*
X131750Y163996D02*
Y316004D01*
Y163996D02*
X141250D01*
Y316004D01*
X131750D02*
X141250D01*
X131750Y163996D02*
Y316004D01*
Y163996D02*
X141250D01*
X71750Y316004D02*
X81250D01*
X71750Y163996D02*
Y316004D01*
Y163996D02*
X81250D01*
Y316004D01*
X71750D02*
X81250D01*
X71750Y163996D02*
Y316004D01*
Y163996D02*
X81250D01*
D17*
X43177Y194016D02*
Y225984D01*
X67980D01*
Y194016D02*
Y225984D01*
X43177Y194016D02*
X67980D01*
X119810Y257055D02*
Y268945D01*
X113826Y257055D02*
X119810D01*
X113826D02*
Y268945D01*
X119810D01*
X199166Y377041D02*
X207433D01*
X199166Y356569D02*
Y377041D01*
Y356569D02*
X207433D01*
Y377041D01*
X521020Y377642D02*
X595980D01*
Y177681D02*
Y377642D01*
X521020Y177681D02*
X595980D01*
X521020D02*
Y377642D01*
X203555Y338992D02*
X215445D01*
Y333008D02*
Y338992D01*
X203555Y333008D02*
X215445D01*
X203555D02*
Y338992D01*
X142234Y163012D02*
Y316988D01*
X130766D02*
X142234D01*
X130766Y163012D02*
Y316988D01*
Y163012D02*
X142234D01*
X82234D02*
Y316988D01*
X70766D02*
X82234D01*
X70766Y163012D02*
Y316988D01*
Y163012D02*
X82234D01*
X43677Y264016D02*
Y295984D01*
X68480D01*
Y264016D02*
Y295984D01*
X43677Y264016D02*
X68480D01*
X199492Y98803D02*
X273075D01*
Y54276D02*
Y98803D01*
X199492Y54276D02*
X273075D01*
X199492D02*
Y98803D01*
X86000Y107177D02*
X128984D01*
X86016D02*
Y131980D01*
X86000D02*
X128984D01*
Y107177D02*
Y131980D01*
X121008Y257055D02*
Y268945D01*
X126992D01*
Y257055D02*
Y268945D01*
X121008Y257055D02*
X126992D01*
X83432Y232992D02*
X95322D01*
Y227008D02*
Y232992D01*
X83432Y227008D02*
X95322D01*
X83432D02*
Y232992D01*
X111506Y219731D02*
Y233117D01*
X96821Y219731D02*
X111506D01*
X96821D02*
Y233117D01*
X111506D01*
D54*
X54700Y209200D02*
Y210800D01*
X56300D01*
Y209200D01*
X54700D01*
Y199200D02*
Y200800D01*
X56300D01*
Y199200D01*
X54700D01*
Y219200D02*
Y220800D01*
X56300D01*
Y219200D01*
X54700D01*
X173500Y373542D02*
X172700Y375143D01*
X174300D01*
X173500Y373542D01*
Y353857D02*
X172700Y355457D01*
X174300D01*
X173500Y353857D01*
X293500Y373542D02*
X292700Y375143D01*
X294300D01*
X293500Y373542D01*
Y353857D02*
X292700Y355457D01*
X294300D01*
X293500Y353857D01*
X136500Y309200D02*
X136900Y309600D01*
X137300D01*
X136900Y310000D01*
X137300Y310400D01*
X136900D01*
X136500Y310800D01*
X136100Y310400D01*
X135700D01*
X136100Y310000D01*
X135700Y309600D01*
X136100D01*
X136500Y309200D01*
Y299200D02*
X136900Y299600D01*
X137300D01*
X136900Y300000D01*
X137300Y300400D01*
X136900D01*
X136500Y300800D01*
X136100Y300400D01*
X135700D01*
X136100Y300000D01*
X135700Y299600D01*
X136100D01*
X136500Y299200D01*
Y289200D02*
X136900Y289600D01*
X137300D01*
X136900Y290000D01*
X137300Y290400D01*
X136900D01*
X136500Y290800D01*
X136100Y290400D01*
X135700D01*
X136100Y290000D01*
X135700Y289600D01*
X136100D01*
X136500Y289200D01*
Y279200D02*
X136900Y279600D01*
X137300D01*
X136900Y280000D01*
X137300Y280400D01*
X136900D01*
X136500Y280800D01*
X136100Y280400D01*
X135700D01*
X136100Y280000D01*
X135700Y279600D01*
X136100D01*
X136500Y279200D01*
Y269200D02*
X136900Y269600D01*
X137300D01*
X136900Y270000D01*
X137300Y270400D01*
X136900D01*
X136500Y270800D01*
X136100Y270400D01*
X135700D01*
X136100Y270000D01*
X135700Y269600D01*
X136100D01*
X136500Y269200D01*
Y259200D02*
X136900Y259600D01*
X137300D01*
X136900Y260000D01*
X137300Y260400D01*
X136900D01*
X136500Y260800D01*
X136100Y260400D01*
X135700D01*
X136100Y260000D01*
X135700Y259600D01*
X136100D01*
X136500Y259200D01*
Y249200D02*
X136900Y249600D01*
X137300D01*
X136900Y250000D01*
X137300Y250400D01*
X136900D01*
X136500Y250800D01*
X136100Y250400D01*
X135700D01*
X136100Y250000D01*
X135700Y249600D01*
X136100D01*
X136500Y249200D01*
Y239200D02*
X136900Y239600D01*
X137300D01*
X136900Y240000D01*
X137300Y240400D01*
X136900D01*
X136500Y240800D01*
X136100Y240400D01*
X135700D01*
X136100Y240000D01*
X135700Y239600D01*
X136100D01*
X136500Y239200D01*
Y229200D02*
X136900Y229600D01*
X137300D01*
X136900Y230000D01*
X137300Y230400D01*
X136900D01*
X136500Y230800D01*
X136100Y230400D01*
X135700D01*
X136100Y230000D01*
X135700Y229600D01*
X136100D01*
X136500Y229200D01*
Y219200D02*
X136900Y219600D01*
X137300D01*
X136900Y220000D01*
X137300Y220400D01*
X136900D01*
X136500Y220800D01*
X136100Y220400D01*
X135700D01*
X136100Y220000D01*
X135700Y219600D01*
X136100D01*
X136500Y219200D01*
Y209200D02*
X136900Y209600D01*
X137300D01*
X136900Y210000D01*
X137300Y210400D01*
X136900D01*
X136500Y210800D01*
X136100Y210400D01*
X135700D01*
X136100Y210000D01*
X135700Y209600D01*
X136100D01*
X136500Y209200D01*
Y199200D02*
X136900Y199600D01*
X137300D01*
X136900Y200000D01*
X137300Y200400D01*
X136900D01*
X136500Y200800D01*
X136100Y200400D01*
X135700D01*
X136100Y200000D01*
X135700Y199600D01*
X136100D01*
X136500Y199200D01*
Y189200D02*
X136900Y189600D01*
X137300D01*
X136900Y190000D01*
X137300Y190400D01*
X136900D01*
X136500Y190800D01*
X136100Y190400D01*
X135700D01*
X136100Y190000D01*
X135700Y189600D01*
X136100D01*
X136500Y189200D01*
Y179200D02*
X136900Y179600D01*
X137300D01*
X136900Y180000D01*
X137300Y180400D01*
X136900D01*
X136500Y180800D01*
X136100Y180400D01*
X135700D01*
X136100Y180000D01*
X135700Y179600D01*
X136100D01*
X136500Y179200D01*
Y169200D02*
X136900Y169600D01*
X137300D01*
X136900Y170000D01*
X137300Y170400D01*
X136900D01*
X136500Y170800D01*
X136100Y170400D01*
X135700D01*
X136100Y170000D01*
X135700Y169600D01*
X136100D01*
X136500Y169200D01*
X76500Y309200D02*
X76900Y309600D01*
X77300D01*
X76900Y310000D01*
X77300Y310400D01*
X76900D01*
X76500Y310800D01*
X76100Y310400D01*
X75700D01*
X76100Y310000D01*
X75700Y309600D01*
X76100D01*
X76500Y309200D01*
Y299200D02*
X76900Y299600D01*
X77300D01*
X76900Y300000D01*
X77300Y300400D01*
X76900D01*
X76500Y300800D01*
X76100Y300400D01*
X75700D01*
X76100Y300000D01*
X75700Y299600D01*
X76100D01*
X76500Y299200D01*
Y289200D02*
X76900Y289600D01*
X77300D01*
X76900Y290000D01*
X77300Y290400D01*
X76900D01*
X76500Y290800D01*
X76100Y290400D01*
X75700D01*
X76100Y290000D01*
X75700Y289600D01*
X76100D01*
X76500Y289200D01*
Y279200D02*
X76900Y279600D01*
X77300D01*
X76900Y280000D01*
X77300Y280400D01*
X76900D01*
X76500Y280800D01*
X76100Y280400D01*
X75700D01*
X76100Y280000D01*
X75700Y279600D01*
X76100D01*
X76500Y279200D01*
Y269200D02*
X76900Y269600D01*
X77300D01*
X76900Y270000D01*
X77300Y270400D01*
X76900D01*
X76500Y270800D01*
X76100Y270400D01*
X75700D01*
X76100Y270000D01*
X75700Y269600D01*
X76100D01*
X76500Y269200D01*
Y259200D02*
X76900Y259600D01*
X77300D01*
X76900Y260000D01*
X77300Y260400D01*
X76900D01*
X76500Y260800D01*
X76100Y260400D01*
X75700D01*
X76100Y260000D01*
X75700Y259600D01*
X76100D01*
X76500Y259200D01*
Y249200D02*
X76900Y249600D01*
X77300D01*
X76900Y250000D01*
X77300Y250400D01*
X76900D01*
X76500Y250800D01*
X76100Y250400D01*
X75700D01*
X76100Y250000D01*
X75700Y249600D01*
X76100D01*
X76500Y249200D01*
Y239200D02*
X76900Y239600D01*
X77300D01*
X76900Y240000D01*
X77300Y240400D01*
X76900D01*
X76500Y240800D01*
X76100Y240400D01*
X75700D01*
X76100Y240000D01*
X75700Y239600D01*
X76100D01*
X76500Y239200D01*
Y229200D02*
X76900Y229600D01*
X77300D01*
X76900Y230000D01*
X77300Y230400D01*
X76900D01*
X76500Y230800D01*
X76100Y230400D01*
X75700D01*
X76100Y230000D01*
X75700Y229600D01*
X76100D01*
X76500Y229200D01*
Y219200D02*
X76900Y219600D01*
X77300D01*
X76900Y220000D01*
X77300Y220400D01*
X76900D01*
X76500Y220800D01*
X76100Y220400D01*
X75700D01*
X76100Y220000D01*
X75700Y219600D01*
X76100D01*
X76500Y219200D01*
Y209200D02*
X76900Y209600D01*
X77300D01*
X76900Y210000D01*
X77300Y210400D01*
X76900D01*
X76500Y210800D01*
X76100Y210400D01*
X75700D01*
X76100Y210000D01*
X75700Y209600D01*
X76100D01*
X76500Y209200D01*
Y199200D02*
X76900Y199600D01*
X77300D01*
X76900Y200000D01*
X77300Y200400D01*
X76900D01*
X76500Y200800D01*
X76100Y200400D01*
X75700D01*
X76100Y200000D01*
X75700Y199600D01*
X76100D01*
X76500Y199200D01*
Y189200D02*
X76900Y189600D01*
X77300D01*
X76900Y190000D01*
X77300Y190400D01*
X76900D01*
X76500Y190800D01*
X76100Y190400D01*
X75700D01*
X76100Y190000D01*
X75700Y189600D01*
X76100D01*
X76500Y189200D01*
Y179200D02*
X76900Y179600D01*
X77300D01*
X76900Y180000D01*
X77300Y180400D01*
X76900D01*
X76500Y180800D01*
X76100Y180400D01*
X75700D01*
X76100Y180000D01*
X75700Y179600D01*
X76100D01*
X76500Y179200D01*
Y169200D02*
X76900Y169600D01*
X77300D01*
X76900Y170000D01*
X77300Y170400D01*
X76900D01*
X76500Y170800D01*
X76100Y170400D01*
X75700D01*
X76100Y170000D01*
X75700Y169600D01*
X76100D01*
X76500Y169200D01*
X55200Y279200D02*
Y280800D01*
X56800D01*
Y279200D01*
X55200D01*
Y269200D02*
Y270800D01*
X56800D01*
Y269200D01*
X55200D01*
Y289200D02*
Y290800D01*
X56800D01*
Y289200D01*
X55200D01*
X265011Y83712D02*
X265411Y84512D01*
X265011Y85312D01*
X265811Y84912D01*
X266611Y85312D01*
X266211Y84512D01*
X266611Y83712D01*
X265811Y84112D01*
X265011Y83712D01*
X205956D02*
X206356Y84512D01*
X205956Y85312D01*
X206756Y84912D01*
X207556Y85312D01*
X207156Y84512D01*
X207556Y83712D01*
X206756Y84112D01*
X205956Y83712D01*
X92200Y118700D02*
Y120300D01*
X93800D01*
Y118700D01*
X92200D01*
X112200D02*
Y120300D01*
X113800D01*
Y118700D01*
X112200D01*
X122200D02*
Y120300D01*
X123800D01*
Y118700D01*
X122200D01*
X102200D02*
Y120300D01*
X103800D01*
Y118700D01*
X102200D01*
X94224Y270926D02*
Y270527D01*
X95024D01*
Y270926D01*
X95424D01*
Y271726D01*
X95024D01*
Y272127D01*
X94224D01*
Y271726D01*
X93824D01*
Y270926D01*
X94224D01*
X94100Y256100D02*
Y255700D01*
X94900D01*
Y256100D01*
X95300D01*
Y256900D01*
X94900D01*
Y257300D01*
X94100D01*
Y256900D01*
X93700D01*
Y256100D01*
X94100D01*
D55*
X529300Y201500D02*
G03*
X529300Y201500I-800J0D01*
G01*
Y211500D02*
G03*
X529300Y211500I-800J0D01*
G01*
Y221500D02*
G03*
X529300Y221500I-800J0D01*
G01*
Y231500D02*
G03*
X529300Y231500I-800J0D01*
G01*
Y241500D02*
G03*
X529300Y241500I-800J0D01*
G01*
Y251500D02*
G03*
X529300Y251500I-800J0D01*
G01*
Y261500D02*
G03*
X529300Y261500I-800J0D01*
G01*
Y271500D02*
G03*
X529300Y271500I-800J0D01*
G01*
Y281500D02*
G03*
X529300Y281500I-800J0D01*
G01*
Y291500D02*
G03*
X529300Y291500I-800J0D01*
G01*
Y301500D02*
G03*
X529300Y301500I-800J0D01*
G01*
Y311500D02*
G03*
X529300Y311500I-800J0D01*
G01*
Y321500D02*
G03*
X529300Y321500I-800J0D01*
G01*
Y331500D02*
G03*
X529300Y331500I-800J0D01*
G01*
Y341500D02*
G03*
X529300Y341500I-800J0D01*
G01*
X589300Y201500D02*
G03*
X589300Y201500I-800J0D01*
G01*
Y211500D02*
G03*
X589300Y211500I-800J0D01*
G01*
Y221500D02*
G03*
X589300Y221500I-800J0D01*
G01*
Y231500D02*
G03*
X589300Y231500I-800J0D01*
G01*
Y241500D02*
G03*
X589300Y241500I-800J0D01*
G01*
Y251500D02*
G03*
X589300Y251500I-800J0D01*
G01*
Y261500D02*
G03*
X589300Y261500I-800J0D01*
G01*
Y271500D02*
G03*
X589300Y271500I-800J0D01*
G01*
Y281500D02*
G03*
X589300Y281500I-800J0D01*
G01*
Y291500D02*
G03*
X589300Y291500I-800J0D01*
G01*
Y301500D02*
G03*
X589300Y301500I-800J0D01*
G01*
Y311500D02*
G03*
X589300Y311500I-800J0D01*
G01*
Y321500D02*
G03*
X589300Y321500I-800J0D01*
G01*
Y331500D02*
G03*
X589300Y331500I-800J0D01*
G01*
Y341500D02*
G03*
X589300Y341500I-800J0D01*
G01*
X254800Y69000D02*
G03*
X254800Y69000I-800J0D01*
G01*
X242989D02*
G03*
X242989Y69000I-800J0D01*
G01*
X231178D02*
G03*
X231178Y69000I-800J0D01*
G01*
X219367D02*
G03*
X219367Y69000I-800J0D01*
G01*
X254800Y80811D02*
G03*
X254800Y80811I-800J0D01*
G01*
X242989D02*
G03*
X242989Y80811I-800J0D01*
G01*
X231178D02*
G03*
X231178Y80811I-800J0D01*
G01*
X219367D02*
G03*
X219367Y80811I-800J0D01*
G01*
M02*
