G04*
G04 #@! TF.GenerationSoftware,Altium Limited,Altium Designer,20.0.10 (225)*
G04*
G04 Layer_Color=255*
%FSLAX25Y25*%
%MOIN*%
G70*
G01*
G75*
%ADD10C,0.01181*%
%ADD11C,0.00787*%
%ADD12C,0.00500*%
%ADD13C,0.00600*%
%ADD15C,0.00050*%
%ADD16C,0.00394*%
%ADD17C,0.00197*%
G04:AMPARAMS|DCode=18|XSize=37.01mil|YSize=40.16mil|CornerRadius=3.7mil|HoleSize=0mil|Usage=FLASHONLY|Rotation=270.000|XOffset=0mil|YOffset=0mil|HoleType=Round|Shape=RoundedRectangle|*
%AMROUNDEDRECTD18*
21,1,0.03701,0.03276,0,0,270.0*
21,1,0.02961,0.04016,0,0,270.0*
1,1,0.00740,-0.01638,-0.01480*
1,1,0.00740,-0.01638,0.01480*
1,1,0.00740,0.01638,0.01480*
1,1,0.00740,0.01638,-0.01480*
%
%ADD18ROUNDEDRECTD18*%
%ADD19R,0.05906X0.04921*%
G04:AMPARAMS|DCode=20|XSize=37.01mil|YSize=40.16mil|CornerRadius=3.7mil|HoleSize=0mil|Usage=FLASHONLY|Rotation=0.000|XOffset=0mil|YOffset=0mil|HoleType=Round|Shape=RoundedRectangle|*
%AMROUNDEDRECTD20*
21,1,0.03701,0.03276,0,0,0.0*
21,1,0.02961,0.04016,0,0,0.0*
1,1,0.00740,0.01480,-0.01638*
1,1,0.00740,-0.01480,-0.01638*
1,1,0.00740,-0.01480,0.01638*
1,1,0.00740,0.01480,0.01638*
%
%ADD20ROUNDEDRECTD20*%
%ADD21R,0.26378X0.26378*%
%ADD22R,0.06299X0.11811*%
%ADD23R,0.04646X0.02402*%
%ADD42C,0.07028*%
%ADD43R,0.07028X0.07028*%
%ADD44C,0.06024*%
%ADD45R,0.06024X0.06024*%
%ADD46C,0.10630*%
%ADD47C,0.05472*%
%ADD48R,0.05472X0.05472*%
%ADD49R,0.05984X0.05984*%
%ADD50C,0.05984*%
%ADD51C,0.04016*%
%ADD52R,0.07028X0.07028*%
D10*
X56287Y191890D02*
G03*
X56287Y191890I-394J0D01*
G01*
X56787Y261890D02*
G03*
X56787Y261890I-394J0D01*
G01*
X131504Y119894D02*
G03*
X131504Y119894I-394J0D01*
G01*
D11*
X519524Y342622D02*
G03*
X519524Y342622I-394J0D01*
G01*
X136894Y161437D02*
G03*
X136894Y161437I-394J0D01*
G01*
X76894D02*
G03*
X76894Y161437I-394J0D01*
G01*
X100167Y234751D02*
G03*
X100167Y234751I-394J0D01*
G01*
D12*
X44161Y195000D02*
Y225000D01*
X66996D01*
Y195000D02*
Y225000D01*
X44161Y195000D02*
X66996D01*
X118786Y259457D02*
Y266543D01*
X114849Y259457D02*
Y266543D01*
Y259457D02*
X118786D01*
X114849Y266543D02*
X118786D01*
X200150Y373104D02*
X206449D01*
X200150Y360506D02*
X206449D01*
Y373104D01*
X200150Y360506D02*
Y373104D01*
X522004Y376658D02*
X594996D01*
Y178665D02*
Y376658D01*
X522004Y178665D02*
X594996D01*
X522004D02*
Y376658D01*
X205957Y337968D02*
X213043D01*
X205957Y334032D02*
X213043D01*
Y337968D01*
X205957Y334032D02*
Y337968D01*
X44661Y265000D02*
Y295000D01*
X67496D01*
Y265000D02*
Y295000D01*
X44661Y265000D02*
X67496D01*
X204492Y59276D02*
X268075D01*
Y93803D01*
X204492D02*
X268075D01*
X204492Y59276D02*
Y93803D01*
X272228Y67425D02*
Y70575D01*
X269472Y69000D02*
X272228Y70575D01*
X269472Y69000D02*
X272228Y67425D01*
X87500Y108161D02*
X128000D01*
X87500D02*
Y131000D01*
X128000D01*
Y108161D02*
Y131000D01*
X122031Y259457D02*
Y266543D01*
X125969Y259457D02*
Y266543D01*
X122031D02*
X125969D01*
X122031Y259457D02*
X125969D01*
X85834Y231968D02*
X92920D01*
X85834Y228031D02*
X92920D01*
Y231968D01*
X85834Y228031D02*
Y231968D01*
X101604Y232133D02*
X106722D01*
X101604Y220715D02*
Y232133D01*
Y220715D02*
X106722D01*
Y232133D01*
D13*
X226800Y368700D02*
X246200D01*
D15*
X440970Y236245D02*
G03*
X440970Y236245I-204724J0D01*
G01*
X236245Y117545D02*
Y149041D01*
Y117545D02*
X271678D01*
Y149041D01*
X236245D02*
X271678D01*
X236245Y117545D02*
Y149041D01*
X200812Y117545D02*
X236245D01*
X200812D02*
Y149041D01*
X236245D01*
X288017Y261836D02*
X358883Y210655D01*
X288017D02*
X358883Y261836D01*
Y210655D02*
Y261836D01*
X288017Y210655D02*
X358883D01*
X288017D02*
Y261836D01*
X358883D01*
X200812Y176600D02*
X271678Y121482D01*
X200812D02*
X271678Y176600D01*
X293585Y149041D02*
X323450Y178906D01*
X178906Y149041D02*
X293585D01*
X149041Y178906D02*
X178906Y149041D01*
X149041Y178906D02*
Y293585D01*
X178906Y323450D01*
X293585D01*
X323450Y293585D01*
Y178906D02*
Y293585D01*
D16*
X131750Y316004D02*
X141250D01*
X131750Y163996D02*
Y316004D01*
Y163996D02*
X141250D01*
Y316004D01*
X131750D02*
X141250D01*
X131750Y163996D02*
Y316004D01*
Y163996D02*
X141250D01*
X71750Y316004D02*
X81250D01*
X71750Y163996D02*
Y316004D01*
Y163996D02*
X81250D01*
Y316004D01*
X71750D02*
X81250D01*
X71750Y163996D02*
Y316004D01*
Y163996D02*
X81250D01*
D17*
X43177Y194016D02*
Y225984D01*
X67980D01*
Y194016D02*
Y225984D01*
X43177Y194016D02*
X67980D01*
X119810Y257055D02*
Y268945D01*
X113826Y257055D02*
X119810D01*
X113826D02*
Y268945D01*
X119810D01*
X199166Y377041D02*
X207433D01*
X199166Y356569D02*
Y377041D01*
Y356569D02*
X207433D01*
Y377041D01*
X521020Y377642D02*
X595980D01*
Y177681D02*
Y377642D01*
X521020Y177681D02*
X595980D01*
X521020D02*
Y377642D01*
X203555Y338992D02*
X215445D01*
Y333008D02*
Y338992D01*
X203555Y333008D02*
X215445D01*
X203555D02*
Y338992D01*
X142234Y163012D02*
Y316988D01*
X130766D02*
X142234D01*
X130766Y163012D02*
Y316988D01*
Y163012D02*
X142234D01*
X82234D02*
Y316988D01*
X70766D02*
X82234D01*
X70766Y163012D02*
Y316988D01*
Y163012D02*
X82234D01*
X43677Y264016D02*
Y295984D01*
X68480D01*
Y264016D02*
Y295984D01*
X43677Y264016D02*
X68480D01*
X199492Y98803D02*
X273075D01*
Y54276D02*
Y98803D01*
X199492Y54276D02*
X273075D01*
X199492D02*
Y98803D01*
X86000Y107177D02*
X128984D01*
X86016D02*
Y131980D01*
X86000D02*
X128984D01*
Y107177D02*
Y131980D01*
X121008Y257055D02*
Y268945D01*
X126992D01*
Y257055D02*
Y268945D01*
X121008Y257055D02*
X126992D01*
X83432Y232992D02*
X95322D01*
Y227008D02*
Y232992D01*
X83432Y227008D02*
X95322D01*
X83432D02*
Y232992D01*
X111506Y219731D02*
Y233117D01*
X96821Y219731D02*
X111506D01*
X96821D02*
Y233117D01*
X111506D01*
D18*
X116818Y266110D02*
D03*
Y259890D02*
D03*
X124000D02*
D03*
Y266110D02*
D03*
D19*
X203299Y373596D02*
D03*
Y360014D02*
D03*
D20*
X206390Y336000D02*
D03*
X212610D02*
D03*
X86267Y230000D02*
D03*
X92487D02*
D03*
D21*
X236500Y373500D02*
D03*
D22*
X245555Y347551D02*
D03*
X227445D02*
D03*
D23*
X108199Y226424D02*
D03*
X100128Y222822D02*
D03*
Y230026D02*
D03*
D42*
X55500Y210000D02*
D03*
Y220000D02*
D03*
X56000Y280000D02*
D03*
Y290000D02*
D03*
X93000Y119500D02*
D03*
X113000D02*
D03*
X103000D02*
D03*
D43*
X55500Y200000D02*
D03*
X56000Y270000D02*
D03*
D44*
X528500Y201500D02*
D03*
Y211500D02*
D03*
Y221500D02*
D03*
Y231500D02*
D03*
Y241500D02*
D03*
Y251500D02*
D03*
Y261500D02*
D03*
Y271500D02*
D03*
Y281500D02*
D03*
Y291500D02*
D03*
Y301500D02*
D03*
Y311500D02*
D03*
Y321500D02*
D03*
Y331500D02*
D03*
X588500Y201500D02*
D03*
Y211500D02*
D03*
Y221500D02*
D03*
Y231500D02*
D03*
Y241500D02*
D03*
Y251500D02*
D03*
Y261500D02*
D03*
Y271500D02*
D03*
Y281500D02*
D03*
Y291500D02*
D03*
Y301500D02*
D03*
Y311500D02*
D03*
Y321500D02*
D03*
Y331500D02*
D03*
D45*
X528500Y341500D02*
D03*
X588500D02*
D03*
D46*
X173500Y374342D02*
D03*
Y354658D02*
D03*
X293500Y374342D02*
D03*
Y354658D02*
D03*
D47*
X136500Y310000D02*
D03*
Y300000D02*
D03*
Y290000D02*
D03*
Y280000D02*
D03*
Y270000D02*
D03*
Y260000D02*
D03*
Y250000D02*
D03*
Y240000D02*
D03*
Y230000D02*
D03*
Y220000D02*
D03*
Y210000D02*
D03*
Y200000D02*
D03*
Y190000D02*
D03*
Y180000D02*
D03*
X76500Y310000D02*
D03*
Y300000D02*
D03*
Y290000D02*
D03*
Y280000D02*
D03*
Y270000D02*
D03*
Y260000D02*
D03*
Y250000D02*
D03*
Y240000D02*
D03*
Y230000D02*
D03*
Y220000D02*
D03*
Y210000D02*
D03*
Y200000D02*
D03*
Y190000D02*
D03*
Y180000D02*
D03*
D48*
X136500Y170000D02*
D03*
X76500D02*
D03*
D49*
X254000Y69000D02*
D03*
D50*
X242189D02*
D03*
X230378D02*
D03*
X218567D02*
D03*
X254000Y80811D02*
D03*
X242189D02*
D03*
X230378D02*
D03*
X218567D02*
D03*
D51*
X265811Y84512D02*
D03*
X206756D02*
D03*
D52*
X123000Y119500D02*
D03*
M02*
