G04*
G04 #@! TF.GenerationSoftware,Altium Limited,Altium Designer,20.0.10 (225)*
G04*
G04 Layer_Physical_Order=1*
G04 Layer_Color=255*
%FSLAX25Y25*%
%MOIN*%
G70*
G01*
G75*
%ADD10C,0.01181*%
%ADD11C,0.00787*%
%ADD12C,0.00500*%
%ADD13C,0.00600*%
%ADD14C,0.01000*%
%ADD15C,0.00050*%
%ADD16C,0.00394*%
%ADD17C,0.00197*%
G04:AMPARAMS|DCode=18|XSize=37.01mil|YSize=40.16mil|CornerRadius=3.7mil|HoleSize=0mil|Usage=FLASHONLY|Rotation=270.000|XOffset=0mil|YOffset=0mil|HoleType=Round|Shape=RoundedRectangle|*
%AMROUNDEDRECTD18*
21,1,0.03701,0.03276,0,0,270.0*
21,1,0.02961,0.04016,0,0,270.0*
1,1,0.00740,-0.01638,-0.01480*
1,1,0.00740,-0.01638,0.01480*
1,1,0.00740,0.01638,0.01480*
1,1,0.00740,0.01638,-0.01480*
%
%ADD18ROUNDEDRECTD18*%
%ADD19R,0.05906X0.04921*%
G04:AMPARAMS|DCode=20|XSize=37.01mil|YSize=40.16mil|CornerRadius=3.7mil|HoleSize=0mil|Usage=FLASHONLY|Rotation=0.000|XOffset=0mil|YOffset=0mil|HoleType=Round|Shape=RoundedRectangle|*
%AMROUNDEDRECTD20*
21,1,0.03701,0.03276,0,0,0.0*
21,1,0.02961,0.04016,0,0,0.0*
1,1,0.00740,0.01480,-0.01638*
1,1,0.00740,-0.01480,-0.01638*
1,1,0.00740,-0.01480,0.01638*
1,1,0.00740,0.01480,0.01638*
%
%ADD20ROUNDEDRECTD20*%
%ADD21R,0.26378X0.26378*%
%ADD22R,0.06299X0.11811*%
%ADD23R,0.04646X0.02402*%
%ADD42C,0.07028*%
%ADD43R,0.07028X0.07028*%
%ADD44C,0.06024*%
%ADD45R,0.06024X0.06024*%
%ADD46C,0.10630*%
%ADD47C,0.05472*%
%ADD48R,0.05472X0.05472*%
%ADD49R,0.05984X0.05984*%
%ADD50C,0.05984*%
%ADD51C,0.04016*%
%ADD52R,0.07028X0.07028*%
%ADD53C,0.05000*%
G36*
X441002Y441572D02*
X441355Y441219D01*
X440941Y32124D01*
X31699Y32124D01*
X31699Y441572D01*
X441002Y441572D01*
D02*
G37*
%LPC*%
G36*
X294000Y380639D02*
Y374843D01*
X299796D01*
X299724Y375581D01*
X299362Y376771D01*
X298776Y377868D01*
X297987Y378830D01*
X297025Y379619D01*
X295928Y380205D01*
X294738Y380566D01*
X294000Y380639D01*
D02*
G37*
G36*
X174000D02*
Y374843D01*
X179796D01*
X179724Y375581D01*
X179362Y376771D01*
X178776Y377868D01*
X177987Y378830D01*
X177025Y379619D01*
X175928Y380205D01*
X174738Y380566D01*
X174000Y380639D01*
D02*
G37*
G36*
X293000D02*
X292262Y380566D01*
X291072Y380205D01*
X289975Y379619D01*
X289013Y378830D01*
X288224Y377868D01*
X287637Y376771D01*
X287276Y375581D01*
X287204Y374843D01*
X293000D01*
Y380639D01*
D02*
G37*
G36*
X173000D02*
X172262Y380566D01*
X171072Y380205D01*
X169975Y379619D01*
X169013Y378830D01*
X168224Y377868D01*
X167638Y376771D01*
X167276Y375581D01*
X167204Y374843D01*
X173000D01*
Y380639D01*
D02*
G37*
G36*
X299796Y373843D02*
X294000D01*
Y368046D01*
X294738Y368119D01*
X295928Y368480D01*
X297025Y369066D01*
X297987Y369856D01*
X298776Y370817D01*
X299362Y371914D01*
X299724Y373105D01*
X299796Y373843D01*
D02*
G37*
G36*
X179796D02*
X174000D01*
Y368046D01*
X174738Y368119D01*
X175928Y368480D01*
X177025Y369066D01*
X177987Y369856D01*
X178776Y370817D01*
X179362Y371914D01*
X179724Y373105D01*
X179796Y373843D01*
D02*
G37*
G36*
X293000D02*
X287204D01*
X287276Y373105D01*
X287637Y371914D01*
X288224Y370817D01*
X289013Y369856D01*
X289975Y369066D01*
X291072Y368480D01*
X292262Y368119D01*
X293000Y368046D01*
Y373843D01*
D02*
G37*
G36*
X173000D02*
X167204D01*
X167276Y373105D01*
X167638Y371914D01*
X168224Y370817D01*
X169013Y369856D01*
X169975Y369066D01*
X171072Y368480D01*
X172262Y368119D01*
X173000Y368046D01*
Y373843D01*
D02*
G37*
G36*
X260000Y414020D02*
X208276D01*
X207885Y413942D01*
X207555Y413721D01*
X195279Y401445D01*
X195058Y401115D01*
X194980Y400724D01*
Y394529D01*
X168000D01*
X167415Y394413D01*
X166919Y394081D01*
X93543Y320706D01*
X93211Y320210D01*
X93095Y319624D01*
Y274481D01*
X92859Y274384D01*
X92128Y273823D01*
X91567Y273092D01*
X91214Y272240D01*
X91094Y271326D01*
X91214Y270413D01*
X91567Y269561D01*
X92128Y268830D01*
X92859Y268269D01*
X93711Y267917D01*
X94624Y267796D01*
X95538Y267917D01*
X96389Y268269D01*
X97120Y268830D01*
X97681Y269561D01*
X98034Y270413D01*
X98154Y271326D01*
X98034Y272240D01*
X97681Y273092D01*
X97120Y273823D01*
X96389Y274384D01*
X96154Y274481D01*
Y318991D01*
X168633Y391471D01*
X194980D01*
X194980Y367500D01*
X195058Y367110D01*
X195118Y367020D01*
X194851Y366520D01*
X193000D01*
X192610Y366442D01*
X192279Y366221D01*
X191578Y365520D01*
X163500D01*
X163110Y365442D01*
X162779Y365221D01*
X162558Y364890D01*
X162480Y364500D01*
Y344500D01*
X162558Y344110D01*
X162779Y343779D01*
X163110Y343558D01*
X163500Y343480D01*
X189500D01*
X189890Y343558D01*
X190221Y343779D01*
X198422Y351980D01*
X210000D01*
X210390Y352058D01*
X210721Y352279D01*
X210942Y352610D01*
X211020Y353000D01*
Y365331D01*
X211465Y365552D01*
X211502Y365556D01*
X212480Y364578D01*
Y359000D01*
X212558Y358610D01*
X212779Y358279D01*
X213110Y358058D01*
X213500Y357980D01*
X260000Y357980D01*
X260390Y358058D01*
X260721Y358279D01*
X260942Y358610D01*
X261020Y359000D01*
X261020Y413000D01*
X260942Y413390D01*
X260721Y413721D01*
X260390Y413942D01*
X260000Y414020D01*
D02*
G37*
G36*
X268000Y363520D02*
X267610Y363442D01*
X267279Y363221D01*
X260078Y356020D01*
X240000D01*
X239610Y355942D01*
X239279Y355721D01*
X239058Y355390D01*
X238980Y355000D01*
Y340000D01*
X239058Y339610D01*
X239279Y339279D01*
X239610Y339058D01*
X240000Y338980D01*
X305000D01*
X305390Y339058D01*
X305721Y339279D01*
X305942Y339610D01*
X306020Y340000D01*
Y362500D01*
X305942Y362890D01*
X305721Y363221D01*
X305390Y363442D01*
X305000Y363520D01*
X268000Y363520D01*
D02*
G37*
G36*
X231594Y354457D02*
X223295D01*
Y340646D01*
X225916D01*
Y340078D01*
X223366Y337529D01*
X215488D01*
Y337638D01*
X215381Y338172D01*
X215078Y338626D01*
X214625Y338928D01*
X214090Y339035D01*
X211130D01*
X210595Y338928D01*
X210142Y338626D01*
X209839Y338172D01*
X209755Y337748D01*
X209245D01*
X209161Y338172D01*
X208858Y338626D01*
X208405Y338928D01*
X207870Y339035D01*
X204909D01*
X204375Y338928D01*
X203922Y338626D01*
X203619Y338172D01*
X203513Y337638D01*
Y337529D01*
X151500D01*
X150915Y337413D01*
X150419Y337081D01*
X107419Y294081D01*
X107087Y293585D01*
X106971Y293000D01*
Y259000D01*
X107087Y258415D01*
X107419Y257919D01*
X116419Y248919D01*
X116915Y248587D01*
X117500Y248471D01*
X133089D01*
X133236Y248116D01*
X133835Y247335D01*
X134616Y246736D01*
X135525Y246360D01*
X136500Y246232D01*
X137475Y246360D01*
X138384Y246736D01*
X139165Y247335D01*
X139764Y248116D01*
X140140Y249025D01*
X140269Y250000D01*
X140140Y250975D01*
X139764Y251884D01*
X139165Y252665D01*
X138384Y253264D01*
X137475Y253640D01*
X136500Y253768D01*
X135525Y253640D01*
X134616Y253264D01*
X133835Y252665D01*
X133236Y251884D01*
X133089Y251529D01*
X118133D01*
X110029Y259633D01*
Y292367D01*
X152134Y334471D01*
X203513D01*
Y334362D01*
X203619Y333828D01*
X203922Y333374D01*
X204375Y333072D01*
X204909Y332965D01*
X207870D01*
X208405Y333072D01*
X208858Y333374D01*
X209161Y333828D01*
X209245Y334252D01*
X209755D01*
X209839Y333828D01*
X210142Y333374D01*
X210595Y333072D01*
X211130Y332965D01*
X214090D01*
X214625Y333072D01*
X215078Y333374D01*
X215381Y333828D01*
X215488Y334362D01*
Y334471D01*
X224000D01*
X224585Y334587D01*
X225081Y334919D01*
X228526Y338363D01*
X228858Y338860D01*
X228974Y339445D01*
Y340646D01*
X231594D01*
Y354457D01*
D02*
G37*
G36*
X136500Y313769D02*
X135525Y313640D01*
X134616Y313264D01*
X133835Y312665D01*
X133236Y311884D01*
X132860Y310975D01*
X132731Y310000D01*
X132860Y309025D01*
X133236Y308116D01*
X133835Y307335D01*
X134616Y306736D01*
X135525Y306360D01*
X136500Y306231D01*
X137475Y306360D01*
X138384Y306736D01*
X139165Y307335D01*
X139764Y308116D01*
X140140Y309025D01*
X140269Y310000D01*
X140140Y310975D01*
X139764Y311884D01*
X139165Y312665D01*
X138384Y313264D01*
X137475Y313640D01*
X136500Y313769D01*
D02*
G37*
G36*
X76500D02*
X75525Y313640D01*
X74616Y313264D01*
X73835Y312665D01*
X73236Y311884D01*
X72860Y310975D01*
X72732Y310000D01*
X72860Y309025D01*
X73236Y308116D01*
X73835Y307335D01*
X74616Y306736D01*
X75525Y306360D01*
X76500Y306231D01*
X77475Y306360D01*
X78384Y306736D01*
X79165Y307335D01*
X79764Y308116D01*
X80140Y309025D01*
X80269Y310000D01*
X80140Y310975D01*
X79764Y311884D01*
X79165Y312665D01*
X78384Y313264D01*
X77475Y313640D01*
X76500Y313769D01*
D02*
G37*
G36*
Y303768D02*
X75525Y303640D01*
X74616Y303264D01*
X73835Y302665D01*
X73236Y301884D01*
X72860Y300975D01*
X72732Y300000D01*
X72860Y299025D01*
X73236Y298116D01*
X73835Y297335D01*
X74616Y296736D01*
X75525Y296360D01*
X76500Y296232D01*
X77475Y296360D01*
X78384Y296736D01*
X79165Y297335D01*
X79764Y298116D01*
X80140Y299025D01*
X80269Y300000D01*
X80140Y300975D01*
X79764Y301884D01*
X79165Y302665D01*
X78384Y303264D01*
X77475Y303640D01*
X76500Y303768D01*
D02*
G37*
G36*
X178906Y324496D02*
X178684Y324452D01*
X178516Y324419D01*
X178516Y324419D01*
X178516Y324419D01*
X178331Y324295D01*
X178185Y324198D01*
X148991Y295015D01*
X148529Y295206D01*
Y295500D01*
X148413Y296085D01*
X148081Y296581D01*
X143581Y301081D01*
X143085Y301413D01*
X142500Y301529D01*
X139911D01*
X139764Y301884D01*
X139165Y302665D01*
X138384Y303264D01*
X137475Y303640D01*
X136500Y303768D01*
X135525Y303640D01*
X134616Y303264D01*
X133835Y302665D01*
X133236Y301884D01*
X133089Y301529D01*
X129000D01*
X128415Y301413D01*
X127919Y301081D01*
X122919Y296081D01*
X122587Y295585D01*
X122471Y295000D01*
Y268987D01*
X122362D01*
X121828Y268881D01*
X121374Y268578D01*
X121072Y268125D01*
X120965Y267590D01*
Y264630D01*
X121072Y264095D01*
X121374Y263642D01*
X121828Y263339D01*
X122252Y263255D01*
Y262745D01*
X121828Y262661D01*
X121374Y262358D01*
X121072Y261905D01*
X120975Y261419D01*
X119843D01*
X119746Y261905D01*
X119444Y262358D01*
X118990Y262661D01*
X118566Y262745D01*
Y263255D01*
X118990Y263339D01*
X119444Y263642D01*
X119746Y264095D01*
X119853Y264630D01*
Y265610D01*
X116818D01*
X113783D01*
Y264630D01*
X113890Y264095D01*
X114192Y263642D01*
X114646Y263339D01*
X115070Y263255D01*
Y262745D01*
X114646Y262661D01*
X114192Y262358D01*
X113890Y261905D01*
X113783Y261370D01*
Y258410D01*
X113890Y257875D01*
X114192Y257422D01*
X114646Y257119D01*
X115180Y257013D01*
X118456D01*
X118990Y257119D01*
X119444Y257422D01*
X119746Y257875D01*
X119843Y258360D01*
X120975D01*
X121072Y257875D01*
X121374Y257422D01*
X121828Y257119D01*
X122362Y257013D01*
X125638D01*
X126172Y257119D01*
X126626Y257422D01*
X126928Y257875D01*
X127035Y258410D01*
Y258416D01*
X133112D01*
X133236Y258116D01*
X133835Y257335D01*
X134616Y256736D01*
X135525Y256360D01*
X136500Y256231D01*
X137475Y256360D01*
X138384Y256736D01*
X139165Y257335D01*
X139764Y258116D01*
X139911Y258471D01*
X141367D01*
X142471Y257366D01*
Y159134D01*
X111919Y128581D01*
X111587Y128085D01*
X111471Y127500D01*
Y123752D01*
X110724Y123443D01*
X109781Y122719D01*
X109057Y121776D01*
X108602Y120678D01*
X108447Y119500D01*
X108602Y118322D01*
X109057Y117224D01*
X109781Y116281D01*
X110724Y115557D01*
X111822Y115102D01*
X113000Y114947D01*
X114178Y115102D01*
X115276Y115557D01*
X116219Y116281D01*
X116943Y117224D01*
X117398Y118322D01*
X117553Y119500D01*
X117398Y120678D01*
X116943Y121776D01*
X116219Y122719D01*
X115276Y123443D01*
X114529Y123752D01*
Y126866D01*
X144971Y157308D01*
X145408Y157171D01*
X145471Y157123D01*
Y156633D01*
X121919Y133081D01*
X121587Y132585D01*
X121471Y132000D01*
Y124014D01*
X118486D01*
Y114986D01*
X127514D01*
Y124014D01*
X124529D01*
Y131367D01*
X148081Y154919D01*
X148413Y155415D01*
X148529Y156000D01*
Y177171D01*
X148999Y177342D01*
X199980Y116861D01*
X200014Y116834D01*
X200038Y116797D01*
X200168Y116710D01*
X200291Y116613D01*
X200333Y116601D01*
X200369Y116576D01*
X200523Y116546D01*
X200673Y116502D01*
X200716Y116507D01*
X200759Y116499D01*
X271678D01*
X271695Y116502D01*
X271712Y116499D01*
X271890Y116541D01*
X272069Y116576D01*
X272083Y116586D01*
X272099Y116589D01*
X272248Y116696D01*
X272399Y116797D01*
X272409Y116811D01*
X272423Y116821D01*
X359654Y209905D01*
X359750Y210060D01*
X359852Y210212D01*
X359855Y210228D01*
X359864Y210243D01*
X359894Y210423D01*
X359929Y210602D01*
Y261836D01*
X359926Y261851D01*
X359929Y261866D01*
X359888Y262045D01*
X359852Y262226D01*
X359843Y262239D01*
X359840Y262253D01*
X359733Y262403D01*
X359631Y262557D01*
X359618Y262565D01*
X359609Y262578D01*
X294277Y324211D01*
X294121Y324308D01*
X293967Y324411D01*
X293952Y324414D01*
X293940Y324422D01*
X293758Y324453D01*
X293577Y324488D01*
X178906Y324496D01*
D02*
G37*
G36*
X56500Y294487D02*
Y290500D01*
X60487D01*
X60398Y291178D01*
X59943Y292276D01*
X59219Y293219D01*
X58276Y293943D01*
X57178Y294398D01*
X56500Y294487D01*
D02*
G37*
G36*
X55500D02*
X54822Y294398D01*
X53724Y293943D01*
X52781Y293219D01*
X52057Y292276D01*
X51602Y291178D01*
X51513Y290500D01*
X55500D01*
Y294487D01*
D02*
G37*
G36*
X76500Y293769D02*
X75525Y293640D01*
X74616Y293264D01*
X73835Y292665D01*
X73236Y291884D01*
X72860Y290975D01*
X72732Y290000D01*
X72860Y289025D01*
X73236Y288116D01*
X73835Y287335D01*
X74616Y286736D01*
X75525Y286360D01*
X76500Y286231D01*
X77475Y286360D01*
X78384Y286736D01*
X79165Y287335D01*
X79764Y288116D01*
X80140Y289025D01*
X80269Y290000D01*
X80140Y290975D01*
X79764Y291884D01*
X79165Y292665D01*
X78384Y293264D01*
X77475Y293640D01*
X76500Y293769D01*
D02*
G37*
G36*
X60487Y289500D02*
X56500D01*
Y285513D01*
X57178Y285602D01*
X58276Y286057D01*
X59219Y286781D01*
X59943Y287724D01*
X60398Y288822D01*
X60487Y289500D01*
D02*
G37*
G36*
X55500D02*
X51513D01*
X51602Y288822D01*
X52057Y287724D01*
X52781Y286781D01*
X53724Y286057D01*
X54822Y285602D01*
X55500Y285513D01*
Y289500D01*
D02*
G37*
G36*
X56000Y284553D02*
X54822Y284398D01*
X53724Y283943D01*
X52781Y283219D01*
X52057Y282276D01*
X51602Y281178D01*
X51447Y280000D01*
X51602Y278822D01*
X52057Y277724D01*
X52781Y276781D01*
X53724Y276057D01*
X54822Y275602D01*
X56000Y275447D01*
X57178Y275602D01*
X58276Y276057D01*
X59219Y276781D01*
X59943Y277724D01*
X60252Y278471D01*
X73089D01*
X73236Y278116D01*
X73835Y277335D01*
X74616Y276736D01*
X75525Y276360D01*
X76500Y276232D01*
X77475Y276360D01*
X78384Y276736D01*
X79165Y277335D01*
X79764Y278116D01*
X80140Y279025D01*
X80269Y280000D01*
X80140Y280975D01*
X79764Y281884D01*
X79165Y282665D01*
X78384Y283264D01*
X77475Y283640D01*
X76500Y283769D01*
X75525Y283640D01*
X74616Y283264D01*
X73835Y282665D01*
X73236Y281884D01*
X73089Y281529D01*
X60252D01*
X59943Y282276D01*
X59219Y283219D01*
X58276Y283943D01*
X57178Y284398D01*
X56000Y284553D01*
D02*
G37*
G36*
X118456Y268987D02*
X117318D01*
Y266610D01*
X119853D01*
Y267590D01*
X119746Y268125D01*
X119444Y268578D01*
X118990Y268881D01*
X118456Y268987D01*
D02*
G37*
G36*
X116318D02*
X115180D01*
X114646Y268881D01*
X114192Y268578D01*
X113890Y268125D01*
X113783Y267590D01*
Y266610D01*
X116318D01*
Y268987D01*
D02*
G37*
G36*
X76500Y253768D02*
X75525Y253640D01*
X74616Y253264D01*
X73835Y252665D01*
X73236Y251884D01*
X73089Y251529D01*
X53000D01*
X52415Y251413D01*
X51919Y251081D01*
X42919Y242081D01*
X42587Y241585D01*
X42471Y241000D01*
Y175000D01*
X42587Y174415D01*
X42919Y173919D01*
X74471Y142367D01*
Y115000D01*
X74587Y114415D01*
X74919Y113919D01*
X88919Y99919D01*
X89415Y99587D01*
X90000Y99471D01*
X197745D01*
X214878Y82337D01*
X214678Y81853D01*
X214540Y80811D01*
X214678Y79769D01*
X215080Y78798D01*
X215720Y77964D01*
X216554Y77324D01*
X217525Y76922D01*
X218567Y76784D01*
X219609Y76922D01*
X220580Y77324D01*
X221414Y77964D01*
X222054Y78798D01*
X222456Y79769D01*
X222593Y80811D01*
X222456Y81853D01*
X222054Y82824D01*
X221414Y83658D01*
X220580Y84298D01*
X219609Y84700D01*
X218567Y84838D01*
X217525Y84700D01*
X217041Y84500D01*
X199459Y102081D01*
X198963Y102413D01*
X198378Y102529D01*
X90633D01*
X77529Y115633D01*
Y143000D01*
X77413Y143585D01*
X77081Y144081D01*
X45529Y175634D01*
Y240367D01*
X53633Y248471D01*
X73089D01*
X73236Y248116D01*
X73835Y247335D01*
X74616Y246736D01*
X75525Y246360D01*
X76500Y246232D01*
X77475Y246360D01*
X78384Y246736D01*
X79165Y247335D01*
X79764Y248116D01*
X80140Y249025D01*
X80269Y250000D01*
X80140Y250975D01*
X79764Y251884D01*
X79165Y252665D01*
X78384Y253264D01*
X77475Y253640D01*
X76500Y253768D01*
D02*
G37*
G36*
X136500Y243769D02*
X135525Y243640D01*
X134616Y243264D01*
X133835Y242665D01*
X133236Y241884D01*
X132860Y240975D01*
X132731Y240000D01*
X132860Y239025D01*
X133236Y238116D01*
X133835Y237335D01*
X134616Y236736D01*
X135525Y236360D01*
X136500Y236231D01*
X137475Y236360D01*
X138384Y236736D01*
X139165Y237335D01*
X139764Y238116D01*
X140140Y239025D01*
X140269Y240000D01*
X140140Y240975D01*
X139764Y241884D01*
X139165Y242665D01*
X138384Y243264D01*
X137475Y243640D01*
X136500Y243769D01*
D02*
G37*
G36*
X76500D02*
X75525Y243640D01*
X74616Y243264D01*
X73835Y242665D01*
X73236Y241884D01*
X72860Y240975D01*
X72732Y240000D01*
X72860Y239025D01*
X73236Y238116D01*
X73835Y237335D01*
X74616Y236736D01*
X75525Y236360D01*
X76500Y236231D01*
X77475Y236360D01*
X78384Y236736D01*
X79165Y237335D01*
X79764Y238116D01*
X80140Y239025D01*
X80269Y240000D01*
X80140Y240975D01*
X79764Y241884D01*
X79165Y242665D01*
X78384Y243264D01*
X77475Y243640D01*
X76500Y243769D01*
D02*
G37*
G36*
Y233769D02*
X75525Y233640D01*
X74616Y233264D01*
X73835Y232665D01*
X73236Y231884D01*
X72860Y230975D01*
X72732Y230000D01*
X72860Y229025D01*
X73236Y228116D01*
X73835Y227335D01*
X74616Y226736D01*
X75525Y226360D01*
X76500Y226232D01*
X77475Y226360D01*
X78384Y226736D01*
X79165Y227335D01*
X79764Y228116D01*
X79911Y228471D01*
X83390D01*
Y228362D01*
X83496Y227828D01*
X83799Y227374D01*
X84252Y227072D01*
X84786Y226965D01*
X87747D01*
X88282Y227072D01*
X88735Y227374D01*
X89038Y227828D01*
X89122Y228252D01*
X89632D01*
X89716Y227828D01*
X90019Y227374D01*
X90472Y227072D01*
X91007Y226965D01*
X93968D01*
X94502Y227072D01*
X94955Y227374D01*
X95258Y227828D01*
X95364Y228362D01*
Y228497D01*
X96805D01*
Y227826D01*
X103451D01*
Y232227D01*
X96805D01*
Y231556D01*
X95364D01*
Y231638D01*
X95258Y232172D01*
X94955Y232626D01*
X94502Y232928D01*
X93968Y233035D01*
X91007D01*
X90472Y232928D01*
X90019Y232626D01*
X89716Y232172D01*
X89632Y231748D01*
X89122D01*
X89038Y232172D01*
X88735Y232626D01*
X88282Y232928D01*
X87747Y233035D01*
X84786D01*
X84252Y232928D01*
X83799Y232626D01*
X83496Y232172D01*
X83390Y231638D01*
Y231529D01*
X79911D01*
X79764Y231884D01*
X79165Y232665D01*
X78384Y233264D01*
X77475Y233640D01*
X76500Y233769D01*
D02*
G37*
G36*
X136500D02*
X135525Y233640D01*
X134616Y233264D01*
X133835Y232665D01*
X133236Y231884D01*
X132860Y230975D01*
X132731Y230000D01*
X132860Y229025D01*
X133236Y228116D01*
X133835Y227335D01*
X134616Y226736D01*
X135525Y226360D01*
X136500Y226232D01*
X137475Y226360D01*
X138384Y226736D01*
X139165Y227335D01*
X139764Y228116D01*
X140140Y229025D01*
X140269Y230000D01*
X140140Y230975D01*
X139764Y231884D01*
X139165Y232665D01*
X138384Y233264D01*
X137475Y233640D01*
X136500Y233769D01*
D02*
G37*
G36*
X103451Y225022D02*
X100628D01*
Y223322D01*
X103451D01*
Y225022D01*
D02*
G37*
G36*
X99628D02*
X96805D01*
Y223322D01*
X99628D01*
Y225022D01*
D02*
G37*
G36*
X103451Y222322D02*
X100628D01*
Y220621D01*
X103451D01*
Y222322D01*
D02*
G37*
G36*
X99628D02*
X96805D01*
Y220621D01*
X99628D01*
Y222322D01*
D02*
G37*
G36*
X56000Y224487D02*
Y220500D01*
X59987D01*
X59898Y221178D01*
X59443Y222276D01*
X58719Y223219D01*
X57776Y223943D01*
X56678Y224398D01*
X56000Y224487D01*
D02*
G37*
G36*
X55000D02*
X54322Y224398D01*
X53224Y223943D01*
X52281Y223219D01*
X51557Y222276D01*
X51102Y221178D01*
X51013Y220500D01*
X55000D01*
Y224487D01*
D02*
G37*
G36*
X136500Y223768D02*
X135525Y223640D01*
X134616Y223264D01*
X133835Y222665D01*
X133236Y221884D01*
X132860Y220975D01*
X132731Y220000D01*
X132860Y219025D01*
X133236Y218116D01*
X133835Y217335D01*
X134616Y216736D01*
X135525Y216360D01*
X136500Y216231D01*
X137475Y216360D01*
X138384Y216736D01*
X139165Y217335D01*
X139764Y218116D01*
X140140Y219025D01*
X140269Y220000D01*
X140140Y220975D01*
X139764Y221884D01*
X139165Y222665D01*
X138384Y223264D01*
X137475Y223640D01*
X136500Y223768D01*
D02*
G37*
G36*
X59987Y219500D02*
X56000D01*
Y215513D01*
X56678Y215602D01*
X57776Y216057D01*
X58719Y216781D01*
X59443Y217724D01*
X59898Y218822D01*
X59987Y219500D01*
D02*
G37*
G36*
X55000D02*
X51013D01*
X51102Y218822D01*
X51557Y217724D01*
X52281Y216781D01*
X53224Y216057D01*
X54322Y215602D01*
X55000Y215513D01*
Y219500D01*
D02*
G37*
G36*
X136500Y213769D02*
X135525Y213640D01*
X134616Y213264D01*
X133835Y212665D01*
X133236Y211884D01*
X132860Y210975D01*
X132731Y210000D01*
X132860Y209025D01*
X133236Y208116D01*
X133835Y207335D01*
X134616Y206736D01*
X135525Y206360D01*
X136500Y206231D01*
X137475Y206360D01*
X138384Y206736D01*
X139165Y207335D01*
X139764Y208116D01*
X140140Y209025D01*
X140269Y210000D01*
X140140Y210975D01*
X139764Y211884D01*
X139165Y212665D01*
X138384Y213264D01*
X137475Y213640D01*
X136500Y213769D01*
D02*
G37*
G36*
X76500D02*
X75525Y213640D01*
X74616Y213264D01*
X73835Y212665D01*
X73236Y211884D01*
X72860Y210975D01*
X72732Y210000D01*
X72860Y209025D01*
X73236Y208116D01*
X73835Y207335D01*
X74616Y206736D01*
X75525Y206360D01*
X76500Y206231D01*
X77475Y206360D01*
X78384Y206736D01*
X79165Y207335D01*
X79764Y208116D01*
X80140Y209025D01*
X80269Y210000D01*
X80140Y210975D01*
X79764Y211884D01*
X79165Y212665D01*
X78384Y213264D01*
X77475Y213640D01*
X76500Y213769D01*
D02*
G37*
G36*
X77000Y203703D02*
Y200500D01*
X80203D01*
X80140Y200975D01*
X79764Y201884D01*
X79165Y202665D01*
X78384Y203264D01*
X77475Y203640D01*
X77000Y203703D01*
D02*
G37*
G36*
X76000D02*
X75525Y203640D01*
X74616Y203264D01*
X73835Y202665D01*
X73236Y201884D01*
X72860Y200975D01*
X72797Y200500D01*
X76000D01*
Y203703D01*
D02*
G37*
G36*
X80203Y199500D02*
X77000D01*
Y196297D01*
X77475Y196360D01*
X78384Y196736D01*
X79165Y197335D01*
X79764Y198116D01*
X80140Y199025D01*
X80203Y199500D01*
D02*
G37*
G36*
X76000D02*
X72797D01*
X72860Y199025D01*
X73236Y198116D01*
X73835Y197335D01*
X74616Y196736D01*
X75525Y196360D01*
X76000Y196297D01*
Y199500D01*
D02*
G37*
G36*
X60514Y274514D02*
X51486D01*
Y265486D01*
X58351D01*
X59919Y263919D01*
X60415Y263587D01*
X61000Y263471D01*
X74064D01*
X74234Y262971D01*
X73835Y262665D01*
X73236Y261884D01*
X72860Y260975D01*
X72732Y260000D01*
X72860Y259025D01*
X73236Y258116D01*
X73835Y257335D01*
X74616Y256736D01*
X75525Y256360D01*
X76500Y256231D01*
X77475Y256360D01*
X78384Y256736D01*
X79165Y257335D01*
X79764Y258116D01*
X80140Y259025D01*
X80269Y260000D01*
X80140Y260975D01*
X79764Y261884D01*
X79165Y262665D01*
X78766Y262971D01*
X78936Y263471D01*
X94867D01*
X121971Y236367D01*
Y203000D01*
X122087Y202415D01*
X122419Y201919D01*
X125419Y198919D01*
X125915Y198587D01*
X126500Y198471D01*
X133089D01*
X133236Y198116D01*
X133835Y197335D01*
X134616Y196736D01*
X135525Y196360D01*
X136500Y196231D01*
X137475Y196360D01*
X138384Y196736D01*
X139165Y197335D01*
X139764Y198116D01*
X140140Y199025D01*
X140269Y200000D01*
X140140Y200975D01*
X139764Y201884D01*
X139165Y202665D01*
X138384Y203264D01*
X137475Y203640D01*
X136500Y203768D01*
X135525Y203640D01*
X134616Y203264D01*
X133835Y202665D01*
X133236Y201884D01*
X133089Y201529D01*
X127134D01*
X125029Y203633D01*
Y237000D01*
X124913Y237585D01*
X124581Y238081D01*
X96581Y266081D01*
X96085Y266413D01*
X95500Y266529D01*
X78936D01*
X78766Y267029D01*
X79165Y267335D01*
X79764Y268116D01*
X80140Y269025D01*
X80269Y270000D01*
X80140Y270975D01*
X79764Y271884D01*
X79165Y272665D01*
X78384Y273264D01*
X77475Y273640D01*
X76500Y273768D01*
X75525Y273640D01*
X74616Y273264D01*
X73835Y272665D01*
X73236Y271884D01*
X72860Y270975D01*
X72732Y270000D01*
X72860Y269025D01*
X73236Y268116D01*
X73835Y267335D01*
X74234Y267029D01*
X74064Y266529D01*
X61633D01*
X60514Y267649D01*
Y274514D01*
D02*
G37*
G36*
X136500Y193769D02*
X135525Y193640D01*
X134616Y193264D01*
X133835Y192665D01*
X133236Y191884D01*
X132860Y190975D01*
X132731Y190000D01*
X132860Y189025D01*
X133236Y188116D01*
X133835Y187335D01*
X134616Y186736D01*
X135525Y186360D01*
X136500Y186232D01*
X137475Y186360D01*
X138384Y186736D01*
X139165Y187335D01*
X139764Y188116D01*
X140140Y189025D01*
X140269Y190000D01*
X140140Y190975D01*
X139764Y191884D01*
X139165Y192665D01*
X138384Y193264D01*
X137475Y193640D01*
X136500Y193769D01*
D02*
G37*
G36*
X76500D02*
X75525Y193640D01*
X74616Y193264D01*
X73835Y192665D01*
X73236Y191884D01*
X72860Y190975D01*
X72732Y190000D01*
X72860Y189025D01*
X73236Y188116D01*
X73835Y187335D01*
X74616Y186736D01*
X75525Y186360D01*
X76500Y186232D01*
X77475Y186360D01*
X78384Y186736D01*
X79165Y187335D01*
X79764Y188116D01*
X80140Y189025D01*
X80269Y190000D01*
X80140Y190975D01*
X79764Y191884D01*
X79165Y192665D01*
X78384Y193264D01*
X77475Y193640D01*
X76500Y193769D01*
D02*
G37*
G36*
X137000Y183703D02*
Y180500D01*
X140203D01*
X140140Y180975D01*
X139764Y181884D01*
X139165Y182665D01*
X138384Y183264D01*
X137475Y183640D01*
X137000Y183703D01*
D02*
G37*
G36*
X136000D02*
X135525Y183640D01*
X134616Y183264D01*
X133835Y182665D01*
X133236Y181884D01*
X132860Y180975D01*
X132797Y180500D01*
X136000D01*
Y183703D01*
D02*
G37*
G36*
X140203Y179500D02*
X137000D01*
Y176297D01*
X137475Y176360D01*
X138384Y176736D01*
X139165Y177335D01*
X139764Y178116D01*
X140140Y179025D01*
X140203Y179500D01*
D02*
G37*
G36*
X136000D02*
X132797D01*
X132860Y179025D01*
X133236Y178116D01*
X133835Y177335D01*
X134616Y176736D01*
X135525Y176360D01*
X136000Y176297D01*
Y179500D01*
D02*
G37*
G36*
X55500Y214553D02*
X54322Y214398D01*
X53224Y213943D01*
X52281Y213219D01*
X51557Y212276D01*
X51102Y211178D01*
X50947Y210000D01*
X51102Y208822D01*
X51557Y207724D01*
X52281Y206781D01*
X53224Y206057D01*
X54322Y205602D01*
X55500Y205447D01*
X56678Y205602D01*
X57776Y206057D01*
X58719Y206781D01*
X59443Y207724D01*
X59752Y208471D01*
X60366D01*
X64971Y203867D01*
Y185000D01*
X65087Y184415D01*
X65419Y183919D01*
X70419Y178919D01*
X70915Y178587D01*
X71500Y178471D01*
X73089D01*
X73236Y178116D01*
X73835Y177335D01*
X74616Y176736D01*
X75525Y176360D01*
X76500Y176232D01*
X77475Y176360D01*
X78384Y176736D01*
X79165Y177335D01*
X79764Y178116D01*
X80140Y179025D01*
X80269Y180000D01*
X80140Y180975D01*
X79764Y181884D01*
X79165Y182665D01*
X78384Y183264D01*
X77475Y183640D01*
X76500Y183768D01*
X75525Y183640D01*
X74616Y183264D01*
X73835Y182665D01*
X73236Y181884D01*
X73089Y181529D01*
X72133D01*
X68029Y185634D01*
Y204500D01*
X67913Y205085D01*
X67581Y205581D01*
X62081Y211081D01*
X61585Y211413D01*
X61000Y211529D01*
X59752D01*
X59443Y212276D01*
X58719Y213219D01*
X57776Y213943D01*
X56678Y214398D01*
X55500Y214553D01*
D02*
G37*
G36*
X60014Y204514D02*
X50986D01*
Y195486D01*
X53971D01*
Y181500D01*
X54087Y180915D01*
X54419Y180419D01*
X65919Y168919D01*
X66415Y168587D01*
X67000Y168471D01*
X72764D01*
Y166264D01*
X80236D01*
Y173736D01*
X72764D01*
Y171529D01*
X67633D01*
X57029Y182133D01*
Y195486D01*
X60014D01*
Y204514D01*
D02*
G37*
G36*
X94500Y260030D02*
X93586Y259910D01*
X92735Y259557D01*
X92004Y258996D01*
X91443Y258265D01*
X91090Y257414D01*
X90970Y256500D01*
X91090Y255586D01*
X91443Y254735D01*
X92004Y254004D01*
X92735Y253443D01*
X93586Y253090D01*
X94500Y252970D01*
X95414Y253090D01*
X95649Y253188D01*
X116471Y232366D01*
Y182500D01*
X116587Y181915D01*
X116919Y181419D01*
X129419Y168919D01*
X129915Y168587D01*
X130500Y168471D01*
X132764D01*
Y166264D01*
X134971D01*
Y159634D01*
X101919Y126581D01*
X101587Y126085D01*
X101471Y125500D01*
Y123752D01*
X100724Y123443D01*
X99781Y122719D01*
X99057Y121776D01*
X98602Y120678D01*
X98447Y119500D01*
X98602Y118322D01*
X99057Y117224D01*
X99781Y116281D01*
X100724Y115557D01*
X101822Y115102D01*
X103000Y114947D01*
X104178Y115102D01*
X105276Y115557D01*
X106219Y116281D01*
X106943Y117224D01*
X107398Y118322D01*
X107553Y119500D01*
X107398Y120678D01*
X106943Y121776D01*
X106219Y122719D01*
X105276Y123443D01*
X104529Y123752D01*
Y124866D01*
X137581Y157919D01*
X137913Y158415D01*
X138029Y159000D01*
Y166264D01*
X140236D01*
Y173736D01*
X132764D01*
Y171529D01*
X131133D01*
X119529Y183133D01*
Y233000D01*
X119413Y233585D01*
X119081Y234081D01*
X97812Y255351D01*
X97910Y255586D01*
X98030Y256500D01*
X97910Y257414D01*
X97557Y258265D01*
X96996Y258996D01*
X96265Y259557D01*
X95414Y259910D01*
X94500Y260030D01*
D02*
G37*
G36*
X111522Y228625D02*
X104876D01*
Y224223D01*
X106669D01*
Y164332D01*
X91919Y149581D01*
X91587Y149085D01*
X91471Y148500D01*
Y123752D01*
X90724Y123443D01*
X89781Y122719D01*
X89057Y121776D01*
X88602Y120678D01*
X88447Y119500D01*
X88602Y118322D01*
X89057Y117224D01*
X89781Y116281D01*
X90724Y115557D01*
X91822Y115102D01*
X93000Y114947D01*
X94178Y115102D01*
X95276Y115557D01*
X96219Y116281D01*
X96943Y117224D01*
X97398Y118322D01*
X97553Y119500D01*
X97398Y120678D01*
X96943Y121776D01*
X96219Y122719D01*
X95276Y123443D01*
X94529Y123752D01*
Y147866D01*
X109280Y162617D01*
X109612Y163114D01*
X109728Y163699D01*
Y224223D01*
X111522D01*
Y228625D01*
D02*
G37*
G36*
X265811Y87546D02*
X265026Y87442D01*
X264294Y87139D01*
X263666Y86657D01*
X263184Y86029D01*
X262881Y85297D01*
X262777Y84512D01*
X262881Y83727D01*
X263184Y82995D01*
X263666Y82367D01*
X264294Y81884D01*
X265026Y81581D01*
X265811Y81478D01*
X266596Y81581D01*
X267328Y81884D01*
X267956Y82367D01*
X268438Y82995D01*
X268741Y83727D01*
X268845Y84512D01*
X268741Y85297D01*
X268438Y86029D01*
X267956Y86657D01*
X267328Y87139D01*
X266596Y87442D01*
X265811Y87546D01*
D02*
G37*
G36*
X206756D02*
X205971Y87442D01*
X205239Y87139D01*
X204611Y86657D01*
X204129Y86029D01*
X203825Y85297D01*
X203722Y84512D01*
X203825Y83727D01*
X204129Y82995D01*
X204611Y82367D01*
X205239Y81884D01*
X205971Y81581D01*
X206756Y81478D01*
X207541Y81581D01*
X208273Y81884D01*
X208901Y82367D01*
X209383Y82995D01*
X209686Y83727D01*
X209790Y84512D01*
X209686Y85297D01*
X209383Y86029D01*
X208901Y86657D01*
X208273Y87139D01*
X207541Y87442D01*
X206756Y87546D01*
D02*
G37*
G36*
X254000Y84838D02*
X252958Y84700D01*
X251987Y84298D01*
X251153Y83658D01*
X250513Y82824D01*
X250111Y81853D01*
X249973Y80811D01*
X250111Y79769D01*
X250513Y78798D01*
X251153Y77964D01*
X251987Y77324D01*
X252958Y76922D01*
X254000Y76784D01*
X255042Y76922D01*
X256013Y77324D01*
X256847Y77964D01*
X257487Y78798D01*
X257889Y79769D01*
X258027Y80811D01*
X257889Y81853D01*
X257487Y82824D01*
X256847Y83658D01*
X256013Y84298D01*
X255042Y84700D01*
X254000Y84838D01*
D02*
G37*
G36*
X76500Y223768D02*
X75525Y223640D01*
X74616Y223264D01*
X73835Y222665D01*
X73236Y221884D01*
X72860Y220975D01*
X72732Y220000D01*
X72860Y219025D01*
X73236Y218116D01*
X73835Y217335D01*
X74616Y216736D01*
X75525Y216360D01*
X76500Y216231D01*
X77475Y216360D01*
X78384Y216736D01*
X79165Y217335D01*
X79764Y218116D01*
X79911Y218471D01*
X87366D01*
X99971Y205867D01*
Y166133D01*
X83919Y150081D01*
X83587Y149585D01*
X83471Y149000D01*
Y114000D01*
X83587Y113415D01*
X83919Y112919D01*
X90919Y105919D01*
X91415Y105587D01*
X92000Y105471D01*
X215367D01*
X238500Y82337D01*
X238300Y81853D01*
X238162Y80811D01*
X238300Y79769D01*
X238702Y78798D01*
X239342Y77964D01*
X240176Y77324D01*
X241147Y76922D01*
X242189Y76784D01*
X243231Y76922D01*
X244202Y77324D01*
X245036Y77964D01*
X245676Y78798D01*
X246078Y79769D01*
X246216Y80811D01*
X246078Y81853D01*
X245676Y82824D01*
X245036Y83658D01*
X244202Y84298D01*
X243231Y84700D01*
X242189Y84838D01*
X241147Y84700D01*
X240663Y84500D01*
X217081Y108081D01*
X216585Y108413D01*
X216000Y108529D01*
X92633D01*
X86529Y114634D01*
Y148366D01*
X102581Y164419D01*
X102913Y164915D01*
X103029Y165500D01*
Y206500D01*
X102913Y207085D01*
X102581Y207581D01*
X89081Y221081D01*
X88585Y221413D01*
X88000Y221529D01*
X79911D01*
X79764Y221884D01*
X79165Y222665D01*
X78384Y223264D01*
X77475Y223640D01*
X76500Y223768D01*
D02*
G37*
G36*
X230378Y84838D02*
X229336Y84700D01*
X228365Y84298D01*
X227531Y83658D01*
X226891Y82824D01*
X226489Y81853D01*
X226351Y80811D01*
X226489Y79769D01*
X226891Y78798D01*
X227531Y77964D01*
X228365Y77324D01*
X229336Y76922D01*
X230378Y76784D01*
X231420Y76922D01*
X232391Y77324D01*
X233225Y77964D01*
X233865Y78798D01*
X234267Y79769D01*
X234404Y80811D01*
X234267Y81853D01*
X233865Y82824D01*
X233225Y83658D01*
X232391Y84298D01*
X231420Y84700D01*
X230378Y84838D01*
D02*
G37*
G36*
X257992Y72992D02*
X254500D01*
Y69500D01*
X257992D01*
Y72992D01*
D02*
G37*
G36*
X253500D02*
X250008D01*
Y69500D01*
X253500D01*
Y72992D01*
D02*
G37*
G36*
X257992Y68500D02*
X254500D01*
Y65008D01*
X257992D01*
Y68500D01*
D02*
G37*
G36*
X253500D02*
X250008D01*
Y65008D01*
X253500D01*
Y68500D01*
D02*
G37*
G36*
X242189Y73027D02*
X241147Y72889D01*
X240176Y72487D01*
X239342Y71847D01*
X238702Y71013D01*
X238300Y70042D01*
X238162Y69000D01*
X238300Y67958D01*
X238702Y66987D01*
X239342Y66153D01*
X240176Y65513D01*
X241147Y65111D01*
X242189Y64973D01*
X243231Y65111D01*
X244202Y65513D01*
X245036Y66153D01*
X245676Y66987D01*
X246078Y67958D01*
X246216Y69000D01*
X246078Y70042D01*
X245676Y71013D01*
X245036Y71847D01*
X244202Y72487D01*
X243231Y72889D01*
X242189Y73027D01*
D02*
G37*
G36*
X230378D02*
X229336Y72889D01*
X228365Y72487D01*
X227531Y71847D01*
X226891Y71013D01*
X226489Y70042D01*
X226351Y69000D01*
X226489Y67958D01*
X226891Y66987D01*
X227531Y66153D01*
X228365Y65513D01*
X229336Y65111D01*
X230378Y64973D01*
X231420Y65111D01*
X232391Y65513D01*
X233225Y66153D01*
X233865Y66987D01*
X234267Y67958D01*
X234404Y69000D01*
X234267Y70042D01*
X233865Y71013D01*
X233225Y71847D01*
X232391Y72487D01*
X231420Y72889D01*
X230378Y73027D01*
D02*
G37*
G36*
X218567D02*
X217525Y72889D01*
X216554Y72487D01*
X215720Y71847D01*
X215080Y71013D01*
X214678Y70042D01*
X214540Y69000D01*
X214678Y67958D01*
X215080Y66987D01*
X215720Y66153D01*
X216554Y65513D01*
X217525Y65111D01*
X218567Y64973D01*
X219609Y65111D01*
X220580Y65513D01*
X221414Y66153D01*
X222054Y66987D01*
X222456Y67958D01*
X222593Y69000D01*
X222456Y70042D01*
X222054Y71013D01*
X221414Y71847D01*
X220580Y72487D01*
X219609Y72889D01*
X218567Y73027D01*
D02*
G37*
%LPD*%
G36*
X260000Y359000D02*
X213500Y359000D01*
Y365000D01*
X211000Y367500D01*
X196000D01*
X196000Y391471D01*
X201971D01*
Y377057D01*
X199347D01*
Y374096D01*
X203299D01*
X207252D01*
Y377057D01*
X205029D01*
Y392414D01*
X204913Y393000D01*
X204581Y393496D01*
X203996Y394081D01*
X203500Y394413D01*
X202914Y394529D01*
X196000D01*
Y400724D01*
X208276Y413000D01*
X260000D01*
X260000Y359000D01*
D02*
G37*
G36*
X210000Y353000D02*
X198000D01*
X189500Y344500D01*
X163500D01*
Y364500D01*
X192000D01*
X193000Y365500D01*
X210000D01*
Y353000D01*
D02*
G37*
%LPC*%
G36*
X207252Y373096D02*
X203800D01*
Y370136D01*
X207252D01*
Y373096D01*
D02*
G37*
G36*
X202800D02*
X199347D01*
Y370136D01*
X202800D01*
Y373096D01*
D02*
G37*
%LPD*%
G36*
X305000Y362500D02*
Y340000D01*
X240000D01*
Y355000D01*
X260500D01*
X268000Y362500D01*
X305000Y362500D01*
D02*
G37*
D10*
X56287Y191890D02*
G03*
X56287Y191890I-394J0D01*
G01*
X56787Y261890D02*
G03*
X56787Y261890I-394J0D01*
G01*
X131504Y119894D02*
G03*
X131504Y119894I-394J0D01*
G01*
D11*
X519524Y342622D02*
G03*
X519524Y342622I-394J0D01*
G01*
X136894Y161437D02*
G03*
X136894Y161437I-394J0D01*
G01*
X76894D02*
G03*
X76894Y161437I-394J0D01*
G01*
X100167Y234751D02*
G03*
X100167Y234751I-394J0D01*
G01*
D12*
X44161Y195000D02*
Y225000D01*
X66996D01*
Y195000D02*
Y225000D01*
X44161Y195000D02*
X66996D01*
X118786Y259457D02*
Y266543D01*
X114849Y259457D02*
Y266543D01*
Y259457D02*
X118786D01*
X114849Y266543D02*
X118786D01*
X200150Y373104D02*
X206449D01*
X200150Y360506D02*
X206449D01*
Y373104D01*
X200150Y360506D02*
Y373104D01*
X522004Y376658D02*
X594996D01*
Y178665D02*
Y376658D01*
X522004Y178665D02*
X594996D01*
X522004D02*
Y376658D01*
X205957Y337968D02*
X213043D01*
X205957Y334032D02*
X213043D01*
Y337968D01*
X205957Y334032D02*
Y337968D01*
X44661Y265000D02*
Y295000D01*
X67496D01*
Y265000D02*
Y295000D01*
X44661Y265000D02*
X67496D01*
X204492Y59276D02*
X268075D01*
Y93803D01*
X204492D02*
X268075D01*
X204492Y59276D02*
Y93803D01*
X272228Y67425D02*
Y70575D01*
X269472Y69000D02*
X272228Y70575D01*
X269472Y69000D02*
X272228Y67425D01*
X87500Y108161D02*
X128000D01*
X87500D02*
Y131000D01*
X128000D01*
Y108161D02*
Y131000D01*
X122031Y259457D02*
Y266543D01*
X125969Y259457D02*
Y266543D01*
X122031D02*
X125969D01*
X122031Y259457D02*
X125969D01*
X85834Y231968D02*
X92920D01*
X85834Y228031D02*
X92920D01*
Y231968D01*
X85834Y228031D02*
Y231968D01*
X101604Y232133D02*
X106722D01*
X101604Y220715D02*
Y232133D01*
Y220715D02*
X106722D01*
Y232133D01*
D13*
X226800Y368700D02*
X246200D01*
D14*
X168000Y393000D02*
X202914D01*
X203299Y373596D02*
X203500Y373797D01*
Y392414D01*
X202914Y393000D02*
X203500Y392414D01*
X94624Y319624D02*
X168000Y393000D01*
X94624Y271326D02*
Y319624D01*
X108500Y259000D02*
Y293000D01*
X151500Y336000D02*
X206390D01*
X108500Y293000D02*
X151500Y336000D01*
X117500Y250000D02*
X136500D01*
X108500Y259000D02*
X117500Y250000D01*
X118000Y182500D02*
Y233000D01*
X94500Y256500D02*
X118000Y233000D01*
X130500Y170000D02*
X136500D01*
X118000Y182500D02*
X130500Y170000D01*
X61000Y265000D02*
X95500D01*
X123500Y203000D02*
Y237000D01*
X95500Y265000D02*
X123500Y237000D01*
X113000Y127500D02*
X144000Y158500D01*
Y258000D01*
X147000Y156000D02*
Y295500D01*
X123000Y132000D02*
X147000Y156000D01*
X103000Y125500D02*
X136500Y159000D01*
Y170000D01*
X113000Y119500D02*
Y127500D01*
X198378Y101000D02*
X218567Y80811D01*
X90000Y101000D02*
X198378D01*
X76000Y115000D02*
Y143000D01*
Y115000D02*
X90000Y101000D01*
X44000Y175000D02*
X76000Y143000D01*
X44000Y175000D02*
Y241000D01*
X85000Y114000D02*
X92000Y107000D01*
X216000D01*
X85000Y114000D02*
Y149000D01*
X101500Y165500D01*
X67000Y170000D02*
X76500D01*
X55500Y181500D02*
Y200000D01*
Y181500D02*
X67000Y170000D01*
X53000Y250000D02*
X76500D01*
X44000Y241000D02*
X53000Y250000D01*
X216000Y107000D02*
X242189Y80811D01*
X88000Y220000D02*
X101500Y206500D01*
Y165500D02*
Y206500D01*
X76500Y220000D02*
X88000D01*
X123500Y203000D02*
X126500Y200000D01*
X136500D01*
X56000Y280000D02*
X76500D01*
X56000Y270000D02*
X61000Y265000D01*
X55500Y210000D02*
X61000D01*
X66500Y204500D01*
Y185000D02*
X71500Y180000D01*
X66500Y185000D02*
Y204500D01*
X71500Y180000D02*
X76500D01*
X108199Y163699D02*
Y226424D01*
X93000Y148500D02*
X108199Y163699D01*
X93000Y119500D02*
Y148500D01*
X103000Y119500D02*
Y125500D01*
X123000Y119500D02*
Y132000D01*
X142000Y260000D02*
X144000Y258000D01*
X136500Y260000D02*
X142000D01*
X142500Y300000D02*
X147000Y295500D01*
X136500Y300000D02*
X142500D01*
X129000D02*
X136500D01*
X124000Y266110D02*
Y295000D01*
X129000Y300000D01*
X124000Y259890D02*
X124055Y259945D01*
X136445D01*
X136500Y260000D01*
X116818Y259890D02*
X124000D01*
X212610Y336000D02*
X224000D01*
X227445Y339445D02*
Y347551D01*
X224000Y336000D02*
X227445Y339445D01*
X92487Y230000D02*
X92514Y230026D01*
X100128D01*
X76500Y230000D02*
X86267D01*
D15*
X440970Y236245D02*
G03*
X440970Y236245I-204724J0D01*
G01*
X236245Y117545D02*
Y149041D01*
Y117545D02*
X271678D01*
Y149041D01*
X236245D02*
X271678D01*
X236245Y117545D02*
Y149041D01*
X200812Y117545D02*
X236245D01*
X200812D02*
Y149041D01*
X236245D01*
X288017Y261836D02*
X358883Y210655D01*
X288017D02*
X358883Y261836D01*
Y210655D02*
Y261836D01*
X288017Y210655D02*
X358883D01*
X288017D02*
Y261836D01*
X358883D01*
X200812Y176600D02*
X271678Y121482D01*
X200812D02*
X271678Y176600D01*
X293585Y149041D02*
X323450Y178906D01*
X178906Y149041D02*
X293585D01*
X149041Y178906D02*
X178906Y149041D01*
X149041Y178906D02*
Y293585D01*
X178906Y323450D01*
X293585D01*
X323450Y293585D01*
Y178906D02*
Y293585D01*
D16*
X131750Y316004D02*
X141250D01*
X131750Y163996D02*
Y316004D01*
Y163996D02*
X141250D01*
Y316004D01*
X131750D02*
X141250D01*
X131750Y163996D02*
Y316004D01*
Y163996D02*
X141250D01*
X71750Y316004D02*
X81250D01*
X71750Y163996D02*
Y316004D01*
Y163996D02*
X81250D01*
Y316004D01*
X71750D02*
X81250D01*
X71750Y163996D02*
Y316004D01*
Y163996D02*
X81250D01*
D17*
X43177Y194016D02*
Y225984D01*
X67980D01*
Y194016D02*
Y225984D01*
X43177Y194016D02*
X67980D01*
X119810Y257055D02*
Y268945D01*
X113826Y257055D02*
X119810D01*
X113826D02*
Y268945D01*
X119810D01*
X199166Y377041D02*
X207433D01*
X199166Y356569D02*
Y377041D01*
Y356569D02*
X207433D01*
Y377041D01*
X521020Y377642D02*
X595980D01*
Y177681D02*
Y377642D01*
X521020Y177681D02*
X595980D01*
X521020D02*
Y377642D01*
X203555Y338992D02*
X215445D01*
Y333008D02*
Y338992D01*
X203555Y333008D02*
X215445D01*
X203555D02*
Y338992D01*
X142234Y163012D02*
Y316988D01*
X130766D02*
X142234D01*
X130766Y163012D02*
Y316988D01*
Y163012D02*
X142234D01*
X82234D02*
Y316988D01*
X70766D02*
X82234D01*
X70766Y163012D02*
Y316988D01*
Y163012D02*
X82234D01*
X43677Y264016D02*
Y295984D01*
X68480D01*
Y264016D02*
Y295984D01*
X43677Y264016D02*
X68480D01*
X199492Y98803D02*
X273075D01*
Y54276D02*
Y98803D01*
X199492Y54276D02*
X273075D01*
X199492D02*
Y98803D01*
X86000Y107177D02*
X128984D01*
X86016D02*
Y131980D01*
X86000D02*
X128984D01*
Y107177D02*
Y131980D01*
X121008Y257055D02*
Y268945D01*
X126992D01*
Y257055D02*
Y268945D01*
X121008Y257055D02*
X126992D01*
X83432Y232992D02*
X95322D01*
Y227008D02*
Y232992D01*
X83432Y227008D02*
X95322D01*
X83432D02*
Y232992D01*
X111506Y219731D02*
Y233117D01*
X96821Y219731D02*
X111506D01*
X96821D02*
Y233117D01*
X111506D01*
D18*
X116818Y266110D02*
D03*
Y259890D02*
D03*
X124000D02*
D03*
Y266110D02*
D03*
D19*
X203299Y373596D02*
D03*
Y360014D02*
D03*
D20*
X206390Y336000D02*
D03*
X212610D02*
D03*
X86267Y230000D02*
D03*
X92487D02*
D03*
D21*
X236500Y373500D02*
D03*
D22*
X245555Y347551D02*
D03*
X227445D02*
D03*
D23*
X108199Y226424D02*
D03*
X100128Y222822D02*
D03*
Y230026D02*
D03*
D42*
X55500Y210000D02*
D03*
Y220000D02*
D03*
X56000Y280000D02*
D03*
Y290000D02*
D03*
X93000Y119500D02*
D03*
X113000D02*
D03*
X103000D02*
D03*
D43*
X55500Y200000D02*
D03*
X56000Y270000D02*
D03*
D44*
X528500Y201500D02*
D03*
Y211500D02*
D03*
Y221500D02*
D03*
Y231500D02*
D03*
Y241500D02*
D03*
Y251500D02*
D03*
Y261500D02*
D03*
Y271500D02*
D03*
Y281500D02*
D03*
Y291500D02*
D03*
Y301500D02*
D03*
Y311500D02*
D03*
Y321500D02*
D03*
Y331500D02*
D03*
X588500Y201500D02*
D03*
Y211500D02*
D03*
Y221500D02*
D03*
Y231500D02*
D03*
Y241500D02*
D03*
Y251500D02*
D03*
Y261500D02*
D03*
Y271500D02*
D03*
Y281500D02*
D03*
Y291500D02*
D03*
Y301500D02*
D03*
Y311500D02*
D03*
Y321500D02*
D03*
Y331500D02*
D03*
D45*
X528500Y341500D02*
D03*
X588500D02*
D03*
D46*
X173500Y374342D02*
D03*
Y354658D02*
D03*
X293500Y374342D02*
D03*
Y354658D02*
D03*
D47*
X136500Y310000D02*
D03*
Y300000D02*
D03*
Y290000D02*
D03*
Y280000D02*
D03*
Y270000D02*
D03*
Y260000D02*
D03*
Y250000D02*
D03*
Y240000D02*
D03*
Y230000D02*
D03*
Y220000D02*
D03*
Y210000D02*
D03*
Y200000D02*
D03*
Y190000D02*
D03*
Y180000D02*
D03*
X76500Y310000D02*
D03*
Y300000D02*
D03*
Y290000D02*
D03*
Y280000D02*
D03*
Y270000D02*
D03*
Y260000D02*
D03*
Y250000D02*
D03*
Y240000D02*
D03*
Y230000D02*
D03*
Y220000D02*
D03*
Y210000D02*
D03*
Y200000D02*
D03*
Y190000D02*
D03*
Y180000D02*
D03*
D48*
X136500Y170000D02*
D03*
X76500D02*
D03*
D49*
X254000Y69000D02*
D03*
D50*
X242189D02*
D03*
X230378D02*
D03*
X218567D02*
D03*
X254000Y80811D02*
D03*
X242189D02*
D03*
X230378D02*
D03*
X218567D02*
D03*
D51*
X265811Y84512D02*
D03*
X206756D02*
D03*
D52*
X123000Y119500D02*
D03*
D53*
X94624Y271326D02*
D03*
X94500Y256500D02*
D03*
M02*
