G04*
G04 #@! TF.GenerationSoftware,Altium Limited,Altium Designer,20.0.10 (225)*
G04*
G04 Layer_Color=65535*
%FSLAX25Y25*%
%MOIN*%
G70*
G01*
G75*
%ADD10C,0.01181*%
%ADD11C,0.00787*%
%ADD12C,0.00500*%
%ADD13C,0.00600*%
%ADD14C,0.01000*%
%ADD15C,0.00050*%
%ADD16C,0.00394*%
%ADD17C,0.00197*%
D10*
X56287Y191890D02*
G03*
X56287Y191890I-394J0D01*
G01*
X56787Y261890D02*
G03*
X56787Y261890I-394J0D01*
G01*
X131504Y119894D02*
G03*
X131504Y119894I-394J0D01*
G01*
X56287Y191890D02*
G03*
X56287Y191890I-394J0D01*
G01*
X56787Y261890D02*
G03*
X56787Y261890I-394J0D01*
G01*
X131504Y119894D02*
G03*
X131504Y119894I-394J0D01*
G01*
D11*
X519524Y342622D02*
G03*
X519524Y342622I-394J0D01*
G01*
X136894Y161437D02*
G03*
X136894Y161437I-394J0D01*
G01*
X76894D02*
G03*
X76894Y161437I-394J0D01*
G01*
X100167Y234751D02*
G03*
X100167Y234751I-394J0D01*
G01*
X141250Y163996D02*
Y316004D01*
X131750Y163996D02*
Y316004D01*
X141250D01*
X131750Y163996D02*
X141250D01*
X81250D02*
Y316004D01*
X71750Y163996D02*
Y316004D01*
X81250D01*
X71750Y163996D02*
X81250D01*
X519524Y342622D02*
G03*
X519524Y342622I-394J0D01*
G01*
X136894Y161437D02*
G03*
X136894Y161437I-394J0D01*
G01*
X76894D02*
G03*
X76894Y161437I-394J0D01*
G01*
X100167Y234751D02*
G03*
X100167Y234751I-394J0D01*
G01*
D12*
X44161Y195000D02*
Y225000D01*
Y195000D02*
X66996D01*
Y225000D01*
X44161D02*
X66996D01*
X119534Y259850D02*
Y266150D01*
X114101Y259850D02*
Y266150D01*
X206449Y363734D02*
Y369876D01*
X200150Y363734D02*
Y369876D01*
X522004Y376658D02*
X594996D01*
X522004Y178665D02*
Y376658D01*
X594996Y178665D02*
Y376658D01*
X522004Y178665D02*
X594996D01*
X206350Y338717D02*
X212650D01*
X206350Y333283D02*
X212650D01*
X173500Y380500D02*
Y383000D01*
Y345602D02*
Y348358D01*
X172122Y347000D02*
X174878D01*
X163264Y344421D02*
Y379500D01*
X168500Y384579D01*
X178500D01*
X183736Y379500D01*
Y344421D02*
Y379500D01*
X163264Y344421D02*
X183736D01*
X293500Y380500D02*
Y383000D01*
Y345602D02*
Y348358D01*
X292122Y347000D02*
X294878D01*
X283264Y344421D02*
Y379500D01*
X288500Y384579D01*
X298500D01*
X303736Y379500D01*
Y344421D02*
Y379500D01*
X283264Y344421D02*
X303736D01*
X44661Y265000D02*
Y295000D01*
Y265000D02*
X67496D01*
Y295000D01*
X44661D02*
X67496D01*
X204492Y87779D02*
Y93803D01*
X268075D01*
Y87779D02*
Y93803D01*
Y59276D02*
Y81244D01*
X204492Y59276D02*
X268075D01*
X204492D02*
Y81244D01*
X272228Y67425D02*
Y70575D01*
X269472Y69000D02*
X272228Y70575D01*
X269472Y69000D02*
X272228Y67425D01*
X87500Y108161D02*
Y113870D01*
Y125287D02*
Y130996D01*
Y108161D02*
X128000D01*
Y130996D01*
X87500D02*
X128000D01*
X87500Y113870D02*
Y125287D01*
X121283Y259850D02*
Y266150D01*
X126716Y259850D02*
Y266150D01*
X86227Y232716D02*
X92527D01*
X86227Y227284D02*
X92527D01*
X103711Y232133D02*
X106722D01*
X103711Y220715D02*
X106722D01*
Y223963D01*
Y228885D02*
Y232133D01*
X44161Y195000D02*
Y225000D01*
X66996D01*
Y195000D02*
Y225000D01*
X44161Y195000D02*
X66996D01*
X118786Y259457D02*
Y266543D01*
X114849Y259457D02*
Y266543D01*
Y259457D02*
X118786D01*
X114849Y266543D02*
X118786D01*
X200150Y373104D02*
X206449D01*
X200150Y360506D02*
X206449D01*
Y373104D01*
X200150Y360506D02*
Y373104D01*
X522004Y376658D02*
X594996D01*
Y178665D02*
Y376658D01*
X522004Y178665D02*
X594996D01*
X522004D02*
Y376658D01*
X205957Y337968D02*
X213043D01*
X205957Y334032D02*
X213043D01*
Y337968D01*
X205957Y334032D02*
Y337968D01*
X44661Y265000D02*
Y295000D01*
X67496D01*
Y265000D02*
Y295000D01*
X44661Y265000D02*
X67496D01*
X204492Y59276D02*
X268075D01*
Y93803D01*
X204492D02*
X268075D01*
X204492Y59276D02*
Y93803D01*
X272228Y67425D02*
Y70575D01*
X269472Y69000D02*
X272228Y70575D01*
X269472Y69000D02*
X272228Y67425D01*
X87500Y108161D02*
X128000D01*
X87500D02*
Y131000D01*
X128000D01*
Y108161D02*
Y131000D01*
X122031Y259457D02*
Y266543D01*
X125969Y259457D02*
Y266543D01*
X122031D02*
X125969D01*
X122031Y259457D02*
X125969D01*
X85834Y231968D02*
X92920D01*
X85834Y228031D02*
X92920D01*
Y231968D01*
X85834Y228031D02*
Y231968D01*
X101604Y232133D02*
X106722D01*
X101604Y220715D02*
Y232133D01*
Y220715D02*
X106722D01*
Y232133D01*
D13*
X250500Y354000D02*
Y387500D01*
X222000Y354000D02*
Y387500D01*
X226800D01*
X246200D02*
X250500D01*
X222000Y354000D02*
X250500D01*
X226800Y368700D02*
X246200D01*
D14*
X38999Y241096D02*
X37999Y242096D01*
X36000D01*
X35000Y241096D01*
Y237097D01*
X36000Y236098D01*
X37999D01*
X38999Y237097D01*
X43997Y242096D02*
X41998D01*
X40998Y241096D01*
Y237097D01*
X41998Y236098D01*
X43997D01*
X44997Y237097D01*
Y241096D01*
X43997Y242096D01*
X46996Y236098D02*
Y242096D01*
X48996Y240096D01*
X50995Y242096D01*
Y236098D01*
X38999Y231498D02*
X37999Y232498D01*
X36000D01*
X35000Y231498D01*
Y230499D01*
X36000Y229499D01*
X37999D01*
X38999Y228499D01*
Y227500D01*
X37999Y226500D01*
X36000D01*
X35000Y227500D01*
X44997Y232498D02*
X40998D01*
Y226500D01*
X44997D01*
X40998Y229499D02*
X42997D01*
X46996Y226500D02*
Y232498D01*
X49995D01*
X50995Y231498D01*
Y229499D01*
X49995Y228499D01*
X46996D01*
X48996D02*
X50995Y226500D01*
X52994Y232498D02*
Y228499D01*
X54993Y226500D01*
X56993Y228499D01*
Y232498D01*
X61991D02*
X59992D01*
X58992Y231498D01*
Y227500D01*
X59992Y226500D01*
X61991D01*
X62991Y227500D01*
Y231498D01*
X61991Y232498D01*
X37000Y263096D02*
Y257098D01*
X40999D01*
X46997Y263096D02*
X42998D01*
Y257098D01*
X46997D01*
X42998Y260097D02*
X44997D01*
X48996Y263096D02*
Y257098D01*
X51995D01*
X52995Y258097D01*
Y262096D01*
X51995Y263096D01*
X48996D01*
X37000Y247500D02*
Y253498D01*
X39999D01*
X40999Y252498D01*
Y250499D01*
X39999Y249499D01*
X37000D01*
X38999D02*
X40999Y247500D01*
X42998Y253498D02*
X44997D01*
X43998D01*
Y247500D01*
X42998D01*
X44997D01*
X47996D02*
Y253498D01*
X51995Y247500D01*
Y253498D01*
X57993Y252498D02*
X56994Y253498D01*
X54994D01*
X53995Y252498D01*
Y248500D01*
X54994Y247500D01*
X56994D01*
X57993Y248500D01*
Y250499D01*
X55994D01*
X279499Y340498D02*
X277500D01*
X276500Y339498D01*
Y335500D01*
X277500Y334500D01*
X279499D01*
X280499Y335500D01*
Y339498D01*
X279499Y340498D01*
X282498D02*
Y335500D01*
X283498Y334500D01*
X285497D01*
X286497Y335500D01*
Y340498D01*
X288496D02*
X292495D01*
X290495D01*
Y334500D01*
X294494D02*
Y340498D01*
X297493D01*
X298493Y339498D01*
Y337499D01*
X297493Y336499D01*
X294494D01*
X300492Y340498D02*
Y335500D01*
X301492Y334500D01*
X303491D01*
X304491Y335500D01*
Y340498D01*
X306490D02*
X310489D01*
X308490D01*
Y334500D01*
X161000Y339998D02*
X162999D01*
X162000D01*
Y334000D01*
X161000D01*
X162999D01*
X165998D02*
Y339998D01*
X169997Y334000D01*
Y339998D01*
X171996Y334000D02*
Y339998D01*
X174996D01*
X175995Y338998D01*
Y336999D01*
X174996Y335999D01*
X171996D01*
X177995Y339998D02*
Y335000D01*
X178994Y334000D01*
X180993D01*
X181993Y335000D01*
Y339998D01*
X183993D02*
X187991D01*
X185992D01*
Y334000D01*
X46000Y191499D02*
X44001D01*
X45001D01*
Y186501D01*
X44001Y185501D01*
X43001D01*
X42002Y186501D01*
X50999Y185501D02*
Y191499D01*
X48000Y188500D01*
X51998D01*
X92500Y102998D02*
Y97000D01*
X95499D01*
X96499Y98000D01*
Y98999D01*
X95499Y99999D01*
X92500D01*
X95499D01*
X96499Y100999D01*
Y101998D01*
X95499Y102998D01*
X92500D01*
X98498D02*
Y98000D01*
X99498Y97000D01*
X101497D01*
X102497Y98000D01*
Y102998D01*
X104496D02*
X108495D01*
X106495D01*
Y97000D01*
X110494Y102998D02*
X114493D01*
X112494D01*
Y97000D01*
X119491Y102998D02*
X117492D01*
X116492Y101998D01*
Y98000D01*
X117492Y97000D01*
X119491D01*
X120491Y98000D01*
Y101998D01*
X119491Y102998D01*
X122490Y97000D02*
Y102998D01*
X126489Y97000D01*
Y102998D01*
X223499Y54498D02*
X222499Y55498D01*
X220500D01*
X219500Y54498D01*
Y53499D01*
X220500Y52499D01*
X222499D01*
X223499Y51499D01*
Y50500D01*
X222499Y49500D01*
X220500D01*
X219500Y50500D01*
X229497Y54498D02*
X228497Y55498D01*
X226498D01*
X225498Y54498D01*
Y50500D01*
X226498Y49500D01*
X228497D01*
X229497Y50500D01*
X231496Y49500D02*
Y55498D01*
X234495D01*
X235495Y54498D01*
Y52499D01*
X234495Y51499D01*
X231496D01*
X233495D02*
X235495Y49500D01*
X241493Y55498D02*
X237494D01*
Y49500D01*
X241493D01*
X237494Y52499D02*
X239493D01*
X247491Y55498D02*
X243492D01*
Y49500D01*
X247491D01*
X243492Y52499D02*
X245492D01*
X249490Y49500D02*
Y55498D01*
X253489Y49500D01*
Y55498D01*
X109502Y272001D02*
Y277999D01*
X112501D01*
X113500Y276999D01*
Y275000D01*
X112501Y274000D01*
X109502D01*
X111501D02*
X113500Y272001D01*
X119498D02*
X115500D01*
X119498Y276000D01*
Y276999D01*
X118499Y277999D01*
X116499D01*
X115500Y276999D01*
X204098Y386103D02*
X200099D01*
Y383104D01*
X202099D01*
X200099D01*
Y380105D01*
X206098D02*
X208097D01*
X207097D01*
Y386103D01*
X206098Y385103D01*
X519350Y388210D02*
X523349Y384211D01*
X519350D02*
X523349Y388210D01*
X519350Y386210D02*
X523349D01*
X521349Y384211D02*
Y388210D01*
X204500Y342100D02*
Y348098D01*
X207499D01*
X208499Y347098D01*
Y345099D01*
X207499Y344099D01*
X204500D01*
X206499D02*
X208499Y342100D01*
X210498Y347098D02*
X211498Y348098D01*
X213497D01*
X214497Y347098D01*
Y346099D01*
X213497Y345099D01*
X212497D01*
X213497D01*
X214497Y344099D01*
Y343100D01*
X213497Y342100D01*
X211498D01*
X210498Y343100D01*
X167999Y393798D02*
X165999D01*
X166999D01*
Y388800D01*
X165999Y387800D01*
X165000D01*
X164000Y388800D01*
X169998Y392798D02*
X170998Y393798D01*
X172997D01*
X173997Y392798D01*
Y391799D01*
X172997Y390799D01*
X171997D01*
X172997D01*
X173997Y389799D01*
Y388800D01*
X172997Y387800D01*
X170998D01*
X169998Y388800D01*
X226699Y391800D02*
Y395798D01*
X225699Y396798D01*
X223700D01*
X222700Y395798D01*
Y391800D01*
X223700Y390800D01*
X225699D01*
X224699Y392799D02*
X226699Y390800D01*
X225699D02*
X226699Y391800D01*
X228698Y390800D02*
X230697D01*
X229698D01*
Y396798D01*
X228698Y395798D01*
X287999Y393798D02*
X285999D01*
X286999D01*
Y388800D01*
X285999Y387800D01*
X285000D01*
X284000Y388800D01*
X289998Y393798D02*
X293997D01*
Y392798D01*
X289998Y388800D01*
Y387800D01*
X135699Y326098D02*
X133699D01*
X134699D01*
Y321100D01*
X133699Y320100D01*
X132700D01*
X131700Y321100D01*
X141697Y320100D02*
X137698D01*
X141697Y324099D01*
Y325098D01*
X140697Y326098D01*
X138698D01*
X137698Y325098D01*
X75699Y326098D02*
X73699D01*
X74699D01*
Y321100D01*
X73699Y320100D01*
X72700D01*
X71700Y321100D01*
X77698Y320100D02*
X79697D01*
X78698D01*
Y326098D01*
X77698Y325098D01*
X48599Y305098D02*
X46599D01*
X47599D01*
Y300100D01*
X46599Y299100D01*
X45600D01*
X44600Y300100D01*
X54597Y305098D02*
X50598D01*
Y302099D01*
X52597Y303099D01*
X53597D01*
X54597Y302099D01*
Y300100D01*
X53597Y299100D01*
X51598D01*
X50598Y300100D01*
X204399Y107898D02*
X202399D01*
X203399D01*
Y102900D01*
X202399Y101900D01*
X201400D01*
X200400Y102900D01*
X210397Y107898D02*
X208397Y106898D01*
X206398Y104899D01*
Y102900D01*
X207398Y101900D01*
X209397D01*
X210397Y102900D01*
Y103899D01*
X209397Y104899D01*
X206398D01*
X90899Y141098D02*
X88899D01*
X89899D01*
Y136100D01*
X88899Y135100D01*
X87900D01*
X86900Y136100D01*
X92898Y140098D02*
X93898Y141098D01*
X95897D01*
X96897Y140098D01*
Y139099D01*
X95897Y138099D01*
X96897Y137099D01*
Y136100D01*
X95897Y135100D01*
X93898D01*
X92898Y136100D01*
Y137099D01*
X93898Y138099D01*
X92898Y139099D01*
Y140098D01*
X93898Y138099D02*
X95897D01*
X125899Y276998D02*
X124899Y277998D01*
X122900D01*
X121900Y276998D01*
Y273000D01*
X122900Y272000D01*
X124899D01*
X125899Y273000D01*
X127898Y272000D02*
X129897D01*
X128898D01*
Y277998D01*
X127898Y276998D01*
X84300Y236100D02*
Y242098D01*
X87299D01*
X88299Y241098D01*
Y239099D01*
X87299Y238099D01*
X84300D01*
X86299D02*
X88299Y236100D01*
X90298D02*
X92297D01*
X91298D01*
Y242098D01*
X90298Y241098D01*
X101700Y239524D02*
Y243522D01*
X100700Y244522D01*
X98701D01*
X97701Y243522D01*
Y239524D01*
X98701Y238524D01*
X100700D01*
X99701Y240523D02*
X101700Y238524D01*
X100700D02*
X101700Y239524D01*
X107698Y238524D02*
X103699D01*
X107698Y242523D01*
Y243522D01*
X106698Y244522D01*
X104699D01*
X103699Y243522D01*
D15*
X440970Y236245D02*
G03*
X440970Y236245I-204724J0D01*
G01*
X236245Y117545D02*
Y149041D01*
Y117545D02*
X271678D01*
Y149041D01*
X236245D02*
X271678D01*
X236245Y117545D02*
Y149041D01*
X200812Y117545D02*
X236245D01*
X200812D02*
Y149041D01*
X236245D01*
X288017Y261836D02*
X358883Y210655D01*
X288017D02*
X358883Y261836D01*
Y210655D02*
Y261836D01*
X288017Y210655D02*
X358883D01*
X288017D02*
Y261836D01*
X358883D01*
X200812Y176600D02*
X271678Y121482D01*
X200812D02*
X271678Y176600D01*
X293585Y149041D02*
X323450Y178906D01*
X178906Y149041D02*
X293585D01*
X149041Y178906D02*
X178906Y149041D01*
X149041Y178906D02*
Y293585D01*
X178906Y323450D01*
X293585D01*
X323450Y293585D01*
Y178906D02*
Y293585D01*
D16*
X131750Y316004D02*
X141250D01*
X131750Y163996D02*
Y316004D01*
Y163996D02*
X141250D01*
Y316004D01*
X131750D02*
X141250D01*
X131750Y163996D02*
Y316004D01*
Y163996D02*
X141250D01*
X71750Y316004D02*
X81250D01*
X71750Y163996D02*
Y316004D01*
Y163996D02*
X81250D01*
Y316004D01*
X71750D02*
X81250D01*
X71750Y163996D02*
Y316004D01*
Y163996D02*
X81250D01*
D17*
X43177Y194016D02*
Y225984D01*
X67980D01*
Y194016D02*
Y225984D01*
X43177Y194016D02*
X67980D01*
X119810Y257055D02*
Y268945D01*
X113826Y257055D02*
X119810D01*
X113826D02*
Y268945D01*
X119810D01*
X199166Y377041D02*
X207433D01*
X199166Y356569D02*
Y377041D01*
Y356569D02*
X207433D01*
Y377041D01*
X521020Y377642D02*
X595980D01*
Y177681D02*
Y377642D01*
X521020Y177681D02*
X595980D01*
X521020D02*
Y377642D01*
X203555Y338992D02*
X215445D01*
Y333008D02*
Y338992D01*
X203555Y333008D02*
X215445D01*
X203555D02*
Y338992D01*
X142234Y163012D02*
Y316988D01*
X130766D02*
X142234D01*
X130766Y163012D02*
Y316988D01*
Y163012D02*
X142234D01*
X82234D02*
Y316988D01*
X70766D02*
X82234D01*
X70766Y163012D02*
Y316988D01*
Y163012D02*
X82234D01*
X43677Y264016D02*
Y295984D01*
X68480D01*
Y264016D02*
Y295984D01*
X43677Y264016D02*
X68480D01*
X199492Y98803D02*
X273075D01*
Y54276D02*
Y98803D01*
X199492Y54276D02*
X273075D01*
X199492D02*
Y98803D01*
X86000Y107177D02*
X128984D01*
X86016D02*
Y131980D01*
X86000D02*
X128984D01*
Y107177D02*
Y131980D01*
X121008Y257055D02*
Y268945D01*
X126992D01*
Y257055D02*
Y268945D01*
X121008Y257055D02*
X126992D01*
X83432Y232992D02*
X95322D01*
Y227008D02*
Y232992D01*
X83432Y227008D02*
X95322D01*
X83432D02*
Y232992D01*
X111506Y219731D02*
Y233117D01*
X96821Y219731D02*
X111506D01*
X96821D02*
Y233117D01*
X111506D01*
M02*
