%TF.GenerationSoftware,KiCad,Pcbnew,8.0.1*%
%TF.CreationDate,2024-04-24T20:44:49+02:00*%
%TF.ProjectId,Connectors_card,436f6e6e-6563-4746-9f72-735f63617264,rev?*%
%TF.SameCoordinates,Original*%
%TF.FileFunction,Other,User*%
%FSLAX46Y46*%
G04 Gerber Fmt 4.6, Leading zero omitted, Abs format (unit mm)*
G04 Created by KiCad (PCBNEW 8.0.1) date 2024-04-24 20:44:49*
%MOMM*%
%LPD*%
G01*
G04 APERTURE LIST*
%ADD10C,0.050000*%
%ADD11C,0.100000*%
G04 APERTURE END LIST*
D10*
%TO.C,J3*%
X99548200Y-96042000D02*
X105848200Y-96042000D01*
X99548200Y-104162000D02*
X99548200Y-96042000D01*
X105848200Y-96042000D02*
X105848200Y-104162000D01*
X105848200Y-104162000D02*
X99548200Y-104162000D01*
%TO.C,J5*%
X119878200Y-124212000D02*
X130538200Y-124212000D01*
X119878200Y-130512000D02*
X119878200Y-124212000D01*
X130538200Y-124212000D02*
X130538200Y-130512000D01*
X130538200Y-130512000D02*
X119878200Y-130512000D01*
%TO.C,Q1*%
X113478200Y-89142000D02*
X113478200Y-92982000D01*
X113478200Y-92982000D02*
X116878200Y-92982000D01*
X116878200Y-89142000D02*
X113478200Y-89142000D01*
X116878200Y-92982000D02*
X116878200Y-89142000D01*
%TO.C,F1*%
X139378200Y-61062000D02*
X144078200Y-61062000D01*
X139378200Y-63462000D02*
X139378200Y-61062000D01*
X144078200Y-61062000D02*
X144078200Y-63462000D01*
X144078200Y-63462000D02*
X139378200Y-63462000D01*
%TO.C,J6*%
X140333200Y-131022000D02*
X159023200Y-131022000D01*
X140333200Y-142332000D02*
X140333200Y-131022000D01*
X159023200Y-131022000D02*
X159023200Y-142332000D01*
X159023200Y-142332000D02*
X140333200Y-142332000D01*
%TO.C,U1*%
X106438200Y-67722000D02*
X125478200Y-67722000D01*
X106438200Y-118512000D02*
X106438200Y-67722000D01*
X125478200Y-67722000D02*
X125478200Y-118512000D01*
X125478200Y-118512000D02*
X106438200Y-118512000D01*
%TO.C,J1*%
X131878200Y-56062000D02*
X131878200Y-65362000D01*
X133378200Y-54162000D02*
X131878200Y-56062000D01*
X136578200Y-54162000D02*
X133378200Y-54162000D01*
X136578200Y-54162000D02*
X138078200Y-56162000D01*
X138078200Y-56162000D02*
X138078200Y-65362000D01*
X138078200Y-65362000D02*
X131878200Y-65362000D01*
%TO.C,J7*%
X106556200Y-75126000D02*
X110106200Y-75126000D01*
X106556200Y-114226000D02*
X106556200Y-75126000D01*
X110106200Y-75126000D02*
X110106200Y-114226000D01*
X110106200Y-114226000D02*
X106556200Y-114226000D01*
D11*
%TO.C,Q2*%
X145278200Y-58012000D02*
X153778200Y-58012000D01*
X145278200Y-71212000D02*
X145278200Y-58012000D01*
X153778200Y-58012000D02*
X153778200Y-71212000D01*
X153778200Y-71212000D02*
X145278200Y-71212000D01*
D10*
%TO.C,J8*%
X121796200Y-75126000D02*
X125346200Y-75126000D01*
X121796200Y-114226000D02*
X121796200Y-75126000D01*
X125346200Y-75126000D02*
X125346200Y-114226000D01*
X125346200Y-114226000D02*
X121796200Y-114226000D01*
%TO.C,J4*%
X99548200Y-87462000D02*
X105848200Y-87462000D01*
X99548200Y-95582000D02*
X99548200Y-87462000D01*
X105848200Y-87462000D02*
X105848200Y-95582000D01*
X105848200Y-95582000D02*
X99548200Y-95582000D01*
%TO.C,R2*%
X110198200Y-91362000D02*
X113398200Y-91362000D01*
X110198200Y-92962000D02*
X110198200Y-91362000D01*
X113398200Y-91362000D02*
X113398200Y-92962000D01*
X113398200Y-92962000D02*
X110198200Y-92962000D01*
%TO.C,R1*%
X140078200Y-67962000D02*
X143278200Y-67962000D01*
X140078200Y-69562000D02*
X140078200Y-67962000D01*
X143278200Y-67962000D02*
X143278200Y-69562000D01*
X143278200Y-69562000D02*
X140078200Y-69562000D01*
%TO.C,C1*%
X120098200Y-98862000D02*
X121698200Y-98862000D01*
X120098200Y-102062000D02*
X120098200Y-98862000D01*
X121698200Y-98862000D02*
X121698200Y-102062000D01*
X121698200Y-102062000D02*
X120098200Y-102062000D01*
%TO.C,J2*%
X160978200Y-56062000D02*
X160978200Y-65362000D01*
X162478200Y-54162000D02*
X160978200Y-56062000D01*
X165678200Y-54162000D02*
X162478200Y-54162000D01*
X165678200Y-54162000D02*
X167178200Y-56162000D01*
X167178200Y-56162000D02*
X167178200Y-65362000D01*
X167178200Y-65362000D02*
X160978200Y-65362000D01*
%TO.C,R3*%
X118498200Y-98862000D02*
X120098200Y-98862000D01*
X118498200Y-102062000D02*
X118498200Y-98862000D01*
X120098200Y-98862000D02*
X120098200Y-102062000D01*
X120098200Y-102062000D02*
X118498200Y-102062000D01*
%TD*%
M02*
