%TF.GenerationSoftware,KiCad,Pcbnew,8.0.1*%
%TF.CreationDate,2024-04-24T20:44:49+02:00*%
%TF.ProjectId,Connectors_card,436f6e6e-6563-4746-9f72-735f63617264,rev?*%
%TF.SameCoordinates,Original*%
%TF.FileFunction,Copper,L1,Top*%
%TF.FilePolarity,Positive*%
%FSLAX46Y46*%
G04 Gerber Fmt 4.6, Leading zero omitted, Abs format (unit mm)*
G04 Created by KiCad (PCBNEW 8.0.1) date 2024-04-24 20:44:49*
%MOMM*%
%LPD*%
G01*
G04 APERTURE LIST*
G04 Aperture macros list*
%AMRoundRect*
0 Rectangle with rounded corners*
0 $1 Rounding radius*
0 $2 $3 $4 $5 $6 $7 $8 $9 X,Y pos of 4 corners*
0 Add a 4 corners polygon primitive as box body*
4,1,4,$2,$3,$4,$5,$6,$7,$8,$9,$2,$3,0*
0 Add four circle primitives for the rounded corners*
1,1,$1+$1,$2,$3*
1,1,$1+$1,$4,$5*
1,1,$1+$1,$6,$7*
1,1,$1+$1,$8,$9*
0 Add four rect primitives between the rounded corners*
20,1,$1+$1,$2,$3,$4,$5,0*
20,1,$1+$1,$4,$5,$6,$7,0*
20,1,$1+$1,$6,$7,$8,$9,0*
20,1,$1+$1,$8,$9,$2,$3,0*%
G04 Aperture macros list end*
%TA.AperFunction,ComponentPad*%
%ADD10R,1.650000X1.650000*%
%TD*%
%TA.AperFunction,ComponentPad*%
%ADD11C,1.650000*%
%TD*%
%TA.AperFunction,SMDPad,CuDef*%
%ADD12RoundRect,0.150000X0.150000X-0.587500X0.150000X0.587500X-0.150000X0.587500X-0.150000X-0.587500X0*%
%TD*%
%TA.AperFunction,SMDPad,CuDef*%
%ADD13RoundRect,0.250000X0.275000X0.700000X-0.275000X0.700000X-0.275000X-0.700000X0.275000X-0.700000X0*%
%TD*%
%TA.AperFunction,ComponentPad*%
%ADD14R,1.520000X1.520000*%
%TD*%
%TA.AperFunction,ComponentPad*%
%ADD15C,1.520000*%
%TD*%
%TA.AperFunction,ComponentPad*%
%ADD16R,1.530000X1.530000*%
%TD*%
%TA.AperFunction,ComponentPad*%
%ADD17C,1.530000*%
%TD*%
%TA.AperFunction,ComponentPad*%
%ADD18C,3.000000*%
%TD*%
%TA.AperFunction,ComponentPad*%
%ADD19R,3.000000X3.000000*%
%TD*%
%TA.AperFunction,ComponentPad*%
%ADD20R,1.700000X1.700000*%
%TD*%
%TA.AperFunction,ComponentPad*%
%ADD21O,1.700000X1.700000*%
%TD*%
%TA.AperFunction,SMDPad,CuDef*%
%ADD22R,1.500000X2.900000*%
%TD*%
%TA.AperFunction,SMDPad,CuDef*%
%ADD23R,6.300000X6.500000*%
%TD*%
%TA.AperFunction,SMDPad,CuDef*%
%ADD24RoundRect,0.200000X-0.200000X-0.275000X0.200000X-0.275000X0.200000X0.275000X-0.200000X0.275000X0*%
%TD*%
%TA.AperFunction,SMDPad,CuDef*%
%ADD25RoundRect,0.225000X0.250000X-0.225000X0.250000X0.225000X-0.250000X0.225000X-0.250000X-0.225000X0*%
%TD*%
%TA.AperFunction,SMDPad,CuDef*%
%ADD26RoundRect,0.200000X-0.275000X0.200000X-0.275000X-0.200000X0.275000X-0.200000X0.275000X0.200000X0*%
%TD*%
%TA.AperFunction,ViaPad*%
%ADD27C,0.600000*%
%TD*%
%TA.AperFunction,Conductor*%
%ADD28C,0.300000*%
%TD*%
%TA.AperFunction,Conductor*%
%ADD29C,0.200000*%
%TD*%
G04 APERTURE END LIST*
D10*
%TO.P,J3,1,1*%
%TO.N,+5V*%
X102698200Y-102642000D03*
D11*
%TO.P,J3,2,2*%
%TO.N,/PA8{slash}TIM1_CH1*%
X102698200Y-100102000D03*
%TO.P,J3,3,3*%
%TO.N,GND*%
X102698200Y-97562000D03*
%TD*%
D10*
%TO.P,J5,1,1*%
%TO.N,+3.3V*%
X129018200Y-127362000D03*
D11*
%TO.P,J5,2,2*%
%TO.N,/PA3{slash}BTN*%
X126478200Y-127362000D03*
%TO.P,J5,3,3*%
%TO.N,+12V*%
X123938200Y-127362000D03*
%TO.P,J5,4,4*%
%TO.N,Net-(Q1-C)*%
X121398200Y-127362000D03*
%TD*%
D12*
%TO.P,Q1,1,B*%
%TO.N,Net-(Q1-B)*%
X114228200Y-91999500D03*
%TO.P,Q1,2,E*%
%TO.N,GND*%
X116128200Y-91999500D03*
%TO.P,Q1,3,C*%
%TO.N,Net-(Q1-C)*%
X115178200Y-90124500D03*
%TD*%
D13*
%TO.P,F1,1*%
%TO.N,+12V*%
X143303200Y-62262000D03*
%TO.P,F1,2*%
%TO.N,Net-(F1-Pad2)*%
X140153200Y-62262000D03*
%TD*%
D14*
%TO.P,J6,1,1*%
%TO.N,GND*%
X145178200Y-135462000D03*
D15*
%TO.P,J6,2,2*%
%TO.N,/PA6{slash}RST*%
X148178200Y-135462000D03*
%TO.P,J6,3,3*%
%TO.N,+5V*%
X151178200Y-135462000D03*
%TO.P,J6,4,4*%
%TO.N,/PB0{slash}DC*%
X154178200Y-135462000D03*
%TO.P,J6,5,5*%
%TO.N,/PA1{slash}SPI_CLK*%
X145178200Y-138462000D03*
%TO.P,J6,6,6*%
%TO.N,/PA5{slash}CS*%
X148178200Y-138462000D03*
%TO.P,J6,7,7*%
%TO.N,/PA7{slash}SPI_MOSI*%
X151178200Y-138462000D03*
%TO.P,J6,8,8*%
%TO.N,/PB1{slash}BLK*%
X154178200Y-138462000D03*
%TD*%
D16*
%TO.P,U1,CN3_1,CN3_1*%
%TO.N,Net-(U1-PadCN3_1)*%
X108338200Y-76902000D03*
D17*
%TO.P,U1,CN3_2,CN3_2*%
X108338200Y-79442000D03*
%TO.P,U1,CN3_3,CN3_3*%
%TO.N,Net-(U1-PadCN3_3)*%
X108338200Y-81982000D03*
%TO.P,U1,CN3_4,CN3_4*%
X108338200Y-84522000D03*
%TO.P,U1,CN3_5,CN3_5*%
%TO.N,Net-(U1-PadCN3_5)*%
X108338200Y-87062000D03*
%TO.P,U1,CN3_6,CN3_6*%
X108338200Y-89602000D03*
%TO.P,U1,CN3_7*%
%TO.N,N/C*%
X108338200Y-92142000D03*
%TO.P,U1,CN3_8,CN3_8*%
%TO.N,Net-(U1-VC10)*%
X108338200Y-94682000D03*
%TO.P,U1,CN3_9,CN3_9*%
%TO.N,Net-(U1-PadCN3_10)*%
X108338200Y-97222000D03*
%TO.P,U1,CN3_10,CN3_10*%
X108338200Y-99762000D03*
%TO.P,U1,CN3_11,CN3_11*%
%TO.N,Net-(U1-PadCN3_11)*%
X108338200Y-102302000D03*
%TO.P,U1,CN3_12,CN3_12*%
X108338200Y-104842000D03*
%TO.P,U1,CN3_13,CN3_13*%
%TO.N,Net-(U1-PadCN3_13)*%
X108338200Y-107382000D03*
%TO.P,U1,CN3_14,CN3_14*%
X108338200Y-109922000D03*
%TO.P,U1,CN3_15,CN3_15*%
%TO.N,Net-(U1-PadCN3_15)*%
X108338200Y-112462000D03*
D16*
%TO.P,U1,CN4_1,CN4_1*%
X123578200Y-76902000D03*
D17*
%TO.P,U1,CN4_2,CN4_2*%
%TO.N,Net-(U1-PadCN4_2)*%
X123578200Y-79442000D03*
%TO.P,U1,CN4_3,CN4_3*%
X123578200Y-81982000D03*
%TO.P,U1,CN4_4*%
%TO.N,N/C*%
X123578200Y-84522000D03*
%TO.P,U1,CN4_5,CN4_5*%
%TO.N,Net-(U1-PadCN4_5)*%
X123578200Y-87062000D03*
%TO.P,U1,CN4_6,CN4_6*%
X123578200Y-89602000D03*
%TO.P,U1,CN4_7,CN4_7*%
%TO.N,Net-(U1-PadCN4_7)*%
X123578200Y-92142000D03*
%TO.P,U1,CN4_8,CN4_8*%
X123578200Y-94682000D03*
%TO.P,U1,CN4_9,CN4_9*%
%TO.N,Net-(U1-PadCN4_10)*%
X123578200Y-97222000D03*
%TO.P,U1,CN4_10,CN4_10*%
%TO.N,/PA3{slash}BTN*%
X123578200Y-99762000D03*
%TO.P,U1,CN4_11,CN4_11*%
%TO.N,Net-(U1-PadCN4_11)*%
X123578200Y-102302000D03*
%TO.P,U1,CN4_12,CN4_12*%
X123578200Y-104842000D03*
%TO.P,U1,CN4_13,CN4_13*%
%TO.N,Net-(U1-PadCN4_13)*%
X123578200Y-107382000D03*
%TO.P,U1,CN4_14,CN4_14*%
X123578200Y-109922000D03*
%TO.P,U1,CN4_15,CN4_15*%
%TO.N,unconnected-(U1-PadCN4_15)*%
X123578200Y-112462000D03*
%TD*%
D18*
%TO.P,J1,+,+*%
%TO.N,Net-(F1-Pad2)*%
X134978200Y-62262000D03*
D19*
%TO.P,J1,-,-*%
%TO.N,GND*%
X134978200Y-57262000D03*
%TD*%
D20*
%TO.P,J7,1,Pin_1*%
%TO.N,/PA9{slash}UART_TX*%
X108356200Y-76926000D03*
D21*
%TO.P,J7,2,Pin_2*%
%TO.N,/PA10{slash}UART_RX*%
X108356200Y-79466000D03*
%TO.P,J7,3,Pin_3*%
%TO.N,/NRST*%
X108356200Y-82006000D03*
%TO.P,J7,4,Pin_4*%
%TO.N,GND*%
X108356200Y-84546000D03*
%TO.P,J7,5,Pin_5*%
%TO.N,/PA12*%
X108356200Y-87086000D03*
%TO.P,J7,6,Pin_6*%
%TO.N,/PB0{slash}DC*%
X108356200Y-89626000D03*
%TO.P,J7,7,Pin_7*%
%TO.N,/PB7{slash}BTN_LED*%
X108356200Y-92166000D03*
%TO.P,J7,8,Pin_8*%
%TO.N,/PB6*%
X108356200Y-94706000D03*
%TO.P,J7,9,Pin_9*%
%TO.N,/PB1{slash}BLK*%
X108356200Y-97246000D03*
%TO.P,J7,10,Pin_10*%
%TO.N,/PC14*%
X108356200Y-99786000D03*
%TO.P,J7,11,Pin_11*%
%TO.N,/PC15*%
X108356200Y-102326000D03*
%TO.P,J7,12,Pin_12*%
%TO.N,/PA8{slash}TIM1_CH1*%
X108356200Y-104866000D03*
%TO.P,J7,13,Pin_13*%
%TO.N,/PA11*%
X108356200Y-107406000D03*
%TO.P,J7,14,Pin_14*%
%TO.N,/PB5*%
X108356200Y-109946000D03*
%TO.P,J7,15,Pin_15*%
%TO.N,/PB4*%
X108356200Y-112486000D03*
%TD*%
D22*
%TO.P,Q2,1,B*%
%TO.N,Net-(Q2-B)*%
X147242200Y-68762000D03*
D23*
%TO.P,Q2,2,C*%
%TO.N,+12V*%
X149528200Y-62262000D03*
D22*
%TO.P,Q2,3,E*%
%TO.N,Net-(Q2-E)*%
X151814200Y-68762000D03*
%TD*%
D20*
%TO.P,J8,1,Pin_1*%
%TO.N,+12V*%
X123596200Y-76926000D03*
D21*
%TO.P,J8,2,Pin_2*%
%TO.N,GND*%
X123596200Y-79466000D03*
%TO.P,J8,3,Pin_3*%
%TO.N,/NRST*%
X123596200Y-82006000D03*
%TO.P,J8,4,Pin_4*%
%TO.N,+5V*%
X123596200Y-84546000D03*
%TO.P,J8,5,Pin_5*%
%TO.N,/PA2*%
X123596200Y-87086000D03*
%TO.P,J8,6,Pin_6*%
%TO.N,/PA7{slash}SPI_MOSI*%
X123596200Y-89626000D03*
%TO.P,J8,7,Pin_7*%
%TO.N,/PA6{slash}RST*%
X123596200Y-92166000D03*
%TO.P,J8,8,Pin_8*%
%TO.N,/PA5{slash}CS*%
X123596200Y-94706000D03*
%TO.P,J8,9,Pin_9*%
%TO.N,/PA4{slash}MOS_ALIM*%
X123596200Y-97246000D03*
%TO.P,J8,10,Pin_10*%
%TO.N,/PA3{slash}BTN*%
X123596200Y-99786000D03*
%TO.P,J8,11,Pin_11*%
%TO.N,/PA1{slash}SPI_CLK*%
X123596200Y-102326000D03*
%TO.P,J8,12,Pin_12*%
%TO.N,/PA0*%
X123596200Y-104866000D03*
%TO.P,J8,13,Pin_13*%
%TO.N,/AREF*%
X123596200Y-107406000D03*
%TO.P,J8,14,Pin_14*%
%TO.N,+3.3V*%
X123596200Y-109946000D03*
%TO.P,J8,15,Pin_15*%
%TO.N,/PB3*%
X123596200Y-112486000D03*
%TD*%
D10*
%TO.P,J4,1,1*%
%TO.N,/PA9{slash}UART_TX*%
X102698200Y-94062000D03*
D11*
%TO.P,J4,2,2*%
%TO.N,/PA10{slash}UART_RX*%
X102698200Y-91522000D03*
%TO.P,J4,3,3*%
%TO.N,GND*%
X102698200Y-88982000D03*
%TD*%
D24*
%TO.P,R2,1*%
%TO.N,/PB7{slash}BTN_LED*%
X110973200Y-92162000D03*
%TO.P,R2,2*%
%TO.N,Net-(Q1-B)*%
X112623200Y-92162000D03*
%TD*%
%TO.P,R1,1*%
%TO.N,/PA4{slash}MOS_ALIM*%
X140853200Y-68762000D03*
%TO.P,R1,2*%
%TO.N,Net-(Q2-B)*%
X142503200Y-68762000D03*
%TD*%
D25*
%TO.P,C1,1*%
%TO.N,+3.3V*%
X120898200Y-101237000D03*
%TO.P,C1,2*%
%TO.N,/PA3{slash}BTN*%
X120898200Y-99687000D03*
%TD*%
D18*
%TO.P,J2,+,+*%
%TO.N,Net-(Q2-E)*%
X164078200Y-62262000D03*
D19*
%TO.P,J2,-,-*%
%TO.N,GND*%
X164078200Y-57262000D03*
%TD*%
D26*
%TO.P,R3,1*%
%TO.N,/PA3{slash}BTN*%
X119298200Y-99637000D03*
%TO.P,R3,2*%
%TO.N,GND*%
X119298200Y-101287000D03*
%TD*%
D27*
%TO.N,+5V*%
X151178200Y-128462000D03*
%TO.N,/PB0{slash}DC*%
X110978200Y-94862000D03*
X156478200Y-143462000D03*
%TO.N,/PB1{slash}BLK*%
X154178200Y-144562000D03*
%TO.N,/PA4{slash}MOS_ALIM*%
X139778200Y-68762000D03*
%TD*%
D28*
%TO.N,+3.3V*%
X120898200Y-109066000D02*
X121778200Y-109946000D01*
X120898200Y-101237000D02*
X120898200Y-109066000D01*
X121778200Y-109946000D02*
X123596200Y-109946000D01*
X120788200Y-110936000D02*
X121778200Y-109946000D01*
X129018200Y-126102000D02*
X120788200Y-117872000D01*
X120788200Y-117872000D02*
X120788200Y-110936000D01*
X129018200Y-127362000D02*
X129018200Y-126102000D01*
D29*
%TO.N,/PA3{slash}BTN*%
X118653200Y-99637000D02*
X119298200Y-99637000D01*
X119348200Y-99687000D02*
X119298200Y-99637000D01*
X120898200Y-99687000D02*
X119348200Y-99687000D01*
D28*
X126478200Y-127362000D02*
X126478200Y-126062000D01*
D29*
X118278200Y-100012000D02*
X118653200Y-99637000D01*
D28*
X118278200Y-117862000D02*
X118278200Y-100012000D01*
X126478200Y-126062000D02*
X118278200Y-117862000D01*
D29*
X123596200Y-99786000D02*
X120997200Y-99786000D01*
X120997200Y-99786000D02*
X120898200Y-99687000D01*
D28*
%TO.N,+12V*%
X121514200Y-76926000D02*
X123596200Y-76926000D01*
X120578200Y-93362000D02*
X120578200Y-77862000D01*
X116778200Y-118762000D02*
X116778200Y-97162000D01*
X143303200Y-62262000D02*
X149528200Y-62262000D01*
X123938200Y-127362000D02*
X123938200Y-126122000D01*
X143303200Y-62262000D02*
X143303200Y-64937000D01*
X123596200Y-70244000D02*
X123596200Y-76926000D01*
X123938200Y-126122000D02*
X116778200Y-118962000D01*
X120578200Y-77862000D02*
X121514200Y-76926000D01*
X127078200Y-66762000D02*
X123596200Y-70244000D01*
X141478200Y-66762000D02*
X127078200Y-66762000D01*
X116778200Y-97162000D02*
X120578200Y-93362000D01*
X116778200Y-118962000D02*
X116778200Y-118762000D01*
X143303200Y-64937000D02*
X141478200Y-66762000D01*
%TO.N,Net-(Q2-E)*%
X161778200Y-68762000D02*
X164078200Y-66462000D01*
X164078200Y-66462000D02*
X164078200Y-62262000D01*
X151814200Y-68762000D02*
X161778200Y-68762000D01*
%TO.N,+5V*%
X126807200Y-87757000D02*
X126807200Y-114691000D01*
X140578200Y-128462000D02*
X151178200Y-128462000D01*
X123596200Y-84546000D02*
X126807200Y-87757000D01*
X126807200Y-114691000D02*
X140578200Y-128462000D01*
D29*
%TO.N,/PA9{slash}UART_TX*%
X102698200Y-94062000D02*
X100698200Y-94062000D01*
X99798200Y-87662000D02*
X104698200Y-82762000D01*
X104698200Y-78262000D02*
X106034200Y-76926000D01*
X99798200Y-93162000D02*
X99798200Y-87662000D01*
X104698200Y-82762000D02*
X104698200Y-78262000D01*
X100698200Y-94062000D02*
X99798200Y-93162000D01*
X106034200Y-76926000D02*
X108356200Y-76926000D01*
%TO.N,/PA10{slash}UART_RX*%
X102698200Y-91522000D02*
X105138200Y-91522000D01*
X105138200Y-91522000D02*
X105798200Y-90862000D01*
X105798200Y-80162000D02*
X106494200Y-79466000D01*
X106494200Y-79466000D02*
X108356200Y-79466000D01*
X105798200Y-90862000D02*
X105798200Y-80162000D01*
D28*
%TO.N,Net-(Q1-C)*%
X115178200Y-119962000D02*
X115178200Y-119862000D01*
X121398200Y-127362000D02*
X121398200Y-126182000D01*
X121398200Y-126182000D02*
X115178200Y-119962000D01*
X115178200Y-119862000D02*
X115178200Y-90124500D01*
%TO.N,/PB0{slash}DC*%
X109278200Y-116762000D02*
X110978200Y-115062000D01*
X109278200Y-122862000D02*
X109278200Y-116762000D01*
X120978200Y-134562000D02*
X109278200Y-122862000D01*
X156478200Y-143462000D02*
X142578200Y-143462000D01*
X142578200Y-143462000D02*
X133678200Y-134562000D01*
X133678200Y-134562000D02*
X120978200Y-134562000D01*
X110978200Y-115062000D02*
X110978200Y-94862000D01*
%TO.N,/PB1{slash}BLK*%
X130828200Y-135512000D02*
X139878200Y-144562000D01*
X139878200Y-144562000D02*
X154178200Y-144562000D01*
X108356200Y-97246000D02*
X110278200Y-99168000D01*
X120128200Y-135512000D02*
X130828200Y-135512000D01*
X110278200Y-99168000D02*
X110278200Y-114462000D01*
X110278200Y-114462000D02*
X107978200Y-116762000D01*
X107978200Y-116762000D02*
X107978200Y-123362000D01*
X107978200Y-123362000D02*
X120128200Y-135512000D01*
D29*
%TO.N,/PA8{slash}TIM1_CH1*%
X100758200Y-100102000D02*
X100098200Y-100762000D01*
X100902200Y-104866000D02*
X108356200Y-104866000D01*
X102698200Y-100102000D02*
X100758200Y-100102000D01*
X100098200Y-104062000D02*
X100902200Y-104866000D01*
X100098200Y-100762000D02*
X100098200Y-104062000D01*
%TO.N,/PB7{slash}BTN_LED*%
X110969200Y-92166000D02*
X110973200Y-92162000D01*
X108356200Y-92166000D02*
X110969200Y-92166000D01*
D28*
%TO.N,/PA6{slash}RST*%
X124978200Y-92166000D02*
X123596200Y-92166000D01*
X138178200Y-130962000D02*
X125378200Y-118162000D01*
X145478200Y-130962000D02*
X138178200Y-130962000D01*
X125378200Y-92566000D02*
X124978200Y-92166000D01*
X125378200Y-118162000D02*
X125378200Y-92566000D01*
X148178200Y-135462000D02*
X148178200Y-133662000D01*
X148178200Y-133662000D02*
X145478200Y-130962000D01*
%TO.N,/PA7{slash}SPI_MOSI*%
X158978200Y-130962000D02*
X157878200Y-129862000D01*
X158978200Y-141162000D02*
X158978200Y-130962000D01*
X157878200Y-129862000D02*
X139178200Y-129862000D01*
X151178200Y-141262000D02*
X152178200Y-142262000D01*
X152178200Y-142262000D02*
X157878200Y-142262000D01*
X126078200Y-116762000D02*
X126078200Y-90362000D01*
X126078200Y-90362000D02*
X125342200Y-89626000D01*
X125342200Y-89626000D02*
X123596200Y-89626000D01*
X157878200Y-142262000D02*
X158978200Y-141162000D01*
X139178200Y-129862000D02*
X126078200Y-116762000D01*
X151178200Y-138462000D02*
X151178200Y-141262000D01*
%TO.N,/PA4{slash}MOS_ALIM*%
X140853200Y-68762000D02*
X139778200Y-68762000D01*
D29*
%TO.N,Net-(Q1-B)*%
X114065700Y-92162000D02*
X114228200Y-91999500D01*
X112623200Y-92162000D02*
X114065700Y-92162000D01*
D28*
%TO.N,Net-(Q2-B)*%
X142503200Y-68762000D02*
X147242200Y-68762000D01*
%TO.N,Net-(F1-Pad2)*%
X134978200Y-62262000D02*
X140153200Y-62262000D01*
%TD*%
%TA.AperFunction,Conductor*%
%TO.N,+12V*%
G36*
X147281671Y-59062195D02*
G01*
X147322336Y-59064478D01*
X147607149Y-59080473D01*
X147620948Y-59082027D01*
X147938895Y-59136049D01*
X147952452Y-59139143D01*
X148262348Y-59228423D01*
X148275472Y-59233016D01*
X148573415Y-59356427D01*
X148585937Y-59362456D01*
X148868206Y-59518461D01*
X148879979Y-59525859D01*
X149142989Y-59712475D01*
X149153849Y-59721135D01*
X149394327Y-59936039D01*
X149404160Y-59945872D01*
X149619059Y-60186344D01*
X149627728Y-60197216D01*
X149814339Y-60460219D01*
X149821738Y-60471993D01*
X149977739Y-60754255D01*
X149983772Y-60766784D01*
X150107183Y-61064727D01*
X150111776Y-61077851D01*
X150201056Y-61387747D01*
X150204150Y-61401304D01*
X150258170Y-61719240D01*
X150259727Y-61733058D01*
X150278005Y-62058527D01*
X150278200Y-62065480D01*
X150278200Y-62458519D01*
X150278005Y-62465472D01*
X150259727Y-62790941D01*
X150258170Y-62804759D01*
X150204150Y-63122695D01*
X150201056Y-63136252D01*
X150111776Y-63446148D01*
X150107183Y-63459272D01*
X149983772Y-63757215D01*
X149977739Y-63769744D01*
X149821738Y-64052006D01*
X149814339Y-64063780D01*
X149627728Y-64326783D01*
X149619059Y-64337655D01*
X149404160Y-64578127D01*
X149394327Y-64587960D01*
X149153855Y-64802859D01*
X149142983Y-64811528D01*
X148879980Y-64998139D01*
X148868206Y-65005538D01*
X148585944Y-65161539D01*
X148573415Y-65167572D01*
X148275472Y-65290983D01*
X148262348Y-65295576D01*
X147952452Y-65384856D01*
X147938895Y-65387950D01*
X147620959Y-65441970D01*
X147607141Y-65443527D01*
X147281672Y-65461805D01*
X147274719Y-65462000D01*
X145481681Y-65462000D01*
X145474728Y-65461805D01*
X145149258Y-65443527D01*
X145135440Y-65441970D01*
X144817504Y-65387950D01*
X144803947Y-65384856D01*
X144494051Y-65295576D01*
X144480927Y-65290983D01*
X144182984Y-65167572D01*
X144170455Y-65161539D01*
X143888193Y-65005538D01*
X143876419Y-64998139D01*
X143613416Y-64811528D01*
X143602544Y-64802859D01*
X143362072Y-64587960D01*
X143352239Y-64578127D01*
X143137340Y-64337655D01*
X143128675Y-64326789D01*
X142942059Y-64063779D01*
X142934661Y-64052006D01*
X142778660Y-63769744D01*
X142772627Y-63757215D01*
X142649216Y-63459272D01*
X142644623Y-63446148D01*
X142555343Y-63136252D01*
X142552249Y-63122695D01*
X142498227Y-62804748D01*
X142496673Y-62790949D01*
X142478395Y-62465471D01*
X142478200Y-62458519D01*
X142478200Y-62065480D01*
X142478395Y-62058528D01*
X142479000Y-62047753D01*
X142496673Y-61733048D01*
X142498227Y-61719253D01*
X142552249Y-61401299D01*
X142555343Y-61387747D01*
X142644623Y-61077851D01*
X142649216Y-61064727D01*
X142672928Y-61007479D01*
X142772630Y-60766775D01*
X142778652Y-60754269D01*
X142934667Y-60471983D01*
X142942054Y-60460228D01*
X143128682Y-60197201D01*
X143137328Y-60186358D01*
X143352249Y-59945861D01*
X143362061Y-59936049D01*
X143602558Y-59721128D01*
X143613401Y-59712482D01*
X143876428Y-59525854D01*
X143888183Y-59518467D01*
X144170469Y-59362452D01*
X144182975Y-59356430D01*
X144480927Y-59233016D01*
X144494047Y-59228424D01*
X144803953Y-59139141D01*
X144817499Y-59136049D01*
X145135453Y-59082027D01*
X145149248Y-59080473D01*
X145437483Y-59064286D01*
X145474729Y-59062195D01*
X145481681Y-59062000D01*
X147274719Y-59062000D01*
X147281671Y-59062195D01*
G37*
%TD.AperFunction*%
%TD*%
%TA.AperFunction,Conductor*%
%TO.N,Net-(Q2-E)*%
G36*
X164181671Y-60562195D02*
G01*
X164222336Y-60564478D01*
X164507149Y-60580473D01*
X164520948Y-60582027D01*
X164838895Y-60636049D01*
X164852452Y-60639143D01*
X165162348Y-60728423D01*
X165175472Y-60733016D01*
X165473415Y-60856427D01*
X165485937Y-60862456D01*
X165768206Y-61018461D01*
X165779979Y-61025859D01*
X166042989Y-61212475D01*
X166053849Y-61221135D01*
X166294327Y-61436039D01*
X166304160Y-61445872D01*
X166519059Y-61686344D01*
X166527728Y-61697216D01*
X166714339Y-61960219D01*
X166721738Y-61971993D01*
X166877739Y-62254255D01*
X166883772Y-62266784D01*
X167007183Y-62564727D01*
X167011776Y-62577851D01*
X167101056Y-62887747D01*
X167104150Y-62901304D01*
X167158170Y-63219240D01*
X167159727Y-63233058D01*
X167178005Y-63558527D01*
X167178200Y-63565480D01*
X167178200Y-68258519D01*
X167178005Y-68265472D01*
X167159727Y-68590941D01*
X167158170Y-68604759D01*
X167104150Y-68922695D01*
X167101056Y-68936252D01*
X167011776Y-69246148D01*
X167007183Y-69259272D01*
X166883772Y-69557215D01*
X166877739Y-69569744D01*
X166721738Y-69852006D01*
X166714339Y-69863780D01*
X166527728Y-70126783D01*
X166519059Y-70137655D01*
X166304160Y-70378127D01*
X166294327Y-70387960D01*
X166053855Y-70602859D01*
X166042983Y-70611528D01*
X165779980Y-70798139D01*
X165768206Y-70805538D01*
X165485944Y-70961539D01*
X165473415Y-70967572D01*
X165175472Y-71090983D01*
X165162348Y-71095576D01*
X164852452Y-71184856D01*
X164838895Y-71187950D01*
X164520959Y-71241970D01*
X164507141Y-71243527D01*
X164181672Y-71261805D01*
X164174719Y-71262000D01*
X152982628Y-71262000D01*
X152973782Y-71261684D01*
X152688184Y-71241257D01*
X152670672Y-71238739D01*
X152395229Y-71178820D01*
X152378254Y-71173836D01*
X152114137Y-71075326D01*
X152098043Y-71067976D01*
X151850636Y-70932881D01*
X151835753Y-70923316D01*
X151610091Y-70754388D01*
X151596720Y-70742802D01*
X151397397Y-70543479D01*
X151385811Y-70530108D01*
X151216883Y-70304446D01*
X151207318Y-70289563D01*
X151072223Y-70042156D01*
X151064875Y-70026068D01*
X150966361Y-69761940D01*
X150961379Y-69744970D01*
X150921935Y-69563651D01*
X150901459Y-69469524D01*
X150898942Y-69452015D01*
X150878832Y-69170836D01*
X150878832Y-69153163D01*
X150898942Y-68871978D01*
X150901460Y-68854472D01*
X150955782Y-68604759D01*
X150961381Y-68579021D01*
X150966360Y-68562062D01*
X151064877Y-68297926D01*
X151072218Y-68281853D01*
X151207322Y-68034428D01*
X151216878Y-68019559D01*
X151385816Y-67793884D01*
X151397390Y-67780527D01*
X151596727Y-67581190D01*
X151610084Y-67569616D01*
X151835759Y-67400678D01*
X151850628Y-67391122D01*
X152098053Y-67256018D01*
X152114126Y-67248677D01*
X152378262Y-67150160D01*
X152395221Y-67145181D01*
X152670677Y-67085259D01*
X152688178Y-67082742D01*
X152973782Y-67062316D01*
X152982628Y-67062000D01*
X157978183Y-67062000D01*
X157978200Y-67062000D01*
X160978200Y-67062000D01*
X160978200Y-63565480D01*
X160978395Y-63558528D01*
X160979000Y-63547753D01*
X160996673Y-63233048D01*
X160998227Y-63219253D01*
X161052249Y-62901299D01*
X161055343Y-62887747D01*
X161144623Y-62577851D01*
X161149216Y-62564727D01*
X161172928Y-62507479D01*
X161272630Y-62266775D01*
X161278652Y-62254269D01*
X161434667Y-61971983D01*
X161442054Y-61960228D01*
X161628682Y-61697201D01*
X161637328Y-61686358D01*
X161852249Y-61445861D01*
X161862061Y-61436049D01*
X162102558Y-61221128D01*
X162113401Y-61212482D01*
X162376428Y-61025854D01*
X162388183Y-61018467D01*
X162670469Y-60862452D01*
X162682975Y-60856430D01*
X162980927Y-60733016D01*
X162994047Y-60728424D01*
X163303953Y-60639141D01*
X163317499Y-60636049D01*
X163635453Y-60582027D01*
X163649248Y-60580473D01*
X163937483Y-60564286D01*
X163974729Y-60562195D01*
X163981681Y-60562000D01*
X164174719Y-60562000D01*
X164181671Y-60562195D01*
G37*
%TD.AperFunction*%
%TD*%
%TA.AperFunction,Conductor*%
%TO.N,Net-(F1-Pad2)*%
G36*
X138682243Y-60562265D02*
G01*
X138983371Y-60582001D01*
X138999427Y-60584116D01*
X139291393Y-60642192D01*
X139307059Y-60646390D01*
X139511429Y-60715763D01*
X139588945Y-60742077D01*
X139603922Y-60748280D01*
X139857000Y-60873084D01*
X139870910Y-60879944D01*
X139884958Y-60888054D01*
X140132473Y-61053439D01*
X140145337Y-61063310D01*
X140369145Y-61259585D01*
X140380614Y-61271054D01*
X140576889Y-61494862D01*
X140586763Y-61507730D01*
X140752145Y-61755242D01*
X140760255Y-61769289D01*
X140891916Y-62036270D01*
X140898123Y-62051256D01*
X140993809Y-62333140D01*
X140998007Y-62348806D01*
X141056081Y-62640758D01*
X141058199Y-62656840D01*
X141077668Y-62953890D01*
X141077668Y-62970110D01*
X141058199Y-63267159D01*
X141056081Y-63283241D01*
X140998007Y-63575193D01*
X140993809Y-63590859D01*
X140898123Y-63872743D01*
X140891916Y-63887729D01*
X140760255Y-64154710D01*
X140752145Y-64168757D01*
X140586763Y-64416269D01*
X140576889Y-64429137D01*
X140380614Y-64652945D01*
X140369145Y-64664414D01*
X140145337Y-64860689D01*
X140132469Y-64870563D01*
X139884957Y-65035945D01*
X139870910Y-65044055D01*
X139603929Y-65175716D01*
X139588943Y-65181923D01*
X139307059Y-65277609D01*
X139291393Y-65281807D01*
X138999441Y-65339881D01*
X138983359Y-65341999D01*
X138682243Y-65361735D01*
X138674133Y-65362000D01*
X134282267Y-65362000D01*
X134274157Y-65361735D01*
X133973040Y-65341999D01*
X133956959Y-65339881D01*
X133913407Y-65331218D01*
X133665006Y-65281807D01*
X133649340Y-65277609D01*
X133367456Y-65181923D01*
X133352470Y-65175716D01*
X133085489Y-65044055D01*
X133071442Y-65035945D01*
X132823930Y-64870563D01*
X132811062Y-64860689D01*
X132587254Y-64664414D01*
X132575785Y-64652945D01*
X132379510Y-64429137D01*
X132369636Y-64416269D01*
X132204254Y-64168757D01*
X132196144Y-64154710D01*
X132189284Y-64140800D01*
X132064480Y-63887722D01*
X132058276Y-63872743D01*
X131962590Y-63590859D01*
X131958392Y-63575193D01*
X131900316Y-63283227D01*
X131898201Y-63267171D01*
X131878731Y-62970101D01*
X131878731Y-62953898D01*
X131898201Y-62656826D01*
X131900315Y-62640774D01*
X131958393Y-62348802D01*
X131962590Y-62333140D01*
X131991112Y-62249116D01*
X132058279Y-62051248D01*
X132064477Y-62036283D01*
X132196147Y-61769283D01*
X132204250Y-61755248D01*
X132369644Y-61507718D01*
X132379501Y-61494873D01*
X132575790Y-61271048D01*
X132587248Y-61259590D01*
X132811073Y-61063301D01*
X132823918Y-61053444D01*
X133071448Y-60888050D01*
X133085483Y-60879947D01*
X133352483Y-60748277D01*
X133367448Y-60742079D01*
X133565316Y-60674912D01*
X133649340Y-60646390D01*
X133665002Y-60642193D01*
X133956974Y-60584115D01*
X133973028Y-60582001D01*
X134248780Y-60563928D01*
X134274158Y-60562265D01*
X134282267Y-60562000D01*
X138674133Y-60562000D01*
X138682243Y-60562265D01*
G37*
%TD.AperFunction*%
%TD*%
%TA.AperFunction,Conductor*%
%TO.N,GND*%
G36*
X150324790Y-44400538D02*
G01*
X151752550Y-44440242D01*
X151755943Y-44440383D01*
X153182044Y-44519761D01*
X153185430Y-44519997D01*
X154608833Y-44638992D01*
X154612175Y-44639318D01*
X156031707Y-44797834D01*
X156035046Y-44798253D01*
X157449648Y-44996172D01*
X157452950Y-44996681D01*
X158861494Y-45233844D01*
X158864847Y-45234457D01*
X160266176Y-45510669D01*
X160269503Y-45511372D01*
X161472860Y-45783517D01*
X161662633Y-45826435D01*
X161665985Y-45827242D01*
X163049793Y-46180904D01*
X163053121Y-46181804D01*
X164426624Y-46573813D01*
X164429861Y-46574787D01*
X165791869Y-47004804D01*
X165795102Y-47005874D01*
X167144720Y-47473618D01*
X167147863Y-47474757D01*
X168483964Y-47979840D01*
X168487105Y-47981078D01*
X169536057Y-48411304D01*
X169808563Y-48523072D01*
X169811734Y-48524424D01*
X171117663Y-49102963D01*
X171120713Y-49104365D01*
X172410078Y-49718994D01*
X172413116Y-49720494D01*
X173684816Y-50370686D01*
X173687832Y-50372280D01*
X174941050Y-51057617D01*
X174944006Y-51059287D01*
X176177674Y-51779189D01*
X176180547Y-51780919D01*
X177049479Y-52320908D01*
X177393700Y-52534820D01*
X177396602Y-52536680D01*
X178588282Y-53323980D01*
X178591132Y-53325920D01*
X179760506Y-54146072D01*
X179763300Y-54148091D01*
X180909354Y-55000379D01*
X180912092Y-55002474D01*
X182034080Y-55886346D01*
X182036758Y-55888517D01*
X183133695Y-56803197D01*
X183136312Y-56805441D01*
X184207431Y-57750290D01*
X184209984Y-57752606D01*
X185254404Y-58726845D01*
X185256892Y-58729231D01*
X186273860Y-59732159D01*
X186276280Y-59734614D01*
X187264924Y-60765370D01*
X187267276Y-60767891D01*
X188226921Y-61825773D01*
X188229201Y-61828358D01*
X189159054Y-62912490D01*
X189161262Y-62915138D01*
X190060626Y-64024709D01*
X190062759Y-64027417D01*
X190930923Y-65161548D01*
X190932980Y-65164314D01*
X191769273Y-66322128D01*
X191771253Y-66324950D01*
X192575065Y-67505604D01*
X192576965Y-67508480D01*
X193347624Y-68710987D01*
X193349444Y-68713915D01*
X194086405Y-69937426D01*
X194088142Y-69940404D01*
X194790772Y-71183867D01*
X194792426Y-71186891D01*
X195196319Y-71950481D01*
X195350887Y-72242704D01*
X195460249Y-72449460D01*
X195461818Y-72452530D01*
X196094254Y-73733116D01*
X196095738Y-73736228D01*
X196692356Y-75033947D01*
X196693752Y-75037099D01*
X197254064Y-76350902D01*
X197255372Y-76354091D01*
X197778938Y-77682940D01*
X197780157Y-77686165D01*
X198266580Y-79029051D01*
X198267709Y-79032308D01*
X198716618Y-80388207D01*
X198717656Y-80391494D01*
X199128704Y-81759361D01*
X199129650Y-81762676D01*
X199502506Y-83141411D01*
X199503360Y-83144751D01*
X199837757Y-84533360D01*
X199838517Y-84536722D01*
X200134174Y-85934048D01*
X200134841Y-85937431D01*
X200391548Y-87342470D01*
X200392120Y-87345869D01*
X200609664Y-88757462D01*
X200610142Y-88760876D01*
X200788369Y-90178026D01*
X200788751Y-90181452D01*
X200927507Y-91602925D01*
X200927795Y-91606360D01*
X201026990Y-93031243D01*
X201027181Y-93034685D01*
X201086725Y-94461696D01*
X201086821Y-94465142D01*
X201106676Y-95893290D01*
X201106676Y-95896738D01*
X201086821Y-97324885D01*
X201086725Y-97328331D01*
X201027181Y-98755342D01*
X201026990Y-98758784D01*
X200927795Y-100183667D01*
X200927507Y-100187102D01*
X200788751Y-101608575D01*
X200788369Y-101612001D01*
X200610142Y-103029151D01*
X200609664Y-103032565D01*
X200392120Y-104444158D01*
X200391548Y-104447557D01*
X200134841Y-105852596D01*
X200134174Y-105855979D01*
X199838517Y-107253305D01*
X199837757Y-107256667D01*
X199503360Y-108645276D01*
X199502506Y-108648616D01*
X199129650Y-110027351D01*
X199128704Y-110030666D01*
X198717656Y-111398533D01*
X198716618Y-111401820D01*
X198267709Y-112757719D01*
X198266580Y-112760976D01*
X197780157Y-114103862D01*
X197778938Y-114107087D01*
X197255372Y-115435936D01*
X197254064Y-115439125D01*
X196693752Y-116752928D01*
X196692356Y-116756080D01*
X196095738Y-118053799D01*
X196094254Y-118056911D01*
X195461818Y-119337497D01*
X195460249Y-119340567D01*
X194792426Y-120603136D01*
X194790772Y-120606160D01*
X194088142Y-121849623D01*
X194086405Y-121852601D01*
X193349444Y-123076112D01*
X193347624Y-123079040D01*
X192576965Y-124281547D01*
X192575065Y-124284423D01*
X191771253Y-125465077D01*
X191769273Y-125467899D01*
X190932980Y-126625713D01*
X190930923Y-126628479D01*
X190062759Y-127762610D01*
X190060626Y-127765318D01*
X189161262Y-128874889D01*
X189159054Y-128877537D01*
X188229201Y-129961669D01*
X188226921Y-129964254D01*
X187267276Y-131022136D01*
X187264924Y-131024657D01*
X186276280Y-132055413D01*
X186273860Y-132057868D01*
X185256892Y-133060796D01*
X185254404Y-133063182D01*
X184209984Y-134037421D01*
X184207431Y-134039737D01*
X183136312Y-134984586D01*
X183133695Y-134986830D01*
X182036758Y-135901510D01*
X182034080Y-135903681D01*
X180912092Y-136787553D01*
X180909354Y-136789648D01*
X179763300Y-137641936D01*
X179760506Y-137643955D01*
X178591132Y-138464107D01*
X178588282Y-138466047D01*
X177396602Y-139253347D01*
X177393700Y-139255207D01*
X176180587Y-140009083D01*
X176177634Y-140010862D01*
X174944028Y-140730727D01*
X174941027Y-140732423D01*
X173687847Y-141417739D01*
X173684799Y-141419350D01*
X172413143Y-142069519D01*
X172410052Y-142071046D01*
X171120754Y-142685643D01*
X171117622Y-142687083D01*
X169811734Y-143265603D01*
X169808563Y-143266955D01*
X168487138Y-143808936D01*
X168483931Y-143810200D01*
X167147912Y-144315252D01*
X167144671Y-144316426D01*
X165795121Y-144784146D01*
X165791848Y-144785229D01*
X164429893Y-145215230D01*
X164426592Y-145216223D01*
X163053121Y-145608223D01*
X163049793Y-145609123D01*
X161665985Y-145962785D01*
X161662633Y-145963592D01*
X160269525Y-146278650D01*
X160266153Y-146279363D01*
X158864866Y-146555566D01*
X158861475Y-146556186D01*
X157453002Y-146793338D01*
X157449595Y-146793863D01*
X156035086Y-146991768D01*
X156031665Y-146992198D01*
X154612220Y-147150704D01*
X154608789Y-147151039D01*
X153185457Y-147270028D01*
X153182018Y-147270267D01*
X151755969Y-147349642D01*
X151752525Y-147349786D01*
X150324790Y-147389490D01*
X150321343Y-147389538D01*
X148893057Y-147389538D01*
X148889610Y-147389490D01*
X147461874Y-147349786D01*
X147458430Y-147349642D01*
X146032381Y-147270267D01*
X146028942Y-147270028D01*
X144605610Y-147151039D01*
X144602179Y-147150704D01*
X143182734Y-146992198D01*
X143179313Y-146991768D01*
X141764804Y-146793863D01*
X141761397Y-146793338D01*
X140352924Y-146556186D01*
X140349533Y-146555566D01*
X138948246Y-146279363D01*
X138944874Y-146278650D01*
X137551766Y-145963592D01*
X137548414Y-145962785D01*
X136164606Y-145609123D01*
X136161278Y-145608223D01*
X134787807Y-145216223D01*
X134784506Y-145215230D01*
X133422551Y-144785229D01*
X133419278Y-144784146D01*
X132069728Y-144316426D01*
X132066487Y-144315252D01*
X131996058Y-144288628D01*
X130820258Y-143844143D01*
X130730468Y-143810200D01*
X130727261Y-143808936D01*
X129405836Y-143266955D01*
X129402665Y-143265603D01*
X128096777Y-142687083D01*
X128093645Y-142685643D01*
X127793293Y-142542468D01*
X126804347Y-142071046D01*
X126801256Y-142069519D01*
X125529600Y-141419350D01*
X125526552Y-141417739D01*
X124273372Y-140732423D01*
X124270371Y-140730727D01*
X124089970Y-140625455D01*
X123036746Y-140010850D01*
X123033831Y-140009095D01*
X122413862Y-139623822D01*
X121820699Y-139255207D01*
X121817797Y-139253347D01*
X120626117Y-138466047D01*
X120623267Y-138464107D01*
X119453893Y-137643955D01*
X119451099Y-137641936D01*
X118305045Y-136789648D01*
X118302307Y-136787553D01*
X117180319Y-135903681D01*
X117177641Y-135901510D01*
X116080704Y-134986830D01*
X116078087Y-134984586D01*
X115006968Y-134039737D01*
X115004415Y-134037421D01*
X113959995Y-133063182D01*
X113957507Y-133060796D01*
X112940539Y-132057868D01*
X112938119Y-132055413D01*
X111949475Y-131024657D01*
X111947123Y-131022136D01*
X110987478Y-129964254D01*
X110985198Y-129961669D01*
X110055345Y-128877537D01*
X110053137Y-128874889D01*
X109153773Y-127765318D01*
X109151640Y-127762610D01*
X108543114Y-126967659D01*
X108283469Y-126628470D01*
X108281419Y-126625713D01*
X108194373Y-126505202D01*
X107445123Y-125467896D01*
X107443146Y-125465077D01*
X106639329Y-124284416D01*
X106637434Y-124281547D01*
X106134820Y-123497288D01*
X105866775Y-123079040D01*
X105864955Y-123076112D01*
X105127994Y-121852601D01*
X105126257Y-121849623D01*
X104423627Y-120606160D01*
X104421973Y-120603136D01*
X103754133Y-119340534D01*
X103752598Y-119337531D01*
X103120145Y-118056911D01*
X103118661Y-118053799D01*
X103056295Y-117918145D01*
X102522019Y-116756027D01*
X102520647Y-116752928D01*
X102504836Y-116715856D01*
X101960335Y-115439125D01*
X101959027Y-115435936D01*
X101864999Y-115197287D01*
X101435460Y-114107086D01*
X101434242Y-114103862D01*
X101201467Y-113461232D01*
X100947811Y-112760954D01*
X100946690Y-112757719D01*
X100924909Y-112691932D01*
X100856729Y-112486000D01*
X107300617Y-112486000D01*
X107320899Y-112691932D01*
X107320900Y-112691934D01*
X107380968Y-112889954D01*
X107478515Y-113072450D01*
X107478517Y-113072452D01*
X107609789Y-113232410D01*
X107706409Y-113311702D01*
X107769750Y-113363685D01*
X107952246Y-113461232D01*
X108150266Y-113521300D01*
X108150265Y-113521300D01*
X108168729Y-113523118D01*
X108356200Y-113541583D01*
X108562134Y-113521300D01*
X108760154Y-113461232D01*
X108942650Y-113363685D01*
X109102610Y-113232410D01*
X109233885Y-113072450D01*
X109331432Y-112889954D01*
X109391500Y-112691934D01*
X109411783Y-112486000D01*
X109391500Y-112280066D01*
X109331432Y-112082046D01*
X109233885Y-111899550D01*
X109181902Y-111836209D01*
X109102610Y-111739589D01*
X108942652Y-111608317D01*
X108942653Y-111608317D01*
X108942650Y-111608315D01*
X108760154Y-111510768D01*
X108562134Y-111450700D01*
X108562132Y-111450699D01*
X108562134Y-111450699D01*
X108356200Y-111430417D01*
X108150267Y-111450699D01*
X107952243Y-111510769D01*
X107843903Y-111568679D01*
X107769750Y-111608315D01*
X107769748Y-111608316D01*
X107769747Y-111608317D01*
X107609789Y-111739589D01*
X107478517Y-111899547D01*
X107380969Y-112082043D01*
X107320899Y-112280067D01*
X107300617Y-112486000D01*
X100856729Y-112486000D01*
X100497781Y-111401820D01*
X100496743Y-111398533D01*
X100400789Y-111079222D01*
X100085683Y-110030624D01*
X100084761Y-110027394D01*
X100062749Y-109946000D01*
X107300617Y-109946000D01*
X107320899Y-110151932D01*
X107350934Y-110250944D01*
X107380968Y-110349954D01*
X107478515Y-110532450D01*
X107478517Y-110532452D01*
X107609789Y-110692410D01*
X107700118Y-110766540D01*
X107769750Y-110823685D01*
X107952246Y-110921232D01*
X108150266Y-110981300D01*
X108150265Y-110981300D01*
X108168729Y-110983118D01*
X108356200Y-111001583D01*
X108562134Y-110981300D01*
X108760154Y-110921232D01*
X108942650Y-110823685D01*
X109102610Y-110692410D01*
X109233885Y-110532450D01*
X109331432Y-110349954D01*
X109391500Y-110151934D01*
X109411783Y-109946000D01*
X109391500Y-109740066D01*
X109331432Y-109542046D01*
X109233885Y-109359550D01*
X109169592Y-109281208D01*
X109102610Y-109199589D01*
X108942652Y-109068317D01*
X108942653Y-109068317D01*
X108942650Y-109068315D01*
X108760154Y-108970768D01*
X108562134Y-108910700D01*
X108562132Y-108910699D01*
X108562134Y-108910699D01*
X108356200Y-108890417D01*
X108150267Y-108910699D01*
X107952243Y-108970769D01*
X107842098Y-109029643D01*
X107769750Y-109068315D01*
X107769748Y-109068316D01*
X107769747Y-109068317D01*
X107609789Y-109199589D01*
X107478517Y-109359547D01*
X107380969Y-109542043D01*
X107320899Y-109740067D01*
X107300617Y-109946000D01*
X100062749Y-109946000D01*
X99711884Y-108648580D01*
X99711048Y-108645311D01*
X99412604Y-107406000D01*
X107300617Y-107406000D01*
X107320899Y-107611932D01*
X107320900Y-107611934D01*
X107380968Y-107809954D01*
X107478515Y-107992450D01*
X107478517Y-107992452D01*
X107609789Y-108152410D01*
X107706409Y-108231702D01*
X107769750Y-108283685D01*
X107952246Y-108381232D01*
X108150266Y-108441300D01*
X108150265Y-108441300D01*
X108168729Y-108443118D01*
X108356200Y-108461583D01*
X108562134Y-108441300D01*
X108760154Y-108381232D01*
X108942650Y-108283685D01*
X109102610Y-108152410D01*
X109233885Y-107992450D01*
X109331432Y-107809954D01*
X109391500Y-107611934D01*
X109411783Y-107406000D01*
X109391500Y-107200066D01*
X109331432Y-107002046D01*
X109233885Y-106819550D01*
X109181902Y-106756209D01*
X109102610Y-106659589D01*
X108942652Y-106528317D01*
X108942653Y-106528317D01*
X108942650Y-106528315D01*
X108760154Y-106430768D01*
X108562134Y-106370700D01*
X108562132Y-106370699D01*
X108562134Y-106370699D01*
X108356200Y-106350417D01*
X108150267Y-106370699D01*
X107952243Y-106430769D01*
X107842098Y-106489643D01*
X107769750Y-106528315D01*
X107769748Y-106528316D01*
X107769747Y-106528317D01*
X107609789Y-106659589D01*
X107478517Y-106819547D01*
X107380969Y-107002043D01*
X107320899Y-107200067D01*
X107300617Y-107406000D01*
X99412604Y-107406000D01*
X99376631Y-107256618D01*
X99375893Y-107253355D01*
X99080222Y-105855963D01*
X99079558Y-105852596D01*
X99077482Y-105841232D01*
X98822843Y-104447510D01*
X98822287Y-104444207D01*
X98769481Y-104101562D01*
X99797700Y-104101562D01*
X99802531Y-104119590D01*
X99818179Y-104177990D01*
X99831415Y-104200914D01*
X99831417Y-104200917D01*
X99857737Y-104246507D01*
X99857739Y-104246510D01*
X99857740Y-104246511D01*
X100717689Y-105106460D01*
X100786212Y-105146022D01*
X100862638Y-105166500D01*
X100941762Y-105166500D01*
X107257621Y-105166500D01*
X107324660Y-105186185D01*
X107370415Y-105238989D01*
X107376281Y-105254503D01*
X107380968Y-105269954D01*
X107478515Y-105452450D01*
X107478517Y-105452452D01*
X107609789Y-105612410D01*
X107706409Y-105691702D01*
X107769750Y-105743685D01*
X107952246Y-105841232D01*
X108150266Y-105901300D01*
X108150265Y-105901300D01*
X108168729Y-105903118D01*
X108356200Y-105921583D01*
X108562134Y-105901300D01*
X108760154Y-105841232D01*
X108942650Y-105743685D01*
X109102610Y-105612410D01*
X109233885Y-105452450D01*
X109331432Y-105269954D01*
X109391500Y-105071934D01*
X109411783Y-104866000D01*
X109391500Y-104660066D01*
X109331432Y-104462046D01*
X109233885Y-104279550D01*
X109169352Y-104200916D01*
X109102610Y-104119589D01*
X108942652Y-103988317D01*
X108942653Y-103988317D01*
X108942650Y-103988315D01*
X108760154Y-103890768D01*
X108562134Y-103830700D01*
X108562132Y-103830699D01*
X108562134Y-103830699D01*
X108356200Y-103810417D01*
X108150267Y-103830699D01*
X107952243Y-103890769D01*
X107864763Y-103937529D01*
X107769750Y-103988315D01*
X107769748Y-103988316D01*
X107769747Y-103988317D01*
X107609789Y-104119589D01*
X107478517Y-104279547D01*
X107380969Y-104462043D01*
X107380968Y-104462046D01*
X107376281Y-104477497D01*
X107337983Y-104535935D01*
X107274170Y-104564391D01*
X107257621Y-104565500D01*
X101078033Y-104565500D01*
X101010994Y-104545815D01*
X100990352Y-104529181D01*
X100435019Y-103973848D01*
X100401534Y-103912525D01*
X100398700Y-103886167D01*
X100398700Y-103486752D01*
X101672700Y-103486752D01*
X101684331Y-103545229D01*
X101684332Y-103545230D01*
X101728647Y-103611552D01*
X101794969Y-103655867D01*
X101794970Y-103655868D01*
X101853447Y-103667499D01*
X101853450Y-103667500D01*
X101853452Y-103667500D01*
X103542950Y-103667500D01*
X103542951Y-103667499D01*
X103557768Y-103664552D01*
X103601429Y-103655868D01*
X103601429Y-103655867D01*
X103601431Y-103655867D01*
X103667752Y-103611552D01*
X103712067Y-103545231D01*
X103712067Y-103545229D01*
X103712068Y-103545229D01*
X103723699Y-103486752D01*
X103723700Y-103486750D01*
X103723700Y-102326000D01*
X107300617Y-102326000D01*
X107320899Y-102531932D01*
X107320900Y-102531934D01*
X107380968Y-102729954D01*
X107478515Y-102912450D01*
X107478517Y-102912452D01*
X107609789Y-103072410D01*
X107706409Y-103151702D01*
X107769750Y-103203685D01*
X107952246Y-103301232D01*
X108150266Y-103361300D01*
X108150265Y-103361300D01*
X108168729Y-103363118D01*
X108356200Y-103381583D01*
X108562134Y-103361300D01*
X108760154Y-103301232D01*
X108942650Y-103203685D01*
X109102610Y-103072410D01*
X109233885Y-102912450D01*
X109331432Y-102729954D01*
X109391500Y-102531934D01*
X109411783Y-102326000D01*
X109391500Y-102120066D01*
X109331432Y-101922046D01*
X109233885Y-101739550D01*
X109142448Y-101628133D01*
X109102610Y-101579589D01*
X108942652Y-101448317D01*
X108942653Y-101448317D01*
X108942650Y-101448315D01*
X108760154Y-101350768D01*
X108562134Y-101290700D01*
X108562132Y-101290699D01*
X108562134Y-101290699D01*
X108356200Y-101270417D01*
X108150267Y-101290699D01*
X107952243Y-101350769D01*
X107855972Y-101402228D01*
X107769750Y-101448315D01*
X107769748Y-101448316D01*
X107769747Y-101448317D01*
X107609789Y-101579589D01*
X107478517Y-101739547D01*
X107380969Y-101922043D01*
X107320899Y-102120067D01*
X107300617Y-102326000D01*
X103723700Y-102326000D01*
X103723700Y-101797249D01*
X103723699Y-101797247D01*
X103712068Y-101738770D01*
X103712067Y-101738769D01*
X103667752Y-101672447D01*
X103601430Y-101628132D01*
X103601429Y-101628131D01*
X103542952Y-101616500D01*
X103542948Y-101616500D01*
X101853452Y-101616500D01*
X101853447Y-101616500D01*
X101794970Y-101628131D01*
X101794969Y-101628132D01*
X101728647Y-101672447D01*
X101684332Y-101738769D01*
X101684331Y-101738770D01*
X101672700Y-101797247D01*
X101672700Y-103486752D01*
X100398700Y-103486752D01*
X100398700Y-100937833D01*
X100418385Y-100870794D01*
X100435019Y-100850152D01*
X100846352Y-100438819D01*
X100907675Y-100405334D01*
X100934033Y-100402500D01*
X101625746Y-100402500D01*
X101692785Y-100422185D01*
X101738540Y-100474989D01*
X101744405Y-100490500D01*
X101746176Y-100496338D01*
X101746180Y-100496348D01*
X101841398Y-100674488D01*
X101841403Y-100674495D01*
X101969552Y-100830647D01*
X102037575Y-100886471D01*
X102125706Y-100958798D01*
X102125709Y-100958799D01*
X102125711Y-100958801D01*
X102303854Y-101054021D01*
X102303856Y-101054021D01*
X102303859Y-101054023D01*
X102497167Y-101112662D01*
X102698200Y-101132462D01*
X102899233Y-101112662D01*
X103092541Y-101054023D01*
X103270694Y-100958798D01*
X103426847Y-100830647D01*
X103554998Y-100674494D01*
X103650223Y-100496341D01*
X103708862Y-100303033D01*
X103728662Y-100102000D01*
X103708862Y-99900967D01*
X103673987Y-99786000D01*
X107300617Y-99786000D01*
X107320899Y-99991932D01*
X107340093Y-100055205D01*
X107380968Y-100189954D01*
X107478515Y-100372450D01*
X107478517Y-100372452D01*
X107609789Y-100532410D01*
X107706409Y-100611702D01*
X107769750Y-100663685D01*
X107952246Y-100761232D01*
X108150266Y-100821300D01*
X108150265Y-100821300D01*
X108168729Y-100823118D01*
X108356200Y-100841583D01*
X108562134Y-100821300D01*
X108760154Y-100761232D01*
X108942650Y-100663685D01*
X109102610Y-100532410D01*
X109233885Y-100372450D01*
X109331432Y-100189954D01*
X109391500Y-99991934D01*
X109411783Y-99786000D01*
X109391500Y-99580066D01*
X109331432Y-99382046D01*
X109233885Y-99199550D01*
X109167060Y-99118123D01*
X109102610Y-99039589D01*
X108942652Y-98908317D01*
X108942653Y-98908317D01*
X108942650Y-98908315D01*
X108760154Y-98810768D01*
X108562134Y-98750700D01*
X108562132Y-98750699D01*
X108562134Y-98750699D01*
X108356200Y-98730417D01*
X108150267Y-98750699D01*
X107952243Y-98810769D01*
X107887840Y-98845194D01*
X107769750Y-98908315D01*
X107769748Y-98908316D01*
X107769747Y-98908317D01*
X107609789Y-99039589D01*
X107479247Y-99198658D01*
X107478515Y-99199550D01*
X107454113Y-99245202D01*
X107380969Y-99382043D01*
X107320899Y-99580067D01*
X107300617Y-99786000D01*
X103673987Y-99786000D01*
X103650223Y-99707659D01*
X103650221Y-99707656D01*
X103650221Y-99707654D01*
X103555001Y-99529511D01*
X103554999Y-99529509D01*
X103554998Y-99529506D01*
X103472115Y-99428512D01*
X103426847Y-99373352D01*
X103270695Y-99245203D01*
X103270688Y-99245198D01*
X103092545Y-99149978D01*
X102899231Y-99091337D01*
X102698200Y-99071538D01*
X102497168Y-99091337D01*
X102303854Y-99149978D01*
X102125711Y-99245198D01*
X102125704Y-99245203D01*
X101969552Y-99373352D01*
X101841403Y-99529504D01*
X101841398Y-99529511D01*
X101746180Y-99707651D01*
X101746176Y-99707661D01*
X101744405Y-99713500D01*
X101706106Y-99771937D01*
X101642292Y-99800391D01*
X101625746Y-99801500D01*
X100718638Y-99801500D01*
X100680424Y-99811739D01*
X100642209Y-99821979D01*
X100619417Y-99835138D01*
X100616362Y-99836903D01*
X100603683Y-99844222D01*
X100573689Y-99861539D01*
X99857741Y-100577487D01*
X99857735Y-100577495D01*
X99818182Y-100646004D01*
X99818179Y-100646009D01*
X99804526Y-100696962D01*
X99797700Y-100722438D01*
X99797700Y-104101562D01*
X98769481Y-104101562D01*
X98604731Y-103032543D01*
X98604257Y-103029151D01*
X98426026Y-101611971D01*
X98425648Y-101608575D01*
X98424335Y-101595126D01*
X98286889Y-100187077D01*
X98286604Y-100183667D01*
X98286003Y-100175038D01*
X98187408Y-98758769D01*
X98187218Y-98755342D01*
X98187024Y-98750700D01*
X98127673Y-97328323D01*
X98127578Y-97324885D01*
X98126481Y-97246000D01*
X107300617Y-97246000D01*
X107320899Y-97451932D01*
X107320900Y-97451934D01*
X107380968Y-97649954D01*
X107478515Y-97832450D01*
X107478517Y-97832452D01*
X107609789Y-97992410D01*
X107706409Y-98071702D01*
X107769750Y-98123685D01*
X107952246Y-98221232D01*
X108150266Y-98281300D01*
X108150265Y-98281300D01*
X108168729Y-98283118D01*
X108356200Y-98301583D01*
X108562134Y-98281300D01*
X108747036Y-98225210D01*
X108816899Y-98224588D01*
X108870709Y-98256191D01*
X109891381Y-99276863D01*
X109924866Y-99338186D01*
X109927700Y-99364544D01*
X109927700Y-114265456D01*
X109908015Y-114332495D01*
X109891381Y-114353137D01*
X107697731Y-116546786D01*
X107697727Y-116546791D01*
X107651587Y-116626709D01*
X107651586Y-116626712D01*
X107627700Y-116715856D01*
X107627700Y-123408143D01*
X107651586Y-123497287D01*
X107651587Y-123497290D01*
X107697727Y-123577208D01*
X107697729Y-123577211D01*
X107697730Y-123577212D01*
X119912988Y-135792470D01*
X119992912Y-135838614D01*
X120082056Y-135862500D01*
X120174344Y-135862500D01*
X130631656Y-135862500D01*
X130698695Y-135882185D01*
X130719337Y-135898819D01*
X139662988Y-144842470D01*
X139742912Y-144888614D01*
X139832056Y-144912500D01*
X139832057Y-144912500D01*
X139924344Y-144912500D01*
X153764305Y-144912500D01*
X153831344Y-144932185D01*
X153845512Y-144942790D01*
X153847066Y-144944137D01*
X153847072Y-144944143D01*
X153968147Y-145021953D01*
X153968150Y-145021954D01*
X153968149Y-145021954D01*
X154106236Y-145062499D01*
X154106238Y-145062500D01*
X154106239Y-145062500D01*
X154250162Y-145062500D01*
X154250162Y-145062499D01*
X154388253Y-145021953D01*
X154509328Y-144944143D01*
X154603577Y-144835373D01*
X154663365Y-144704457D01*
X154683847Y-144562000D01*
X154663365Y-144419543D01*
X154603577Y-144288627D01*
X154509328Y-144179857D01*
X154388253Y-144102047D01*
X154388251Y-144102046D01*
X154388249Y-144102045D01*
X154388250Y-144102045D01*
X154250163Y-144061500D01*
X154250161Y-144061500D01*
X154106239Y-144061500D01*
X154106236Y-144061500D01*
X153968149Y-144102045D01*
X153847076Y-144179854D01*
X153847074Y-144179855D01*
X153847072Y-144179857D01*
X153847070Y-144179858D01*
X153845512Y-144181210D01*
X153843627Y-144182070D01*
X153839611Y-144184652D01*
X153839239Y-144184074D01*
X153781957Y-144210237D01*
X153764305Y-144211500D01*
X140074744Y-144211500D01*
X140007705Y-144191815D01*
X139987063Y-144175181D01*
X131043413Y-135231531D01*
X131043408Y-135231527D01*
X130963490Y-135185387D01*
X130963489Y-135185386D01*
X130963488Y-135185386D01*
X130874344Y-135161500D01*
X130874343Y-135161500D01*
X120324744Y-135161500D01*
X120257705Y-135141815D01*
X120237063Y-135125181D01*
X108365019Y-123253137D01*
X108331534Y-123191814D01*
X108328700Y-123165456D01*
X108328700Y-116958544D01*
X108348385Y-116891505D01*
X108365019Y-116870863D01*
X108520026Y-116715856D01*
X108753332Y-116482549D01*
X108814653Y-116449066D01*
X108884344Y-116454050D01*
X108940278Y-116495921D01*
X108964695Y-116561386D01*
X108952330Y-116618222D01*
X108954697Y-116619202D01*
X108951586Y-116626712D01*
X108927700Y-116715856D01*
X108927700Y-122908143D01*
X108951586Y-122997287D01*
X108951587Y-122997290D01*
X108997727Y-123077208D01*
X108997729Y-123077211D01*
X108997730Y-123077212D01*
X120762988Y-134842470D01*
X120842912Y-134888614D01*
X120932056Y-134912500D01*
X120932057Y-134912500D01*
X121024344Y-134912500D01*
X133481656Y-134912500D01*
X133548695Y-134932185D01*
X133569337Y-134948819D01*
X142362988Y-143742470D01*
X142442912Y-143788614D01*
X142532056Y-143812500D01*
X142532057Y-143812500D01*
X142624344Y-143812500D01*
X156064305Y-143812500D01*
X156131344Y-143832185D01*
X156145512Y-143842790D01*
X156147066Y-143844137D01*
X156147072Y-143844143D01*
X156268147Y-143921953D01*
X156268150Y-143921954D01*
X156268149Y-143921954D01*
X156406236Y-143962499D01*
X156406238Y-143962500D01*
X156406239Y-143962500D01*
X156550162Y-143962500D01*
X156550162Y-143962499D01*
X156688253Y-143921953D01*
X156809328Y-143844143D01*
X156903577Y-143735373D01*
X156963365Y-143604457D01*
X156983847Y-143462000D01*
X156963365Y-143319543D01*
X156903577Y-143188627D01*
X156809328Y-143079857D01*
X156688253Y-143002047D01*
X156688251Y-143002046D01*
X156688249Y-143002045D01*
X156688250Y-143002045D01*
X156550163Y-142961500D01*
X156550161Y-142961500D01*
X156406239Y-142961500D01*
X156406236Y-142961500D01*
X156268149Y-143002045D01*
X156147076Y-143079854D01*
X156147074Y-143079855D01*
X156147072Y-143079857D01*
X156147070Y-143079858D01*
X156145512Y-143081210D01*
X156143627Y-143082070D01*
X156139611Y-143084652D01*
X156139239Y-143084074D01*
X156081957Y-143110237D01*
X156064305Y-143111500D01*
X142774744Y-143111500D01*
X142707705Y-143091815D01*
X142687063Y-143075181D01*
X139088789Y-139476907D01*
X141417700Y-139476907D01*
X141446923Y-139623822D01*
X141446925Y-139623830D01*
X141504251Y-139762229D01*
X141504256Y-139762238D01*
X141587480Y-139886790D01*
X141587483Y-139886794D01*
X141693405Y-139992716D01*
X141693409Y-139992719D01*
X141817961Y-140075943D01*
X141817967Y-140075946D01*
X141817968Y-140075947D01*
X141956370Y-140133275D01*
X142103292Y-140162499D01*
X142103296Y-140162500D01*
X142103297Y-140162500D01*
X142253104Y-140162500D01*
X142253105Y-140162499D01*
X142400030Y-140133275D01*
X142538432Y-140075947D01*
X142662991Y-139992719D01*
X142768919Y-139886791D01*
X142852147Y-139762232D01*
X142909475Y-139623830D01*
X142938700Y-139476903D01*
X142938700Y-139327097D01*
X142909475Y-139180170D01*
X142852147Y-139041768D01*
X142852146Y-139041767D01*
X142852143Y-139041761D01*
X142768919Y-138917209D01*
X142768916Y-138917205D01*
X142662994Y-138811283D01*
X142662990Y-138811280D01*
X142538438Y-138728056D01*
X142538429Y-138728051D01*
X142400030Y-138670725D01*
X142400022Y-138670723D01*
X142253107Y-138641500D01*
X142253103Y-138641500D01*
X142103297Y-138641500D01*
X142103292Y-138641500D01*
X141956377Y-138670723D01*
X141956369Y-138670725D01*
X141817970Y-138728051D01*
X141817961Y-138728056D01*
X141693409Y-138811280D01*
X141693405Y-138811283D01*
X141587483Y-138917205D01*
X141587480Y-138917209D01*
X141504256Y-139041761D01*
X141504251Y-139041770D01*
X141446925Y-139180169D01*
X141446923Y-139180177D01*
X141417700Y-139327092D01*
X141417700Y-139476907D01*
X139088789Y-139476907D01*
X138073882Y-138462000D01*
X144213053Y-138462000D01*
X144231597Y-138650289D01*
X144255186Y-138728051D01*
X144280433Y-138811281D01*
X144286521Y-138831348D01*
X144375712Y-138998210D01*
X144495737Y-139144462D01*
X144641989Y-139264487D01*
X144641993Y-139264490D01*
X144808854Y-139353680D01*
X144989909Y-139408602D01*
X145178200Y-139427147D01*
X145366491Y-139408602D01*
X145547546Y-139353680D01*
X145714407Y-139264490D01*
X145860662Y-139144462D01*
X145980690Y-138998207D01*
X146069880Y-138831346D01*
X146124802Y-138650291D01*
X146143347Y-138462000D01*
X147213053Y-138462000D01*
X147231597Y-138650289D01*
X147255186Y-138728051D01*
X147280433Y-138811281D01*
X147286521Y-138831348D01*
X147375712Y-138998210D01*
X147495737Y-139144462D01*
X147641989Y-139264487D01*
X147641993Y-139264490D01*
X147808854Y-139353680D01*
X147989909Y-139408602D01*
X148178200Y-139427147D01*
X148366491Y-139408602D01*
X148547546Y-139353680D01*
X148714407Y-139264490D01*
X148860662Y-139144462D01*
X148980690Y-138998207D01*
X149069880Y-138831346D01*
X149124802Y-138650291D01*
X149143347Y-138462000D01*
X149124802Y-138273709D01*
X149069880Y-138092654D01*
X148980690Y-137925793D01*
X148980687Y-137925789D01*
X148860662Y-137779537D01*
X148714410Y-137659512D01*
X148714408Y-137659511D01*
X148714407Y-137659510D01*
X148547546Y-137570320D01*
X148457018Y-137542859D01*
X148366489Y-137515397D01*
X148178200Y-137496853D01*
X147989910Y-137515397D01*
X147808851Y-137570321D01*
X147641989Y-137659512D01*
X147495737Y-137779537D01*
X147375712Y-137925789D01*
X147286521Y-138092651D01*
X147231597Y-138273710D01*
X147213053Y-138462000D01*
X146143347Y-138462000D01*
X146124802Y-138273709D01*
X146069880Y-138092654D01*
X145980690Y-137925793D01*
X145980687Y-137925789D01*
X145860662Y-137779537D01*
X145714410Y-137659512D01*
X145714408Y-137659511D01*
X145714407Y-137659510D01*
X145547546Y-137570320D01*
X145457018Y-137542859D01*
X145366489Y-137515397D01*
X145178200Y-137496853D01*
X144989910Y-137515397D01*
X144808851Y-137570321D01*
X144641989Y-137659512D01*
X144495737Y-137779537D01*
X144375712Y-137925789D01*
X144286521Y-138092651D01*
X144231597Y-138273710D01*
X144213053Y-138462000D01*
X138073882Y-138462000D01*
X133893413Y-134281531D01*
X133893408Y-134281527D01*
X133813490Y-134235387D01*
X133813489Y-134235386D01*
X133813488Y-134235386D01*
X133724344Y-134211500D01*
X133724343Y-134211500D01*
X121174744Y-134211500D01*
X121107705Y-134191815D01*
X121087063Y-134175181D01*
X109665019Y-122753137D01*
X109631534Y-122691814D01*
X109628700Y-122665456D01*
X109628700Y-116958544D01*
X109648385Y-116891505D01*
X109665019Y-116870863D01*
X110086816Y-116449066D01*
X111258670Y-115277212D01*
X111304814Y-115197288D01*
X111328700Y-115108144D01*
X111328700Y-95268035D01*
X111348385Y-95200996D01*
X111358982Y-95186837D01*
X111403577Y-95135373D01*
X111463365Y-95004457D01*
X111483847Y-94862000D01*
X111463365Y-94719543D01*
X111403577Y-94588627D01*
X111309328Y-94479857D01*
X111188253Y-94402047D01*
X111188251Y-94402046D01*
X111188249Y-94402045D01*
X111188250Y-94402045D01*
X111050163Y-94361500D01*
X111050161Y-94361500D01*
X110906239Y-94361500D01*
X110906236Y-94361500D01*
X110768149Y-94402045D01*
X110647073Y-94479856D01*
X110552823Y-94588626D01*
X110552822Y-94588628D01*
X110493034Y-94719543D01*
X110472553Y-94862000D01*
X110493034Y-95004456D01*
X110530959Y-95087499D01*
X110552823Y-95135373D01*
X110597413Y-95186833D01*
X110626438Y-95250388D01*
X110627700Y-95268035D01*
X110627700Y-98722456D01*
X110608015Y-98789495D01*
X110555211Y-98835250D01*
X110486053Y-98845194D01*
X110422497Y-98816169D01*
X110416019Y-98810137D01*
X109366391Y-97760509D01*
X109332906Y-97699186D01*
X109335410Y-97636837D01*
X109391500Y-97451934D01*
X109411783Y-97246000D01*
X109391500Y-97040066D01*
X109331432Y-96842046D01*
X109233885Y-96659550D01*
X109181902Y-96596209D01*
X109102610Y-96499589D01*
X108942652Y-96368317D01*
X108942653Y-96368317D01*
X108942650Y-96368315D01*
X108760154Y-96270768D01*
X108562134Y-96210700D01*
X108562132Y-96210699D01*
X108562134Y-96210699D01*
X108356200Y-96190417D01*
X108150267Y-96210699D01*
X107952243Y-96270769D01*
X107842098Y-96329643D01*
X107769750Y-96368315D01*
X107769748Y-96368316D01*
X107769747Y-96368317D01*
X107609789Y-96499589D01*
X107478517Y-96659547D01*
X107380969Y-96842043D01*
X107320899Y-97040067D01*
X107300617Y-97246000D01*
X98126481Y-97246000D01*
X98124672Y-97115856D01*
X98107723Y-95896668D01*
X98107723Y-95893359D01*
X98127578Y-94465132D01*
X98127674Y-94461696D01*
X98128235Y-94448260D01*
X98180255Y-93201562D01*
X99497700Y-93201562D01*
X99503065Y-93221583D01*
X99518179Y-93277990D01*
X99518182Y-93277995D01*
X99557735Y-93346504D01*
X99557739Y-93346509D01*
X99557740Y-93346511D01*
X100457740Y-94246511D01*
X100513689Y-94302460D01*
X100513691Y-94302461D01*
X100513695Y-94302464D01*
X100582204Y-94342017D01*
X100582211Y-94342021D01*
X100658638Y-94362500D01*
X100737762Y-94362500D01*
X101548700Y-94362500D01*
X101615739Y-94382185D01*
X101661494Y-94434989D01*
X101672700Y-94486500D01*
X101672700Y-94906752D01*
X101684331Y-94965229D01*
X101684332Y-94965230D01*
X101728647Y-95031552D01*
X101794969Y-95075867D01*
X101794970Y-95075868D01*
X101853447Y-95087499D01*
X101853450Y-95087500D01*
X101853452Y-95087500D01*
X103542950Y-95087500D01*
X103542951Y-95087499D01*
X103557768Y-95084552D01*
X103601429Y-95075868D01*
X103601429Y-95075867D01*
X103601431Y-95075867D01*
X103667752Y-95031552D01*
X103712067Y-94965231D01*
X103712067Y-94965229D01*
X103712068Y-94965229D01*
X103723699Y-94906752D01*
X103723700Y-94906750D01*
X103723700Y-94706000D01*
X107300617Y-94706000D01*
X107320899Y-94911932D01*
X107337067Y-94965230D01*
X107380968Y-95109954D01*
X107478515Y-95292450D01*
X107478517Y-95292452D01*
X107609789Y-95452410D01*
X107706409Y-95531702D01*
X107769750Y-95583685D01*
X107952246Y-95681232D01*
X108150266Y-95741300D01*
X108150265Y-95741300D01*
X108168729Y-95743118D01*
X108356200Y-95761583D01*
X108562134Y-95741300D01*
X108760154Y-95681232D01*
X108942650Y-95583685D01*
X109102610Y-95452410D01*
X109233885Y-95292450D01*
X109331432Y-95109954D01*
X109391500Y-94911934D01*
X109411783Y-94706000D01*
X109391500Y-94500066D01*
X109331432Y-94302046D01*
X109233885Y-94119550D01*
X109181902Y-94056209D01*
X109102610Y-93959589D01*
X108942652Y-93828317D01*
X108942653Y-93828317D01*
X108942650Y-93828315D01*
X108760154Y-93730768D01*
X108562134Y-93670700D01*
X108562132Y-93670699D01*
X108562134Y-93670699D01*
X108356200Y-93650417D01*
X108150267Y-93670699D01*
X107952243Y-93730769D01*
X107842098Y-93789643D01*
X107769750Y-93828315D01*
X107769748Y-93828316D01*
X107769747Y-93828317D01*
X107609789Y-93959589D01*
X107478517Y-94119547D01*
X107380969Y-94302043D01*
X107380968Y-94302045D01*
X107380968Y-94302046D01*
X107380841Y-94302464D01*
X107320899Y-94500067D01*
X107300617Y-94706000D01*
X103723700Y-94706000D01*
X103723700Y-93217249D01*
X103723699Y-93217247D01*
X103712068Y-93158770D01*
X103712067Y-93158769D01*
X103667752Y-93092447D01*
X103601430Y-93048132D01*
X103601429Y-93048131D01*
X103542952Y-93036500D01*
X103542948Y-93036500D01*
X101853452Y-93036500D01*
X101853447Y-93036500D01*
X101794970Y-93048131D01*
X101794969Y-93048132D01*
X101728647Y-93092447D01*
X101684332Y-93158769D01*
X101684331Y-93158770D01*
X101672700Y-93217247D01*
X101672700Y-93637500D01*
X101653015Y-93704539D01*
X101600211Y-93750294D01*
X101548700Y-93761500D01*
X100874033Y-93761500D01*
X100806994Y-93741815D01*
X100786352Y-93725181D01*
X100135019Y-93073848D01*
X100101534Y-93012525D01*
X100098700Y-92986167D01*
X100098700Y-91522000D01*
X101667738Y-91522000D01*
X101687537Y-91723031D01*
X101746178Y-91916345D01*
X101841398Y-92094488D01*
X101841403Y-92094495D01*
X101969552Y-92250647D01*
X102012059Y-92285531D01*
X102125706Y-92378798D01*
X102125709Y-92378799D01*
X102125711Y-92378801D01*
X102303854Y-92474021D01*
X102303856Y-92474021D01*
X102303859Y-92474023D01*
X102497167Y-92532662D01*
X102698200Y-92552462D01*
X102899233Y-92532662D01*
X103092541Y-92474023D01*
X103105617Y-92467034D01*
X103270688Y-92378801D01*
X103270686Y-92378801D01*
X103270694Y-92378798D01*
X103426847Y-92250647D01*
X103496315Y-92166000D01*
X107300617Y-92166000D01*
X107320899Y-92371932D01*
X107322982Y-92378798D01*
X107380968Y-92569954D01*
X107478515Y-92752450D01*
X107512190Y-92793483D01*
X107609789Y-92912410D01*
X107634323Y-92932544D01*
X107769750Y-93043685D01*
X107952246Y-93141232D01*
X108150266Y-93201300D01*
X108150265Y-93201300D01*
X108168729Y-93203118D01*
X108356200Y-93221583D01*
X108562134Y-93201300D01*
X108760154Y-93141232D01*
X108942650Y-93043685D01*
X109102610Y-92912410D01*
X109233885Y-92752450D01*
X109331432Y-92569954D01*
X109336119Y-92554503D01*
X109374417Y-92496065D01*
X109438230Y-92467609D01*
X109454779Y-92466500D01*
X110266474Y-92466500D01*
X110333513Y-92486185D01*
X110379268Y-92538989D01*
X110383589Y-92553326D01*
X110384537Y-92553019D01*
X110387552Y-92562300D01*
X110387553Y-92562303D01*
X110387554Y-92562304D01*
X110445150Y-92675342D01*
X110445152Y-92675344D01*
X110445154Y-92675347D01*
X110534852Y-92765045D01*
X110534854Y-92765046D01*
X110534858Y-92765050D01*
X110635563Y-92816362D01*
X110647898Y-92822647D01*
X110741675Y-92837499D01*
X110741681Y-92837500D01*
X111204718Y-92837499D01*
X111298504Y-92822646D01*
X111411542Y-92765050D01*
X111501250Y-92675342D01*
X111558846Y-92562304D01*
X111558846Y-92562302D01*
X111558847Y-92562301D01*
X111570902Y-92486185D01*
X111573700Y-92468519D01*
X111573700Y-92468517D01*
X112022700Y-92468517D01*
X112033492Y-92536657D01*
X112037554Y-92562304D01*
X112095150Y-92675342D01*
X112095152Y-92675344D01*
X112095154Y-92675347D01*
X112184852Y-92765045D01*
X112184854Y-92765046D01*
X112184858Y-92765050D01*
X112285563Y-92816362D01*
X112297898Y-92822647D01*
X112391675Y-92837499D01*
X112391681Y-92837500D01*
X112854718Y-92837499D01*
X112948504Y-92822646D01*
X113061542Y-92765050D01*
X113151250Y-92675342D01*
X113208846Y-92562304D01*
X113208846Y-92562302D01*
X113208847Y-92562301D01*
X113211863Y-92553020D01*
X113214374Y-92553836D01*
X113238020Y-92503963D01*
X113297334Y-92467034D01*
X113330560Y-92462500D01*
X113603700Y-92462500D01*
X113670739Y-92482185D01*
X113716494Y-92534989D01*
X113727700Y-92586500D01*
X113727700Y-92620260D01*
X113737626Y-92688391D01*
X113789003Y-92793485D01*
X113871714Y-92876196D01*
X113871715Y-92876196D01*
X113871717Y-92876198D01*
X113976807Y-92927573D01*
X114010873Y-92932536D01*
X114044939Y-92937500D01*
X114044940Y-92937500D01*
X114411461Y-92937500D01*
X114445475Y-92932544D01*
X114479593Y-92927573D01*
X114584683Y-92876198D01*
X114584685Y-92876196D01*
X114616019Y-92844863D01*
X114677342Y-92811378D01*
X114747034Y-92816362D01*
X114802967Y-92858234D01*
X114827384Y-92923698D01*
X114827700Y-92932544D01*
X114827700Y-120008143D01*
X114846192Y-120077157D01*
X114846208Y-120077214D01*
X114851586Y-120097289D01*
X114897727Y-120177208D01*
X114897729Y-120177211D01*
X114897730Y-120177212D01*
X117937336Y-123216818D01*
X120968160Y-126247641D01*
X121001645Y-126308964D01*
X120996661Y-126378656D01*
X120954789Y-126434589D01*
X120938933Y-126444680D01*
X120825707Y-126505200D01*
X120825704Y-126505203D01*
X120669552Y-126633352D01*
X120541403Y-126789504D01*
X120541398Y-126789511D01*
X120446178Y-126967654D01*
X120387537Y-127160968D01*
X120367738Y-127362000D01*
X120387537Y-127563031D01*
X120446178Y-127756345D01*
X120541398Y-127934488D01*
X120541403Y-127934495D01*
X120669552Y-128090647D01*
X120735234Y-128144550D01*
X120825706Y-128218798D01*
X120825709Y-128218799D01*
X120825711Y-128218801D01*
X121003854Y-128314021D01*
X121003856Y-128314021D01*
X121003859Y-128314023D01*
X121197167Y-128372662D01*
X121398200Y-128392462D01*
X121599233Y-128372662D01*
X121792541Y-128314023D01*
X121970694Y-128218798D01*
X122126847Y-128090647D01*
X122254998Y-127934494D01*
X122350223Y-127756341D01*
X122408862Y-127563033D01*
X122428662Y-127362000D01*
X122408862Y-127160967D01*
X122350223Y-126967659D01*
X122350221Y-126967656D01*
X122350221Y-126967654D01*
X122255001Y-126789511D01*
X122254999Y-126789509D01*
X122254998Y-126789506D01*
X122216024Y-126742016D01*
X122126847Y-126633352D01*
X121985371Y-126517247D01*
X121970694Y-126505202D01*
X121970693Y-126505201D01*
X121970688Y-126505197D01*
X121814247Y-126421578D01*
X121764402Y-126372616D01*
X121748700Y-126312220D01*
X121748700Y-126135858D01*
X121748700Y-126135856D01*
X121724814Y-126046712D01*
X121724811Y-126046706D01*
X121678673Y-125966794D01*
X121678670Y-125966791D01*
X121678669Y-125966788D01*
X121613412Y-125901531D01*
X115565019Y-119853137D01*
X115531534Y-119791814D01*
X115528700Y-119765456D01*
X115528700Y-119008143D01*
X116427700Y-119008143D01*
X116449262Y-119088615D01*
X116449262Y-119088616D01*
X116451585Y-119097286D01*
X116497727Y-119177208D01*
X116497731Y-119177213D01*
X123547260Y-126226742D01*
X123580745Y-126288065D01*
X123575761Y-126357757D01*
X123533889Y-126413690D01*
X123518032Y-126423781D01*
X123365711Y-126505197D01*
X123365704Y-126505203D01*
X123209552Y-126633352D01*
X123081403Y-126789504D01*
X123081398Y-126789511D01*
X122986178Y-126967654D01*
X122927537Y-127160968D01*
X122907738Y-127362000D01*
X122927537Y-127563031D01*
X122986178Y-127756345D01*
X123081398Y-127934488D01*
X123081403Y-127934495D01*
X123209552Y-128090647D01*
X123275234Y-128144550D01*
X123365706Y-128218798D01*
X123365709Y-128218799D01*
X123365711Y-128218801D01*
X123543854Y-128314021D01*
X123543856Y-128314021D01*
X123543859Y-128314023D01*
X123737167Y-128372662D01*
X123938200Y-128392462D01*
X124139233Y-128372662D01*
X124332541Y-128314023D01*
X124510694Y-128218798D01*
X124666847Y-128090647D01*
X124794998Y-127934494D01*
X124890223Y-127756341D01*
X124948862Y-127563033D01*
X124968662Y-127362000D01*
X124948862Y-127160967D01*
X124890223Y-126967659D01*
X124890221Y-126967656D01*
X124890221Y-126967654D01*
X124795001Y-126789511D01*
X124794999Y-126789509D01*
X124794998Y-126789506D01*
X124756024Y-126742016D01*
X124666847Y-126633352D01*
X124525371Y-126517247D01*
X124510694Y-126505202D01*
X124510693Y-126505201D01*
X124510688Y-126505197D01*
X124354247Y-126421578D01*
X124304402Y-126372616D01*
X124288700Y-126312220D01*
X124288700Y-126075858D01*
X124288700Y-126075856D01*
X124264814Y-125986712D01*
X124253267Y-125966712D01*
X124218670Y-125906788D01*
X117165019Y-118853137D01*
X117131534Y-118791814D01*
X117128700Y-118765456D01*
X117128700Y-117908144D01*
X117927700Y-117908144D01*
X117950120Y-117991814D01*
X117951586Y-117997287D01*
X117951587Y-117997290D01*
X117997727Y-118077208D01*
X117997731Y-118077213D01*
X126091381Y-126170863D01*
X126124866Y-126232186D01*
X126127700Y-126258544D01*
X126127700Y-126312220D01*
X126108015Y-126379259D01*
X126062153Y-126421578D01*
X125905711Y-126505197D01*
X125905704Y-126505203D01*
X125749552Y-126633352D01*
X125621403Y-126789504D01*
X125621398Y-126789511D01*
X125526178Y-126967654D01*
X125467537Y-127160968D01*
X125447738Y-127362000D01*
X125467537Y-127563031D01*
X125526178Y-127756345D01*
X125621398Y-127934488D01*
X125621403Y-127934495D01*
X125749552Y-128090647D01*
X125815234Y-128144550D01*
X125905706Y-128218798D01*
X125905709Y-128218799D01*
X125905711Y-128218801D01*
X126083854Y-128314021D01*
X126083856Y-128314021D01*
X126083859Y-128314023D01*
X126277167Y-128372662D01*
X126478200Y-128392462D01*
X126679233Y-128372662D01*
X126872541Y-128314023D01*
X127050694Y-128218798D01*
X127206847Y-128090647D01*
X127334998Y-127934494D01*
X127430223Y-127756341D01*
X127488862Y-127563033D01*
X127508662Y-127362000D01*
X127488862Y-127160967D01*
X127430223Y-126967659D01*
X127430221Y-126967656D01*
X127430221Y-126967654D01*
X127335001Y-126789511D01*
X127334999Y-126789509D01*
X127334998Y-126789506D01*
X127296024Y-126742016D01*
X127206847Y-126633352D01*
X127065371Y-126517247D01*
X127050694Y-126505202D01*
X127050693Y-126505201D01*
X127050688Y-126505197D01*
X126894247Y-126421578D01*
X126844402Y-126372616D01*
X126828700Y-126312220D01*
X126828700Y-126015858D01*
X126828700Y-126015856D01*
X126804814Y-125926712D01*
X126793311Y-125906788D01*
X126758670Y-125846788D01*
X118665019Y-117753137D01*
X118631534Y-117691814D01*
X118628700Y-117665456D01*
X118628700Y-101495493D01*
X120222700Y-101495493D01*
X120238479Y-101595121D01*
X120238480Y-101595124D01*
X120238481Y-101595126D01*
X120286471Y-101689311D01*
X120299673Y-101715221D01*
X120299676Y-101715225D01*
X120394974Y-101810523D01*
X120394977Y-101810525D01*
X120394980Y-101810528D01*
X120479995Y-101853845D01*
X120530790Y-101901818D01*
X120547700Y-101964329D01*
X120547700Y-109112145D01*
X120560924Y-109161499D01*
X120560925Y-109161499D01*
X120571587Y-109201290D01*
X120617727Y-109281208D01*
X120617731Y-109281213D01*
X121194837Y-109858319D01*
X121228322Y-109919642D01*
X121223338Y-109989334D01*
X121194837Y-110033681D01*
X120507731Y-110720786D01*
X120507727Y-110720791D01*
X120481315Y-110766540D01*
X120481315Y-110766541D01*
X120461586Y-110800711D01*
X120437700Y-110889856D01*
X120437700Y-117918145D01*
X120454038Y-117979121D01*
X120461584Y-118007283D01*
X120461587Y-118007290D01*
X120507727Y-118087208D01*
X120507731Y-118087213D01*
X128545337Y-126124819D01*
X128578822Y-126186142D01*
X128573838Y-126255834D01*
X128531966Y-126311767D01*
X128466502Y-126336184D01*
X128457656Y-126336500D01*
X128173447Y-126336500D01*
X128114970Y-126348131D01*
X128114969Y-126348132D01*
X128048647Y-126392447D01*
X128004332Y-126458769D01*
X128004331Y-126458770D01*
X127992700Y-126517247D01*
X127992700Y-128206752D01*
X128004331Y-128265229D01*
X128004332Y-128265230D01*
X128048647Y-128331552D01*
X128114969Y-128375867D01*
X128114970Y-128375868D01*
X128173447Y-128387499D01*
X128173450Y-128387500D01*
X128173452Y-128387500D01*
X129862950Y-128387500D01*
X129862951Y-128387499D01*
X129877768Y-128384552D01*
X129921429Y-128375868D01*
X129921429Y-128375867D01*
X129921431Y-128375867D01*
X129987752Y-128331552D01*
X130032067Y-128265231D01*
X130032067Y-128265229D01*
X130032068Y-128265229D01*
X130040752Y-128221568D01*
X130043700Y-128206748D01*
X130043700Y-126517252D01*
X130043700Y-126517249D01*
X130043699Y-126517247D01*
X130032068Y-126458770D01*
X130032067Y-126458769D01*
X129987752Y-126392447D01*
X129921430Y-126348132D01*
X129921429Y-126348131D01*
X129862952Y-126336500D01*
X129862948Y-126336500D01*
X129492700Y-126336500D01*
X129425661Y-126316815D01*
X129379906Y-126264011D01*
X129368700Y-126212500D01*
X129368700Y-126055858D01*
X129368700Y-126055856D01*
X129344814Y-125966712D01*
X129321720Y-125926712D01*
X129298670Y-125886788D01*
X121175019Y-117763137D01*
X121141534Y-117701814D01*
X121138700Y-117675456D01*
X121138700Y-112486000D01*
X122540617Y-112486000D01*
X122560899Y-112691932D01*
X122560900Y-112691934D01*
X122620968Y-112889954D01*
X122718515Y-113072450D01*
X122718517Y-113072452D01*
X122849789Y-113232410D01*
X122946409Y-113311702D01*
X123009750Y-113363685D01*
X123192246Y-113461232D01*
X123390266Y-113521300D01*
X123390265Y-113521300D01*
X123408729Y-113523118D01*
X123596200Y-113541583D01*
X123802134Y-113521300D01*
X124000154Y-113461232D01*
X124182650Y-113363685D01*
X124342610Y-113232410D01*
X124473885Y-113072450D01*
X124571432Y-112889954D01*
X124631500Y-112691934D01*
X124651783Y-112486000D01*
X124631500Y-112280066D01*
X124571432Y-112082046D01*
X124473885Y-111899550D01*
X124421902Y-111836209D01*
X124342610Y-111739589D01*
X124182652Y-111608317D01*
X124182653Y-111608317D01*
X124182650Y-111608315D01*
X124000154Y-111510768D01*
X123802134Y-111450700D01*
X123802132Y-111450699D01*
X123802134Y-111450699D01*
X123596200Y-111430417D01*
X123390267Y-111450699D01*
X123192243Y-111510769D01*
X123083903Y-111568679D01*
X123009750Y-111608315D01*
X123009748Y-111608316D01*
X123009747Y-111608317D01*
X122849789Y-111739589D01*
X122718517Y-111899547D01*
X122620969Y-112082043D01*
X122560899Y-112280067D01*
X122540617Y-112486000D01*
X121138700Y-112486000D01*
X121138700Y-111132543D01*
X121158385Y-111065504D01*
X121175019Y-111044862D01*
X121887062Y-110332819D01*
X121948385Y-110299334D01*
X121974743Y-110296500D01*
X122518073Y-110296500D01*
X122585112Y-110316185D01*
X122627431Y-110362046D01*
X122718515Y-110532450D01*
X122718517Y-110532452D01*
X122849789Y-110692410D01*
X122940118Y-110766540D01*
X123009750Y-110823685D01*
X123192246Y-110921232D01*
X123390266Y-110981300D01*
X123390265Y-110981300D01*
X123408729Y-110983118D01*
X123596200Y-111001583D01*
X123802134Y-110981300D01*
X124000154Y-110921232D01*
X124182650Y-110823685D01*
X124342610Y-110692410D01*
X124473885Y-110532450D01*
X124571432Y-110349954D01*
X124631500Y-110151934D01*
X124651783Y-109946000D01*
X124631500Y-109740066D01*
X124571432Y-109542046D01*
X124473885Y-109359550D01*
X124409592Y-109281208D01*
X124342610Y-109199589D01*
X124182652Y-109068317D01*
X124182653Y-109068317D01*
X124182650Y-109068315D01*
X124000154Y-108970768D01*
X123802134Y-108910700D01*
X123802132Y-108910699D01*
X123802134Y-108910699D01*
X123596200Y-108890417D01*
X123390267Y-108910699D01*
X123192243Y-108970769D01*
X123082098Y-109029643D01*
X123009750Y-109068315D01*
X123009748Y-109068316D01*
X123009747Y-109068317D01*
X122849789Y-109199589D01*
X122718517Y-109359547D01*
X122627431Y-109529954D01*
X122578468Y-109579798D01*
X122518073Y-109595500D01*
X121974744Y-109595500D01*
X121907705Y-109575815D01*
X121887063Y-109559181D01*
X121285019Y-108957137D01*
X121251534Y-108895814D01*
X121248700Y-108869456D01*
X121248700Y-107406000D01*
X122540617Y-107406000D01*
X122560899Y-107611932D01*
X122560900Y-107611934D01*
X122620968Y-107809954D01*
X122718515Y-107992450D01*
X122718517Y-107992452D01*
X122849789Y-108152410D01*
X122946409Y-108231702D01*
X123009750Y-108283685D01*
X123192246Y-108381232D01*
X123390266Y-108441300D01*
X123390265Y-108441300D01*
X123408729Y-108443118D01*
X123596200Y-108461583D01*
X123802134Y-108441300D01*
X124000154Y-108381232D01*
X124182650Y-108283685D01*
X124342610Y-108152410D01*
X124473885Y-107992450D01*
X124571432Y-107809954D01*
X124631500Y-107611934D01*
X124651783Y-107406000D01*
X124631500Y-107200066D01*
X124571432Y-107002046D01*
X124473885Y-106819550D01*
X124421902Y-106756209D01*
X124342610Y-106659589D01*
X124182652Y-106528317D01*
X124182653Y-106528317D01*
X124182650Y-106528315D01*
X124000154Y-106430768D01*
X123802134Y-106370700D01*
X123802132Y-106370699D01*
X123802134Y-106370699D01*
X123596200Y-106350417D01*
X123390267Y-106370699D01*
X123192243Y-106430769D01*
X123082098Y-106489643D01*
X123009750Y-106528315D01*
X123009748Y-106528316D01*
X123009747Y-106528317D01*
X122849789Y-106659589D01*
X122718517Y-106819547D01*
X122620969Y-107002043D01*
X122560899Y-107200067D01*
X122540617Y-107406000D01*
X121248700Y-107406000D01*
X121248700Y-104866000D01*
X122540617Y-104866000D01*
X122560899Y-105071932D01*
X122560900Y-105071934D01*
X122620968Y-105269954D01*
X122718515Y-105452450D01*
X122718517Y-105452452D01*
X122849789Y-105612410D01*
X122946409Y-105691702D01*
X123009750Y-105743685D01*
X123192246Y-105841232D01*
X123390266Y-105901300D01*
X123390265Y-105901300D01*
X123408729Y-105903118D01*
X123596200Y-105921583D01*
X123802134Y-105901300D01*
X124000154Y-105841232D01*
X124182650Y-105743685D01*
X124342610Y-105612410D01*
X124473885Y-105452450D01*
X124571432Y-105269954D01*
X124631500Y-105071934D01*
X124651783Y-104866000D01*
X124631500Y-104660066D01*
X124571432Y-104462046D01*
X124473885Y-104279550D01*
X124409352Y-104200916D01*
X124342610Y-104119589D01*
X124182652Y-103988317D01*
X124182653Y-103988317D01*
X124182650Y-103988315D01*
X124000154Y-103890768D01*
X123802134Y-103830700D01*
X123802132Y-103830699D01*
X123802134Y-103830699D01*
X123596200Y-103810417D01*
X123390267Y-103830699D01*
X123192243Y-103890769D01*
X123104763Y-103937529D01*
X123009750Y-103988315D01*
X123009748Y-103988316D01*
X123009747Y-103988317D01*
X122849789Y-104119589D01*
X122718517Y-104279547D01*
X122620969Y-104462043D01*
X122560899Y-104660067D01*
X122540617Y-104866000D01*
X121248700Y-104866000D01*
X121248700Y-102326000D01*
X122540617Y-102326000D01*
X122560899Y-102531932D01*
X122560900Y-102531934D01*
X122620968Y-102729954D01*
X122718515Y-102912450D01*
X122718517Y-102912452D01*
X122849789Y-103072410D01*
X122946409Y-103151702D01*
X123009750Y-103203685D01*
X123192246Y-103301232D01*
X123390266Y-103361300D01*
X123390265Y-103361300D01*
X123408729Y-103363118D01*
X123596200Y-103381583D01*
X123802134Y-103361300D01*
X124000154Y-103301232D01*
X124182650Y-103203685D01*
X124342610Y-103072410D01*
X124473885Y-102912450D01*
X124571432Y-102729954D01*
X124631500Y-102531934D01*
X124651783Y-102326000D01*
X124631500Y-102120066D01*
X124571432Y-101922046D01*
X124473885Y-101739550D01*
X124382448Y-101628133D01*
X124342610Y-101579589D01*
X124182652Y-101448317D01*
X124182653Y-101448317D01*
X124182650Y-101448315D01*
X124000154Y-101350768D01*
X123802134Y-101290700D01*
X123802132Y-101290699D01*
X123802134Y-101290699D01*
X123596200Y-101270417D01*
X123390267Y-101290699D01*
X123192243Y-101350769D01*
X123095972Y-101402228D01*
X123009750Y-101448315D01*
X123009748Y-101448316D01*
X123009747Y-101448317D01*
X122849789Y-101579589D01*
X122718517Y-101739547D01*
X122620969Y-101922043D01*
X122560899Y-102120067D01*
X122540617Y-102326000D01*
X121248700Y-102326000D01*
X121248700Y-101964329D01*
X121268385Y-101897290D01*
X121316403Y-101853845D01*
X121401420Y-101810528D01*
X121496728Y-101715220D01*
X121557919Y-101595126D01*
X121561655Y-101571539D01*
X121573700Y-101495493D01*
X121573700Y-100978506D01*
X121557920Y-100878878D01*
X121557919Y-100878876D01*
X121557919Y-100878874D01*
X121496728Y-100758780D01*
X121496726Y-100758778D01*
X121496723Y-100758774D01*
X121401425Y-100663476D01*
X121401421Y-100663473D01*
X121401420Y-100663472D01*
X121281326Y-100602281D01*
X121281324Y-100602280D01*
X121281321Y-100602279D01*
X121181693Y-100586500D01*
X121181688Y-100586500D01*
X120614712Y-100586500D01*
X120614707Y-100586500D01*
X120515078Y-100602279D01*
X120394978Y-100663473D01*
X120394974Y-100663476D01*
X120299676Y-100758774D01*
X120299673Y-100758778D01*
X120238479Y-100878878D01*
X120222700Y-100978506D01*
X120222700Y-101495493D01*
X118628700Y-101495493D01*
X118628700Y-100287832D01*
X118648385Y-100220793D01*
X118701189Y-100175038D01*
X118770347Y-100165094D01*
X118808990Y-100177346D01*
X118894259Y-100220793D01*
X118897896Y-100222646D01*
X118897898Y-100222647D01*
X118991675Y-100237499D01*
X118991681Y-100237500D01*
X119604718Y-100237499D01*
X119698504Y-100222646D01*
X119811542Y-100165050D01*
X119901250Y-100075342D01*
X119911511Y-100055204D01*
X119959486Y-100004409D01*
X120021995Y-99987500D01*
X120133132Y-99987500D01*
X120200171Y-100007185D01*
X120243615Y-100055203D01*
X120299672Y-100165220D01*
X120299674Y-100165222D01*
X120299676Y-100165225D01*
X120394974Y-100260523D01*
X120394978Y-100260526D01*
X120394980Y-100260528D01*
X120515074Y-100321719D01*
X120515076Y-100321719D01*
X120515078Y-100321720D01*
X120614707Y-100337500D01*
X120614712Y-100337500D01*
X121181693Y-100337500D01*
X121281321Y-100321720D01*
X121281321Y-100321719D01*
X121281326Y-100321719D01*
X121401420Y-100260528D01*
X121496728Y-100165220D01*
X121502341Y-100154204D01*
X121550316Y-100103409D01*
X121612825Y-100086500D01*
X122497621Y-100086500D01*
X122564660Y-100106185D01*
X122610415Y-100158989D01*
X122616281Y-100174503D01*
X122620968Y-100189954D01*
X122718515Y-100372450D01*
X122718517Y-100372452D01*
X122849789Y-100532410D01*
X122946409Y-100611702D01*
X123009750Y-100663685D01*
X123192246Y-100761232D01*
X123390266Y-100821300D01*
X123390265Y-100821300D01*
X123408729Y-100823118D01*
X123596200Y-100841583D01*
X123802134Y-100821300D01*
X124000154Y-100761232D01*
X124182650Y-100663685D01*
X124342610Y-100532410D01*
X124473885Y-100372450D01*
X124571432Y-100189954D01*
X124631500Y-99991934D01*
X124651783Y-99786000D01*
X124631500Y-99580066D01*
X124571432Y-99382046D01*
X124473885Y-99199550D01*
X124407060Y-99118123D01*
X124342610Y-99039589D01*
X124182652Y-98908317D01*
X124182653Y-98908317D01*
X124182650Y-98908315D01*
X124000154Y-98810768D01*
X123802134Y-98750700D01*
X123802132Y-98750699D01*
X123802134Y-98750699D01*
X123596200Y-98730417D01*
X123390267Y-98750699D01*
X123192243Y-98810769D01*
X123127840Y-98845194D01*
X123009750Y-98908315D01*
X123009748Y-98908316D01*
X123009747Y-98908317D01*
X122849789Y-99039589D01*
X122719247Y-99198658D01*
X122718515Y-99199550D01*
X122694113Y-99245202D01*
X122620969Y-99382043D01*
X122620968Y-99382046D01*
X122616281Y-99397497D01*
X122577983Y-99455935D01*
X122514170Y-99484391D01*
X122497621Y-99485500D01*
X121688633Y-99485500D01*
X121621594Y-99465815D01*
X121575839Y-99413011D01*
X121566160Y-99380899D01*
X121557920Y-99328878D01*
X121557919Y-99328876D01*
X121557919Y-99328874D01*
X121496728Y-99208780D01*
X121496726Y-99208778D01*
X121496723Y-99208774D01*
X121401425Y-99113476D01*
X121401421Y-99113473D01*
X121401420Y-99113472D01*
X121281326Y-99052281D01*
X121281324Y-99052280D01*
X121281321Y-99052279D01*
X121181693Y-99036500D01*
X121181688Y-99036500D01*
X120614712Y-99036500D01*
X120614707Y-99036500D01*
X120515078Y-99052279D01*
X120394978Y-99113473D01*
X120394974Y-99113476D01*
X120299676Y-99208774D01*
X120299674Y-99208778D01*
X120299672Y-99208780D01*
X120243617Y-99318795D01*
X120195642Y-99369591D01*
X120133132Y-99386500D01*
X120072947Y-99386500D01*
X120005908Y-99366815D01*
X119962462Y-99318795D01*
X119958846Y-99311699D01*
X119958846Y-99311696D01*
X119901250Y-99198658D01*
X119901248Y-99198656D01*
X119901245Y-99198652D01*
X119811547Y-99108954D01*
X119811544Y-99108952D01*
X119811542Y-99108950D01*
X119734717Y-99069805D01*
X119698501Y-99051352D01*
X119604724Y-99036500D01*
X118991682Y-99036500D01*
X118910719Y-99049323D01*
X118897896Y-99051354D01*
X118784858Y-99108950D01*
X118784857Y-99108951D01*
X118784852Y-99108954D01*
X118695154Y-99198652D01*
X118695149Y-99198659D01*
X118651762Y-99283810D01*
X118603787Y-99334605D01*
X118573375Y-99347288D01*
X118537210Y-99356979D01*
X118515366Y-99369591D01*
X118491774Y-99383212D01*
X118486079Y-99386500D01*
X118468690Y-99396539D01*
X118216854Y-99648374D01*
X118161271Y-99680466D01*
X118142914Y-99685385D01*
X118142912Y-99685386D01*
X118062991Y-99731528D01*
X118062985Y-99731533D01*
X117997733Y-99796785D01*
X117997726Y-99796794D01*
X117951588Y-99876706D01*
X117951587Y-99876709D01*
X117951586Y-99876711D01*
X117951586Y-99876712D01*
X117927700Y-99965856D01*
X117927700Y-117908144D01*
X117128700Y-117908144D01*
X117128700Y-97358544D01*
X117148385Y-97291505D01*
X117165019Y-97270863D01*
X117189882Y-97246000D01*
X122540617Y-97246000D01*
X122560899Y-97451932D01*
X122560900Y-97451934D01*
X122620968Y-97649954D01*
X122718515Y-97832450D01*
X122718517Y-97832452D01*
X122849789Y-97992410D01*
X122946409Y-98071702D01*
X123009750Y-98123685D01*
X123192246Y-98221232D01*
X123390266Y-98281300D01*
X123390265Y-98281300D01*
X123408729Y-98283118D01*
X123596200Y-98301583D01*
X123802134Y-98281300D01*
X124000154Y-98221232D01*
X124182650Y-98123685D01*
X124342610Y-97992410D01*
X124473885Y-97832450D01*
X124571432Y-97649954D01*
X124631500Y-97451934D01*
X124651783Y-97246000D01*
X124631500Y-97040066D01*
X124571432Y-96842046D01*
X124473885Y-96659550D01*
X124421902Y-96596209D01*
X124342610Y-96499589D01*
X124182652Y-96368317D01*
X124182653Y-96368317D01*
X124182650Y-96368315D01*
X124000154Y-96270768D01*
X123802134Y-96210700D01*
X123802132Y-96210699D01*
X123802134Y-96210699D01*
X123596200Y-96190417D01*
X123390267Y-96210699D01*
X123192243Y-96270769D01*
X123082098Y-96329643D01*
X123009750Y-96368315D01*
X123009748Y-96368316D01*
X123009747Y-96368317D01*
X122849789Y-96499589D01*
X122718517Y-96659547D01*
X122620969Y-96842043D01*
X122560899Y-97040067D01*
X122540617Y-97246000D01*
X117189882Y-97246000D01*
X118983472Y-95452410D01*
X119729882Y-94706000D01*
X122540617Y-94706000D01*
X122560899Y-94911932D01*
X122577067Y-94965230D01*
X122620968Y-95109954D01*
X122718515Y-95292450D01*
X122718517Y-95292452D01*
X122849789Y-95452410D01*
X122946409Y-95531702D01*
X123009750Y-95583685D01*
X123192246Y-95681232D01*
X123390266Y-95741300D01*
X123390265Y-95741300D01*
X123408729Y-95743118D01*
X123596200Y-95761583D01*
X123802134Y-95741300D01*
X124000154Y-95681232D01*
X124182650Y-95583685D01*
X124342610Y-95452410D01*
X124473885Y-95292450D01*
X124571432Y-95109954D01*
X124631500Y-94911934D01*
X124651783Y-94706000D01*
X124631500Y-94500066D01*
X124571432Y-94302046D01*
X124473885Y-94119550D01*
X124421902Y-94056209D01*
X124342610Y-93959589D01*
X124182652Y-93828317D01*
X124182653Y-93828317D01*
X124182650Y-93828315D01*
X124000154Y-93730768D01*
X123802134Y-93670700D01*
X123802132Y-93670699D01*
X123802134Y-93670699D01*
X123596200Y-93650417D01*
X123390267Y-93670699D01*
X123192243Y-93730769D01*
X123082098Y-93789643D01*
X123009750Y-93828315D01*
X123009748Y-93828316D01*
X123009747Y-93828317D01*
X122849789Y-93959589D01*
X122718517Y-94119547D01*
X122620969Y-94302043D01*
X122620968Y-94302045D01*
X122620968Y-94302046D01*
X122620841Y-94302464D01*
X122560899Y-94500067D01*
X122540617Y-94706000D01*
X119729882Y-94706000D01*
X120858670Y-93577212D01*
X120904814Y-93497288D01*
X120928700Y-93408143D01*
X120928700Y-93315856D01*
X120928700Y-92166000D01*
X122540617Y-92166000D01*
X122560899Y-92371932D01*
X122562982Y-92378798D01*
X122620968Y-92569954D01*
X122718515Y-92752450D01*
X122752190Y-92793483D01*
X122849789Y-92912410D01*
X122874323Y-92932544D01*
X123009750Y-93043685D01*
X123192246Y-93141232D01*
X123390266Y-93201300D01*
X123390265Y-93201300D01*
X123408729Y-93203118D01*
X123596200Y-93221583D01*
X123802134Y-93201300D01*
X124000154Y-93141232D01*
X124182650Y-93043685D01*
X124342610Y-92912410D01*
X124473885Y-92752450D01*
X124564969Y-92582046D01*
X124613932Y-92532202D01*
X124674327Y-92516500D01*
X124781656Y-92516500D01*
X124848695Y-92536185D01*
X124869332Y-92552814D01*
X124991382Y-92674863D01*
X125024866Y-92736184D01*
X125027700Y-92762543D01*
X125027700Y-118208143D01*
X125051586Y-118297287D01*
X125051587Y-118297290D01*
X125097727Y-118377208D01*
X125097729Y-118377211D01*
X125097730Y-118377212D01*
X137962988Y-131242470D01*
X138042912Y-131288614D01*
X138132056Y-131312500D01*
X138132057Y-131312500D01*
X138224344Y-131312500D01*
X145281656Y-131312500D01*
X145348695Y-131332185D01*
X145369337Y-131348819D01*
X147791381Y-133770863D01*
X147824866Y-133832186D01*
X147827700Y-133858544D01*
X147827700Y-134485924D01*
X147808015Y-134552963D01*
X147762154Y-134595282D01*
X147641989Y-134659512D01*
X147495737Y-134779537D01*
X147375712Y-134925789D01*
X147286521Y-135092651D01*
X147231597Y-135273710D01*
X147213053Y-135462000D01*
X147231597Y-135650289D01*
X147231598Y-135650291D01*
X147286520Y-135831346D01*
X147322585Y-135898819D01*
X147375712Y-135998210D01*
X147495737Y-136144462D01*
X147641989Y-136264487D01*
X147641993Y-136264490D01*
X147808854Y-136353680D01*
X147989909Y-136408602D01*
X148178200Y-136427147D01*
X148366491Y-136408602D01*
X148547546Y-136353680D01*
X148714407Y-136264490D01*
X148860662Y-136144462D01*
X148980690Y-135998207D01*
X149069880Y-135831346D01*
X149124802Y-135650291D01*
X149143347Y-135462000D01*
X150213053Y-135462000D01*
X150231597Y-135650289D01*
X150231598Y-135650291D01*
X150286520Y-135831346D01*
X150322585Y-135898819D01*
X150375712Y-135998210D01*
X150495737Y-136144462D01*
X150641989Y-136264487D01*
X150641993Y-136264490D01*
X150808854Y-136353680D01*
X150989909Y-136408602D01*
X151178200Y-136427147D01*
X151366491Y-136408602D01*
X151547546Y-136353680D01*
X151714407Y-136264490D01*
X151860662Y-136144462D01*
X151980690Y-135998207D01*
X152069880Y-135831346D01*
X152124802Y-135650291D01*
X152143347Y-135462000D01*
X153213053Y-135462000D01*
X153231597Y-135650289D01*
X153231598Y-135650291D01*
X153286520Y-135831346D01*
X153322585Y-135898819D01*
X153375712Y-135998210D01*
X153495737Y-136144462D01*
X153641989Y-136264487D01*
X153641993Y-136264490D01*
X153808854Y-136353680D01*
X153989909Y-136408602D01*
X154178200Y-136427147D01*
X154366491Y-136408602D01*
X154547546Y-136353680D01*
X154714407Y-136264490D01*
X154860662Y-136144462D01*
X154980690Y-135998207D01*
X155069880Y-135831346D01*
X155124802Y-135650291D01*
X155143347Y-135462000D01*
X155124802Y-135273709D01*
X155069880Y-135092654D01*
X154980690Y-134925793D01*
X154950178Y-134888614D01*
X154860662Y-134779537D01*
X154714410Y-134659512D01*
X154714408Y-134659511D01*
X154714407Y-134659510D01*
X154547546Y-134570320D01*
X154396675Y-134524554D01*
X154366489Y-134515397D01*
X154178200Y-134496853D01*
X153989910Y-134515397D01*
X153808851Y-134570321D01*
X153641989Y-134659512D01*
X153495737Y-134779537D01*
X153375712Y-134925789D01*
X153286521Y-135092651D01*
X153231597Y-135273710D01*
X153213053Y-135462000D01*
X152143347Y-135462000D01*
X152124802Y-135273709D01*
X152069880Y-135092654D01*
X151980690Y-134925793D01*
X151950178Y-134888614D01*
X151860662Y-134779537D01*
X151714410Y-134659512D01*
X151714408Y-134659511D01*
X151714407Y-134659510D01*
X151547546Y-134570320D01*
X151396675Y-134524554D01*
X151366489Y-134515397D01*
X151178200Y-134496853D01*
X150989910Y-134515397D01*
X150808851Y-134570321D01*
X150641989Y-134659512D01*
X150495737Y-134779537D01*
X150375712Y-134925789D01*
X150286521Y-135092651D01*
X150231597Y-135273710D01*
X150213053Y-135462000D01*
X149143347Y-135462000D01*
X149124802Y-135273709D01*
X149069880Y-135092654D01*
X148980690Y-134925793D01*
X148950178Y-134888614D01*
X148860662Y-134779537D01*
X148714410Y-134659512D01*
X148714408Y-134659511D01*
X148714407Y-134659510D01*
X148594245Y-134595281D01*
X148544402Y-134546319D01*
X148528700Y-134485924D01*
X148528700Y-133615858D01*
X148528700Y-133615856D01*
X148504814Y-133526712D01*
X148458670Y-133446788D01*
X145693412Y-130681530D01*
X145693411Y-130681529D01*
X145693408Y-130681527D01*
X145613490Y-130635387D01*
X145613489Y-130635386D01*
X145613488Y-130635386D01*
X145524344Y-130611500D01*
X145524343Y-130611500D01*
X138374744Y-130611500D01*
X138307705Y-130591815D01*
X138287063Y-130575181D01*
X125765019Y-118053137D01*
X125731534Y-117991814D01*
X125728700Y-117965456D01*
X125728700Y-117207544D01*
X125748385Y-117140505D01*
X125801189Y-117094750D01*
X125870347Y-117084806D01*
X125933903Y-117113831D01*
X125940381Y-117119863D01*
X138962988Y-130142470D01*
X139042912Y-130188614D01*
X139132056Y-130212500D01*
X139132057Y-130212500D01*
X139224344Y-130212500D01*
X157681656Y-130212500D01*
X157748695Y-130232185D01*
X157769337Y-130248819D01*
X158591381Y-131070863D01*
X158624866Y-131132186D01*
X158627700Y-131158544D01*
X158627700Y-140965456D01*
X158608015Y-141032495D01*
X158591381Y-141053137D01*
X157769337Y-141875181D01*
X157708014Y-141908666D01*
X157681656Y-141911500D01*
X152374744Y-141911500D01*
X152307705Y-141891815D01*
X152287063Y-141875181D01*
X151565019Y-141153137D01*
X151531534Y-141091814D01*
X151528700Y-141065456D01*
X151528700Y-139476907D01*
X156417700Y-139476907D01*
X156446923Y-139623822D01*
X156446925Y-139623830D01*
X156504251Y-139762229D01*
X156504256Y-139762238D01*
X156587480Y-139886790D01*
X156587483Y-139886794D01*
X156693405Y-139992716D01*
X156693409Y-139992719D01*
X156817961Y-140075943D01*
X156817967Y-140075946D01*
X156817968Y-140075947D01*
X156956370Y-140133275D01*
X157103292Y-140162499D01*
X157103296Y-140162500D01*
X157103297Y-140162500D01*
X157253104Y-140162500D01*
X157253105Y-140162499D01*
X157400030Y-140133275D01*
X157538432Y-140075947D01*
X157662991Y-139992719D01*
X157768919Y-139886791D01*
X157852147Y-139762232D01*
X157909475Y-139623830D01*
X157938700Y-139476903D01*
X157938700Y-139327097D01*
X157909475Y-139180170D01*
X157852147Y-139041768D01*
X157852146Y-139041767D01*
X157852143Y-139041761D01*
X157768919Y-138917209D01*
X157768916Y-138917205D01*
X157662994Y-138811283D01*
X157662990Y-138811280D01*
X157538438Y-138728056D01*
X157538429Y-138728051D01*
X157400030Y-138670725D01*
X157400022Y-138670723D01*
X157253107Y-138641500D01*
X157253103Y-138641500D01*
X157103297Y-138641500D01*
X157103292Y-138641500D01*
X156956377Y-138670723D01*
X156956369Y-138670725D01*
X156817970Y-138728051D01*
X156817961Y-138728056D01*
X156693409Y-138811280D01*
X156693405Y-138811283D01*
X156587483Y-138917205D01*
X156587480Y-138917209D01*
X156504256Y-139041761D01*
X156504251Y-139041770D01*
X156446925Y-139180169D01*
X156446923Y-139180177D01*
X156417700Y-139327092D01*
X156417700Y-139476907D01*
X151528700Y-139476907D01*
X151528700Y-139438075D01*
X151548385Y-139371036D01*
X151594245Y-139328718D01*
X151714407Y-139264490D01*
X151860662Y-139144462D01*
X151980690Y-138998207D01*
X152069880Y-138831346D01*
X152124802Y-138650291D01*
X152143347Y-138462000D01*
X153213053Y-138462000D01*
X153231597Y-138650289D01*
X153255186Y-138728051D01*
X153280433Y-138811281D01*
X153286521Y-138831348D01*
X153375712Y-138998210D01*
X153495737Y-139144462D01*
X153641989Y-139264487D01*
X153641993Y-139264490D01*
X153808854Y-139353680D01*
X153989909Y-139408602D01*
X154178200Y-139427147D01*
X154366491Y-139408602D01*
X154547546Y-139353680D01*
X154714407Y-139264490D01*
X154860662Y-139144462D01*
X154980690Y-138998207D01*
X155069880Y-138831346D01*
X155124802Y-138650291D01*
X155143347Y-138462000D01*
X155124802Y-138273709D01*
X155069880Y-138092654D01*
X154980690Y-137925793D01*
X154980687Y-137925789D01*
X154860662Y-137779537D01*
X154714410Y-137659512D01*
X154714408Y-137659511D01*
X154714407Y-137659510D01*
X154547546Y-137570320D01*
X154457018Y-137542859D01*
X154366489Y-137515397D01*
X154178200Y-137496853D01*
X153989910Y-137515397D01*
X153808851Y-137570321D01*
X153641989Y-137659512D01*
X153495737Y-137779537D01*
X153375712Y-137925789D01*
X153286521Y-138092651D01*
X153231597Y-138273710D01*
X153213053Y-138462000D01*
X152143347Y-138462000D01*
X152124802Y-138273709D01*
X152069880Y-138092654D01*
X151980690Y-137925793D01*
X151980687Y-137925789D01*
X151860662Y-137779537D01*
X151714410Y-137659512D01*
X151714408Y-137659511D01*
X151714407Y-137659510D01*
X151547546Y-137570320D01*
X151457018Y-137542859D01*
X151366489Y-137515397D01*
X151178200Y-137496853D01*
X150989910Y-137515397D01*
X150808851Y-137570321D01*
X150641989Y-137659512D01*
X150495737Y-137779537D01*
X150375712Y-137925789D01*
X150286521Y-138092651D01*
X150231597Y-138273710D01*
X150213053Y-138462000D01*
X150231597Y-138650289D01*
X150255186Y-138728051D01*
X150280433Y-138811281D01*
X150286521Y-138831348D01*
X150375712Y-138998210D01*
X150495737Y-139144462D01*
X150597513Y-139227986D01*
X150641993Y-139264490D01*
X150762154Y-139328718D01*
X150811998Y-139377679D01*
X150827700Y-139438075D01*
X150827700Y-141308144D01*
X150846207Y-141377212D01*
X150846207Y-141377213D01*
X150846208Y-141377214D01*
X150851586Y-141397289D01*
X150897727Y-141477208D01*
X150897729Y-141477211D01*
X150897730Y-141477212D01*
X151962988Y-142542470D01*
X152042912Y-142588614D01*
X152132056Y-142612500D01*
X152132057Y-142612500D01*
X152132058Y-142612500D01*
X157924342Y-142612500D01*
X157924344Y-142612500D01*
X158013488Y-142588614D01*
X158093412Y-142542470D01*
X159258670Y-141377212D01*
X159304814Y-141297288D01*
X159328700Y-141208144D01*
X159328700Y-130915856D01*
X159304814Y-130826712D01*
X159258670Y-130746788D01*
X158093412Y-129581530D01*
X158093411Y-129581529D01*
X158093408Y-129581527D01*
X158013490Y-129535387D01*
X158013489Y-129535386D01*
X158013488Y-129535386D01*
X157924344Y-129511500D01*
X157924343Y-129511500D01*
X139374744Y-129511500D01*
X139307705Y-129491815D01*
X139287063Y-129475181D01*
X126465019Y-116653137D01*
X126431534Y-116591814D01*
X126428700Y-116565456D01*
X126428700Y-115107544D01*
X126448385Y-115040505D01*
X126501189Y-114994750D01*
X126570347Y-114984806D01*
X126633903Y-115013831D01*
X126640381Y-115019863D01*
X140362988Y-128742470D01*
X140442912Y-128788614D01*
X140532056Y-128812500D01*
X150764305Y-128812500D01*
X150831344Y-128832185D01*
X150845512Y-128842790D01*
X150847066Y-128844137D01*
X150847072Y-128844143D01*
X150968147Y-128921953D01*
X150968150Y-128921954D01*
X150968149Y-128921954D01*
X151106236Y-128962499D01*
X151106238Y-128962500D01*
X151106239Y-128962500D01*
X151250162Y-128962500D01*
X151250162Y-128962499D01*
X151388253Y-128921953D01*
X151509328Y-128844143D01*
X151603577Y-128735373D01*
X151663365Y-128604457D01*
X151683847Y-128462000D01*
X151663365Y-128319543D01*
X151603577Y-128188627D01*
X151509328Y-128079857D01*
X151388253Y-128002047D01*
X151388251Y-128002046D01*
X151388249Y-128002045D01*
X151388250Y-128002045D01*
X151250163Y-127961500D01*
X151250161Y-127961500D01*
X151106239Y-127961500D01*
X151106236Y-127961500D01*
X150968149Y-128002045D01*
X150847076Y-128079854D01*
X150847074Y-128079855D01*
X150847072Y-128079857D01*
X150847070Y-128079858D01*
X150845512Y-128081210D01*
X150843627Y-128082070D01*
X150839611Y-128084652D01*
X150839239Y-128084074D01*
X150781957Y-128110237D01*
X150764305Y-128111500D01*
X140774744Y-128111500D01*
X140707705Y-128091815D01*
X140687063Y-128075181D01*
X127194019Y-114582137D01*
X127160534Y-114520814D01*
X127157700Y-114494456D01*
X127157700Y-111166903D01*
X127177385Y-111099864D01*
X127230189Y-111054109D01*
X127299347Y-111044165D01*
X127362903Y-111073190D01*
X127369381Y-111079222D01*
X134735673Y-118445514D01*
X134849801Y-118511406D01*
X134977095Y-118545514D01*
X135108880Y-118545514D01*
X139372959Y-118545514D01*
X139439998Y-118565199D01*
X139449432Y-118571903D01*
X139664069Y-118740060D01*
X139675277Y-118749990D01*
X139902223Y-118976936D01*
X139912153Y-118988144D01*
X140060279Y-119177213D01*
X140080311Y-119202781D01*
X140106160Y-119267693D01*
X140106700Y-119279254D01*
X140106700Y-126110905D01*
X140140808Y-126238201D01*
X140155710Y-126264011D01*
X140206700Y-126352328D01*
X140299886Y-126445514D01*
X140414014Y-126511406D01*
X140541308Y-126545514D01*
X140541310Y-126545514D01*
X158673090Y-126545514D01*
X158673092Y-126545514D01*
X158800386Y-126511406D01*
X158914514Y-126445514D01*
X159007700Y-126352328D01*
X159073592Y-126238200D01*
X159107700Y-126110906D01*
X159107700Y-119279254D01*
X159127385Y-119212215D01*
X159134089Y-119202781D01*
X159302253Y-118988135D01*
X159312168Y-118976944D01*
X159539130Y-118749982D01*
X159550321Y-118740067D01*
X159764968Y-118571903D01*
X159829880Y-118546054D01*
X159841441Y-118545514D01*
X164237304Y-118545514D01*
X164237306Y-118545514D01*
X164364600Y-118511406D01*
X164478728Y-118445514D01*
X172157700Y-110766541D01*
X172223592Y-110652413D01*
X172257700Y-110525120D01*
X172257700Y-110393335D01*
X172257700Y-103781116D01*
X172277385Y-103714077D01*
X172280542Y-103709401D01*
X172407690Y-103530204D01*
X172416328Y-103519372D01*
X172631249Y-103278875D01*
X172641061Y-103269063D01*
X172881558Y-103054142D01*
X172892390Y-103045504D01*
X173071549Y-102918383D01*
X173137614Y-102895645D01*
X173143303Y-102895514D01*
X180823090Y-102895514D01*
X180823092Y-102895514D01*
X180950386Y-102861406D01*
X181064514Y-102795514D01*
X181157700Y-102702328D01*
X181223592Y-102588200D01*
X181257700Y-102460906D01*
X181257700Y-89329122D01*
X181223592Y-89201828D01*
X181157700Y-89087700D01*
X181064514Y-88994514D01*
X181007450Y-88961568D01*
X180950387Y-88928622D01*
X180886739Y-88911568D01*
X180823092Y-88894514D01*
X180823091Y-88894514D01*
X173143303Y-88894514D01*
X173076264Y-88874829D01*
X173071568Y-88871657D01*
X172892401Y-88744531D01*
X172881544Y-88735873D01*
X172864970Y-88721062D01*
X172641070Y-88520972D01*
X172631239Y-88511141D01*
X172416345Y-88270674D01*
X172407675Y-88259802D01*
X172280570Y-88080664D01*
X172257831Y-88014599D01*
X172257700Y-88008909D01*
X172257700Y-81264910D01*
X172257700Y-81264908D01*
X172223592Y-81137614D01*
X172157700Y-81023486D01*
X172064514Y-80930300D01*
X164478728Y-73344514D01*
X164421664Y-73311568D01*
X164364601Y-73278622D01*
X164300953Y-73261568D01*
X164237306Y-73244514D01*
X135108879Y-73244514D01*
X134977094Y-73244514D01*
X134849799Y-73278622D01*
X134735673Y-73344514D01*
X134735670Y-73344516D01*
X127132445Y-80947740D01*
X127132444Y-80947740D01*
X127132445Y-80947741D01*
X127056700Y-81023486D01*
X126990808Y-81137612D01*
X126956700Y-81264908D01*
X126956700Y-87111456D01*
X126937015Y-87178495D01*
X126884211Y-87224250D01*
X126815053Y-87234194D01*
X126751497Y-87205169D01*
X126745019Y-87199137D01*
X124606391Y-85060509D01*
X124572906Y-84999186D01*
X124575410Y-84936837D01*
X124631500Y-84751934D01*
X124651783Y-84546000D01*
X124631500Y-84340066D01*
X124571432Y-84142046D01*
X124473885Y-83959550D01*
X124421902Y-83896209D01*
X124342610Y-83799589D01*
X124182652Y-83668317D01*
X124182653Y-83668317D01*
X124182650Y-83668315D01*
X124000154Y-83570768D01*
X123802134Y-83510700D01*
X123802132Y-83510699D01*
X123802134Y-83510699D01*
X123596200Y-83490417D01*
X123390267Y-83510699D01*
X123214892Y-83563898D01*
X123193229Y-83570470D01*
X123192243Y-83570769D01*
X123082098Y-83629643D01*
X123009750Y-83668315D01*
X123009748Y-83668316D01*
X123009747Y-83668317D01*
X122849789Y-83799589D01*
X122718517Y-83959547D01*
X122620969Y-84142043D01*
X122620968Y-84142045D01*
X122620968Y-84142046D01*
X122614098Y-84164692D01*
X122560899Y-84340067D01*
X122540617Y-84546000D01*
X122560899Y-84751932D01*
X122560900Y-84751934D01*
X122620968Y-84949954D01*
X122718515Y-85132450D01*
X122718517Y-85132452D01*
X122849789Y-85292410D01*
X122946409Y-85371702D01*
X123009750Y-85423685D01*
X123192246Y-85521232D01*
X123390266Y-85581300D01*
X123390265Y-85581300D01*
X123408729Y-85583118D01*
X123596200Y-85601583D01*
X123802134Y-85581300D01*
X123987036Y-85525210D01*
X124056899Y-85524588D01*
X124110709Y-85556191D01*
X126420381Y-87865863D01*
X126453866Y-87927186D01*
X126456700Y-87953544D01*
X126456700Y-89945456D01*
X126437015Y-90012495D01*
X126384211Y-90058250D01*
X126315053Y-90068194D01*
X126251497Y-90039169D01*
X126245019Y-90033137D01*
X125557413Y-89345531D01*
X125557408Y-89345527D01*
X125477490Y-89299387D01*
X125477489Y-89299386D01*
X125477488Y-89299386D01*
X125388344Y-89275500D01*
X125388343Y-89275500D01*
X124674327Y-89275500D01*
X124607288Y-89255815D01*
X124564969Y-89209954D01*
X124546079Y-89174615D01*
X124473885Y-89039550D01*
X124421902Y-88976209D01*
X124342610Y-88879589D01*
X124224877Y-88782969D01*
X124182650Y-88748315D01*
X124000154Y-88650768D01*
X123802134Y-88590700D01*
X123802132Y-88590699D01*
X123802134Y-88590699D01*
X123596200Y-88570417D01*
X123390267Y-88590699D01*
X123192243Y-88650769D01*
X123131572Y-88683199D01*
X123009750Y-88748315D01*
X123009748Y-88748316D01*
X123009747Y-88748317D01*
X122849789Y-88879589D01*
X122718517Y-89039547D01*
X122620969Y-89222043D01*
X122560899Y-89420067D01*
X122540617Y-89626000D01*
X122560899Y-89831932D01*
X122580492Y-89896520D01*
X122620968Y-90029954D01*
X122718515Y-90212450D01*
X122753169Y-90254677D01*
X122849789Y-90372410D01*
X122931017Y-90439071D01*
X123009750Y-90503685D01*
X123192246Y-90601232D01*
X123390266Y-90661300D01*
X123390265Y-90661300D01*
X123408729Y-90663118D01*
X123596200Y-90681583D01*
X123802134Y-90661300D01*
X124000154Y-90601232D01*
X124182650Y-90503685D01*
X124342610Y-90372410D01*
X124473885Y-90212450D01*
X124564969Y-90042046D01*
X124613932Y-89992202D01*
X124674327Y-89976500D01*
X125145656Y-89976500D01*
X125212695Y-89996185D01*
X125233337Y-90012819D01*
X125691381Y-90470863D01*
X125724866Y-90532186D01*
X125727700Y-90558544D01*
X125727700Y-92120456D01*
X125708015Y-92187495D01*
X125655211Y-92233250D01*
X125586053Y-92243194D01*
X125522497Y-92214169D01*
X125516019Y-92208137D01*
X125193413Y-91885531D01*
X125193408Y-91885527D01*
X125113490Y-91839387D01*
X125113489Y-91839386D01*
X125113488Y-91839386D01*
X125024344Y-91815500D01*
X125024343Y-91815500D01*
X124674327Y-91815500D01*
X124607288Y-91795815D01*
X124564969Y-91749954D01*
X124510824Y-91648658D01*
X124473885Y-91579550D01*
X124397522Y-91486501D01*
X124342610Y-91419589D01*
X124182652Y-91288317D01*
X124182653Y-91288317D01*
X124182650Y-91288315D01*
X124000154Y-91190768D01*
X123802134Y-91130700D01*
X123802132Y-91130699D01*
X123802134Y-91130699D01*
X123596200Y-91110417D01*
X123390267Y-91130699D01*
X123192243Y-91190769D01*
X123082098Y-91249643D01*
X123009750Y-91288315D01*
X123009748Y-91288316D01*
X123009747Y-91288317D01*
X122849789Y-91419589D01*
X122718517Y-91579547D01*
X122718515Y-91579550D01*
X122704185Y-91606360D01*
X122620969Y-91762043D01*
X122620968Y-91762045D01*
X122620968Y-91762046D01*
X122620841Y-91762464D01*
X122560899Y-91960067D01*
X122540617Y-92166000D01*
X120928700Y-92166000D01*
X120928700Y-87086000D01*
X122540617Y-87086000D01*
X122560899Y-87291932D01*
X122560900Y-87291934D01*
X122620968Y-87489954D01*
X122718515Y-87672450D01*
X122718517Y-87672452D01*
X122849789Y-87832410D01*
X122934808Y-87902182D01*
X123009750Y-87963685D01*
X123192246Y-88061232D01*
X123390266Y-88121300D01*
X123390265Y-88121300D01*
X123408729Y-88123118D01*
X123596200Y-88141583D01*
X123802134Y-88121300D01*
X124000154Y-88061232D01*
X124182650Y-87963685D01*
X124342610Y-87832410D01*
X124473885Y-87672450D01*
X124571432Y-87489954D01*
X124631500Y-87291934D01*
X124651783Y-87086000D01*
X124631500Y-86880066D01*
X124571432Y-86682046D01*
X124473885Y-86499550D01*
X124421902Y-86436209D01*
X124342610Y-86339589D01*
X124182652Y-86208317D01*
X124182653Y-86208317D01*
X124182650Y-86208315D01*
X124000154Y-86110768D01*
X123802134Y-86050700D01*
X123802132Y-86050699D01*
X123802134Y-86050699D01*
X123596200Y-86030417D01*
X123390267Y-86050699D01*
X123192243Y-86110769D01*
X123082098Y-86169643D01*
X123009750Y-86208315D01*
X123009748Y-86208316D01*
X123009747Y-86208317D01*
X122849789Y-86339589D01*
X122718517Y-86499547D01*
X122620969Y-86682043D01*
X122560899Y-86880067D01*
X122540617Y-87086000D01*
X120928700Y-87086000D01*
X120928700Y-82006000D01*
X122540617Y-82006000D01*
X122560899Y-82211932D01*
X122560900Y-82211934D01*
X122620968Y-82409954D01*
X122718515Y-82592450D01*
X122718517Y-82592452D01*
X122849789Y-82752410D01*
X122909682Y-82801562D01*
X123009750Y-82883685D01*
X123192246Y-82981232D01*
X123390266Y-83041300D01*
X123390265Y-83041300D01*
X123408729Y-83043118D01*
X123596200Y-83061583D01*
X123802134Y-83041300D01*
X124000154Y-82981232D01*
X124182650Y-82883685D01*
X124342610Y-82752410D01*
X124473885Y-82592450D01*
X124571432Y-82409954D01*
X124631500Y-82211934D01*
X124651783Y-82006000D01*
X124631500Y-81800066D01*
X124571432Y-81602046D01*
X124473885Y-81419550D01*
X124421902Y-81356209D01*
X124342610Y-81259589D01*
X124182652Y-81128317D01*
X124182653Y-81128317D01*
X124182650Y-81128315D01*
X124000154Y-81030768D01*
X123802134Y-80970700D01*
X123802132Y-80970699D01*
X123802134Y-80970699D01*
X123596200Y-80950417D01*
X123390267Y-80970699D01*
X123192243Y-81030769D01*
X123082098Y-81089643D01*
X123009750Y-81128315D01*
X123009748Y-81128316D01*
X123009747Y-81128317D01*
X122849789Y-81259589D01*
X122718517Y-81419547D01*
X122620969Y-81602043D01*
X122560899Y-81800067D01*
X122540617Y-82006000D01*
X120928700Y-82006000D01*
X120928700Y-79442000D01*
X122608028Y-79442000D01*
X122626669Y-79631269D01*
X122626670Y-79631271D01*
X122681878Y-79813269D01*
X122771531Y-79980999D01*
X122771532Y-79981000D01*
X122892184Y-80128015D01*
X122994491Y-80211976D01*
X123039201Y-80248669D01*
X123206931Y-80338322D01*
X123388929Y-80393530D01*
X123388928Y-80393530D01*
X123405898Y-80395201D01*
X123578200Y-80412172D01*
X123767471Y-80393530D01*
X123949469Y-80338322D01*
X124117199Y-80248669D01*
X124264215Y-80128015D01*
X124384869Y-79980999D01*
X124474522Y-79813269D01*
X124529730Y-79631271D01*
X124548372Y-79442000D01*
X124529730Y-79252729D01*
X124474522Y-79070731D01*
X124384869Y-78903001D01*
X124348176Y-78858291D01*
X124264215Y-78755984D01*
X124117200Y-78635332D01*
X124117199Y-78635331D01*
X123949469Y-78545678D01*
X123767471Y-78490470D01*
X123767469Y-78490469D01*
X123767471Y-78490469D01*
X123578200Y-78471828D01*
X123388930Y-78490469D01*
X123206931Y-78545678D01*
X123039199Y-78635332D01*
X122892184Y-78755984D01*
X122771532Y-78902999D01*
X122681878Y-79070731D01*
X122626669Y-79252730D01*
X122608028Y-79442000D01*
X120928700Y-79442000D01*
X120928700Y-78058544D01*
X120948385Y-77991505D01*
X120965019Y-77970863D01*
X121623063Y-77312819D01*
X121684386Y-77279334D01*
X121710744Y-77276500D01*
X122421700Y-77276500D01*
X122488739Y-77296185D01*
X122534494Y-77348989D01*
X122545700Y-77400500D01*
X122545700Y-77795752D01*
X122557331Y-77854229D01*
X122557332Y-77854230D01*
X122601647Y-77920552D01*
X122667969Y-77964867D01*
X122667970Y-77964868D01*
X122726447Y-77976499D01*
X122726450Y-77976500D01*
X122726452Y-77976500D01*
X124465950Y-77976500D01*
X124465951Y-77976499D01*
X124480768Y-77973552D01*
X124524429Y-77964868D01*
X124524429Y-77964867D01*
X124524431Y-77964867D01*
X124590752Y-77920552D01*
X124635067Y-77854231D01*
X124635067Y-77854229D01*
X124635068Y-77854229D01*
X124646699Y-77795752D01*
X124646700Y-77795750D01*
X124646700Y-76056249D01*
X124646699Y-76056247D01*
X124635068Y-75997770D01*
X124635067Y-75997769D01*
X124590752Y-75931447D01*
X124524430Y-75887132D01*
X124524429Y-75887131D01*
X124465952Y-75875500D01*
X124465948Y-75875500D01*
X124070700Y-75875500D01*
X124003661Y-75855815D01*
X123957906Y-75803011D01*
X123946700Y-75751500D01*
X123946700Y-70440544D01*
X123966385Y-70373505D01*
X123983019Y-70352863D01*
X125573882Y-68762000D01*
X139272553Y-68762000D01*
X139293034Y-68904456D01*
X139352822Y-69035371D01*
X139352823Y-69035373D01*
X139447072Y-69144143D01*
X139568147Y-69221953D01*
X139568150Y-69221954D01*
X139568149Y-69221954D01*
X139706236Y-69262499D01*
X139706238Y-69262500D01*
X139706239Y-69262500D01*
X139850162Y-69262500D01*
X139850162Y-69262499D01*
X139988250Y-69221954D01*
X139988251Y-69221954D01*
X139988253Y-69221953D01*
X140106252Y-69146119D01*
X140173291Y-69126435D01*
X140240330Y-69146119D01*
X140283774Y-69194138D01*
X140325150Y-69275342D01*
X140325152Y-69275344D01*
X140325154Y-69275347D01*
X140414852Y-69365045D01*
X140414854Y-69365046D01*
X140414858Y-69365050D01*
X140527894Y-69422645D01*
X140527898Y-69422647D01*
X140621675Y-69437499D01*
X140621681Y-69437500D01*
X141084718Y-69437499D01*
X141178504Y-69422646D01*
X141291542Y-69365050D01*
X141381250Y-69275342D01*
X141438846Y-69162304D01*
X141438846Y-69162302D01*
X141438847Y-69162301D01*
X141453699Y-69068524D01*
X141453700Y-69068519D01*
X141453700Y-69068517D01*
X141902700Y-69068517D01*
X141906280Y-69091119D01*
X141917554Y-69162304D01*
X141975150Y-69275342D01*
X141975152Y-69275344D01*
X141975154Y-69275347D01*
X142064852Y-69365045D01*
X142064854Y-69365046D01*
X142064858Y-69365050D01*
X142177894Y-69422645D01*
X142177898Y-69422647D01*
X142271675Y-69437499D01*
X142271681Y-69437500D01*
X142734718Y-69437499D01*
X142828504Y-69422646D01*
X142941542Y-69365050D01*
X143031250Y-69275342D01*
X143072625Y-69194140D01*
X143079726Y-69180204D01*
X143127700Y-69129409D01*
X143190210Y-69112500D01*
X146167700Y-69112500D01*
X146234739Y-69132185D01*
X146280494Y-69184989D01*
X146291700Y-69236500D01*
X146291700Y-70231752D01*
X146303331Y-70290229D01*
X146303332Y-70290230D01*
X146347647Y-70356552D01*
X146413969Y-70400867D01*
X146413970Y-70400868D01*
X146472447Y-70412499D01*
X146472450Y-70412500D01*
X146472452Y-70412500D01*
X148011950Y-70412500D01*
X148011951Y-70412499D01*
X148026768Y-70409552D01*
X148070429Y-70400868D01*
X148070429Y-70400867D01*
X148070431Y-70400867D01*
X148136752Y-70356552D01*
X148181067Y-70290231D01*
X148181067Y-70290229D01*
X148181068Y-70290229D01*
X148192699Y-70231752D01*
X148192700Y-70231750D01*
X148192700Y-69170835D01*
X149873332Y-69170835D01*
X149875894Y-69242568D01*
X149889835Y-69437500D01*
X149896004Y-69523745D01*
X149901868Y-69578302D01*
X149903675Y-69595105D01*
X149906189Y-69612593D01*
X149918938Y-69683264D01*
X149978854Y-69958692D01*
X149996601Y-70028228D01*
X150001569Y-70045149D01*
X150001578Y-70045178D01*
X150016684Y-70090570D01*
X150024261Y-70113337D01*
X150122768Y-70377445D01*
X150122771Y-70377452D01*
X150150258Y-70443808D01*
X150157606Y-70459896D01*
X150157607Y-70459897D01*
X150189722Y-70524051D01*
X150290515Y-70708638D01*
X150324813Y-70771449D01*
X150357139Y-70825931D01*
X150361452Y-70833200D01*
X150371005Y-70848064D01*
X150371010Y-70848071D01*
X150410651Y-70905166D01*
X150411945Y-70907029D01*
X150580858Y-71132671D01*
X150625912Y-71188579D01*
X150637479Y-71201928D01*
X150686412Y-71254487D01*
X150885711Y-71453786D01*
X150938270Y-71502719D01*
X150951619Y-71514286D01*
X151007527Y-71559340D01*
X151137827Y-71656881D01*
X151233180Y-71728261D01*
X151292128Y-71769189D01*
X151292134Y-71769193D01*
X151306998Y-71778746D01*
X151307005Y-71778750D01*
X151307011Y-71778754D01*
X151368750Y-71815386D01*
X151616157Y-71950481D01*
X151680338Y-71982608D01*
X151696432Y-71989958D01*
X151762752Y-72017430D01*
X152026869Y-72115940D01*
X152094988Y-72138611D01*
X152111963Y-72143595D01*
X152181494Y-72161341D01*
X152456937Y-72221260D01*
X152527566Y-72234003D01*
X152545078Y-72236521D01*
X152545094Y-72236522D01*
X152545096Y-72236523D01*
X152616440Y-72244194D01*
X152616442Y-72244194D01*
X152616450Y-72244195D01*
X152902048Y-72264622D01*
X152937886Y-72266543D01*
X152946732Y-72266859D01*
X152967441Y-72267228D01*
X152982617Y-72267500D01*
X152982628Y-72267500D01*
X164174709Y-72267500D01*
X164174719Y-72267500D01*
X164202908Y-72267105D01*
X164208535Y-72266947D01*
X164209864Y-72266910D01*
X164238027Y-72265724D01*
X164238026Y-72265724D01*
X164238051Y-72265723D01*
X164563520Y-72247445D01*
X164619727Y-72242704D01*
X164633545Y-72241147D01*
X164689388Y-72233263D01*
X164961458Y-72187036D01*
X165007319Y-72179244D01*
X165007825Y-72179143D01*
X165062619Y-72168245D01*
X165076176Y-72165151D01*
X165130812Y-72151058D01*
X165440708Y-72061778D01*
X165494490Y-72044635D01*
X165507614Y-72040042D01*
X165560257Y-72019945D01*
X165858200Y-71896534D01*
X165909647Y-71873515D01*
X165922176Y-71867482D01*
X165972324Y-71841576D01*
X166254586Y-71685575D01*
X166303211Y-71656890D01*
X166314985Y-71649491D01*
X166361835Y-71618185D01*
X166624838Y-71431574D01*
X166669852Y-71397699D01*
X166680724Y-71389030D01*
X166723867Y-71352602D01*
X166964339Y-71137703D01*
X167005323Y-71098956D01*
X167015156Y-71089123D01*
X167053903Y-71048139D01*
X167268802Y-70807667D01*
X167305230Y-70764524D01*
X167313899Y-70753652D01*
X167347774Y-70708638D01*
X167534385Y-70445635D01*
X167565691Y-70398785D01*
X167573090Y-70387011D01*
X167601775Y-70338386D01*
X167757776Y-70056124D01*
X167783682Y-70005976D01*
X167789715Y-69993447D01*
X167812734Y-69942000D01*
X167936145Y-69644057D01*
X167956242Y-69591414D01*
X167960835Y-69578290D01*
X167977978Y-69524508D01*
X168067258Y-69214612D01*
X168081351Y-69159976D01*
X168084445Y-69146419D01*
X168095443Y-69091124D01*
X168097090Y-69081434D01*
X168127159Y-68904456D01*
X168149463Y-68773188D01*
X168157347Y-68717345D01*
X168158904Y-68703527D01*
X168163645Y-68647320D01*
X168181923Y-68321851D01*
X168183110Y-68293661D01*
X168183305Y-68286708D01*
X168183700Y-68258519D01*
X168183700Y-63565480D01*
X168183305Y-63537291D01*
X168183110Y-63530338D01*
X168181923Y-63502148D01*
X168163645Y-63176679D01*
X168158904Y-63120472D01*
X168157347Y-63106654D01*
X168149463Y-63050811D01*
X168095443Y-62732877D01*
X168084445Y-62677582D01*
X168084427Y-62677501D01*
X168081351Y-62664023D01*
X168067258Y-62609387D01*
X167977978Y-62299491D01*
X167960835Y-62245709D01*
X167956242Y-62232585D01*
X167936145Y-62179942D01*
X167812734Y-61881999D01*
X167799583Y-61852608D01*
X167789716Y-61830553D01*
X167786199Y-61823250D01*
X167783682Y-61818023D01*
X167757776Y-61767875D01*
X167601775Y-61485613D01*
X167601772Y-61485607D01*
X167573081Y-61436973D01*
X167565698Y-61425224D01*
X167534390Y-61378372D01*
X167534385Y-61378364D01*
X167347774Y-61115361D01*
X167347768Y-61115352D01*
X167313892Y-61070337D01*
X167305245Y-61059493D01*
X167305230Y-61059475D01*
X167268802Y-61016332D01*
X167053903Y-60775860D01*
X167015156Y-60734876D01*
X167005323Y-60725043D01*
X166964338Y-60686295D01*
X166723860Y-60471391D01*
X166723852Y-60471384D01*
X166723843Y-60471376D01*
X166680751Y-60434990D01*
X166669878Y-60426320D01*
X166624833Y-60392421D01*
X166361858Y-60205829D01*
X166314972Y-60174500D01*
X166314965Y-60174495D01*
X166314955Y-60174489D01*
X166314939Y-60174478D01*
X166303198Y-60167099D01*
X166254602Y-60138433D01*
X166254586Y-60138424D01*
X165972317Y-59982419D01*
X165922132Y-59956496D01*
X165922122Y-59956491D01*
X165922112Y-59956486D01*
X165909618Y-59950470D01*
X165858187Y-59927458D01*
X165560276Y-59804061D01*
X165545857Y-59798556D01*
X165507614Y-59783957D01*
X165494519Y-59779374D01*
X165494502Y-59779368D01*
X165494495Y-59779365D01*
X165494490Y-59779364D01*
X165458635Y-59767935D01*
X165440702Y-59762219D01*
X165204801Y-59694257D01*
X165130812Y-59672941D01*
X165130806Y-59672939D01*
X165130801Y-59672938D01*
X165076176Y-59658848D01*
X165062616Y-59655753D01*
X165007319Y-59644754D01*
X164689375Y-59590733D01*
X164633489Y-59582845D01*
X164633479Y-59582843D01*
X164633473Y-59582843D01*
X164628247Y-59582254D01*
X164619668Y-59581288D01*
X164563514Y-59576553D01*
X164238026Y-59558275D01*
X164209865Y-59557089D01*
X164202933Y-59556895D01*
X164183813Y-59556627D01*
X164174719Y-59556500D01*
X163981681Y-59556500D01*
X163972870Y-59556623D01*
X163953466Y-59556895D01*
X163946534Y-59557089D01*
X163918373Y-59558275D01*
X163592853Y-59576556D01*
X163536710Y-59581291D01*
X163536695Y-59581292D01*
X163536691Y-59581293D01*
X163524128Y-59582708D01*
X163522887Y-59582848D01*
X163467028Y-59590732D01*
X163149071Y-59644754D01*
X163093740Y-59655761D01*
X163080193Y-59658853D01*
X163025603Y-59672936D01*
X162715681Y-59762223D01*
X162661886Y-59779371D01*
X162648735Y-59783974D01*
X162596142Y-59804052D01*
X162298197Y-59927463D01*
X162246748Y-59950485D01*
X162236498Y-59955421D01*
X162234267Y-59956496D01*
X162234225Y-59956516D01*
X162184098Y-59982409D01*
X161901789Y-60138437D01*
X161853176Y-60167114D01*
X161841435Y-60174493D01*
X161794557Y-60205818D01*
X161531549Y-60392432D01*
X161486528Y-60426311D01*
X161475707Y-60434941D01*
X161432542Y-60471387D01*
X161192050Y-60686304D01*
X161151049Y-60725068D01*
X161141268Y-60734849D01*
X161102504Y-60775850D01*
X160887587Y-61016342D01*
X160851141Y-61059507D01*
X160842511Y-61070328D01*
X160808632Y-61115349D01*
X160622018Y-61378357D01*
X160590693Y-61425235D01*
X160583314Y-61436976D01*
X160554637Y-61485589D01*
X160398609Y-61767898D01*
X160372716Y-61818025D01*
X160366685Y-61830548D01*
X160343663Y-61881997D01*
X160220252Y-62179943D01*
X160200156Y-62232583D01*
X160195572Y-62245681D01*
X160178419Y-62299496D01*
X160089140Y-62609389D01*
X160075066Y-62663940D01*
X160071970Y-62677501D01*
X160060954Y-62732877D01*
X160006932Y-63050828D01*
X159999048Y-63106687D01*
X159997491Y-63120510D01*
X159992756Y-63176653D01*
X159974475Y-63502172D01*
X159973289Y-63530333D01*
X159973095Y-63537265D01*
X159972700Y-63565489D01*
X159972700Y-65932500D01*
X159953015Y-65999539D01*
X159900211Y-66045294D01*
X159848700Y-66056500D01*
X152982617Y-66056500D01*
X152946747Y-66057140D01*
X152941728Y-66057319D01*
X152937886Y-66057457D01*
X152935598Y-66057579D01*
X152902062Y-66059377D01*
X152616464Y-66079802D01*
X152545038Y-66087482D01*
X152527523Y-66090001D01*
X152456940Y-66102738D01*
X152181491Y-66162658D01*
X152111970Y-66180400D01*
X152095012Y-66185380D01*
X152026881Y-66208054D01*
X151762737Y-66306574D01*
X151696399Y-66334053D01*
X151680326Y-66341395D01*
X151616158Y-66373515D01*
X151368740Y-66508616D01*
X151307013Y-66545242D01*
X151297846Y-66551133D01*
X151292134Y-66554805D01*
X151292133Y-66554806D01*
X151233175Y-66595740D01*
X151007510Y-66764671D01*
X150951626Y-66809703D01*
X150938264Y-66821282D01*
X150885722Y-66870202D01*
X150686402Y-67069522D01*
X150637482Y-67122064D01*
X150625903Y-67135426D01*
X150580871Y-67191310D01*
X150411940Y-67416975D01*
X150371006Y-67475933D01*
X150361442Y-67490813D01*
X150324816Y-67552540D01*
X150189715Y-67799958D01*
X150157595Y-67864126D01*
X150150253Y-67880199D01*
X150122774Y-67946537D01*
X150024254Y-68210681D01*
X150001580Y-68278812D01*
X149996600Y-68295770D01*
X149978858Y-68365291D01*
X149918939Y-68640735D01*
X149906203Y-68711316D01*
X149903685Y-68728821D01*
X149896003Y-68800248D01*
X149875894Y-69081431D01*
X149873332Y-69153163D01*
X149873332Y-69170835D01*
X148192700Y-69170835D01*
X148192700Y-67292249D01*
X148192699Y-67292247D01*
X148181068Y-67233770D01*
X148181067Y-67233769D01*
X148136752Y-67167447D01*
X148070430Y-67123132D01*
X148070429Y-67123131D01*
X148011952Y-67111500D01*
X148011948Y-67111500D01*
X146472452Y-67111500D01*
X146472447Y-67111500D01*
X146413970Y-67123131D01*
X146413969Y-67123132D01*
X146347647Y-67167447D01*
X146303332Y-67233769D01*
X146303331Y-67233770D01*
X146291700Y-67292247D01*
X146291700Y-68287500D01*
X146272015Y-68354539D01*
X146219211Y-68400294D01*
X146167700Y-68411500D01*
X143190210Y-68411500D01*
X143123171Y-68391815D01*
X143079726Y-68343796D01*
X143050649Y-68286731D01*
X143031250Y-68248658D01*
X143031247Y-68248655D01*
X143031245Y-68248652D01*
X142941547Y-68158954D01*
X142941544Y-68158952D01*
X142941542Y-68158950D01*
X142864717Y-68119805D01*
X142828501Y-68101352D01*
X142734724Y-68086500D01*
X142271682Y-68086500D01*
X142190719Y-68099323D01*
X142177896Y-68101354D01*
X142064858Y-68158950D01*
X142064857Y-68158951D01*
X142064852Y-68158954D01*
X141975154Y-68248652D01*
X141975151Y-68248657D01*
X141975150Y-68248658D01*
X141970131Y-68258509D01*
X141917552Y-68361698D01*
X141902700Y-68455475D01*
X141902700Y-69068517D01*
X141453700Y-69068517D01*
X141453699Y-68455482D01*
X141438846Y-68361696D01*
X141381250Y-68248658D01*
X141381246Y-68248654D01*
X141381245Y-68248652D01*
X141291547Y-68158954D01*
X141291544Y-68158952D01*
X141291542Y-68158950D01*
X141214717Y-68119805D01*
X141178501Y-68101352D01*
X141084724Y-68086500D01*
X140621682Y-68086500D01*
X140540719Y-68099323D01*
X140527896Y-68101354D01*
X140414858Y-68158950D01*
X140414857Y-68158951D01*
X140414852Y-68158954D01*
X140325154Y-68248652D01*
X140325149Y-68248659D01*
X140283775Y-68329860D01*
X140235801Y-68380655D01*
X140167980Y-68397450D01*
X140106252Y-68377880D01*
X140031531Y-68329860D01*
X139988253Y-68302047D01*
X139988251Y-68302046D01*
X139988249Y-68302045D01*
X139988250Y-68302045D01*
X139850163Y-68261500D01*
X139850161Y-68261500D01*
X139706239Y-68261500D01*
X139706236Y-68261500D01*
X139568149Y-68302045D01*
X139447073Y-68379856D01*
X139352823Y-68488626D01*
X139352822Y-68488628D01*
X139293034Y-68619543D01*
X139272553Y-68762000D01*
X125573882Y-68762000D01*
X127187063Y-67148819D01*
X127248386Y-67115334D01*
X127274744Y-67112500D01*
X141524342Y-67112500D01*
X141524344Y-67112500D01*
X141613488Y-67088614D01*
X141693412Y-67042470D01*
X143000075Y-65735805D01*
X143061396Y-65702322D01*
X143131087Y-65707306D01*
X143159508Y-65722357D01*
X143294564Y-65818185D01*
X143318983Y-65834502D01*
X143341424Y-65849498D01*
X143353173Y-65856881D01*
X143401807Y-65885572D01*
X143440099Y-65906735D01*
X143684075Y-66041576D01*
X143734223Y-66067482D01*
X143739450Y-66069999D01*
X143746753Y-66073516D01*
X143768808Y-66083383D01*
X143798199Y-66096534D01*
X144096142Y-66219945D01*
X144148785Y-66240042D01*
X144161909Y-66244635D01*
X144215691Y-66261778D01*
X144525587Y-66351058D01*
X144580223Y-66365151D01*
X144593780Y-66368245D01*
X144628652Y-66375181D01*
X144649079Y-66379244D01*
X144747124Y-66395902D01*
X144967011Y-66433263D01*
X145022854Y-66441147D01*
X145036672Y-66442704D01*
X145092879Y-66447445D01*
X145418349Y-66465723D01*
X145418369Y-66465723D01*
X145418372Y-66465724D01*
X145446535Y-66466910D01*
X145448306Y-66466959D01*
X145453492Y-66467105D01*
X145481681Y-66467500D01*
X145481691Y-66467500D01*
X147274709Y-66467500D01*
X147274719Y-66467500D01*
X147302908Y-66467105D01*
X147308535Y-66466947D01*
X147309864Y-66466910D01*
X147338027Y-66465724D01*
X147338026Y-66465724D01*
X147338051Y-66465723D01*
X147663520Y-66447445D01*
X147719727Y-66442704D01*
X147733545Y-66441147D01*
X147789388Y-66433263D01*
X148061272Y-66387067D01*
X148107319Y-66379244D01*
X148107825Y-66379143D01*
X148162619Y-66368245D01*
X148176176Y-66365151D01*
X148230812Y-66351058D01*
X148540708Y-66261778D01*
X148594490Y-66244635D01*
X148607614Y-66240042D01*
X148660257Y-66219945D01*
X148958200Y-66096534D01*
X149009647Y-66073515D01*
X149022176Y-66067482D01*
X149072324Y-66041576D01*
X149354586Y-65885575D01*
X149403211Y-65856890D01*
X149414985Y-65849491D01*
X149461835Y-65818185D01*
X149578552Y-65735370D01*
X149644618Y-65712631D01*
X149650307Y-65712500D01*
X152697950Y-65712500D01*
X152697951Y-65712499D01*
X152712768Y-65709552D01*
X152756429Y-65700868D01*
X152756429Y-65700867D01*
X152756431Y-65700867D01*
X152822752Y-65656552D01*
X152867067Y-65590231D01*
X152867067Y-65590229D01*
X152867068Y-65590229D01*
X152878699Y-65531752D01*
X152878700Y-65531750D01*
X152878700Y-58992249D01*
X152878699Y-58992247D01*
X152867068Y-58933770D01*
X152867067Y-58933769D01*
X152822752Y-58867447D01*
X152756430Y-58823132D01*
X152756429Y-58823131D01*
X152697952Y-58811500D01*
X152697948Y-58811500D01*
X149650309Y-58811500D01*
X149583270Y-58791815D01*
X149578554Y-58788630D01*
X149461834Y-58705813D01*
X149414972Y-58674500D01*
X149414965Y-58674495D01*
X149414955Y-58674489D01*
X149414939Y-58674478D01*
X149403198Y-58667099D01*
X149354602Y-58638433D01*
X149354586Y-58638424D01*
X149072317Y-58482419D01*
X149022132Y-58456496D01*
X149022122Y-58456491D01*
X149022112Y-58456486D01*
X149009618Y-58450470D01*
X148958187Y-58427458D01*
X148660276Y-58304061D01*
X148645857Y-58298556D01*
X148607614Y-58283957D01*
X148594519Y-58279374D01*
X148594502Y-58279368D01*
X148594495Y-58279365D01*
X148594490Y-58279364D01*
X148558635Y-58267935D01*
X148540702Y-58262219D01*
X148349745Y-58207205D01*
X148230812Y-58172941D01*
X148230806Y-58172939D01*
X148230801Y-58172938D01*
X148176176Y-58158848D01*
X148162616Y-58155753D01*
X148107319Y-58144754D01*
X147789375Y-58090733D01*
X147733489Y-58082845D01*
X147733479Y-58082843D01*
X147733473Y-58082843D01*
X147728247Y-58082254D01*
X147719668Y-58081288D01*
X147663514Y-58076553D01*
X147338026Y-58058275D01*
X147309865Y-58057089D01*
X147302933Y-58056895D01*
X147283813Y-58056627D01*
X147274719Y-58056500D01*
X145481681Y-58056500D01*
X145472870Y-58056623D01*
X145453466Y-58056895D01*
X145446534Y-58057089D01*
X145418373Y-58058275D01*
X145092853Y-58076556D01*
X145036710Y-58081291D01*
X145036695Y-58081292D01*
X145036691Y-58081293D01*
X145024128Y-58082708D01*
X145022887Y-58082848D01*
X144967028Y-58090732D01*
X144649071Y-58144754D01*
X144593740Y-58155761D01*
X144580193Y-58158853D01*
X144525603Y-58172936D01*
X144215681Y-58262223D01*
X144161886Y-58279371D01*
X144148735Y-58283974D01*
X144096142Y-58304052D01*
X143798197Y-58427463D01*
X143746748Y-58450485D01*
X143736498Y-58455421D01*
X143734267Y-58456496D01*
X143734225Y-58456516D01*
X143684098Y-58482409D01*
X143401789Y-58638437D01*
X143353176Y-58667114D01*
X143341435Y-58674493D01*
X143294557Y-58705818D01*
X143031549Y-58892432D01*
X142986528Y-58926311D01*
X142975707Y-58934941D01*
X142932542Y-58971387D01*
X142692050Y-59186304D01*
X142651049Y-59225068D01*
X142641268Y-59234849D01*
X142602504Y-59275850D01*
X142387587Y-59516342D01*
X142357637Y-59551813D01*
X142352180Y-59558277D01*
X142351141Y-59559507D01*
X142342511Y-59570328D01*
X142308632Y-59615349D01*
X142122018Y-59878357D01*
X142090693Y-59925235D01*
X142083314Y-59936976D01*
X142054637Y-59985589D01*
X141898609Y-60267898D01*
X141872716Y-60318025D01*
X141866685Y-60330548D01*
X141843663Y-60381997D01*
X141720252Y-60679943D01*
X141700156Y-60732583D01*
X141695572Y-60745681D01*
X141678419Y-60799497D01*
X141645211Y-60914764D01*
X141607736Y-60973734D01*
X141544329Y-61003082D01*
X141475121Y-60993491D01*
X141424337Y-60950503D01*
X141423988Y-60950754D01*
X141422993Y-60949366D01*
X141422966Y-60949343D01*
X141422814Y-60949117D01*
X141422806Y-60949105D01*
X141384479Y-60895619D01*
X141384451Y-60895582D01*
X141374612Y-60882759D01*
X141332864Y-60831889D01*
X141199609Y-60679943D01*
X141136588Y-60608081D01*
X141091610Y-60560058D01*
X141080141Y-60548589D01*
X141032118Y-60503611D01*
X140808310Y-60307336D01*
X140802776Y-60302794D01*
X140757463Y-60265605D01*
X140753485Y-60262553D01*
X140744587Y-60255725D01*
X140691101Y-60217397D01*
X140673788Y-60205829D01*
X140443587Y-60052013D01*
X140443586Y-60052012D01*
X140426925Y-60041652D01*
X140387674Y-60017245D01*
X140373639Y-60009143D01*
X140323641Y-59982420D01*
X140315632Y-59978139D01*
X140271777Y-59956512D01*
X140048650Y-59846477D01*
X139988664Y-59819299D01*
X139973689Y-59813097D01*
X139912150Y-59789937D01*
X139630275Y-59694254D01*
X139598792Y-59684703D01*
X139567319Y-59675156D01*
X139567318Y-59675155D01*
X139567309Y-59675153D01*
X139551665Y-59670960D01*
X139487540Y-59656008D01*
X139195600Y-59597938D01*
X139130747Y-59587228D01*
X139114675Y-59585111D01*
X139049156Y-59578655D01*
X138747997Y-59558917D01*
X138715063Y-59557300D01*
X138706942Y-59557034D01*
X138674163Y-59556500D01*
X138674133Y-59556500D01*
X134282267Y-59556500D01*
X134282236Y-59556500D01*
X134249454Y-59557034D01*
X134241337Y-59557299D01*
X134211434Y-59558768D01*
X134208399Y-59558918D01*
X134148173Y-59562865D01*
X133907261Y-59578654D01*
X133841764Y-59585106D01*
X133841757Y-59585106D01*
X133841756Y-59585107D01*
X133840460Y-59585277D01*
X133825705Y-59587220D01*
X133779368Y-59594871D01*
X133760807Y-59597936D01*
X133760801Y-59597937D01*
X133760784Y-59597940D01*
X133470147Y-59655753D01*
X133468835Y-59656014D01*
X133438445Y-59663100D01*
X133404744Y-59670958D01*
X133389071Y-59675158D01*
X133326114Y-59694257D01*
X133044242Y-59789939D01*
X132982704Y-59813099D01*
X132967729Y-59819301D01*
X132907765Y-59846469D01*
X132640766Y-59978139D01*
X132582726Y-60009161D01*
X132568707Y-60017254D01*
X132512824Y-60052006D01*
X132265278Y-60217410D01*
X132211799Y-60255735D01*
X132198931Y-60265609D01*
X132148101Y-60307324D01*
X131961028Y-60471384D01*
X131924276Y-60503615D01*
X131880575Y-60544544D01*
X131876237Y-60548608D01*
X131864808Y-60560037D01*
X131819808Y-60608084D01*
X131623524Y-60831901D01*
X131581809Y-60882731D01*
X131571935Y-60895599D01*
X131533610Y-60949078D01*
X131368206Y-61196624D01*
X131333454Y-61252507D01*
X131325361Y-61266526D01*
X131294339Y-61324566D01*
X131162669Y-61591565D01*
X131135501Y-61651529D01*
X131129299Y-61666504D01*
X131106139Y-61728042D01*
X131010457Y-62009914D01*
X130991358Y-62072871D01*
X130987158Y-62088544D01*
X130972212Y-62152645D01*
X130914135Y-62444608D01*
X130903421Y-62509489D01*
X130901310Y-62525517D01*
X130894854Y-62591062D01*
X130875384Y-62888139D01*
X130873231Y-62953911D01*
X130873231Y-62970087D01*
X130875384Y-63035859D01*
X130894855Y-63332955D01*
X130901311Y-63398475D01*
X130903428Y-63414547D01*
X130914138Y-63479400D01*
X130972208Y-63771340D01*
X130987160Y-63835465D01*
X130991353Y-63851109D01*
X131010454Y-63914075D01*
X131105288Y-64193447D01*
X131106137Y-64195948D01*
X131109911Y-64205976D01*
X131129307Y-64257513D01*
X131135514Y-64272498D01*
X131160256Y-64327105D01*
X131162675Y-64332444D01*
X131198276Y-64404636D01*
X131294335Y-64599425D01*
X131294349Y-64599451D01*
X131325354Y-64657458D01*
X131333464Y-64671505D01*
X131368211Y-64727382D01*
X131533593Y-64974894D01*
X131571920Y-65028380D01*
X131571928Y-65028390D01*
X131581786Y-65041239D01*
X131623534Y-65092109D01*
X131711225Y-65192100D01*
X131819811Y-65315918D01*
X131864789Y-65363941D01*
X131876258Y-65375410D01*
X131924281Y-65420388D01*
X132037068Y-65519299D01*
X132148089Y-65616664D01*
X132198959Y-65658412D01*
X132203332Y-65661767D01*
X132211819Y-65668279D01*
X132265305Y-65706606D01*
X132512817Y-65871988D01*
X132568694Y-65906735D01*
X132575092Y-65910429D01*
X132582745Y-65914848D01*
X132640760Y-65945857D01*
X132640766Y-65945860D01*
X132907747Y-66077521D01*
X132949711Y-66096534D01*
X132967721Y-66104694D01*
X132982678Y-66110889D01*
X133044234Y-66134056D01*
X133044244Y-66134059D01*
X133044251Y-66134062D01*
X133150358Y-66170080D01*
X133207512Y-66210269D01*
X133233866Y-66274978D01*
X133221052Y-66343663D01*
X133173138Y-66394516D01*
X133110500Y-66411500D01*
X127032056Y-66411500D01*
X126950838Y-66433261D01*
X126950839Y-66433262D01*
X126942912Y-66435386D01*
X126942909Y-66435387D01*
X126862991Y-66481527D01*
X126862986Y-66481531D01*
X123315731Y-70028786D01*
X123315727Y-70028791D01*
X123299949Y-70056122D01*
X123299947Y-70056125D01*
X123269588Y-70108706D01*
X123269587Y-70108709D01*
X123245700Y-70197856D01*
X123245700Y-75751500D01*
X123226015Y-75818539D01*
X123173211Y-75864294D01*
X123121700Y-75875500D01*
X122726447Y-75875500D01*
X122667970Y-75887131D01*
X122667969Y-75887132D01*
X122601647Y-75931447D01*
X122557332Y-75997769D01*
X122557331Y-75997770D01*
X122545700Y-76056247D01*
X122545700Y-76451500D01*
X122526015Y-76518539D01*
X122473211Y-76564294D01*
X122421700Y-76575500D01*
X121468056Y-76575500D01*
X121378912Y-76599386D01*
X121378909Y-76599387D01*
X121298991Y-76645527D01*
X121298986Y-76645531D01*
X120297731Y-77646786D01*
X120297727Y-77646791D01*
X120251587Y-77726709D01*
X120251586Y-77726712D01*
X120227700Y-77815856D01*
X120227700Y-93165456D01*
X120208015Y-93232495D01*
X120191381Y-93253137D01*
X116497731Y-96946786D01*
X116497729Y-96946789D01*
X116466911Y-97000169D01*
X116466910Y-97000170D01*
X116451587Y-97026709D01*
X116451586Y-97026712D01*
X116427700Y-97115856D01*
X116427700Y-119008143D01*
X115528700Y-119008143D01*
X115528700Y-91058543D01*
X115548385Y-90991504D01*
X115565014Y-90970866D01*
X115617398Y-90918483D01*
X115668773Y-90813393D01*
X115678700Y-90745260D01*
X115678700Y-89503740D01*
X115668773Y-89435607D01*
X115617398Y-89330517D01*
X115617396Y-89330515D01*
X115617396Y-89330514D01*
X115534685Y-89247803D01*
X115429591Y-89196426D01*
X115361461Y-89186500D01*
X115361460Y-89186500D01*
X114994940Y-89186500D01*
X114994939Y-89186500D01*
X114926808Y-89196426D01*
X114821714Y-89247803D01*
X114739003Y-89330514D01*
X114687626Y-89435608D01*
X114677700Y-89503739D01*
X114677700Y-90745260D01*
X114687626Y-90813391D01*
X114687627Y-90813393D01*
X114739002Y-90918483D01*
X114791382Y-90970863D01*
X114824866Y-91032184D01*
X114827700Y-91058543D01*
X114827700Y-91066456D01*
X114808015Y-91133495D01*
X114755211Y-91179250D01*
X114686053Y-91189194D01*
X114622497Y-91160169D01*
X114616019Y-91154137D01*
X114584685Y-91122803D01*
X114479591Y-91071426D01*
X114411461Y-91061500D01*
X114411460Y-91061500D01*
X114044940Y-91061500D01*
X114044939Y-91061500D01*
X113976808Y-91071426D01*
X113871714Y-91122803D01*
X113789003Y-91205514D01*
X113737626Y-91310608D01*
X113727700Y-91378739D01*
X113727700Y-91737500D01*
X113708015Y-91804539D01*
X113655211Y-91850294D01*
X113603700Y-91861500D01*
X113330560Y-91861500D01*
X113263521Y-91841815D01*
X113217766Y-91789011D01*
X113212288Y-91770842D01*
X113211863Y-91770981D01*
X113208847Y-91761699D01*
X113208846Y-91761697D01*
X113208846Y-91761696D01*
X113151250Y-91648658D01*
X113151246Y-91648654D01*
X113151245Y-91648652D01*
X113061547Y-91558954D01*
X113061544Y-91558952D01*
X113061542Y-91558950D01*
X112984717Y-91519805D01*
X112948501Y-91501352D01*
X112854724Y-91486500D01*
X112391682Y-91486500D01*
X112310719Y-91499323D01*
X112297896Y-91501354D01*
X112184858Y-91558950D01*
X112184857Y-91558951D01*
X112184852Y-91558954D01*
X112095154Y-91648652D01*
X112095151Y-91648657D01*
X112037552Y-91761698D01*
X112022700Y-91855475D01*
X112022700Y-92468517D01*
X111573700Y-92468517D01*
X111573699Y-91855482D01*
X111558846Y-91761696D01*
X111501250Y-91648658D01*
X111501246Y-91648654D01*
X111501245Y-91648652D01*
X111411547Y-91558954D01*
X111411544Y-91558952D01*
X111411542Y-91558950D01*
X111334717Y-91519805D01*
X111298501Y-91501352D01*
X111204724Y-91486500D01*
X110741682Y-91486500D01*
X110660719Y-91499323D01*
X110647896Y-91501354D01*
X110534858Y-91558950D01*
X110534857Y-91558951D01*
X110534852Y-91558954D01*
X110445154Y-91648652D01*
X110445151Y-91648657D01*
X110387552Y-91761698D01*
X110384537Y-91770980D01*
X110383118Y-91770519D01*
X110357753Y-91824030D01*
X110298443Y-91860963D01*
X110265207Y-91865500D01*
X109454779Y-91865500D01*
X109387740Y-91845815D01*
X109341985Y-91793011D01*
X109336119Y-91777497D01*
X109334002Y-91770519D01*
X109331432Y-91762046D01*
X109233885Y-91579550D01*
X109157522Y-91486501D01*
X109102610Y-91419589D01*
X108942652Y-91288317D01*
X108942653Y-91288317D01*
X108942650Y-91288315D01*
X108760154Y-91190768D01*
X108562134Y-91130700D01*
X108562132Y-91130699D01*
X108562134Y-91130699D01*
X108356200Y-91110417D01*
X108150267Y-91130699D01*
X107952243Y-91190769D01*
X107842098Y-91249643D01*
X107769750Y-91288315D01*
X107769748Y-91288316D01*
X107769747Y-91288317D01*
X107609789Y-91419589D01*
X107478517Y-91579547D01*
X107478515Y-91579550D01*
X107464185Y-91606360D01*
X107380969Y-91762043D01*
X107380968Y-91762045D01*
X107380968Y-91762046D01*
X107380841Y-91762464D01*
X107320899Y-91960067D01*
X107300617Y-92166000D01*
X103496315Y-92166000D01*
X103554998Y-92094494D01*
X103650223Y-91916341D01*
X103651995Y-91910500D01*
X103690294Y-91852063D01*
X103754108Y-91823609D01*
X103770654Y-91822500D01*
X105177760Y-91822500D01*
X105177762Y-91822500D01*
X105254189Y-91802021D01*
X105322711Y-91762460D01*
X105378660Y-91706511D01*
X106038660Y-91046511D01*
X106078221Y-90977989D01*
X106098700Y-90901562D01*
X106098700Y-89626000D01*
X107300617Y-89626000D01*
X107320899Y-89831932D01*
X107340492Y-89896520D01*
X107380968Y-90029954D01*
X107478515Y-90212450D01*
X107513169Y-90254677D01*
X107609789Y-90372410D01*
X107691017Y-90439071D01*
X107769750Y-90503685D01*
X107952246Y-90601232D01*
X108150266Y-90661300D01*
X108150265Y-90661300D01*
X108168729Y-90663118D01*
X108356200Y-90681583D01*
X108562134Y-90661300D01*
X108760154Y-90601232D01*
X108942650Y-90503685D01*
X109102610Y-90372410D01*
X109233885Y-90212450D01*
X109331432Y-90029954D01*
X109391500Y-89831934D01*
X109411783Y-89626000D01*
X109391500Y-89420066D01*
X109331432Y-89222046D01*
X109233885Y-89039550D01*
X109181902Y-88976209D01*
X109102610Y-88879589D01*
X108984877Y-88782969D01*
X108942650Y-88748315D01*
X108760154Y-88650768D01*
X108562134Y-88590700D01*
X108562132Y-88590699D01*
X108562134Y-88590699D01*
X108356200Y-88570417D01*
X108150267Y-88590699D01*
X107952243Y-88650769D01*
X107891572Y-88683199D01*
X107769750Y-88748315D01*
X107769748Y-88748316D01*
X107769747Y-88748317D01*
X107609789Y-88879589D01*
X107478517Y-89039547D01*
X107380969Y-89222043D01*
X107320899Y-89420067D01*
X107300617Y-89626000D01*
X106098700Y-89626000D01*
X106098700Y-87086000D01*
X107300617Y-87086000D01*
X107320899Y-87291932D01*
X107320900Y-87291934D01*
X107380968Y-87489954D01*
X107478515Y-87672450D01*
X107478517Y-87672452D01*
X107609789Y-87832410D01*
X107694808Y-87902182D01*
X107769750Y-87963685D01*
X107952246Y-88061232D01*
X108150266Y-88121300D01*
X108150265Y-88121300D01*
X108168729Y-88123118D01*
X108356200Y-88141583D01*
X108562134Y-88121300D01*
X108760154Y-88061232D01*
X108942650Y-87963685D01*
X109102610Y-87832410D01*
X109233885Y-87672450D01*
X109331432Y-87489954D01*
X109391500Y-87291934D01*
X109411783Y-87086000D01*
X109391500Y-86880066D01*
X109331432Y-86682046D01*
X109233885Y-86499550D01*
X109181902Y-86436209D01*
X109102610Y-86339589D01*
X108942652Y-86208317D01*
X108942653Y-86208317D01*
X108942650Y-86208315D01*
X108760154Y-86110768D01*
X108562134Y-86050700D01*
X108562132Y-86050699D01*
X108562134Y-86050699D01*
X108356200Y-86030417D01*
X108150267Y-86050699D01*
X107952243Y-86110769D01*
X107842098Y-86169643D01*
X107769750Y-86208315D01*
X107769748Y-86208316D01*
X107769747Y-86208317D01*
X107609789Y-86339589D01*
X107478517Y-86499547D01*
X107380969Y-86682043D01*
X107320899Y-86880067D01*
X107300617Y-87086000D01*
X106098700Y-87086000D01*
X106098700Y-84522000D01*
X107368028Y-84522000D01*
X107386669Y-84711269D01*
X107386670Y-84711271D01*
X107441878Y-84893269D01*
X107531531Y-85060999D01*
X107531532Y-85061000D01*
X107652184Y-85208015D01*
X107754491Y-85291976D01*
X107799201Y-85328669D01*
X107966931Y-85418322D01*
X108148929Y-85473530D01*
X108148928Y-85473530D01*
X108165898Y-85475201D01*
X108338200Y-85492172D01*
X108527471Y-85473530D01*
X108709469Y-85418322D01*
X108877199Y-85328669D01*
X109024215Y-85208015D01*
X109144869Y-85060999D01*
X109234522Y-84893269D01*
X109289730Y-84711271D01*
X109308372Y-84522000D01*
X109289730Y-84332729D01*
X109234522Y-84150731D01*
X109144869Y-83983001D01*
X109108176Y-83938291D01*
X109024215Y-83835984D01*
X108877200Y-83715332D01*
X108877199Y-83715331D01*
X108709469Y-83625678D01*
X108527471Y-83570470D01*
X108527469Y-83570469D01*
X108527471Y-83570469D01*
X108338200Y-83551828D01*
X108148930Y-83570469D01*
X107966931Y-83625678D01*
X107799199Y-83715332D01*
X107652184Y-83835984D01*
X107531532Y-83982999D01*
X107441878Y-84150731D01*
X107386669Y-84332730D01*
X107368028Y-84522000D01*
X106098700Y-84522000D01*
X106098700Y-82006000D01*
X107300617Y-82006000D01*
X107320899Y-82211932D01*
X107320900Y-82211934D01*
X107380968Y-82409954D01*
X107478515Y-82592450D01*
X107478517Y-82592452D01*
X107609789Y-82752410D01*
X107669682Y-82801562D01*
X107769750Y-82883685D01*
X107952246Y-82981232D01*
X108150266Y-83041300D01*
X108150265Y-83041300D01*
X108168729Y-83043118D01*
X108356200Y-83061583D01*
X108562134Y-83041300D01*
X108760154Y-82981232D01*
X108942650Y-82883685D01*
X109102610Y-82752410D01*
X109233885Y-82592450D01*
X109331432Y-82409954D01*
X109391500Y-82211934D01*
X109411783Y-82006000D01*
X109391500Y-81800066D01*
X109331432Y-81602046D01*
X109233885Y-81419550D01*
X109181902Y-81356209D01*
X109102610Y-81259589D01*
X108942652Y-81128317D01*
X108942653Y-81128317D01*
X108942650Y-81128315D01*
X108760154Y-81030768D01*
X108562134Y-80970700D01*
X108562132Y-80970699D01*
X108562134Y-80970699D01*
X108356200Y-80950417D01*
X108150267Y-80970699D01*
X107952243Y-81030769D01*
X107842098Y-81089643D01*
X107769750Y-81128315D01*
X107769748Y-81128316D01*
X107769747Y-81128317D01*
X107609789Y-81259589D01*
X107478517Y-81419547D01*
X107380969Y-81602043D01*
X107320899Y-81800067D01*
X107300617Y-82006000D01*
X106098700Y-82006000D01*
X106098700Y-80337833D01*
X106118385Y-80270794D01*
X106135019Y-80250152D01*
X106582352Y-79802819D01*
X106643675Y-79769334D01*
X106670033Y-79766500D01*
X107257621Y-79766500D01*
X107324660Y-79786185D01*
X107370415Y-79838989D01*
X107376281Y-79854503D01*
X107380968Y-79869954D01*
X107478515Y-80052450D01*
X107478517Y-80052452D01*
X107609789Y-80212410D01*
X107700034Y-80286471D01*
X107769750Y-80343685D01*
X107952246Y-80441232D01*
X108150266Y-80501300D01*
X108150265Y-80501300D01*
X108168729Y-80503118D01*
X108356200Y-80521583D01*
X108562134Y-80501300D01*
X108760154Y-80441232D01*
X108942650Y-80343685D01*
X109102610Y-80212410D01*
X109233885Y-80052450D01*
X109331432Y-79869954D01*
X109391500Y-79671934D01*
X109411783Y-79466000D01*
X109391500Y-79260066D01*
X109331432Y-79062046D01*
X109233885Y-78879550D01*
X109181902Y-78816209D01*
X109102610Y-78719589D01*
X108942652Y-78588317D01*
X108942653Y-78588317D01*
X108942650Y-78588315D01*
X108760154Y-78490768D01*
X108562134Y-78430700D01*
X108562132Y-78430699D01*
X108562134Y-78430699D01*
X108356200Y-78410417D01*
X108150267Y-78430699D01*
X107974892Y-78483898D01*
X107953229Y-78490470D01*
X107952243Y-78490769D01*
X107842098Y-78549643D01*
X107769750Y-78588315D01*
X107769748Y-78588316D01*
X107769747Y-78588317D01*
X107609789Y-78719589D01*
X107478517Y-78879547D01*
X107380969Y-79062043D01*
X107380968Y-79062046D01*
X107376281Y-79077497D01*
X107337983Y-79135935D01*
X107274170Y-79164391D01*
X107257621Y-79165500D01*
X106454638Y-79165500D01*
X106378210Y-79185978D01*
X106309689Y-79225540D01*
X106309686Y-79225542D01*
X105557741Y-79977487D01*
X105557735Y-79977495D01*
X105518182Y-80046004D01*
X105518179Y-80046009D01*
X105497700Y-80122439D01*
X105497700Y-90686167D01*
X105478015Y-90753206D01*
X105461381Y-90773848D01*
X105050048Y-91185181D01*
X104988725Y-91218666D01*
X104962367Y-91221500D01*
X103770654Y-91221500D01*
X103703615Y-91201815D01*
X103657860Y-91149011D01*
X103651995Y-91133500D01*
X103651145Y-91130699D01*
X103650223Y-91127659D01*
X103650219Y-91127651D01*
X103555001Y-90949511D01*
X103554999Y-90949509D01*
X103554998Y-90949506D01*
X103515650Y-90901560D01*
X103426847Y-90793352D01*
X103270695Y-90665203D01*
X103270688Y-90665198D01*
X103092545Y-90569978D01*
X102899231Y-90511337D01*
X102698200Y-90491538D01*
X102497168Y-90511337D01*
X102303854Y-90569978D01*
X102125711Y-90665198D01*
X102125704Y-90665203D01*
X101969552Y-90793352D01*
X101841403Y-90949504D01*
X101841398Y-90949511D01*
X101746178Y-91127654D01*
X101687537Y-91320968D01*
X101667738Y-91522000D01*
X100098700Y-91522000D01*
X100098700Y-87837833D01*
X100118385Y-87770794D01*
X100135019Y-87750152D01*
X102466850Y-85418321D01*
X104938660Y-82946511D01*
X104978221Y-82877989D01*
X104998700Y-82801562D01*
X104998700Y-78437833D01*
X105018385Y-78370794D01*
X105035019Y-78350152D01*
X106122352Y-77262819D01*
X106183675Y-77229334D01*
X106210033Y-77226500D01*
X107181700Y-77226500D01*
X107248739Y-77246185D01*
X107294494Y-77298989D01*
X107305700Y-77350500D01*
X107305700Y-77795752D01*
X107317331Y-77854229D01*
X107317332Y-77854230D01*
X107361647Y-77920552D01*
X107427969Y-77964867D01*
X107427970Y-77964868D01*
X107486447Y-77976499D01*
X107486450Y-77976500D01*
X107486452Y-77976500D01*
X109225950Y-77976500D01*
X109225951Y-77976499D01*
X109240768Y-77973552D01*
X109284429Y-77964868D01*
X109284429Y-77964867D01*
X109284431Y-77964867D01*
X109350752Y-77920552D01*
X109395067Y-77854231D01*
X109395067Y-77854229D01*
X109395068Y-77854229D01*
X109406699Y-77795752D01*
X109406700Y-77795750D01*
X109406700Y-76056249D01*
X109406699Y-76056247D01*
X109395068Y-75997770D01*
X109395067Y-75997769D01*
X109350752Y-75931447D01*
X109284430Y-75887132D01*
X109284429Y-75887131D01*
X109225952Y-75875500D01*
X109225948Y-75875500D01*
X107486452Y-75875500D01*
X107486447Y-75875500D01*
X107427970Y-75887131D01*
X107427969Y-75887132D01*
X107361647Y-75931447D01*
X107317332Y-75997769D01*
X107317331Y-75997770D01*
X107305700Y-76056247D01*
X107305700Y-76501500D01*
X107286015Y-76568539D01*
X107233211Y-76614294D01*
X107181700Y-76625500D01*
X105994638Y-76625500D01*
X105956424Y-76635739D01*
X105918209Y-76645979D01*
X105918208Y-76645980D01*
X105858990Y-76680170D01*
X105849692Y-76685537D01*
X105849686Y-76685542D01*
X104457741Y-78077487D01*
X104457735Y-78077495D01*
X104418182Y-78146004D01*
X104418179Y-78146009D01*
X104397700Y-78222439D01*
X104397700Y-82586167D01*
X104378015Y-82653206D01*
X104361381Y-82673848D01*
X99557741Y-87477487D01*
X99557735Y-87477495D01*
X99518182Y-87546004D01*
X99518179Y-87546009D01*
X99504526Y-87596962D01*
X99497700Y-87622438D01*
X99497700Y-93201562D01*
X98180255Y-93201562D01*
X98187219Y-93034665D01*
X98187409Y-93031243D01*
X98198203Y-92876196D01*
X98286606Y-91606330D01*
X98286892Y-91602925D01*
X98291166Y-91559145D01*
X98425652Y-90181412D01*
X98426025Y-90178063D01*
X98604261Y-88760844D01*
X98604735Y-88757462D01*
X98822289Y-87345808D01*
X98822841Y-87342529D01*
X99079563Y-85937402D01*
X99080225Y-85934048D01*
X99375896Y-84536657D01*
X99376627Y-84533424D01*
X99711052Y-83144699D01*
X99711879Y-83141464D01*
X100084766Y-81762614D01*
X100085677Y-81759422D01*
X100496748Y-80391476D01*
X100497781Y-80388207D01*
X100946704Y-79032264D01*
X100947803Y-79029095D01*
X101434251Y-77686140D01*
X101435461Y-77682940D01*
X101449706Y-77646786D01*
X101959044Y-76354048D01*
X101960335Y-76350902D01*
X102086000Y-76056247D01*
X102520670Y-75037045D01*
X102522007Y-75034026D01*
X103118672Y-73736204D01*
X103120145Y-73733116D01*
X103312062Y-73344514D01*
X103752613Y-72452466D01*
X103754118Y-72449522D01*
X104421992Y-71186854D01*
X104423606Y-71183904D01*
X105126288Y-69940350D01*
X105127963Y-69937478D01*
X105864973Y-68713884D01*
X105866755Y-68711018D01*
X106637460Y-67508439D01*
X106639307Y-67505643D01*
X107443171Y-66324913D01*
X107445099Y-66322165D01*
X108281451Y-65164269D01*
X108283443Y-65161591D01*
X109151656Y-64027396D01*
X109153773Y-64024709D01*
X109243448Y-63914075D01*
X110053167Y-62915101D01*
X110055314Y-62912526D01*
X110985228Y-61828323D01*
X110987447Y-61825808D01*
X111947153Y-60767858D01*
X111949444Y-60765402D01*
X112938142Y-59734589D01*
X112940515Y-59732182D01*
X113957512Y-58729225D01*
X113959995Y-58726845D01*
X113982542Y-58705813D01*
X115004422Y-57752598D01*
X115006968Y-57750290D01*
X116078127Y-56805406D01*
X116080662Y-56803232D01*
X117177670Y-55888492D01*
X117180290Y-55886369D01*
X118302346Y-55002443D01*
X118305003Y-55000410D01*
X119451104Y-54148087D01*
X119453893Y-54146072D01*
X120623301Y-53325896D01*
X120626083Y-53324003D01*
X121817814Y-52536669D01*
X121820682Y-52534830D01*
X123033884Y-51780900D01*
X123036693Y-51779208D01*
X124270424Y-51059269D01*
X124273318Y-51057634D01*
X125526596Y-50372264D01*
X125529553Y-50370701D01*
X126801312Y-49720480D01*
X126804292Y-49719007D01*
X128093713Y-49104352D01*
X128096708Y-49102975D01*
X129402683Y-48524416D01*
X129405817Y-48523079D01*
X130727319Y-47981068D01*
X130730411Y-47979849D01*
X132066558Y-47474748D01*
X132069656Y-47473626D01*
X133419318Y-47005867D01*
X133422509Y-47004811D01*
X134784558Y-46574781D01*
X134787756Y-46573819D01*
X136161291Y-46181800D01*
X136164592Y-46180907D01*
X137548432Y-45827237D01*
X137551748Y-45826439D01*
X138944911Y-45511369D01*
X138948208Y-45510671D01*
X140349565Y-45234455D01*
X140352892Y-45233846D01*
X141761460Y-44996679D01*
X141764741Y-44996173D01*
X143179362Y-44798252D01*
X143182683Y-44797835D01*
X144602231Y-44639317D01*
X144605559Y-44638992D01*
X146028974Y-44519996D01*
X146032350Y-44519762D01*
X147458459Y-44440383D01*
X147461846Y-44440242D01*
X148889610Y-44400538D01*
X148893057Y-44400490D01*
X150321343Y-44400490D01*
X150324790Y-44400538D01*
G37*
%TD.AperFunction*%
%TD*%
M02*
