%TF.GenerationSoftware,KiCad,Pcbnew,8.0.1*%
%TF.CreationDate,2024-04-24T20:44:49+02:00*%
%TF.ProjectId,Connectors_card,436f6e6e-6563-4746-9f72-735f63617264,rev?*%
%TF.SameCoordinates,Original*%
%TF.FileFunction,Copper,L2,Bot*%
%TF.FilePolarity,Positive*%
%FSLAX46Y46*%
G04 Gerber Fmt 4.6, Leading zero omitted, Abs format (unit mm)*
G04 Created by KiCad (PCBNEW 8.0.1) date 2024-04-24 20:44:49*
%MOMM*%
%LPD*%
G01*
G04 APERTURE LIST*
%TA.AperFunction,ComponentPad*%
%ADD10R,1.650000X1.650000*%
%TD*%
%TA.AperFunction,ComponentPad*%
%ADD11C,1.650000*%
%TD*%
%TA.AperFunction,ComponentPad*%
%ADD12R,1.520000X1.520000*%
%TD*%
%TA.AperFunction,ComponentPad*%
%ADD13C,1.520000*%
%TD*%
%TA.AperFunction,ComponentPad*%
%ADD14R,1.530000X1.530000*%
%TD*%
%TA.AperFunction,ComponentPad*%
%ADD15C,1.530000*%
%TD*%
%TA.AperFunction,ComponentPad*%
%ADD16C,3.000000*%
%TD*%
%TA.AperFunction,ComponentPad*%
%ADD17R,3.000000X3.000000*%
%TD*%
%TA.AperFunction,ComponentPad*%
%ADD18R,1.700000X1.700000*%
%TD*%
%TA.AperFunction,ComponentPad*%
%ADD19O,1.700000X1.700000*%
%TD*%
%TA.AperFunction,ViaPad*%
%ADD20C,0.600000*%
%TD*%
%TA.AperFunction,Conductor*%
%ADD21C,0.300000*%
%TD*%
G04 APERTURE END LIST*
D10*
%TO.P,J3,1,1*%
%TO.N,+5V*%
X102698200Y-102642000D03*
D11*
%TO.P,J3,2,2*%
%TO.N,/PA8{slash}TIM1_CH1*%
X102698200Y-100102000D03*
%TO.P,J3,3,3*%
%TO.N,GND*%
X102698200Y-97562000D03*
%TD*%
D10*
%TO.P,J5,1,1*%
%TO.N,+3.3V*%
X129018200Y-127362000D03*
D11*
%TO.P,J5,2,2*%
%TO.N,/PA3{slash}BTN*%
X126478200Y-127362000D03*
%TO.P,J5,3,3*%
%TO.N,+12V*%
X123938200Y-127362000D03*
%TO.P,J5,4,4*%
%TO.N,Net-(Q1-C)*%
X121398200Y-127362000D03*
%TD*%
D12*
%TO.P,J6,1,1*%
%TO.N,GND*%
X145178200Y-135462000D03*
D13*
%TO.P,J6,2,2*%
%TO.N,/PA6{slash}RST*%
X148178200Y-135462000D03*
%TO.P,J6,3,3*%
%TO.N,+5V*%
X151178200Y-135462000D03*
%TO.P,J6,4,4*%
%TO.N,/PB0{slash}DC*%
X154178200Y-135462000D03*
%TO.P,J6,5,5*%
%TO.N,/PA1{slash}SPI_CLK*%
X145178200Y-138462000D03*
%TO.P,J6,6,6*%
%TO.N,/PA5{slash}CS*%
X148178200Y-138462000D03*
%TO.P,J6,7,7*%
%TO.N,/PA7{slash}SPI_MOSI*%
X151178200Y-138462000D03*
%TO.P,J6,8,8*%
%TO.N,/PB1{slash}BLK*%
X154178200Y-138462000D03*
%TD*%
D14*
%TO.P,U1,CN3_1,CN3_1*%
%TO.N,Net-(U1-PadCN3_1)*%
X108338200Y-76902000D03*
D15*
%TO.P,U1,CN3_2,CN3_2*%
X108338200Y-79442000D03*
%TO.P,U1,CN3_3,CN3_3*%
%TO.N,Net-(U1-PadCN3_3)*%
X108338200Y-81982000D03*
%TO.P,U1,CN3_4,CN3_4*%
X108338200Y-84522000D03*
%TO.P,U1,CN3_5,CN3_5*%
%TO.N,Net-(U1-PadCN3_5)*%
X108338200Y-87062000D03*
%TO.P,U1,CN3_6,CN3_6*%
X108338200Y-89602000D03*
%TO.P,U1,CN3_7*%
%TO.N,N/C*%
X108338200Y-92142000D03*
%TO.P,U1,CN3_8,CN3_8*%
%TO.N,Net-(U1-VC10)*%
X108338200Y-94682000D03*
%TO.P,U1,CN3_9,CN3_9*%
%TO.N,Net-(U1-PadCN3_10)*%
X108338200Y-97222000D03*
%TO.P,U1,CN3_10,CN3_10*%
X108338200Y-99762000D03*
%TO.P,U1,CN3_11,CN3_11*%
%TO.N,Net-(U1-PadCN3_11)*%
X108338200Y-102302000D03*
%TO.P,U1,CN3_12,CN3_12*%
X108338200Y-104842000D03*
%TO.P,U1,CN3_13,CN3_13*%
%TO.N,Net-(U1-PadCN3_13)*%
X108338200Y-107382000D03*
%TO.P,U1,CN3_14,CN3_14*%
X108338200Y-109922000D03*
%TO.P,U1,CN3_15,CN3_15*%
%TO.N,Net-(U1-PadCN3_15)*%
X108338200Y-112462000D03*
D14*
%TO.P,U1,CN4_1,CN4_1*%
X123578200Y-76902000D03*
D15*
%TO.P,U1,CN4_2,CN4_2*%
%TO.N,Net-(U1-PadCN4_2)*%
X123578200Y-79442000D03*
%TO.P,U1,CN4_3,CN4_3*%
X123578200Y-81982000D03*
%TO.P,U1,CN4_4*%
%TO.N,N/C*%
X123578200Y-84522000D03*
%TO.P,U1,CN4_5,CN4_5*%
%TO.N,Net-(U1-PadCN4_5)*%
X123578200Y-87062000D03*
%TO.P,U1,CN4_6,CN4_6*%
X123578200Y-89602000D03*
%TO.P,U1,CN4_7,CN4_7*%
%TO.N,Net-(U1-PadCN4_7)*%
X123578200Y-92142000D03*
%TO.P,U1,CN4_8,CN4_8*%
X123578200Y-94682000D03*
%TO.P,U1,CN4_9,CN4_9*%
%TO.N,Net-(U1-PadCN4_10)*%
X123578200Y-97222000D03*
%TO.P,U1,CN4_10,CN4_10*%
%TO.N,/PA3{slash}BTN*%
X123578200Y-99762000D03*
%TO.P,U1,CN4_11,CN4_11*%
%TO.N,Net-(U1-PadCN4_11)*%
X123578200Y-102302000D03*
%TO.P,U1,CN4_12,CN4_12*%
X123578200Y-104842000D03*
%TO.P,U1,CN4_13,CN4_13*%
%TO.N,Net-(U1-PadCN4_13)*%
X123578200Y-107382000D03*
%TO.P,U1,CN4_14,CN4_14*%
X123578200Y-109922000D03*
%TO.P,U1,CN4_15,CN4_15*%
%TO.N,unconnected-(U1-PadCN4_15)*%
X123578200Y-112462000D03*
%TD*%
D16*
%TO.P,J1,+,+*%
%TO.N,Net-(F1-Pad2)*%
X134978200Y-62262000D03*
D17*
%TO.P,J1,-,-*%
%TO.N,GND*%
X134978200Y-57262000D03*
%TD*%
D18*
%TO.P,J7,1,Pin_1*%
%TO.N,/PA9{slash}UART_TX*%
X108356200Y-76926000D03*
D19*
%TO.P,J7,2,Pin_2*%
%TO.N,/PA10{slash}UART_RX*%
X108356200Y-79466000D03*
%TO.P,J7,3,Pin_3*%
%TO.N,/NRST*%
X108356200Y-82006000D03*
%TO.P,J7,4,Pin_4*%
%TO.N,GND*%
X108356200Y-84546000D03*
%TO.P,J7,5,Pin_5*%
%TO.N,/PA12*%
X108356200Y-87086000D03*
%TO.P,J7,6,Pin_6*%
%TO.N,/PB0{slash}DC*%
X108356200Y-89626000D03*
%TO.P,J7,7,Pin_7*%
%TO.N,/PB7{slash}BTN_LED*%
X108356200Y-92166000D03*
%TO.P,J7,8,Pin_8*%
%TO.N,/PB6*%
X108356200Y-94706000D03*
%TO.P,J7,9,Pin_9*%
%TO.N,/PB1{slash}BLK*%
X108356200Y-97246000D03*
%TO.P,J7,10,Pin_10*%
%TO.N,/PC14*%
X108356200Y-99786000D03*
%TO.P,J7,11,Pin_11*%
%TO.N,/PC15*%
X108356200Y-102326000D03*
%TO.P,J7,12,Pin_12*%
%TO.N,/PA8{slash}TIM1_CH1*%
X108356200Y-104866000D03*
%TO.P,J7,13,Pin_13*%
%TO.N,/PA11*%
X108356200Y-107406000D03*
%TO.P,J7,14,Pin_14*%
%TO.N,/PB5*%
X108356200Y-109946000D03*
%TO.P,J7,15,Pin_15*%
%TO.N,/PB4*%
X108356200Y-112486000D03*
%TD*%
D18*
%TO.P,J8,1,Pin_1*%
%TO.N,+12V*%
X123596200Y-76926000D03*
D19*
%TO.P,J8,2,Pin_2*%
%TO.N,GND*%
X123596200Y-79466000D03*
%TO.P,J8,3,Pin_3*%
%TO.N,/NRST*%
X123596200Y-82006000D03*
%TO.P,J8,4,Pin_4*%
%TO.N,+5V*%
X123596200Y-84546000D03*
%TO.P,J8,5,Pin_5*%
%TO.N,/PA2*%
X123596200Y-87086000D03*
%TO.P,J8,6,Pin_6*%
%TO.N,/PA7{slash}SPI_MOSI*%
X123596200Y-89626000D03*
%TO.P,J8,7,Pin_7*%
%TO.N,/PA6{slash}RST*%
X123596200Y-92166000D03*
%TO.P,J8,8,Pin_8*%
%TO.N,/PA5{slash}CS*%
X123596200Y-94706000D03*
%TO.P,J8,9,Pin_9*%
%TO.N,/PA4{slash}MOS_ALIM*%
X123596200Y-97246000D03*
%TO.P,J8,10,Pin_10*%
%TO.N,/PA3{slash}BTN*%
X123596200Y-99786000D03*
%TO.P,J8,11,Pin_11*%
%TO.N,/PA1{slash}SPI_CLK*%
X123596200Y-102326000D03*
%TO.P,J8,12,Pin_12*%
%TO.N,/PA0*%
X123596200Y-104866000D03*
%TO.P,J8,13,Pin_13*%
%TO.N,/AREF*%
X123596200Y-107406000D03*
%TO.P,J8,14,Pin_14*%
%TO.N,+3.3V*%
X123596200Y-109946000D03*
%TO.P,J8,15,Pin_15*%
%TO.N,/PB3*%
X123596200Y-112486000D03*
%TD*%
D10*
%TO.P,J4,1,1*%
%TO.N,/PA9{slash}UART_TX*%
X102698200Y-94062000D03*
D11*
%TO.P,J4,2,2*%
%TO.N,/PA10{slash}UART_RX*%
X102698200Y-91522000D03*
%TO.P,J4,3,3*%
%TO.N,GND*%
X102698200Y-88982000D03*
%TD*%
D16*
%TO.P,J2,+,+*%
%TO.N,Net-(Q2-E)*%
X164078200Y-62262000D03*
D17*
%TO.P,J2,-,-*%
%TO.N,GND*%
X164078200Y-57262000D03*
%TD*%
D20*
%TO.N,+5V*%
X151178200Y-128462000D03*
%TO.N,/PB0{slash}DC*%
X110978200Y-94862000D03*
X156478200Y-143462000D03*
%TO.N,/PB1{slash}BLK*%
X154178200Y-144562000D03*
%TO.N,/PA4{slash}MOS_ALIM*%
X139778200Y-68762000D03*
%TD*%
D21*
%TO.N,+5V*%
X151178200Y-135462000D02*
X151178200Y-128462000D01*
X152678200Y-141062000D02*
X152678200Y-136962000D01*
X149678200Y-144062000D02*
X152678200Y-141062000D01*
X130778200Y-133662000D02*
X141178200Y-144062000D01*
X141178200Y-144062000D02*
X149678200Y-144062000D01*
X122078200Y-133662000D02*
X130778200Y-133662000D01*
X152678200Y-136962000D02*
X151178200Y-135462000D01*
X102698200Y-102642000D02*
X102698200Y-114282000D01*
X102698200Y-114282000D02*
X122078200Y-133662000D01*
%TO.N,/PB0{slash}DC*%
X109742200Y-89626000D02*
X110978200Y-90862000D01*
X154178200Y-135462000D02*
X157878200Y-135462000D01*
X158978200Y-136562000D02*
X158978200Y-142262000D01*
X108356200Y-89626000D02*
X109742200Y-89626000D01*
X157878200Y-135462000D02*
X158978200Y-136562000D01*
X157778200Y-143462000D02*
X156478200Y-143462000D01*
X110978200Y-90862000D02*
X110978200Y-94862000D01*
X158978200Y-142262000D02*
X157778200Y-143462000D01*
%TO.N,/PB1{slash}BLK*%
X154178200Y-138462000D02*
X154178200Y-144562000D01*
%TO.N,/PA1{slash}SPI_CLK*%
X125242200Y-102326000D02*
X125778200Y-102862000D01*
X138578200Y-130362000D02*
X143278200Y-130362000D01*
X125778200Y-102862000D02*
X125778200Y-117562000D01*
X125778200Y-117562000D02*
X138578200Y-130362000D01*
X143278200Y-130362000D02*
X146778200Y-133862000D01*
X146778200Y-133862000D02*
X146778200Y-136862000D01*
X123596200Y-102326000D02*
X125242200Y-102326000D01*
X146778200Y-136862000D02*
X145178200Y-138462000D01*
%TO.N,/PA5{slash}CS*%
X126478200Y-115862000D02*
X126478200Y-95962000D01*
X125222200Y-94706000D02*
X123596200Y-94706000D01*
X149678200Y-133462000D02*
X145378200Y-129162000D01*
X148178200Y-138462000D02*
X149678200Y-136962000D01*
X145378200Y-129162000D02*
X139778200Y-129162000D01*
X126478200Y-95962000D02*
X125222200Y-94706000D01*
X149678200Y-136962000D02*
X149678200Y-133462000D01*
X139778200Y-129162000D02*
X126478200Y-115862000D01*
%TO.N,/PA4{slash}MOS_ALIM*%
X121878200Y-97262000D02*
X119978200Y-95362000D01*
X119978200Y-74662000D02*
X125778200Y-68862000D01*
X119978200Y-95362000D02*
X119978200Y-74662000D01*
X125778200Y-68862000D02*
X139678200Y-68862000D01*
X123596200Y-97246000D02*
X121894200Y-97246000D01*
X121894200Y-97246000D02*
X121878200Y-97262000D01*
X139678200Y-68862000D02*
X139778200Y-68762000D01*
%TD*%
%TA.AperFunction,Conductor*%
%TO.N,GND*%
G36*
X150324790Y-44400538D02*
G01*
X151752550Y-44440242D01*
X151755943Y-44440383D01*
X153182044Y-44519761D01*
X153185430Y-44519997D01*
X154608833Y-44638992D01*
X154612175Y-44639318D01*
X156031707Y-44797834D01*
X156035046Y-44798253D01*
X157449648Y-44996172D01*
X157452950Y-44996681D01*
X158861494Y-45233844D01*
X158864847Y-45234457D01*
X160266176Y-45510669D01*
X160269503Y-45511372D01*
X161472860Y-45783517D01*
X161662633Y-45826435D01*
X161665985Y-45827242D01*
X163049793Y-46180904D01*
X163053121Y-46181804D01*
X164426624Y-46573813D01*
X164429861Y-46574787D01*
X165791869Y-47004804D01*
X165795102Y-47005874D01*
X167144720Y-47473618D01*
X167147863Y-47474757D01*
X168483964Y-47979840D01*
X168487105Y-47981078D01*
X169536057Y-48411304D01*
X169808563Y-48523072D01*
X169811734Y-48524424D01*
X171117663Y-49102963D01*
X171120713Y-49104365D01*
X172410078Y-49718994D01*
X172413116Y-49720494D01*
X173684816Y-50370686D01*
X173687832Y-50372280D01*
X174941050Y-51057617D01*
X174944006Y-51059287D01*
X176177674Y-51779189D01*
X176180547Y-51780919D01*
X177049479Y-52320908D01*
X177393700Y-52534820D01*
X177396602Y-52536680D01*
X178588282Y-53323980D01*
X178591132Y-53325920D01*
X179760506Y-54146072D01*
X179763300Y-54148091D01*
X180909354Y-55000379D01*
X180912092Y-55002474D01*
X182034080Y-55886346D01*
X182036758Y-55888517D01*
X183133695Y-56803197D01*
X183136312Y-56805441D01*
X184207431Y-57750290D01*
X184209984Y-57752606D01*
X185254404Y-58726845D01*
X185256892Y-58729231D01*
X186273860Y-59732159D01*
X186276280Y-59734614D01*
X187264924Y-60765370D01*
X187267276Y-60767891D01*
X188226921Y-61825773D01*
X188229201Y-61828358D01*
X189159054Y-62912490D01*
X189161262Y-62915138D01*
X190060626Y-64024709D01*
X190062759Y-64027417D01*
X190930923Y-65161548D01*
X190932980Y-65164314D01*
X191769273Y-66322128D01*
X191771253Y-66324950D01*
X192575065Y-67505604D01*
X192576965Y-67508480D01*
X193347624Y-68710987D01*
X193349444Y-68713915D01*
X194086405Y-69937426D01*
X194088142Y-69940404D01*
X194790772Y-71183867D01*
X194792426Y-71186891D01*
X195321442Y-72187036D01*
X195460249Y-72449460D01*
X195461818Y-72452530D01*
X196094254Y-73733116D01*
X196095738Y-73736228D01*
X196422413Y-74446788D01*
X196611715Y-74858544D01*
X196692356Y-75033947D01*
X196693752Y-75037099D01*
X197254064Y-76350902D01*
X197255372Y-76354091D01*
X197778938Y-77682940D01*
X197780157Y-77686165D01*
X198266580Y-79029051D01*
X198267709Y-79032308D01*
X198716618Y-80388207D01*
X198717656Y-80391494D01*
X199128704Y-81759361D01*
X199129650Y-81762676D01*
X199502506Y-83141411D01*
X199503360Y-83144751D01*
X199837757Y-84533360D01*
X199838517Y-84536722D01*
X200134174Y-85934048D01*
X200134841Y-85937431D01*
X200391548Y-87342470D01*
X200392120Y-87345869D01*
X200609664Y-88757462D01*
X200610142Y-88760876D01*
X200788369Y-90178026D01*
X200788751Y-90181452D01*
X200927507Y-91602925D01*
X200927795Y-91606360D01*
X201026990Y-93031243D01*
X201027181Y-93034685D01*
X201086725Y-94461696D01*
X201086821Y-94465142D01*
X201106676Y-95893290D01*
X201106676Y-95896738D01*
X201086821Y-97324885D01*
X201086725Y-97328331D01*
X201027181Y-98755342D01*
X201026990Y-98758784D01*
X200927795Y-100183667D01*
X200927507Y-100187102D01*
X200788751Y-101608575D01*
X200788369Y-101612001D01*
X200610142Y-103029151D01*
X200609664Y-103032565D01*
X200392120Y-104444158D01*
X200391548Y-104447557D01*
X200134841Y-105852596D01*
X200134174Y-105855979D01*
X199838517Y-107253305D01*
X199837757Y-107256667D01*
X199503360Y-108645276D01*
X199502506Y-108648616D01*
X199129650Y-110027351D01*
X199128704Y-110030666D01*
X198717656Y-111398533D01*
X198716618Y-111401820D01*
X198267709Y-112757719D01*
X198266580Y-112760976D01*
X197780157Y-114103862D01*
X197778938Y-114107087D01*
X197255372Y-115435936D01*
X197254064Y-115439125D01*
X196693752Y-116752928D01*
X196692356Y-116756080D01*
X196095738Y-118053799D01*
X196094254Y-118056911D01*
X195461818Y-119337497D01*
X195460249Y-119340567D01*
X194792426Y-120603136D01*
X194790772Y-120606160D01*
X194088142Y-121849623D01*
X194086405Y-121852601D01*
X193349444Y-123076112D01*
X193347624Y-123079040D01*
X192576965Y-124281547D01*
X192575065Y-124284423D01*
X191771253Y-125465077D01*
X191769273Y-125467899D01*
X190932980Y-126625713D01*
X190930923Y-126628479D01*
X190062759Y-127762610D01*
X190060626Y-127765318D01*
X189161262Y-128874889D01*
X189159054Y-128877537D01*
X188229201Y-129961669D01*
X188226921Y-129964254D01*
X187267276Y-131022136D01*
X187264924Y-131024657D01*
X186276280Y-132055413D01*
X186273860Y-132057868D01*
X185256892Y-133060796D01*
X185254404Y-133063182D01*
X184209984Y-134037421D01*
X184207431Y-134039737D01*
X183136312Y-134984586D01*
X183133695Y-134986830D01*
X182036758Y-135901510D01*
X182034080Y-135903681D01*
X180912092Y-136787553D01*
X180909354Y-136789648D01*
X179763300Y-137641936D01*
X179760506Y-137643955D01*
X178591132Y-138464107D01*
X178588282Y-138466047D01*
X177396602Y-139253347D01*
X177393700Y-139255207D01*
X176180587Y-140009083D01*
X176177634Y-140010862D01*
X174944028Y-140730727D01*
X174941027Y-140732423D01*
X173687847Y-141417739D01*
X173684799Y-141419350D01*
X172413143Y-142069519D01*
X172410052Y-142071046D01*
X171120754Y-142685643D01*
X171117622Y-142687083D01*
X169811734Y-143265603D01*
X169808563Y-143266955D01*
X168487138Y-143808936D01*
X168483931Y-143810200D01*
X167147912Y-144315252D01*
X167144671Y-144316426D01*
X165795121Y-144784146D01*
X165791848Y-144785229D01*
X164429893Y-145215230D01*
X164426592Y-145216223D01*
X163053121Y-145608223D01*
X163049793Y-145609123D01*
X161665985Y-145962785D01*
X161662633Y-145963592D01*
X160269525Y-146278650D01*
X160266153Y-146279363D01*
X158864866Y-146555566D01*
X158861475Y-146556186D01*
X157453002Y-146793338D01*
X157449595Y-146793863D01*
X156035086Y-146991768D01*
X156031665Y-146992198D01*
X154612220Y-147150704D01*
X154608789Y-147151039D01*
X153185457Y-147270028D01*
X153182018Y-147270267D01*
X151755969Y-147349642D01*
X151752525Y-147349786D01*
X150324790Y-147389490D01*
X150321343Y-147389538D01*
X148893057Y-147389538D01*
X148889610Y-147389490D01*
X147461874Y-147349786D01*
X147458430Y-147349642D01*
X146032381Y-147270267D01*
X146028942Y-147270028D01*
X144605610Y-147151039D01*
X144602179Y-147150704D01*
X143182734Y-146992198D01*
X143179313Y-146991768D01*
X141764804Y-146793863D01*
X141761397Y-146793338D01*
X140352924Y-146556186D01*
X140349533Y-146555566D01*
X138948246Y-146279363D01*
X138944874Y-146278650D01*
X137551766Y-145963592D01*
X137548414Y-145962785D01*
X136164606Y-145609123D01*
X136161278Y-145608223D01*
X134787807Y-145216223D01*
X134784506Y-145215230D01*
X133422551Y-144785229D01*
X133419278Y-144784146D01*
X132069728Y-144316426D01*
X132066487Y-144315252D01*
X131996058Y-144288628D01*
X130820258Y-143844143D01*
X130730468Y-143810200D01*
X130727261Y-143808936D01*
X129405836Y-143266955D01*
X129402665Y-143265603D01*
X128096777Y-142687083D01*
X128093645Y-142685643D01*
X126804347Y-142071046D01*
X126801256Y-142069519D01*
X125529600Y-141419350D01*
X125526552Y-141417739D01*
X124273372Y-140732423D01*
X124270371Y-140730727D01*
X124089970Y-140625455D01*
X123036746Y-140010850D01*
X123033831Y-140009095D01*
X122413862Y-139623822D01*
X121820699Y-139255207D01*
X121817797Y-139253347D01*
X120626117Y-138466047D01*
X120623267Y-138464107D01*
X119453893Y-137643955D01*
X119451099Y-137641936D01*
X118305045Y-136789648D01*
X118302307Y-136787553D01*
X117180319Y-135903681D01*
X117177641Y-135901510D01*
X116080704Y-134986830D01*
X116078087Y-134984586D01*
X115006968Y-134039737D01*
X115004415Y-134037421D01*
X113959995Y-133063182D01*
X113957507Y-133060796D01*
X112940539Y-132057868D01*
X112938119Y-132055413D01*
X111949475Y-131024657D01*
X111947123Y-131022136D01*
X110987478Y-129964254D01*
X110985198Y-129961669D01*
X110055345Y-128877537D01*
X110053137Y-128874889D01*
X110047581Y-128868035D01*
X109646056Y-128372662D01*
X109153773Y-127765318D01*
X109151640Y-127762610D01*
X108543114Y-126967659D01*
X108283469Y-126628470D01*
X108281419Y-126625713D01*
X108194373Y-126505202D01*
X107445123Y-125467896D01*
X107443146Y-125465077D01*
X106639329Y-124284416D01*
X106637434Y-124281547D01*
X105866775Y-123079040D01*
X105864955Y-123076112D01*
X105127994Y-121852601D01*
X105126257Y-121849623D01*
X104423627Y-120606160D01*
X104421973Y-120603136D01*
X103754133Y-119340534D01*
X103752598Y-119337531D01*
X103120145Y-118056911D01*
X103118661Y-118053799D01*
X102954758Y-117697290D01*
X102522019Y-116756027D01*
X102520647Y-116752928D01*
X102293304Y-116219862D01*
X101960335Y-115439125D01*
X101959027Y-115435936D01*
X101589170Y-114497213D01*
X101435460Y-114107086D01*
X101434242Y-114103862D01*
X101201467Y-113461232D01*
X100947811Y-112760954D01*
X100946690Y-112757719D01*
X100924909Y-112691932D01*
X100497781Y-111401820D01*
X100496743Y-111398533D01*
X100480386Y-111344103D01*
X100085683Y-110030624D01*
X100084761Y-110027394D01*
X99711884Y-108648580D01*
X99711048Y-108645311D01*
X99376631Y-107256618D01*
X99375893Y-107253355D01*
X99080222Y-105855963D01*
X99079558Y-105852596D01*
X99077482Y-105841232D01*
X98822843Y-104447510D01*
X98822287Y-104444207D01*
X98674731Y-103486752D01*
X101672700Y-103486752D01*
X101684331Y-103545229D01*
X101684332Y-103545230D01*
X101728647Y-103611552D01*
X101794969Y-103655867D01*
X101794970Y-103655868D01*
X101853447Y-103667499D01*
X101853450Y-103667500D01*
X101853452Y-103667500D01*
X102223700Y-103667500D01*
X102290739Y-103687185D01*
X102336494Y-103739989D01*
X102347700Y-103791500D01*
X102347700Y-114328143D01*
X102371586Y-114417287D01*
X102371587Y-114417290D01*
X102417727Y-114497208D01*
X102417729Y-114497211D01*
X102417730Y-114497212D01*
X121862988Y-133942470D01*
X121942912Y-133988614D01*
X122032056Y-134012500D01*
X122124344Y-134012500D01*
X130581656Y-134012500D01*
X130648695Y-134032185D01*
X130669337Y-134048819D01*
X140962988Y-144342470D01*
X141042912Y-144388614D01*
X141132056Y-144412500D01*
X141132058Y-144412500D01*
X149724342Y-144412500D01*
X149724344Y-144412500D01*
X149813488Y-144388614D01*
X149893412Y-144342470D01*
X152958670Y-141277212D01*
X153004814Y-141197288D01*
X153028700Y-141108143D01*
X153028700Y-141015856D01*
X153028700Y-138817366D01*
X153048385Y-138750327D01*
X153101189Y-138704572D01*
X153170347Y-138694628D01*
X153233903Y-138723653D01*
X153271359Y-138781369D01*
X153286520Y-138831346D01*
X153286521Y-138831348D01*
X153375712Y-138998210D01*
X153495737Y-139144462D01*
X153597513Y-139227986D01*
X153641993Y-139264490D01*
X153762154Y-139328718D01*
X153811998Y-139377679D01*
X153827700Y-139438075D01*
X153827700Y-144155963D01*
X153808015Y-144223002D01*
X153797414Y-144237164D01*
X153752825Y-144288623D01*
X153752822Y-144288628D01*
X153693034Y-144419543D01*
X153672553Y-144562000D01*
X153693034Y-144704456D01*
X153752822Y-144835371D01*
X153752823Y-144835373D01*
X153847072Y-144944143D01*
X153968147Y-145021953D01*
X153968150Y-145021954D01*
X153968149Y-145021954D01*
X154106236Y-145062499D01*
X154106238Y-145062500D01*
X154106239Y-145062500D01*
X154250162Y-145062500D01*
X154250162Y-145062499D01*
X154388253Y-145021953D01*
X154509328Y-144944143D01*
X154603577Y-144835373D01*
X154663365Y-144704457D01*
X154683847Y-144562000D01*
X154663365Y-144419543D01*
X154603577Y-144288627D01*
X154603574Y-144288623D01*
X154558986Y-144237164D01*
X154529962Y-144173608D01*
X154528700Y-144155963D01*
X154528700Y-139476907D01*
X156417700Y-139476907D01*
X156446923Y-139623822D01*
X156446925Y-139623830D01*
X156504251Y-139762229D01*
X156504256Y-139762238D01*
X156587480Y-139886790D01*
X156587483Y-139886794D01*
X156693405Y-139992716D01*
X156693409Y-139992719D01*
X156817961Y-140075943D01*
X156817967Y-140075946D01*
X156817968Y-140075947D01*
X156956370Y-140133275D01*
X157103292Y-140162499D01*
X157103296Y-140162500D01*
X157103297Y-140162500D01*
X157253104Y-140162500D01*
X157253105Y-140162499D01*
X157400030Y-140133275D01*
X157538432Y-140075947D01*
X157662991Y-139992719D01*
X157768919Y-139886791D01*
X157852147Y-139762232D01*
X157909475Y-139623830D01*
X157938700Y-139476903D01*
X157938700Y-139327097D01*
X157909475Y-139180170D01*
X157852147Y-139041768D01*
X157852146Y-139041767D01*
X157852143Y-139041761D01*
X157768919Y-138917209D01*
X157768916Y-138917205D01*
X157662994Y-138811283D01*
X157662990Y-138811280D01*
X157538438Y-138728056D01*
X157538429Y-138728051D01*
X157400030Y-138670725D01*
X157400022Y-138670723D01*
X157253107Y-138641500D01*
X157253103Y-138641500D01*
X157103297Y-138641500D01*
X157103292Y-138641500D01*
X156956377Y-138670723D01*
X156956369Y-138670725D01*
X156817970Y-138728051D01*
X156817961Y-138728056D01*
X156693409Y-138811280D01*
X156693405Y-138811283D01*
X156587483Y-138917205D01*
X156587480Y-138917209D01*
X156504256Y-139041761D01*
X156504251Y-139041770D01*
X156446925Y-139180169D01*
X156446923Y-139180177D01*
X156417700Y-139327092D01*
X156417700Y-139476907D01*
X154528700Y-139476907D01*
X154528700Y-139438075D01*
X154548385Y-139371036D01*
X154594245Y-139328718D01*
X154714407Y-139264490D01*
X154860662Y-139144462D01*
X154980690Y-138998207D01*
X155069880Y-138831346D01*
X155124802Y-138650291D01*
X155143347Y-138462000D01*
X155124802Y-138273709D01*
X155069880Y-138092654D01*
X154980690Y-137925793D01*
X154980687Y-137925789D01*
X154860662Y-137779537D01*
X154714410Y-137659512D01*
X154714408Y-137659511D01*
X154714407Y-137659510D01*
X154547546Y-137570320D01*
X154457018Y-137542859D01*
X154366489Y-137515397D01*
X154178200Y-137496853D01*
X153989910Y-137515397D01*
X153808851Y-137570321D01*
X153641989Y-137659512D01*
X153495737Y-137779537D01*
X153375712Y-137925789D01*
X153286521Y-138092651D01*
X153271361Y-138142628D01*
X153233063Y-138201067D01*
X153169251Y-138229523D01*
X153100184Y-138218963D01*
X153047790Y-138172739D01*
X153028700Y-138106633D01*
X153028700Y-136915857D01*
X153028700Y-136915856D01*
X153004814Y-136826712D01*
X152982812Y-136788604D01*
X152958673Y-136746794D01*
X152958670Y-136746791D01*
X152958669Y-136746788D01*
X152893412Y-136681531D01*
X152116228Y-135904346D01*
X152082745Y-135843026D01*
X152085250Y-135780674D01*
X152124802Y-135650291D01*
X152143347Y-135462000D01*
X153213053Y-135462000D01*
X153231597Y-135650289D01*
X153253633Y-135722932D01*
X153286520Y-135831346D01*
X153362057Y-135972665D01*
X153375712Y-135998210D01*
X153495737Y-136144462D01*
X153641989Y-136264487D01*
X153641993Y-136264490D01*
X153808854Y-136353680D01*
X153989909Y-136408602D01*
X154178200Y-136427147D01*
X154366491Y-136408602D01*
X154547546Y-136353680D01*
X154714407Y-136264490D01*
X154860662Y-136144462D01*
X154980690Y-135998207D01*
X155044918Y-135878045D01*
X155093881Y-135828202D01*
X155154276Y-135812500D01*
X157681656Y-135812500D01*
X157748695Y-135832185D01*
X157769337Y-135848819D01*
X158591381Y-136670863D01*
X158624866Y-136732186D01*
X158627700Y-136758544D01*
X158627700Y-142065456D01*
X158608015Y-142132495D01*
X158591381Y-142153137D01*
X157669337Y-143075181D01*
X157608014Y-143108666D01*
X157581656Y-143111500D01*
X156892095Y-143111500D01*
X156825056Y-143091815D01*
X156810888Y-143081210D01*
X156809332Y-143079862D01*
X156809328Y-143079857D01*
X156688253Y-143002047D01*
X156688251Y-143002046D01*
X156688249Y-143002045D01*
X156688250Y-143002045D01*
X156550163Y-142961500D01*
X156550161Y-142961500D01*
X156406239Y-142961500D01*
X156406236Y-142961500D01*
X156268149Y-143002045D01*
X156147073Y-143079856D01*
X156052823Y-143188626D01*
X156052822Y-143188628D01*
X155993034Y-143319543D01*
X155972553Y-143462000D01*
X155993034Y-143604456D01*
X156040626Y-143708666D01*
X156052823Y-143735373D01*
X156147072Y-143844143D01*
X156268147Y-143921953D01*
X156268150Y-143921954D01*
X156268149Y-143921954D01*
X156406236Y-143962499D01*
X156406238Y-143962500D01*
X156406239Y-143962500D01*
X156550162Y-143962500D01*
X156550162Y-143962499D01*
X156688253Y-143921953D01*
X156809328Y-143844143D01*
X156809336Y-143844133D01*
X156810888Y-143842790D01*
X156812772Y-143841929D01*
X156816789Y-143839348D01*
X156817160Y-143839925D01*
X156874443Y-143813763D01*
X156892095Y-143812500D01*
X157824342Y-143812500D01*
X157824344Y-143812500D01*
X157913488Y-143788614D01*
X157925756Y-143781531D01*
X157993412Y-143742470D01*
X159258669Y-142477212D01*
X159304814Y-142397288D01*
X159328700Y-142308144D01*
X159328700Y-136515856D01*
X159304814Y-136426712D01*
X159294358Y-136408602D01*
X159258670Y-136346788D01*
X158093412Y-135181530D01*
X158093411Y-135181529D01*
X158093408Y-135181527D01*
X158013490Y-135135387D01*
X158013489Y-135135386D01*
X158013488Y-135135386D01*
X157924344Y-135111500D01*
X157924343Y-135111500D01*
X155154276Y-135111500D01*
X155087237Y-135091815D01*
X155044918Y-135045954D01*
X155029248Y-135016638D01*
X154980690Y-134925793D01*
X154953679Y-134892880D01*
X154860662Y-134779537D01*
X154714410Y-134659512D01*
X154714408Y-134659511D01*
X154714407Y-134659510D01*
X154547546Y-134570320D01*
X154396675Y-134524554D01*
X154366489Y-134515397D01*
X154178200Y-134496853D01*
X153989910Y-134515397D01*
X153808851Y-134570321D01*
X153641989Y-134659512D01*
X153495737Y-134779537D01*
X153375712Y-134925789D01*
X153286521Y-135092651D01*
X153231597Y-135273710D01*
X153213053Y-135462000D01*
X152143347Y-135462000D01*
X152124802Y-135273709D01*
X152069880Y-135092654D01*
X151980690Y-134925793D01*
X151953679Y-134892880D01*
X151860662Y-134779537D01*
X151714410Y-134659512D01*
X151714408Y-134659511D01*
X151714407Y-134659510D01*
X151594245Y-134595281D01*
X151544402Y-134546319D01*
X151528700Y-134485924D01*
X151528700Y-128868035D01*
X151548385Y-128800996D01*
X151558982Y-128786837D01*
X151603577Y-128735373D01*
X151663365Y-128604457D01*
X151683847Y-128462000D01*
X151663365Y-128319543D01*
X151603577Y-128188627D01*
X151509328Y-128079857D01*
X151388253Y-128002047D01*
X151388251Y-128002046D01*
X151388249Y-128002045D01*
X151388250Y-128002045D01*
X151250163Y-127961500D01*
X151250161Y-127961500D01*
X151106239Y-127961500D01*
X151106236Y-127961500D01*
X150968149Y-128002045D01*
X150847073Y-128079856D01*
X150847072Y-128079856D01*
X150847072Y-128079857D01*
X150834490Y-128094377D01*
X150752823Y-128188626D01*
X150752822Y-128188628D01*
X150693034Y-128319543D01*
X150672553Y-128462000D01*
X150693034Y-128604456D01*
X150752822Y-128735371D01*
X150752823Y-128735373D01*
X150797413Y-128786833D01*
X150826438Y-128850388D01*
X150827700Y-128868035D01*
X150827700Y-134485924D01*
X150808015Y-134552963D01*
X150762154Y-134595282D01*
X150641989Y-134659512D01*
X150495737Y-134779537D01*
X150375712Y-134925789D01*
X150286521Y-135092651D01*
X150286520Y-135092653D01*
X150286520Y-135092654D01*
X150273558Y-135135386D01*
X150271361Y-135142628D01*
X150233063Y-135201067D01*
X150169251Y-135229523D01*
X150100184Y-135218963D01*
X150047790Y-135172739D01*
X150028700Y-135106633D01*
X150028700Y-133415858D01*
X150028700Y-133415856D01*
X150004814Y-133326712D01*
X150004811Y-133326706D01*
X149958673Y-133246794D01*
X149958670Y-133246791D01*
X149958669Y-133246788D01*
X149893412Y-133181531D01*
X145593412Y-128881530D01*
X145593411Y-128881529D01*
X145593408Y-128881527D01*
X145513490Y-128835387D01*
X145513489Y-128835386D01*
X145513488Y-128835386D01*
X145424344Y-128811500D01*
X145424343Y-128811500D01*
X139974743Y-128811500D01*
X139907704Y-128791815D01*
X139887062Y-128775181D01*
X126865019Y-115753137D01*
X126831534Y-115691814D01*
X126828700Y-115665456D01*
X126828700Y-110834407D01*
X126848385Y-110767368D01*
X126901189Y-110721613D01*
X126970347Y-110711669D01*
X127033903Y-110740694D01*
X127050628Y-110760954D01*
X127051752Y-110760092D01*
X127056698Y-110766538D01*
X127056700Y-110766541D01*
X134735673Y-118445514D01*
X134849801Y-118511406D01*
X134977095Y-118545514D01*
X135108880Y-118545514D01*
X139372959Y-118545514D01*
X139439998Y-118565199D01*
X139449432Y-118571903D01*
X139664069Y-118740060D01*
X139675277Y-118749990D01*
X139902223Y-118976936D01*
X139912153Y-118988144D01*
X140080311Y-119202781D01*
X140106160Y-119267693D01*
X140106700Y-119279254D01*
X140106700Y-126110905D01*
X140140808Y-126238201D01*
X140173754Y-126295264D01*
X140206700Y-126352328D01*
X140299886Y-126445514D01*
X140414014Y-126511406D01*
X140541308Y-126545514D01*
X140541310Y-126545514D01*
X158673090Y-126545514D01*
X158673092Y-126545514D01*
X158800386Y-126511406D01*
X158914514Y-126445514D01*
X159007700Y-126352328D01*
X159073592Y-126238200D01*
X159107700Y-126110906D01*
X159107700Y-119279254D01*
X159127385Y-119212215D01*
X159134089Y-119202781D01*
X159302253Y-118988135D01*
X159312168Y-118976944D01*
X159539130Y-118749982D01*
X159550321Y-118740067D01*
X159764968Y-118571903D01*
X159829880Y-118546054D01*
X159841441Y-118545514D01*
X164237304Y-118545514D01*
X164237306Y-118545514D01*
X164364600Y-118511406D01*
X164478728Y-118445514D01*
X172157700Y-110766541D01*
X172223592Y-110652413D01*
X172257700Y-110525120D01*
X172257700Y-110393335D01*
X172257700Y-103781116D01*
X172277385Y-103714077D01*
X172280542Y-103709401D01*
X172407690Y-103530204D01*
X172416328Y-103519372D01*
X172631249Y-103278875D01*
X172641061Y-103269063D01*
X172881558Y-103054142D01*
X172892390Y-103045504D01*
X173071549Y-102918383D01*
X173137614Y-102895645D01*
X173143303Y-102895514D01*
X180823090Y-102895514D01*
X180823092Y-102895514D01*
X180950386Y-102861406D01*
X181064514Y-102795514D01*
X181157700Y-102702328D01*
X181223592Y-102588200D01*
X181257700Y-102460906D01*
X181257700Y-89329122D01*
X181223592Y-89201828D01*
X181157700Y-89087700D01*
X181064514Y-88994514D01*
X181007450Y-88961568D01*
X180950387Y-88928622D01*
X180886739Y-88911568D01*
X180823092Y-88894514D01*
X180823091Y-88894514D01*
X173143303Y-88894514D01*
X173076264Y-88874829D01*
X173071568Y-88871657D01*
X172892401Y-88744531D01*
X172881544Y-88735873D01*
X172864970Y-88721062D01*
X172641070Y-88520972D01*
X172631239Y-88511141D01*
X172416345Y-88270674D01*
X172407675Y-88259802D01*
X172280570Y-88080664D01*
X172257831Y-88014599D01*
X172257700Y-88008909D01*
X172257700Y-81264910D01*
X172257700Y-81264908D01*
X172223592Y-81137614D01*
X172157700Y-81023486D01*
X172064514Y-80930300D01*
X164478728Y-73344514D01*
X164421664Y-73311568D01*
X164364601Y-73278622D01*
X164300953Y-73261568D01*
X164237306Y-73244514D01*
X135108879Y-73244514D01*
X134977094Y-73244514D01*
X134849799Y-73278622D01*
X134735673Y-73344514D01*
X134735670Y-73344516D01*
X127132445Y-80947740D01*
X127132444Y-80947740D01*
X127132445Y-80947741D01*
X127056700Y-81023486D01*
X126990808Y-81137612D01*
X126956700Y-81264908D01*
X126956700Y-95645457D01*
X126937015Y-95712496D01*
X126884211Y-95758251D01*
X126815053Y-95768195D01*
X126751497Y-95739170D01*
X126745019Y-95733138D01*
X126693412Y-95681531D01*
X125437413Y-94425531D01*
X125437408Y-94425527D01*
X125357490Y-94379387D01*
X125357489Y-94379386D01*
X125357488Y-94379386D01*
X125268344Y-94355500D01*
X125268343Y-94355500D01*
X124674327Y-94355500D01*
X124607288Y-94335815D01*
X124564969Y-94289954D01*
X124546079Y-94254615D01*
X124473885Y-94119550D01*
X124421902Y-94056209D01*
X124342610Y-93959589D01*
X124182652Y-93828317D01*
X124182653Y-93828317D01*
X124182650Y-93828315D01*
X124000154Y-93730768D01*
X123802134Y-93670700D01*
X123802132Y-93670699D01*
X123802134Y-93670699D01*
X123596200Y-93650417D01*
X123390267Y-93670699D01*
X123192243Y-93730769D01*
X123082098Y-93789643D01*
X123009750Y-93828315D01*
X123009748Y-93828316D01*
X123009747Y-93828317D01*
X122849789Y-93959589D01*
X122718517Y-94119547D01*
X122620969Y-94302043D01*
X122560899Y-94500067D01*
X122540617Y-94706000D01*
X122560899Y-94911932D01*
X122577067Y-94965230D01*
X122620968Y-95109954D01*
X122718515Y-95292450D01*
X122718517Y-95292452D01*
X122849789Y-95452410D01*
X122946409Y-95531702D01*
X123009750Y-95583685D01*
X123192246Y-95681232D01*
X123390266Y-95741300D01*
X123390265Y-95741300D01*
X123408729Y-95743118D01*
X123596200Y-95761583D01*
X123802134Y-95741300D01*
X124000154Y-95681232D01*
X124182650Y-95583685D01*
X124342610Y-95452410D01*
X124473885Y-95292450D01*
X124564969Y-95122046D01*
X124613932Y-95072202D01*
X124674327Y-95056500D01*
X125025656Y-95056500D01*
X125092695Y-95076185D01*
X125113337Y-95092819D01*
X126091381Y-96070862D01*
X126124866Y-96132185D01*
X126127700Y-96158543D01*
X126127700Y-102416456D01*
X126108015Y-102483495D01*
X126055211Y-102529250D01*
X125986053Y-102539194D01*
X125922497Y-102510169D01*
X125916019Y-102504137D01*
X125457413Y-102045531D01*
X125457408Y-102045527D01*
X125377490Y-101999387D01*
X125377489Y-101999386D01*
X125377488Y-101999386D01*
X125366988Y-101996572D01*
X125359302Y-101994513D01*
X125359301Y-101994512D01*
X125304238Y-101979758D01*
X125288344Y-101975500D01*
X125288343Y-101975500D01*
X124674327Y-101975500D01*
X124607288Y-101955815D01*
X124564969Y-101909954D01*
X124517969Y-101822025D01*
X124473885Y-101739550D01*
X124382448Y-101628133D01*
X124342610Y-101579589D01*
X124182652Y-101448317D01*
X124182653Y-101448317D01*
X124182650Y-101448315D01*
X124000154Y-101350768D01*
X123802134Y-101290700D01*
X123802132Y-101290699D01*
X123802134Y-101290699D01*
X123596200Y-101270417D01*
X123390267Y-101290699D01*
X123192243Y-101350769D01*
X123095972Y-101402228D01*
X123009750Y-101448315D01*
X123009748Y-101448316D01*
X123009747Y-101448317D01*
X122849789Y-101579589D01*
X122718517Y-101739547D01*
X122620969Y-101922043D01*
X122560899Y-102120067D01*
X122540617Y-102326000D01*
X122560899Y-102531932D01*
X122560900Y-102531934D01*
X122620968Y-102729954D01*
X122718515Y-102912450D01*
X122718517Y-102912452D01*
X122849789Y-103072410D01*
X122946409Y-103151702D01*
X123009750Y-103203685D01*
X123192246Y-103301232D01*
X123390266Y-103361300D01*
X123390265Y-103361300D01*
X123408729Y-103363118D01*
X123596200Y-103381583D01*
X123802134Y-103361300D01*
X124000154Y-103301232D01*
X124182650Y-103203685D01*
X124342610Y-103072410D01*
X124473885Y-102912450D01*
X124564969Y-102742046D01*
X124613932Y-102692202D01*
X124674327Y-102676500D01*
X125045656Y-102676500D01*
X125112695Y-102696185D01*
X125133337Y-102712819D01*
X125391381Y-102970863D01*
X125424866Y-103032186D01*
X125427700Y-103058544D01*
X125427700Y-117608144D01*
X125437446Y-117644514D01*
X125451586Y-117697287D01*
X125451587Y-117697290D01*
X125497727Y-117777208D01*
X125497729Y-117777211D01*
X125497730Y-117777212D01*
X138362988Y-130642470D01*
X138442912Y-130688614D01*
X138532056Y-130712500D01*
X138532057Y-130712500D01*
X138624344Y-130712500D01*
X143081656Y-130712500D01*
X143148695Y-130732185D01*
X143169337Y-130748819D01*
X146391381Y-133970863D01*
X146424866Y-134032186D01*
X146427700Y-134058544D01*
X146427700Y-136665455D01*
X146408015Y-136732494D01*
X146391381Y-136753136D01*
X145620548Y-137523968D01*
X145559225Y-137557453D01*
X145496872Y-137554948D01*
X145366489Y-137515397D01*
X145178200Y-137496853D01*
X144989910Y-137515397D01*
X144808851Y-137570321D01*
X144641989Y-137659512D01*
X144495737Y-137779537D01*
X144375712Y-137925789D01*
X144286521Y-138092651D01*
X144231597Y-138273710D01*
X144213053Y-138462000D01*
X144231597Y-138650289D01*
X144253633Y-138722932D01*
X144282279Y-138817366D01*
X144286521Y-138831348D01*
X144375712Y-138998210D01*
X144495737Y-139144462D01*
X144641989Y-139264487D01*
X144641993Y-139264490D01*
X144808854Y-139353680D01*
X144989909Y-139408602D01*
X145178200Y-139427147D01*
X145366491Y-139408602D01*
X145547546Y-139353680D01*
X145714407Y-139264490D01*
X145860662Y-139144462D01*
X145980690Y-138998207D01*
X146069880Y-138831346D01*
X146124802Y-138650291D01*
X146143347Y-138462000D01*
X146124802Y-138273709D01*
X146085250Y-138143325D01*
X146084627Y-138073460D01*
X146116228Y-138019652D01*
X147058670Y-137077212D01*
X147104814Y-136997288D01*
X147126633Y-136915857D01*
X147128700Y-136908144D01*
X147128700Y-136031119D01*
X147148385Y-135964080D01*
X147201189Y-135918325D01*
X147270347Y-135908381D01*
X147333903Y-135937406D01*
X147362056Y-135972662D01*
X147375710Y-135998207D01*
X147375712Y-135998210D01*
X147495737Y-136144462D01*
X147641989Y-136264487D01*
X147641993Y-136264490D01*
X147808854Y-136353680D01*
X147989909Y-136408602D01*
X148178200Y-136427147D01*
X148366491Y-136408602D01*
X148547546Y-136353680D01*
X148714407Y-136264490D01*
X148860662Y-136144462D01*
X148980690Y-135998207D01*
X149069880Y-135831346D01*
X149085040Y-135781369D01*
X149123336Y-135722932D01*
X149187149Y-135694476D01*
X149256216Y-135705036D01*
X149308609Y-135751260D01*
X149327700Y-135817366D01*
X149327700Y-136765455D01*
X149308015Y-136832494D01*
X149291381Y-136853136D01*
X148620548Y-137523968D01*
X148559225Y-137557453D01*
X148496872Y-137554948D01*
X148366489Y-137515397D01*
X148178200Y-137496853D01*
X147989910Y-137515397D01*
X147808851Y-137570321D01*
X147641989Y-137659512D01*
X147495737Y-137779537D01*
X147375712Y-137925789D01*
X147286521Y-138092651D01*
X147231597Y-138273710D01*
X147213053Y-138462000D01*
X147231597Y-138650289D01*
X147253633Y-138722932D01*
X147282279Y-138817366D01*
X147286521Y-138831348D01*
X147375712Y-138998210D01*
X147495737Y-139144462D01*
X147641989Y-139264487D01*
X147641993Y-139264490D01*
X147808854Y-139353680D01*
X147989909Y-139408602D01*
X148178200Y-139427147D01*
X148366491Y-139408602D01*
X148547546Y-139353680D01*
X148714407Y-139264490D01*
X148860662Y-139144462D01*
X148980690Y-138998207D01*
X149069880Y-138831346D01*
X149124802Y-138650291D01*
X149143347Y-138462000D01*
X149124802Y-138273709D01*
X149085250Y-138143325D01*
X149084627Y-138073460D01*
X149116228Y-138019652D01*
X149958669Y-137177212D01*
X150004814Y-137097288D01*
X150010193Y-137077212D01*
X150028700Y-137008144D01*
X150028700Y-135817366D01*
X150048385Y-135750327D01*
X150101189Y-135704572D01*
X150170347Y-135694628D01*
X150233903Y-135723653D01*
X150271359Y-135781369D01*
X150286520Y-135831346D01*
X150362057Y-135972665D01*
X150375712Y-135998210D01*
X150495737Y-136144462D01*
X150641989Y-136264487D01*
X150641993Y-136264490D01*
X150808854Y-136353680D01*
X150989909Y-136408602D01*
X151178200Y-136427147D01*
X151366491Y-136408602D01*
X151496874Y-136369050D01*
X151566739Y-136368427D01*
X151620546Y-136400028D01*
X151952705Y-136732186D01*
X152291381Y-137070862D01*
X152324866Y-137132185D01*
X152327700Y-137158543D01*
X152327700Y-138106633D01*
X152308015Y-138173672D01*
X152255211Y-138219427D01*
X152186053Y-138229371D01*
X152122497Y-138200346D01*
X152085039Y-138142628D01*
X152074120Y-138106633D01*
X152069880Y-138092654D01*
X151980690Y-137925793D01*
X151980687Y-137925789D01*
X151860662Y-137779537D01*
X151714410Y-137659512D01*
X151714408Y-137659511D01*
X151714407Y-137659510D01*
X151547546Y-137570320D01*
X151457018Y-137542859D01*
X151366489Y-137515397D01*
X151178200Y-137496853D01*
X150989910Y-137515397D01*
X150808851Y-137570321D01*
X150641989Y-137659512D01*
X150495737Y-137779537D01*
X150375712Y-137925789D01*
X150286521Y-138092651D01*
X150231597Y-138273710D01*
X150213053Y-138462000D01*
X150231597Y-138650289D01*
X150253633Y-138722932D01*
X150282279Y-138817366D01*
X150286521Y-138831348D01*
X150375712Y-138998210D01*
X150495737Y-139144462D01*
X150641989Y-139264487D01*
X150641993Y-139264490D01*
X150808854Y-139353680D01*
X150989909Y-139408602D01*
X151178200Y-139427147D01*
X151366491Y-139408602D01*
X151547546Y-139353680D01*
X151714407Y-139264490D01*
X151860662Y-139144462D01*
X151980690Y-138998207D01*
X152069880Y-138831346D01*
X152085040Y-138781369D01*
X152123336Y-138722932D01*
X152187149Y-138694476D01*
X152256216Y-138705036D01*
X152308609Y-138751260D01*
X152327700Y-138817366D01*
X152327700Y-140865456D01*
X152308015Y-140932495D01*
X152291381Y-140953137D01*
X149569337Y-143675181D01*
X149508014Y-143708666D01*
X149481656Y-143711500D01*
X141374744Y-143711500D01*
X141307705Y-143691815D01*
X141287063Y-143675181D01*
X137088789Y-139476907D01*
X141417700Y-139476907D01*
X141446923Y-139623822D01*
X141446925Y-139623830D01*
X141504251Y-139762229D01*
X141504256Y-139762238D01*
X141587480Y-139886790D01*
X141587483Y-139886794D01*
X141693405Y-139992716D01*
X141693409Y-139992719D01*
X141817961Y-140075943D01*
X141817967Y-140075946D01*
X141817968Y-140075947D01*
X141956370Y-140133275D01*
X142103292Y-140162499D01*
X142103296Y-140162500D01*
X142103297Y-140162500D01*
X142253104Y-140162500D01*
X142253105Y-140162499D01*
X142400030Y-140133275D01*
X142538432Y-140075947D01*
X142662991Y-139992719D01*
X142768919Y-139886791D01*
X142852147Y-139762232D01*
X142909475Y-139623830D01*
X142938700Y-139476903D01*
X142938700Y-139327097D01*
X142909475Y-139180170D01*
X142852147Y-139041768D01*
X142852146Y-139041767D01*
X142852143Y-139041761D01*
X142768919Y-138917209D01*
X142768916Y-138917205D01*
X142662994Y-138811283D01*
X142662990Y-138811280D01*
X142538438Y-138728056D01*
X142538429Y-138728051D01*
X142400030Y-138670725D01*
X142400022Y-138670723D01*
X142253107Y-138641500D01*
X142253103Y-138641500D01*
X142103297Y-138641500D01*
X142103292Y-138641500D01*
X141956377Y-138670723D01*
X141956369Y-138670725D01*
X141817970Y-138728051D01*
X141817961Y-138728056D01*
X141693409Y-138811280D01*
X141693405Y-138811283D01*
X141587483Y-138917205D01*
X141587480Y-138917209D01*
X141504256Y-139041761D01*
X141504251Y-139041770D01*
X141446925Y-139180169D01*
X141446923Y-139180177D01*
X141417700Y-139327092D01*
X141417700Y-139476907D01*
X137088789Y-139476907D01*
X130993413Y-133381531D01*
X130993408Y-133381527D01*
X130913490Y-133335387D01*
X130913489Y-133335386D01*
X130913488Y-133335386D01*
X130824344Y-133311500D01*
X130824343Y-133311500D01*
X122274744Y-133311500D01*
X122207705Y-133291815D01*
X122187063Y-133275181D01*
X116273882Y-127362000D01*
X120367738Y-127362000D01*
X120387537Y-127563031D01*
X120446178Y-127756345D01*
X120541398Y-127934488D01*
X120541403Y-127934495D01*
X120669552Y-128090647D01*
X120735234Y-128144550D01*
X120825706Y-128218798D01*
X120825709Y-128218799D01*
X120825711Y-128218801D01*
X121003854Y-128314021D01*
X121003856Y-128314021D01*
X121003859Y-128314023D01*
X121197167Y-128372662D01*
X121398200Y-128392462D01*
X121599233Y-128372662D01*
X121792541Y-128314023D01*
X121970694Y-128218798D01*
X122126847Y-128090647D01*
X122254998Y-127934494D01*
X122350223Y-127756341D01*
X122408862Y-127563033D01*
X122428662Y-127362000D01*
X122907738Y-127362000D01*
X122927537Y-127563031D01*
X122986178Y-127756345D01*
X123081398Y-127934488D01*
X123081403Y-127934495D01*
X123209552Y-128090647D01*
X123275234Y-128144550D01*
X123365706Y-128218798D01*
X123365709Y-128218799D01*
X123365711Y-128218801D01*
X123543854Y-128314021D01*
X123543856Y-128314021D01*
X123543859Y-128314023D01*
X123737167Y-128372662D01*
X123938200Y-128392462D01*
X124139233Y-128372662D01*
X124332541Y-128314023D01*
X124510694Y-128218798D01*
X124666847Y-128090647D01*
X124794998Y-127934494D01*
X124890223Y-127756341D01*
X124948862Y-127563033D01*
X124968662Y-127362000D01*
X125447738Y-127362000D01*
X125467537Y-127563031D01*
X125526178Y-127756345D01*
X125621398Y-127934488D01*
X125621403Y-127934495D01*
X125749552Y-128090647D01*
X125815234Y-128144550D01*
X125905706Y-128218798D01*
X125905709Y-128218799D01*
X125905711Y-128218801D01*
X126083854Y-128314021D01*
X126083856Y-128314021D01*
X126083859Y-128314023D01*
X126277167Y-128372662D01*
X126478200Y-128392462D01*
X126679233Y-128372662D01*
X126872541Y-128314023D01*
X127050694Y-128218798D01*
X127065372Y-128206752D01*
X127992700Y-128206752D01*
X128004331Y-128265229D01*
X128004332Y-128265230D01*
X128048647Y-128331552D01*
X128114969Y-128375867D01*
X128114970Y-128375868D01*
X128173447Y-128387499D01*
X128173450Y-128387500D01*
X128173452Y-128387500D01*
X129862950Y-128387500D01*
X129862951Y-128387499D01*
X129877768Y-128384552D01*
X129921429Y-128375868D01*
X129921429Y-128375867D01*
X129921431Y-128375867D01*
X129987752Y-128331552D01*
X130032067Y-128265231D01*
X130032067Y-128265229D01*
X130032068Y-128265229D01*
X130040752Y-128221568D01*
X130043700Y-128206748D01*
X130043700Y-126517252D01*
X130043700Y-126517249D01*
X130043699Y-126517247D01*
X130032068Y-126458770D01*
X130032067Y-126458769D01*
X129987752Y-126392447D01*
X129921430Y-126348132D01*
X129921429Y-126348131D01*
X129862952Y-126336500D01*
X129862948Y-126336500D01*
X128173452Y-126336500D01*
X128173447Y-126336500D01*
X128114970Y-126348131D01*
X128114969Y-126348132D01*
X128048647Y-126392447D01*
X128004332Y-126458769D01*
X128004331Y-126458770D01*
X127992700Y-126517247D01*
X127992700Y-128206752D01*
X127065372Y-128206752D01*
X127206847Y-128090647D01*
X127334998Y-127934494D01*
X127430223Y-127756341D01*
X127488862Y-127563033D01*
X127508662Y-127362000D01*
X127488862Y-127160967D01*
X127430223Y-126967659D01*
X127430221Y-126967656D01*
X127430221Y-126967654D01*
X127335001Y-126789511D01*
X127334999Y-126789509D01*
X127334998Y-126789506D01*
X127296024Y-126742016D01*
X127206847Y-126633352D01*
X127065371Y-126517247D01*
X127050694Y-126505202D01*
X127050692Y-126505201D01*
X127050688Y-126505198D01*
X126872545Y-126409978D01*
X126679231Y-126351337D01*
X126478200Y-126331538D01*
X126277168Y-126351337D01*
X126083854Y-126409978D01*
X125905711Y-126505198D01*
X125905704Y-126505203D01*
X125749552Y-126633352D01*
X125621403Y-126789504D01*
X125621398Y-126789511D01*
X125526178Y-126967654D01*
X125467537Y-127160968D01*
X125447738Y-127362000D01*
X124968662Y-127362000D01*
X124948862Y-127160967D01*
X124890223Y-126967659D01*
X124890221Y-126967656D01*
X124890221Y-126967654D01*
X124795001Y-126789511D01*
X124794999Y-126789509D01*
X124794998Y-126789506D01*
X124756024Y-126742016D01*
X124666847Y-126633352D01*
X124525371Y-126517247D01*
X124510694Y-126505202D01*
X124510692Y-126505201D01*
X124510688Y-126505198D01*
X124332545Y-126409978D01*
X124139231Y-126351337D01*
X123938200Y-126331538D01*
X123737168Y-126351337D01*
X123543854Y-126409978D01*
X123365711Y-126505198D01*
X123365704Y-126505203D01*
X123209552Y-126633352D01*
X123081403Y-126789504D01*
X123081398Y-126789511D01*
X122986178Y-126967654D01*
X122927537Y-127160968D01*
X122907738Y-127362000D01*
X122428662Y-127362000D01*
X122408862Y-127160967D01*
X122350223Y-126967659D01*
X122350221Y-126967656D01*
X122350221Y-126967654D01*
X122255001Y-126789511D01*
X122254999Y-126789509D01*
X122254998Y-126789506D01*
X122216024Y-126742016D01*
X122126847Y-126633352D01*
X121985371Y-126517247D01*
X121970694Y-126505202D01*
X121970692Y-126505201D01*
X121970688Y-126505198D01*
X121792545Y-126409978D01*
X121599231Y-126351337D01*
X121398200Y-126331538D01*
X121197168Y-126351337D01*
X121003854Y-126409978D01*
X120825711Y-126505198D01*
X120825704Y-126505203D01*
X120669552Y-126633352D01*
X120541403Y-126789504D01*
X120541398Y-126789511D01*
X120446178Y-126967654D01*
X120387537Y-127160968D01*
X120367738Y-127362000D01*
X116273882Y-127362000D01*
X103085019Y-114173137D01*
X103051534Y-114111814D01*
X103048700Y-114085456D01*
X103048700Y-112486000D01*
X107300617Y-112486000D01*
X107320899Y-112691932D01*
X107320900Y-112691934D01*
X107380968Y-112889954D01*
X107478515Y-113072450D01*
X107478517Y-113072452D01*
X107609789Y-113232410D01*
X107706409Y-113311702D01*
X107769750Y-113363685D01*
X107952246Y-113461232D01*
X108150266Y-113521300D01*
X108150265Y-113521300D01*
X108168729Y-113523118D01*
X108356200Y-113541583D01*
X108562134Y-113521300D01*
X108760154Y-113461232D01*
X108942650Y-113363685D01*
X109102610Y-113232410D01*
X109233885Y-113072450D01*
X109331432Y-112889954D01*
X109391500Y-112691934D01*
X109411783Y-112486000D01*
X122540617Y-112486000D01*
X122560899Y-112691932D01*
X122560900Y-112691934D01*
X122620968Y-112889954D01*
X122718515Y-113072450D01*
X122718517Y-113072452D01*
X122849789Y-113232410D01*
X122946409Y-113311702D01*
X123009750Y-113363685D01*
X123192246Y-113461232D01*
X123390266Y-113521300D01*
X123390265Y-113521300D01*
X123408729Y-113523118D01*
X123596200Y-113541583D01*
X123802134Y-113521300D01*
X124000154Y-113461232D01*
X124182650Y-113363685D01*
X124342610Y-113232410D01*
X124473885Y-113072450D01*
X124571432Y-112889954D01*
X124631500Y-112691934D01*
X124651783Y-112486000D01*
X124631500Y-112280066D01*
X124571432Y-112082046D01*
X124473885Y-111899550D01*
X124421902Y-111836209D01*
X124342610Y-111739589D01*
X124182652Y-111608317D01*
X124182653Y-111608317D01*
X124182650Y-111608315D01*
X124000154Y-111510768D01*
X123802134Y-111450700D01*
X123802132Y-111450699D01*
X123802134Y-111450699D01*
X123596200Y-111430417D01*
X123390267Y-111450699D01*
X123192243Y-111510769D01*
X123083903Y-111568679D01*
X123009750Y-111608315D01*
X123009748Y-111608316D01*
X123009747Y-111608317D01*
X122849789Y-111739589D01*
X122718517Y-111899547D01*
X122620969Y-112082043D01*
X122560899Y-112280067D01*
X122540617Y-112486000D01*
X109411783Y-112486000D01*
X109391500Y-112280066D01*
X109331432Y-112082046D01*
X109233885Y-111899550D01*
X109181902Y-111836209D01*
X109102610Y-111739589D01*
X108942652Y-111608317D01*
X108942653Y-111608317D01*
X108942650Y-111608315D01*
X108760154Y-111510768D01*
X108562134Y-111450700D01*
X108562132Y-111450699D01*
X108562134Y-111450699D01*
X108356200Y-111430417D01*
X108150267Y-111450699D01*
X107952243Y-111510769D01*
X107843903Y-111568679D01*
X107769750Y-111608315D01*
X107769748Y-111608316D01*
X107769747Y-111608317D01*
X107609789Y-111739589D01*
X107478517Y-111899547D01*
X107380969Y-112082043D01*
X107320899Y-112280067D01*
X107300617Y-112486000D01*
X103048700Y-112486000D01*
X103048700Y-109946000D01*
X107300617Y-109946000D01*
X107320899Y-110151932D01*
X107350934Y-110250944D01*
X107380968Y-110349954D01*
X107478515Y-110532450D01*
X107478517Y-110532452D01*
X107609789Y-110692410D01*
X107700118Y-110766540D01*
X107769750Y-110823685D01*
X107952246Y-110921232D01*
X108150266Y-110981300D01*
X108150265Y-110981300D01*
X108168729Y-110983118D01*
X108356200Y-111001583D01*
X108562134Y-110981300D01*
X108760154Y-110921232D01*
X108942650Y-110823685D01*
X109102610Y-110692410D01*
X109233885Y-110532450D01*
X109331432Y-110349954D01*
X109391500Y-110151934D01*
X109411783Y-109946000D01*
X122540617Y-109946000D01*
X122560899Y-110151932D01*
X122590934Y-110250944D01*
X122620968Y-110349954D01*
X122718515Y-110532450D01*
X122718517Y-110532452D01*
X122849789Y-110692410D01*
X122940118Y-110766540D01*
X123009750Y-110823685D01*
X123192246Y-110921232D01*
X123390266Y-110981300D01*
X123390265Y-110981300D01*
X123408729Y-110983118D01*
X123596200Y-111001583D01*
X123802134Y-110981300D01*
X124000154Y-110921232D01*
X124182650Y-110823685D01*
X124342610Y-110692410D01*
X124473885Y-110532450D01*
X124571432Y-110349954D01*
X124631500Y-110151934D01*
X124651783Y-109946000D01*
X124631500Y-109740066D01*
X124571432Y-109542046D01*
X124473885Y-109359550D01*
X124421902Y-109296209D01*
X124342610Y-109199589D01*
X124182652Y-109068317D01*
X124182653Y-109068317D01*
X124182650Y-109068315D01*
X124000154Y-108970768D01*
X123802134Y-108910700D01*
X123802132Y-108910699D01*
X123802134Y-108910699D01*
X123596200Y-108890417D01*
X123390267Y-108910699D01*
X123192243Y-108970769D01*
X123082098Y-109029643D01*
X123009750Y-109068315D01*
X123009748Y-109068316D01*
X123009747Y-109068317D01*
X122849789Y-109199589D01*
X122718517Y-109359547D01*
X122620969Y-109542043D01*
X122560899Y-109740067D01*
X122540617Y-109946000D01*
X109411783Y-109946000D01*
X109391500Y-109740066D01*
X109331432Y-109542046D01*
X109233885Y-109359550D01*
X109181902Y-109296209D01*
X109102610Y-109199589D01*
X108942652Y-109068317D01*
X108942653Y-109068317D01*
X108942650Y-109068315D01*
X108760154Y-108970768D01*
X108562134Y-108910700D01*
X108562132Y-108910699D01*
X108562134Y-108910699D01*
X108356200Y-108890417D01*
X108150267Y-108910699D01*
X107952243Y-108970769D01*
X107842098Y-109029643D01*
X107769750Y-109068315D01*
X107769748Y-109068316D01*
X107769747Y-109068317D01*
X107609789Y-109199589D01*
X107478517Y-109359547D01*
X107380969Y-109542043D01*
X107320899Y-109740067D01*
X107300617Y-109946000D01*
X103048700Y-109946000D01*
X103048700Y-107406000D01*
X107300617Y-107406000D01*
X107320899Y-107611932D01*
X107320900Y-107611934D01*
X107380968Y-107809954D01*
X107478515Y-107992450D01*
X107478517Y-107992452D01*
X107609789Y-108152410D01*
X107706409Y-108231702D01*
X107769750Y-108283685D01*
X107952246Y-108381232D01*
X108150266Y-108441300D01*
X108150265Y-108441300D01*
X108168729Y-108443118D01*
X108356200Y-108461583D01*
X108562134Y-108441300D01*
X108760154Y-108381232D01*
X108942650Y-108283685D01*
X109102610Y-108152410D01*
X109233885Y-107992450D01*
X109331432Y-107809954D01*
X109391500Y-107611934D01*
X109411783Y-107406000D01*
X122540617Y-107406000D01*
X122560899Y-107611932D01*
X122560900Y-107611934D01*
X122620968Y-107809954D01*
X122718515Y-107992450D01*
X122718517Y-107992452D01*
X122849789Y-108152410D01*
X122946409Y-108231702D01*
X123009750Y-108283685D01*
X123192246Y-108381232D01*
X123390266Y-108441300D01*
X123390265Y-108441300D01*
X123408729Y-108443118D01*
X123596200Y-108461583D01*
X123802134Y-108441300D01*
X124000154Y-108381232D01*
X124182650Y-108283685D01*
X124342610Y-108152410D01*
X124473885Y-107992450D01*
X124571432Y-107809954D01*
X124631500Y-107611934D01*
X124651783Y-107406000D01*
X124631500Y-107200066D01*
X124571432Y-107002046D01*
X124473885Y-106819550D01*
X124421902Y-106756209D01*
X124342610Y-106659589D01*
X124182652Y-106528317D01*
X124182653Y-106528317D01*
X124182650Y-106528315D01*
X124000154Y-106430768D01*
X123802134Y-106370700D01*
X123802132Y-106370699D01*
X123802134Y-106370699D01*
X123596200Y-106350417D01*
X123390267Y-106370699D01*
X123192243Y-106430769D01*
X123082098Y-106489643D01*
X123009750Y-106528315D01*
X123009748Y-106528316D01*
X123009747Y-106528317D01*
X122849789Y-106659589D01*
X122718517Y-106819547D01*
X122620969Y-107002043D01*
X122560899Y-107200067D01*
X122540617Y-107406000D01*
X109411783Y-107406000D01*
X109391500Y-107200066D01*
X109331432Y-107002046D01*
X109233885Y-106819550D01*
X109181902Y-106756209D01*
X109102610Y-106659589D01*
X108942652Y-106528317D01*
X108942653Y-106528317D01*
X108942650Y-106528315D01*
X108760154Y-106430768D01*
X108562134Y-106370700D01*
X108562132Y-106370699D01*
X108562134Y-106370699D01*
X108356200Y-106350417D01*
X108150267Y-106370699D01*
X107952243Y-106430769D01*
X107842098Y-106489643D01*
X107769750Y-106528315D01*
X107769748Y-106528316D01*
X107769747Y-106528317D01*
X107609789Y-106659589D01*
X107478517Y-106819547D01*
X107380969Y-107002043D01*
X107320899Y-107200067D01*
X107300617Y-107406000D01*
X103048700Y-107406000D01*
X103048700Y-104866000D01*
X107300617Y-104866000D01*
X107320899Y-105071932D01*
X107320900Y-105071934D01*
X107380968Y-105269954D01*
X107478515Y-105452450D01*
X107478517Y-105452452D01*
X107609789Y-105612410D01*
X107706409Y-105691702D01*
X107769750Y-105743685D01*
X107952246Y-105841232D01*
X108150266Y-105901300D01*
X108150265Y-105901300D01*
X108168729Y-105903118D01*
X108356200Y-105921583D01*
X108562134Y-105901300D01*
X108760154Y-105841232D01*
X108942650Y-105743685D01*
X109102610Y-105612410D01*
X109233885Y-105452450D01*
X109331432Y-105269954D01*
X109391500Y-105071934D01*
X109411783Y-104866000D01*
X122540617Y-104866000D01*
X122560899Y-105071932D01*
X122560900Y-105071934D01*
X122620968Y-105269954D01*
X122718515Y-105452450D01*
X122718517Y-105452452D01*
X122849789Y-105612410D01*
X122946409Y-105691702D01*
X123009750Y-105743685D01*
X123192246Y-105841232D01*
X123390266Y-105901300D01*
X123390265Y-105901300D01*
X123408729Y-105903118D01*
X123596200Y-105921583D01*
X123802134Y-105901300D01*
X124000154Y-105841232D01*
X124182650Y-105743685D01*
X124342610Y-105612410D01*
X124473885Y-105452450D01*
X124571432Y-105269954D01*
X124631500Y-105071934D01*
X124651783Y-104866000D01*
X124631500Y-104660066D01*
X124571432Y-104462046D01*
X124473885Y-104279550D01*
X124421902Y-104216209D01*
X124342610Y-104119589D01*
X124182652Y-103988317D01*
X124182653Y-103988317D01*
X124182650Y-103988315D01*
X124000154Y-103890768D01*
X123802134Y-103830700D01*
X123802132Y-103830699D01*
X123802134Y-103830699D01*
X123596200Y-103810417D01*
X123390267Y-103830699D01*
X123192243Y-103890769D01*
X123082098Y-103949643D01*
X123009750Y-103988315D01*
X123009748Y-103988316D01*
X123009747Y-103988317D01*
X122849789Y-104119589D01*
X122718517Y-104279547D01*
X122620969Y-104462043D01*
X122560899Y-104660067D01*
X122540617Y-104866000D01*
X109411783Y-104866000D01*
X109391500Y-104660066D01*
X109331432Y-104462046D01*
X109233885Y-104279550D01*
X109181902Y-104216209D01*
X109102610Y-104119589D01*
X108942652Y-103988317D01*
X108942653Y-103988317D01*
X108942650Y-103988315D01*
X108760154Y-103890768D01*
X108562134Y-103830700D01*
X108562132Y-103830699D01*
X108562134Y-103830699D01*
X108356200Y-103810417D01*
X108150267Y-103830699D01*
X107952243Y-103890769D01*
X107842098Y-103949643D01*
X107769750Y-103988315D01*
X107769748Y-103988316D01*
X107769747Y-103988317D01*
X107609789Y-104119589D01*
X107478517Y-104279547D01*
X107380969Y-104462043D01*
X107320899Y-104660067D01*
X107300617Y-104866000D01*
X103048700Y-104866000D01*
X103048700Y-103791500D01*
X103068385Y-103724461D01*
X103121189Y-103678706D01*
X103172700Y-103667500D01*
X103542950Y-103667500D01*
X103542951Y-103667499D01*
X103557768Y-103664552D01*
X103601429Y-103655868D01*
X103601429Y-103655867D01*
X103601431Y-103655867D01*
X103667752Y-103611552D01*
X103712067Y-103545231D01*
X103712067Y-103545229D01*
X103712068Y-103545229D01*
X103723699Y-103486752D01*
X103723700Y-103486750D01*
X103723700Y-102326000D01*
X107300617Y-102326000D01*
X107320899Y-102531932D01*
X107320900Y-102531934D01*
X107380968Y-102729954D01*
X107478515Y-102912450D01*
X107478517Y-102912452D01*
X107609789Y-103072410D01*
X107706409Y-103151702D01*
X107769750Y-103203685D01*
X107952246Y-103301232D01*
X108150266Y-103361300D01*
X108150265Y-103361300D01*
X108168729Y-103363118D01*
X108356200Y-103381583D01*
X108562134Y-103361300D01*
X108760154Y-103301232D01*
X108942650Y-103203685D01*
X109102610Y-103072410D01*
X109233885Y-102912450D01*
X109331432Y-102729954D01*
X109391500Y-102531934D01*
X109411783Y-102326000D01*
X109391500Y-102120066D01*
X109331432Y-101922046D01*
X109233885Y-101739550D01*
X109142448Y-101628133D01*
X109102610Y-101579589D01*
X108942652Y-101448317D01*
X108942653Y-101448317D01*
X108942650Y-101448315D01*
X108760154Y-101350768D01*
X108562134Y-101290700D01*
X108562132Y-101290699D01*
X108562134Y-101290699D01*
X108356200Y-101270417D01*
X108150267Y-101290699D01*
X107952243Y-101350769D01*
X107855972Y-101402228D01*
X107769750Y-101448315D01*
X107769748Y-101448316D01*
X107769747Y-101448317D01*
X107609789Y-101579589D01*
X107478517Y-101739547D01*
X107380969Y-101922043D01*
X107320899Y-102120067D01*
X107300617Y-102326000D01*
X103723700Y-102326000D01*
X103723700Y-101797249D01*
X103723699Y-101797247D01*
X103712068Y-101738770D01*
X103712067Y-101738769D01*
X103667752Y-101672447D01*
X103601430Y-101628132D01*
X103601429Y-101628131D01*
X103542952Y-101616500D01*
X103542948Y-101616500D01*
X101853452Y-101616500D01*
X101853447Y-101616500D01*
X101794970Y-101628131D01*
X101794969Y-101628132D01*
X101728647Y-101672447D01*
X101684332Y-101738769D01*
X101684331Y-101738770D01*
X101672700Y-101797247D01*
X101672700Y-103486752D01*
X98674731Y-103486752D01*
X98604731Y-103032543D01*
X98604257Y-103029151D01*
X98601494Y-103007182D01*
X98426026Y-101611971D01*
X98425648Y-101608575D01*
X98410004Y-101448315D01*
X98286889Y-100187077D01*
X98286604Y-100183667D01*
X98280919Y-100102000D01*
X101667738Y-100102000D01*
X101687537Y-100303031D01*
X101746178Y-100496345D01*
X101841398Y-100674488D01*
X101841403Y-100674495D01*
X101969552Y-100830647D01*
X102078216Y-100919824D01*
X102125706Y-100958798D01*
X102125709Y-100958799D01*
X102125711Y-100958801D01*
X102303854Y-101054021D01*
X102303856Y-101054021D01*
X102303859Y-101054023D01*
X102497167Y-101112662D01*
X102698200Y-101132462D01*
X102899233Y-101112662D01*
X103092541Y-101054023D01*
X103270694Y-100958798D01*
X103426847Y-100830647D01*
X103554998Y-100674494D01*
X103650223Y-100496341D01*
X103708862Y-100303033D01*
X103728662Y-100102000D01*
X103708862Y-99900967D01*
X103673987Y-99786000D01*
X107300617Y-99786000D01*
X107320899Y-99991932D01*
X107320900Y-99991934D01*
X107380968Y-100189954D01*
X107478515Y-100372450D01*
X107478517Y-100372452D01*
X107609789Y-100532410D01*
X107706409Y-100611702D01*
X107769750Y-100663685D01*
X107952246Y-100761232D01*
X108150266Y-100821300D01*
X108150265Y-100821300D01*
X108168729Y-100823118D01*
X108356200Y-100841583D01*
X108562134Y-100821300D01*
X108760154Y-100761232D01*
X108942650Y-100663685D01*
X109102610Y-100532410D01*
X109233885Y-100372450D01*
X109331432Y-100189954D01*
X109391500Y-99991934D01*
X109411783Y-99786000D01*
X122540617Y-99786000D01*
X122560899Y-99991932D01*
X122560900Y-99991934D01*
X122620968Y-100189954D01*
X122718515Y-100372450D01*
X122718517Y-100372452D01*
X122849789Y-100532410D01*
X122946409Y-100611702D01*
X123009750Y-100663685D01*
X123192246Y-100761232D01*
X123390266Y-100821300D01*
X123390265Y-100821300D01*
X123408729Y-100823118D01*
X123596200Y-100841583D01*
X123802134Y-100821300D01*
X124000154Y-100761232D01*
X124182650Y-100663685D01*
X124342610Y-100532410D01*
X124473885Y-100372450D01*
X124571432Y-100189954D01*
X124631500Y-99991934D01*
X124651783Y-99786000D01*
X124631500Y-99580066D01*
X124571432Y-99382046D01*
X124473885Y-99199550D01*
X124421902Y-99136209D01*
X124342610Y-99039589D01*
X124182652Y-98908317D01*
X124182653Y-98908317D01*
X124182650Y-98908315D01*
X124000154Y-98810768D01*
X123802134Y-98750700D01*
X123802132Y-98750699D01*
X123802134Y-98750699D01*
X123596200Y-98730417D01*
X123390267Y-98750699D01*
X123192243Y-98810769D01*
X123082098Y-98869643D01*
X123009750Y-98908315D01*
X123009748Y-98908316D01*
X123009747Y-98908317D01*
X122849789Y-99039589D01*
X122759197Y-99149978D01*
X122718515Y-99199550D01*
X122694113Y-99245202D01*
X122620969Y-99382043D01*
X122560899Y-99580067D01*
X122540617Y-99786000D01*
X109411783Y-99786000D01*
X109391500Y-99580066D01*
X109331432Y-99382046D01*
X109233885Y-99199550D01*
X109181902Y-99136209D01*
X109102610Y-99039589D01*
X108942652Y-98908317D01*
X108942653Y-98908317D01*
X108942650Y-98908315D01*
X108760154Y-98810768D01*
X108562134Y-98750700D01*
X108562132Y-98750699D01*
X108562134Y-98750699D01*
X108356200Y-98730417D01*
X108150267Y-98750699D01*
X107952243Y-98810769D01*
X107842098Y-98869643D01*
X107769750Y-98908315D01*
X107769748Y-98908316D01*
X107769747Y-98908317D01*
X107609789Y-99039589D01*
X107519197Y-99149978D01*
X107478515Y-99199550D01*
X107454113Y-99245202D01*
X107380969Y-99382043D01*
X107320899Y-99580067D01*
X107300617Y-99786000D01*
X103673987Y-99786000D01*
X103650223Y-99707659D01*
X103650221Y-99707656D01*
X103650221Y-99707654D01*
X103555001Y-99529511D01*
X103554999Y-99529509D01*
X103554998Y-99529506D01*
X103516024Y-99482016D01*
X103426847Y-99373352D01*
X103270695Y-99245203D01*
X103270688Y-99245198D01*
X103092545Y-99149978D01*
X102899231Y-99091337D01*
X102698200Y-99071538D01*
X102497168Y-99091337D01*
X102303854Y-99149978D01*
X102125711Y-99245198D01*
X102125704Y-99245203D01*
X101969552Y-99373352D01*
X101841403Y-99529504D01*
X101841398Y-99529511D01*
X101746178Y-99707654D01*
X101687537Y-99900968D01*
X101667738Y-100102000D01*
X98280919Y-100102000D01*
X98273256Y-99991934D01*
X98187408Y-98758769D01*
X98187218Y-98755342D01*
X98187024Y-98750700D01*
X98127673Y-97328323D01*
X98127578Y-97324885D01*
X98126481Y-97246000D01*
X107300617Y-97246000D01*
X107320899Y-97451932D01*
X107320900Y-97451934D01*
X107380968Y-97649954D01*
X107478515Y-97832450D01*
X107478517Y-97832452D01*
X107609789Y-97992410D01*
X107706409Y-98071702D01*
X107769750Y-98123685D01*
X107952246Y-98221232D01*
X108150266Y-98281300D01*
X108150265Y-98281300D01*
X108168729Y-98283118D01*
X108356200Y-98301583D01*
X108562134Y-98281300D01*
X108760154Y-98221232D01*
X108942650Y-98123685D01*
X109102610Y-97992410D01*
X109233885Y-97832450D01*
X109331432Y-97649954D01*
X109391500Y-97451934D01*
X109411783Y-97246000D01*
X109391500Y-97040066D01*
X109331432Y-96842046D01*
X109233885Y-96659550D01*
X109181902Y-96596209D01*
X109102610Y-96499589D01*
X108942652Y-96368317D01*
X108942653Y-96368317D01*
X108942650Y-96368315D01*
X108760154Y-96270768D01*
X108562134Y-96210700D01*
X108562132Y-96210699D01*
X108562134Y-96210699D01*
X108356200Y-96190417D01*
X108150267Y-96210699D01*
X107952243Y-96270769D01*
X107842098Y-96329643D01*
X107769750Y-96368315D01*
X107769748Y-96368316D01*
X107769747Y-96368317D01*
X107609789Y-96499589D01*
X107478517Y-96659547D01*
X107380969Y-96842043D01*
X107320899Y-97040067D01*
X107300617Y-97246000D01*
X98126481Y-97246000D01*
X98107723Y-95896668D01*
X98107723Y-95893359D01*
X98121439Y-94906752D01*
X101672700Y-94906752D01*
X101684331Y-94965229D01*
X101684332Y-94965230D01*
X101728647Y-95031552D01*
X101794969Y-95075867D01*
X101794970Y-95075868D01*
X101853447Y-95087499D01*
X101853450Y-95087500D01*
X101853452Y-95087500D01*
X103542950Y-95087500D01*
X103542951Y-95087499D01*
X103557768Y-95084552D01*
X103601429Y-95075868D01*
X103601429Y-95075867D01*
X103601431Y-95075867D01*
X103667752Y-95031552D01*
X103712067Y-94965231D01*
X103712067Y-94965229D01*
X103712068Y-94965229D01*
X103723699Y-94906752D01*
X103723700Y-94906750D01*
X103723700Y-94706000D01*
X107300617Y-94706000D01*
X107320899Y-94911932D01*
X107337067Y-94965230D01*
X107380968Y-95109954D01*
X107478515Y-95292450D01*
X107478517Y-95292452D01*
X107609789Y-95452410D01*
X107706409Y-95531702D01*
X107769750Y-95583685D01*
X107952246Y-95681232D01*
X108150266Y-95741300D01*
X108150265Y-95741300D01*
X108168729Y-95743118D01*
X108356200Y-95761583D01*
X108562134Y-95741300D01*
X108760154Y-95681232D01*
X108942650Y-95583685D01*
X109102610Y-95452410D01*
X109138937Y-95408145D01*
X119627700Y-95408145D01*
X119640656Y-95456499D01*
X119640657Y-95456499D01*
X119651587Y-95497290D01*
X119697727Y-95577208D01*
X119697729Y-95577211D01*
X119697730Y-95577212D01*
X121662988Y-97542470D01*
X121742912Y-97588614D01*
X121832056Y-97612500D01*
X121832058Y-97612500D01*
X121924342Y-97612500D01*
X121924344Y-97612500D01*
X121968289Y-97600724D01*
X122000382Y-97596500D01*
X122518073Y-97596500D01*
X122585112Y-97616185D01*
X122627431Y-97662046D01*
X122718515Y-97832450D01*
X122718517Y-97832452D01*
X122849789Y-97992410D01*
X122946409Y-98071702D01*
X123009750Y-98123685D01*
X123192246Y-98221232D01*
X123390266Y-98281300D01*
X123390265Y-98281300D01*
X123408729Y-98283118D01*
X123596200Y-98301583D01*
X123802134Y-98281300D01*
X124000154Y-98221232D01*
X124182650Y-98123685D01*
X124342610Y-97992410D01*
X124473885Y-97832450D01*
X124571432Y-97649954D01*
X124631500Y-97451934D01*
X124651783Y-97246000D01*
X124631500Y-97040066D01*
X124571432Y-96842046D01*
X124473885Y-96659550D01*
X124421902Y-96596209D01*
X124342610Y-96499589D01*
X124182652Y-96368317D01*
X124182653Y-96368317D01*
X124182650Y-96368315D01*
X124000154Y-96270768D01*
X123802134Y-96210700D01*
X123802132Y-96210699D01*
X123802134Y-96210699D01*
X123596200Y-96190417D01*
X123390267Y-96210699D01*
X123192243Y-96270769D01*
X123082098Y-96329643D01*
X123009750Y-96368315D01*
X123009748Y-96368316D01*
X123009747Y-96368317D01*
X122849789Y-96499589D01*
X122718517Y-96659547D01*
X122627431Y-96829954D01*
X122578468Y-96879798D01*
X122518073Y-96895500D01*
X122058744Y-96895500D01*
X121991705Y-96875815D01*
X121971063Y-96859181D01*
X120365019Y-95253137D01*
X120331534Y-95191814D01*
X120328700Y-95165456D01*
X120328700Y-92166000D01*
X122540617Y-92166000D01*
X122560899Y-92371932D01*
X122562982Y-92378798D01*
X122620968Y-92569954D01*
X122718515Y-92752450D01*
X122718517Y-92752452D01*
X122849789Y-92912410D01*
X122946409Y-92991702D01*
X123009750Y-93043685D01*
X123192246Y-93141232D01*
X123390266Y-93201300D01*
X123390265Y-93201300D01*
X123408729Y-93203118D01*
X123596200Y-93221583D01*
X123802134Y-93201300D01*
X124000154Y-93141232D01*
X124182650Y-93043685D01*
X124342610Y-92912410D01*
X124473885Y-92752450D01*
X124571432Y-92569954D01*
X124631500Y-92371934D01*
X124651783Y-92166000D01*
X124631500Y-91960066D01*
X124571432Y-91762046D01*
X124473885Y-91579550D01*
X124421902Y-91516209D01*
X124342610Y-91419589D01*
X124182652Y-91288317D01*
X124182653Y-91288317D01*
X124182650Y-91288315D01*
X124000154Y-91190768D01*
X123802134Y-91130700D01*
X123802132Y-91130699D01*
X123802134Y-91130699D01*
X123596200Y-91110417D01*
X123390267Y-91130699D01*
X123192243Y-91190769D01*
X123082098Y-91249643D01*
X123009750Y-91288315D01*
X123009748Y-91288316D01*
X123009747Y-91288317D01*
X122849789Y-91419589D01*
X122718517Y-91579547D01*
X122718515Y-91579550D01*
X122704185Y-91606360D01*
X122620969Y-91762043D01*
X122560899Y-91960067D01*
X122540617Y-92166000D01*
X120328700Y-92166000D01*
X120328700Y-89626000D01*
X122540617Y-89626000D01*
X122560899Y-89831932D01*
X122580492Y-89896520D01*
X122620968Y-90029954D01*
X122718515Y-90212450D01*
X122718517Y-90212452D01*
X122849789Y-90372410D01*
X122931017Y-90439071D01*
X123009750Y-90503685D01*
X123192246Y-90601232D01*
X123390266Y-90661300D01*
X123390265Y-90661300D01*
X123408729Y-90663118D01*
X123596200Y-90681583D01*
X123802134Y-90661300D01*
X124000154Y-90601232D01*
X124182650Y-90503685D01*
X124342610Y-90372410D01*
X124473885Y-90212450D01*
X124571432Y-90029954D01*
X124631500Y-89831934D01*
X124651783Y-89626000D01*
X124631500Y-89420066D01*
X124571432Y-89222046D01*
X124473885Y-89039550D01*
X124421902Y-88976209D01*
X124342610Y-88879589D01*
X124224877Y-88782969D01*
X124182650Y-88748315D01*
X124000154Y-88650768D01*
X123802134Y-88590700D01*
X123802132Y-88590699D01*
X123802134Y-88590699D01*
X123596200Y-88570417D01*
X123390267Y-88590699D01*
X123192243Y-88650769D01*
X123131572Y-88683199D01*
X123009750Y-88748315D01*
X123009748Y-88748316D01*
X123009747Y-88748317D01*
X122849789Y-88879589D01*
X122718517Y-89039547D01*
X122620969Y-89222043D01*
X122560899Y-89420067D01*
X122540617Y-89626000D01*
X120328700Y-89626000D01*
X120328700Y-87086000D01*
X122540617Y-87086000D01*
X122560899Y-87291932D01*
X122560900Y-87291934D01*
X122620968Y-87489954D01*
X122718515Y-87672450D01*
X122718517Y-87672452D01*
X122849789Y-87832410D01*
X122946409Y-87911702D01*
X123009750Y-87963685D01*
X123192246Y-88061232D01*
X123390266Y-88121300D01*
X123390265Y-88121300D01*
X123408729Y-88123118D01*
X123596200Y-88141583D01*
X123802134Y-88121300D01*
X124000154Y-88061232D01*
X124182650Y-87963685D01*
X124342610Y-87832410D01*
X124473885Y-87672450D01*
X124571432Y-87489954D01*
X124631500Y-87291934D01*
X124651783Y-87086000D01*
X124631500Y-86880066D01*
X124571432Y-86682046D01*
X124473885Y-86499550D01*
X124421902Y-86436209D01*
X124342610Y-86339589D01*
X124182652Y-86208317D01*
X124182653Y-86208317D01*
X124182650Y-86208315D01*
X124000154Y-86110768D01*
X123802134Y-86050700D01*
X123802132Y-86050699D01*
X123802134Y-86050699D01*
X123596200Y-86030417D01*
X123390267Y-86050699D01*
X123192243Y-86110769D01*
X123082098Y-86169643D01*
X123009750Y-86208315D01*
X123009748Y-86208316D01*
X123009747Y-86208317D01*
X122849789Y-86339589D01*
X122718517Y-86499547D01*
X122620969Y-86682043D01*
X122560899Y-86880067D01*
X122540617Y-87086000D01*
X120328700Y-87086000D01*
X120328700Y-84546000D01*
X122540617Y-84546000D01*
X122560899Y-84751932D01*
X122560900Y-84751934D01*
X122620968Y-84949954D01*
X122718515Y-85132450D01*
X122718517Y-85132452D01*
X122849789Y-85292410D01*
X122946409Y-85371702D01*
X123009750Y-85423685D01*
X123192246Y-85521232D01*
X123390266Y-85581300D01*
X123390265Y-85581300D01*
X123408729Y-85583118D01*
X123596200Y-85601583D01*
X123802134Y-85581300D01*
X124000154Y-85521232D01*
X124182650Y-85423685D01*
X124342610Y-85292410D01*
X124473885Y-85132450D01*
X124571432Y-84949954D01*
X124631500Y-84751934D01*
X124651783Y-84546000D01*
X124631500Y-84340066D01*
X124571432Y-84142046D01*
X124473885Y-83959550D01*
X124421902Y-83896209D01*
X124342610Y-83799589D01*
X124182652Y-83668317D01*
X124182653Y-83668317D01*
X124182650Y-83668315D01*
X124000154Y-83570768D01*
X123802134Y-83510700D01*
X123802132Y-83510699D01*
X123802134Y-83510699D01*
X123596200Y-83490417D01*
X123390267Y-83510699D01*
X123214892Y-83563898D01*
X123193229Y-83570470D01*
X123192243Y-83570769D01*
X123082098Y-83629643D01*
X123009750Y-83668315D01*
X123009748Y-83668316D01*
X123009747Y-83668317D01*
X122849789Y-83799589D01*
X122718517Y-83959547D01*
X122620969Y-84142043D01*
X122620968Y-84142045D01*
X122620968Y-84142046D01*
X122614098Y-84164692D01*
X122560899Y-84340067D01*
X122540617Y-84546000D01*
X120328700Y-84546000D01*
X120328700Y-82006000D01*
X122540617Y-82006000D01*
X122560899Y-82211932D01*
X122560900Y-82211934D01*
X122620968Y-82409954D01*
X122718515Y-82592450D01*
X122718517Y-82592452D01*
X122849789Y-82752410D01*
X122946409Y-82831702D01*
X123009750Y-82883685D01*
X123192246Y-82981232D01*
X123390266Y-83041300D01*
X123390265Y-83041300D01*
X123408729Y-83043118D01*
X123596200Y-83061583D01*
X123802134Y-83041300D01*
X124000154Y-82981232D01*
X124182650Y-82883685D01*
X124342610Y-82752410D01*
X124473885Y-82592450D01*
X124571432Y-82409954D01*
X124631500Y-82211934D01*
X124651783Y-82006000D01*
X124631500Y-81800066D01*
X124571432Y-81602046D01*
X124473885Y-81419550D01*
X124421902Y-81356209D01*
X124342610Y-81259589D01*
X124182652Y-81128317D01*
X124182653Y-81128317D01*
X124182650Y-81128315D01*
X124000154Y-81030768D01*
X123802134Y-80970700D01*
X123802132Y-80970699D01*
X123802134Y-80970699D01*
X123596200Y-80950417D01*
X123390267Y-80970699D01*
X123192243Y-81030769D01*
X123082098Y-81089643D01*
X123009750Y-81128315D01*
X123009748Y-81128316D01*
X123009747Y-81128317D01*
X122849789Y-81259589D01*
X122718517Y-81419547D01*
X122620969Y-81602043D01*
X122560899Y-81800067D01*
X122540617Y-82006000D01*
X120328700Y-82006000D01*
X120328700Y-79442000D01*
X122608028Y-79442000D01*
X122626669Y-79631269D01*
X122626670Y-79631271D01*
X122681878Y-79813269D01*
X122712177Y-79869954D01*
X122771532Y-79981000D01*
X122892184Y-80128015D01*
X122994491Y-80211976D01*
X123039201Y-80248669D01*
X123206931Y-80338322D01*
X123388929Y-80393530D01*
X123388928Y-80393530D01*
X123405898Y-80395201D01*
X123578200Y-80412172D01*
X123767471Y-80393530D01*
X123949469Y-80338322D01*
X124117199Y-80248669D01*
X124264215Y-80128015D01*
X124384869Y-79980999D01*
X124474522Y-79813269D01*
X124529730Y-79631271D01*
X124548372Y-79442000D01*
X124529730Y-79252729D01*
X124474522Y-79070731D01*
X124384869Y-78903001D01*
X124348176Y-78858291D01*
X124264215Y-78755984D01*
X124117200Y-78635332D01*
X124117199Y-78635331D01*
X123949469Y-78545678D01*
X123767471Y-78490470D01*
X123767469Y-78490469D01*
X123767471Y-78490469D01*
X123578200Y-78471828D01*
X123388930Y-78490469D01*
X123206931Y-78545678D01*
X123039199Y-78635332D01*
X122892184Y-78755984D01*
X122771532Y-78902999D01*
X122681878Y-79070731D01*
X122626669Y-79252730D01*
X122608028Y-79442000D01*
X120328700Y-79442000D01*
X120328700Y-77795752D01*
X122545700Y-77795752D01*
X122557331Y-77854229D01*
X122557332Y-77854230D01*
X122601647Y-77920552D01*
X122667969Y-77964867D01*
X122667970Y-77964868D01*
X122726447Y-77976499D01*
X122726450Y-77976500D01*
X122726452Y-77976500D01*
X124465950Y-77976500D01*
X124465951Y-77976499D01*
X124480768Y-77973552D01*
X124524429Y-77964868D01*
X124524429Y-77964867D01*
X124524431Y-77964867D01*
X124590752Y-77920552D01*
X124635067Y-77854231D01*
X124635067Y-77854229D01*
X124635068Y-77854229D01*
X124646699Y-77795752D01*
X124646700Y-77795750D01*
X124646700Y-76056249D01*
X124646699Y-76056247D01*
X124635068Y-75997770D01*
X124635067Y-75997769D01*
X124590752Y-75931447D01*
X124524430Y-75887132D01*
X124524429Y-75887131D01*
X124465952Y-75875500D01*
X124465948Y-75875500D01*
X122726452Y-75875500D01*
X122726447Y-75875500D01*
X122667970Y-75887131D01*
X122667969Y-75887132D01*
X122601647Y-75931447D01*
X122557332Y-75997769D01*
X122557331Y-75997770D01*
X122545700Y-76056247D01*
X122545700Y-77795752D01*
X120328700Y-77795752D01*
X120328700Y-74858544D01*
X120348385Y-74791505D01*
X120365019Y-74770863D01*
X125887063Y-69248819D01*
X125948386Y-69215334D01*
X125974744Y-69212500D01*
X139520473Y-69212500D01*
X139559204Y-69220926D01*
X139559637Y-69219455D01*
X139706236Y-69262499D01*
X139706238Y-69262500D01*
X139706239Y-69262500D01*
X139850162Y-69262500D01*
X139850162Y-69262499D01*
X139988253Y-69221953D01*
X140109328Y-69144143D01*
X140203577Y-69035373D01*
X140263365Y-68904457D01*
X140283847Y-68762000D01*
X140263365Y-68619543D01*
X140203577Y-68488627D01*
X140109328Y-68379857D01*
X139988253Y-68302047D01*
X139988251Y-68302046D01*
X139988249Y-68302045D01*
X139988250Y-68302045D01*
X139850163Y-68261500D01*
X139850161Y-68261500D01*
X139706239Y-68261500D01*
X139706236Y-68261500D01*
X139568149Y-68302045D01*
X139447073Y-68379856D01*
X139370087Y-68468703D01*
X139311309Y-68506477D01*
X139276374Y-68511500D01*
X125732054Y-68511500D01*
X125686682Y-68523657D01*
X125686682Y-68523658D01*
X125642912Y-68535386D01*
X125642911Y-68535386D01*
X125642909Y-68535387D01*
X125562991Y-68581527D01*
X125562986Y-68581531D01*
X119697731Y-74446786D01*
X119697727Y-74446791D01*
X119651587Y-74526709D01*
X119651586Y-74526712D01*
X119627700Y-74615856D01*
X119627700Y-95408145D01*
X109138937Y-95408145D01*
X109233885Y-95292450D01*
X109331432Y-95109954D01*
X109391500Y-94911934D01*
X109411783Y-94706000D01*
X109391500Y-94500066D01*
X109331432Y-94302046D01*
X109233885Y-94119550D01*
X109181902Y-94056209D01*
X109102610Y-93959589D01*
X108942652Y-93828317D01*
X108942653Y-93828317D01*
X108942650Y-93828315D01*
X108760154Y-93730768D01*
X108562134Y-93670700D01*
X108562132Y-93670699D01*
X108562134Y-93670699D01*
X108356200Y-93650417D01*
X108150267Y-93670699D01*
X107952243Y-93730769D01*
X107842098Y-93789643D01*
X107769750Y-93828315D01*
X107769748Y-93828316D01*
X107769747Y-93828317D01*
X107609789Y-93959589D01*
X107478517Y-94119547D01*
X107380969Y-94302043D01*
X107320899Y-94500067D01*
X107300617Y-94706000D01*
X103723700Y-94706000D01*
X103723700Y-93217249D01*
X103723699Y-93217247D01*
X103712068Y-93158770D01*
X103712067Y-93158769D01*
X103667752Y-93092447D01*
X103601430Y-93048132D01*
X103601429Y-93048131D01*
X103542952Y-93036500D01*
X103542948Y-93036500D01*
X101853452Y-93036500D01*
X101853447Y-93036500D01*
X101794970Y-93048131D01*
X101794969Y-93048132D01*
X101728647Y-93092447D01*
X101684332Y-93158769D01*
X101684331Y-93158770D01*
X101672700Y-93217247D01*
X101672700Y-94906752D01*
X98121439Y-94906752D01*
X98127578Y-94465132D01*
X98127674Y-94461696D01*
X98129183Y-94425527D01*
X98187219Y-93034665D01*
X98187409Y-93031243D01*
X98195682Y-92912410D01*
X98286606Y-91606330D01*
X98286892Y-91602925D01*
X98291166Y-91559145D01*
X98294792Y-91522000D01*
X101667738Y-91522000D01*
X101687537Y-91723031D01*
X101746178Y-91916345D01*
X101841398Y-92094488D01*
X101841403Y-92094495D01*
X101969552Y-92250647D01*
X102078216Y-92339824D01*
X102125706Y-92378798D01*
X102125709Y-92378799D01*
X102125711Y-92378801D01*
X102303854Y-92474021D01*
X102303856Y-92474021D01*
X102303859Y-92474023D01*
X102497167Y-92532662D01*
X102698200Y-92552462D01*
X102899233Y-92532662D01*
X103092541Y-92474023D01*
X103270694Y-92378798D01*
X103426847Y-92250647D01*
X103496315Y-92166000D01*
X107300617Y-92166000D01*
X107320899Y-92371932D01*
X107322982Y-92378798D01*
X107380968Y-92569954D01*
X107478515Y-92752450D01*
X107478517Y-92752452D01*
X107609789Y-92912410D01*
X107706409Y-92991702D01*
X107769750Y-93043685D01*
X107952246Y-93141232D01*
X108150266Y-93201300D01*
X108150265Y-93201300D01*
X108168729Y-93203118D01*
X108356200Y-93221583D01*
X108562134Y-93201300D01*
X108760154Y-93141232D01*
X108942650Y-93043685D01*
X109102610Y-92912410D01*
X109233885Y-92752450D01*
X109331432Y-92569954D01*
X109391500Y-92371934D01*
X109411783Y-92166000D01*
X109391500Y-91960066D01*
X109331432Y-91762046D01*
X109233885Y-91579550D01*
X109181902Y-91516209D01*
X109102610Y-91419589D01*
X108942652Y-91288317D01*
X108942653Y-91288317D01*
X108942650Y-91288315D01*
X108760154Y-91190768D01*
X108562134Y-91130700D01*
X108562132Y-91130699D01*
X108562134Y-91130699D01*
X108356200Y-91110417D01*
X108150267Y-91130699D01*
X107952243Y-91190769D01*
X107842098Y-91249643D01*
X107769750Y-91288315D01*
X107769748Y-91288316D01*
X107769747Y-91288317D01*
X107609789Y-91419589D01*
X107478517Y-91579547D01*
X107478515Y-91579550D01*
X107464185Y-91606360D01*
X107380969Y-91762043D01*
X107320899Y-91960067D01*
X107300617Y-92166000D01*
X103496315Y-92166000D01*
X103554998Y-92094494D01*
X103650223Y-91916341D01*
X103708862Y-91723033D01*
X103728662Y-91522000D01*
X103708862Y-91320967D01*
X103650223Y-91127659D01*
X103650221Y-91127656D01*
X103650221Y-91127654D01*
X103555001Y-90949511D01*
X103554999Y-90949509D01*
X103554998Y-90949506D01*
X103516024Y-90902016D01*
X103426847Y-90793352D01*
X103270695Y-90665203D01*
X103270688Y-90665198D01*
X103092545Y-90569978D01*
X102899231Y-90511337D01*
X102698200Y-90491538D01*
X102497168Y-90511337D01*
X102303854Y-90569978D01*
X102125711Y-90665198D01*
X102125704Y-90665203D01*
X101969552Y-90793352D01*
X101841403Y-90949504D01*
X101841398Y-90949511D01*
X101746178Y-91127654D01*
X101687537Y-91320968D01*
X101667738Y-91522000D01*
X98294792Y-91522000D01*
X98425652Y-90181412D01*
X98426025Y-90178063D01*
X98495455Y-89626000D01*
X107300617Y-89626000D01*
X107320899Y-89831932D01*
X107340492Y-89896520D01*
X107380968Y-90029954D01*
X107478515Y-90212450D01*
X107478517Y-90212452D01*
X107609789Y-90372410D01*
X107691017Y-90439071D01*
X107769750Y-90503685D01*
X107952246Y-90601232D01*
X108150266Y-90661300D01*
X108150265Y-90661300D01*
X108168729Y-90663118D01*
X108356200Y-90681583D01*
X108562134Y-90661300D01*
X108760154Y-90601232D01*
X108942650Y-90503685D01*
X109102610Y-90372410D01*
X109233885Y-90212450D01*
X109324969Y-90042046D01*
X109373932Y-89992202D01*
X109434327Y-89976500D01*
X109545656Y-89976500D01*
X109612695Y-89996185D01*
X109633337Y-90012819D01*
X110591381Y-90970863D01*
X110624866Y-91032186D01*
X110627700Y-91058544D01*
X110627700Y-94455963D01*
X110608015Y-94523002D01*
X110597414Y-94537164D01*
X110552825Y-94588623D01*
X110552822Y-94588628D01*
X110493034Y-94719543D01*
X110472553Y-94862000D01*
X110493034Y-95004456D01*
X110525792Y-95076185D01*
X110552823Y-95135373D01*
X110647072Y-95244143D01*
X110768147Y-95321953D01*
X110768150Y-95321954D01*
X110768149Y-95321954D01*
X110906236Y-95362499D01*
X110906238Y-95362500D01*
X110906239Y-95362500D01*
X111050162Y-95362500D01*
X111050162Y-95362499D01*
X111188253Y-95321953D01*
X111309328Y-95244143D01*
X111403577Y-95135373D01*
X111463365Y-95004457D01*
X111483847Y-94862000D01*
X111463365Y-94719543D01*
X111403577Y-94588627D01*
X111403574Y-94588623D01*
X111358986Y-94537164D01*
X111329962Y-94473608D01*
X111328700Y-94455963D01*
X111328700Y-90815858D01*
X111328700Y-90815856D01*
X111304814Y-90726712D01*
X111301805Y-90721500D01*
X111301805Y-90721499D01*
X111258672Y-90646791D01*
X111258667Y-90646785D01*
X109957413Y-89345531D01*
X109957408Y-89345527D01*
X109877490Y-89299387D01*
X109877489Y-89299386D01*
X109877488Y-89299386D01*
X109788344Y-89275500D01*
X109788343Y-89275500D01*
X109434327Y-89275500D01*
X109367288Y-89255815D01*
X109324969Y-89209954D01*
X109306079Y-89174615D01*
X109233885Y-89039550D01*
X109181902Y-88976209D01*
X109102610Y-88879589D01*
X108984877Y-88782969D01*
X108942650Y-88748315D01*
X108760154Y-88650768D01*
X108562134Y-88590700D01*
X108562132Y-88590699D01*
X108562134Y-88590699D01*
X108356200Y-88570417D01*
X108150267Y-88590699D01*
X107952243Y-88650769D01*
X107891572Y-88683199D01*
X107769750Y-88748315D01*
X107769748Y-88748316D01*
X107769747Y-88748317D01*
X107609789Y-88879589D01*
X107478517Y-89039547D01*
X107380969Y-89222043D01*
X107320899Y-89420067D01*
X107300617Y-89626000D01*
X98495455Y-89626000D01*
X98604261Y-88760844D01*
X98604735Y-88757462D01*
X98822289Y-87345808D01*
X98822841Y-87342529D01*
X98869710Y-87086000D01*
X107300617Y-87086000D01*
X107320899Y-87291932D01*
X107320900Y-87291934D01*
X107380968Y-87489954D01*
X107478515Y-87672450D01*
X107478517Y-87672452D01*
X107609789Y-87832410D01*
X107706409Y-87911702D01*
X107769750Y-87963685D01*
X107952246Y-88061232D01*
X108150266Y-88121300D01*
X108150265Y-88121300D01*
X108168729Y-88123118D01*
X108356200Y-88141583D01*
X108562134Y-88121300D01*
X108760154Y-88061232D01*
X108942650Y-87963685D01*
X109102610Y-87832410D01*
X109233885Y-87672450D01*
X109331432Y-87489954D01*
X109391500Y-87291934D01*
X109411783Y-87086000D01*
X109391500Y-86880066D01*
X109331432Y-86682046D01*
X109233885Y-86499550D01*
X109181902Y-86436209D01*
X109102610Y-86339589D01*
X108942652Y-86208317D01*
X108942653Y-86208317D01*
X108942650Y-86208315D01*
X108760154Y-86110768D01*
X108562134Y-86050700D01*
X108562132Y-86050699D01*
X108562134Y-86050699D01*
X108356200Y-86030417D01*
X108150267Y-86050699D01*
X107952243Y-86110769D01*
X107842098Y-86169643D01*
X107769750Y-86208315D01*
X107769748Y-86208316D01*
X107769747Y-86208317D01*
X107609789Y-86339589D01*
X107478517Y-86499547D01*
X107380969Y-86682043D01*
X107320899Y-86880067D01*
X107300617Y-87086000D01*
X98869710Y-87086000D01*
X99079563Y-85937402D01*
X99080225Y-85934048D01*
X99375896Y-84536657D01*
X99376627Y-84533424D01*
X99379378Y-84522000D01*
X107368028Y-84522000D01*
X107386669Y-84711269D01*
X107386670Y-84711271D01*
X107441878Y-84893269D01*
X107472177Y-84949954D01*
X107531532Y-85061000D01*
X107652184Y-85208015D01*
X107754491Y-85291976D01*
X107799201Y-85328669D01*
X107966931Y-85418322D01*
X108148929Y-85473530D01*
X108148928Y-85473530D01*
X108165898Y-85475201D01*
X108338200Y-85492172D01*
X108527471Y-85473530D01*
X108709469Y-85418322D01*
X108877199Y-85328669D01*
X109024215Y-85208015D01*
X109144869Y-85060999D01*
X109234522Y-84893269D01*
X109289730Y-84711271D01*
X109308372Y-84522000D01*
X109289730Y-84332729D01*
X109234522Y-84150731D01*
X109144869Y-83983001D01*
X109108176Y-83938291D01*
X109024215Y-83835984D01*
X108877200Y-83715332D01*
X108877199Y-83715331D01*
X108709469Y-83625678D01*
X108527471Y-83570470D01*
X108527469Y-83570469D01*
X108527471Y-83570469D01*
X108338200Y-83551828D01*
X108148930Y-83570469D01*
X107966931Y-83625678D01*
X107799199Y-83715332D01*
X107652184Y-83835984D01*
X107531532Y-83982999D01*
X107441878Y-84150731D01*
X107386669Y-84332730D01*
X107368028Y-84522000D01*
X99379378Y-84522000D01*
X99711052Y-83144699D01*
X99711879Y-83141464D01*
X100018946Y-82006000D01*
X107300617Y-82006000D01*
X107320899Y-82211932D01*
X107320900Y-82211934D01*
X107380968Y-82409954D01*
X107478515Y-82592450D01*
X107478517Y-82592452D01*
X107609789Y-82752410D01*
X107706409Y-82831702D01*
X107769750Y-82883685D01*
X107952246Y-82981232D01*
X108150266Y-83041300D01*
X108150265Y-83041300D01*
X108168729Y-83043118D01*
X108356200Y-83061583D01*
X108562134Y-83041300D01*
X108760154Y-82981232D01*
X108942650Y-82883685D01*
X109102610Y-82752410D01*
X109233885Y-82592450D01*
X109331432Y-82409954D01*
X109391500Y-82211934D01*
X109411783Y-82006000D01*
X109391500Y-81800066D01*
X109331432Y-81602046D01*
X109233885Y-81419550D01*
X109181902Y-81356209D01*
X109102610Y-81259589D01*
X108942652Y-81128317D01*
X108942653Y-81128317D01*
X108942650Y-81128315D01*
X108760154Y-81030768D01*
X108562134Y-80970700D01*
X108562132Y-80970699D01*
X108562134Y-80970699D01*
X108356200Y-80950417D01*
X108150267Y-80970699D01*
X107952243Y-81030769D01*
X107842098Y-81089643D01*
X107769750Y-81128315D01*
X107769748Y-81128316D01*
X107769747Y-81128317D01*
X107609789Y-81259589D01*
X107478517Y-81419547D01*
X107380969Y-81602043D01*
X107320899Y-81800067D01*
X107300617Y-82006000D01*
X100018946Y-82006000D01*
X100084766Y-81762614D01*
X100085677Y-81759422D01*
X100496748Y-80391476D01*
X100497781Y-80388207D01*
X100803104Y-79466000D01*
X107300617Y-79466000D01*
X107320899Y-79671932D01*
X107320900Y-79671934D01*
X107380968Y-79869954D01*
X107478515Y-80052450D01*
X107478517Y-80052452D01*
X107609789Y-80212410D01*
X107706409Y-80291702D01*
X107769750Y-80343685D01*
X107952246Y-80441232D01*
X108150266Y-80501300D01*
X108150265Y-80501300D01*
X108168729Y-80503118D01*
X108356200Y-80521583D01*
X108562134Y-80501300D01*
X108760154Y-80441232D01*
X108942650Y-80343685D01*
X109102610Y-80212410D01*
X109233885Y-80052450D01*
X109331432Y-79869954D01*
X109391500Y-79671934D01*
X109411783Y-79466000D01*
X109391500Y-79260066D01*
X109331432Y-79062046D01*
X109233885Y-78879550D01*
X109181902Y-78816209D01*
X109102610Y-78719589D01*
X108942652Y-78588317D01*
X108942653Y-78588317D01*
X108942650Y-78588315D01*
X108760154Y-78490768D01*
X108562134Y-78430700D01*
X108562132Y-78430699D01*
X108562134Y-78430699D01*
X108356200Y-78410417D01*
X108150267Y-78430699D01*
X107974892Y-78483898D01*
X107953229Y-78490470D01*
X107952243Y-78490769D01*
X107842098Y-78549643D01*
X107769750Y-78588315D01*
X107769748Y-78588316D01*
X107769747Y-78588317D01*
X107609789Y-78719589D01*
X107478517Y-78879547D01*
X107380969Y-79062043D01*
X107380968Y-79062045D01*
X107380968Y-79062046D01*
X107374098Y-79084692D01*
X107320899Y-79260067D01*
X107300617Y-79466000D01*
X100803104Y-79466000D01*
X100946704Y-79032264D01*
X100947803Y-79029095D01*
X101394547Y-77795752D01*
X107305700Y-77795752D01*
X107317331Y-77854229D01*
X107317332Y-77854230D01*
X107361647Y-77920552D01*
X107427969Y-77964867D01*
X107427970Y-77964868D01*
X107486447Y-77976499D01*
X107486450Y-77976500D01*
X107486452Y-77976500D01*
X109225950Y-77976500D01*
X109225951Y-77976499D01*
X109240768Y-77973552D01*
X109284429Y-77964868D01*
X109284429Y-77964867D01*
X109284431Y-77964867D01*
X109350752Y-77920552D01*
X109395067Y-77854231D01*
X109395067Y-77854229D01*
X109395068Y-77854229D01*
X109406699Y-77795752D01*
X109406700Y-77795750D01*
X109406700Y-76056249D01*
X109406699Y-76056247D01*
X109395068Y-75997770D01*
X109395067Y-75997769D01*
X109350752Y-75931447D01*
X109284430Y-75887132D01*
X109284429Y-75887131D01*
X109225952Y-75875500D01*
X109225948Y-75875500D01*
X107486452Y-75875500D01*
X107486447Y-75875500D01*
X107427970Y-75887131D01*
X107427969Y-75887132D01*
X107361647Y-75931447D01*
X107317332Y-75997769D01*
X107317331Y-75997770D01*
X107305700Y-76056247D01*
X107305700Y-77795752D01*
X101394547Y-77795752D01*
X101434251Y-77686140D01*
X101435461Y-77682940D01*
X101959044Y-76354048D01*
X101960335Y-76350902D01*
X102086000Y-76056247D01*
X102520670Y-75037045D01*
X102522007Y-75034026D01*
X103118672Y-73736204D01*
X103120145Y-73733116D01*
X103312062Y-73344514D01*
X103752613Y-72452466D01*
X103754118Y-72449522D01*
X104421992Y-71186854D01*
X104423606Y-71183904D01*
X105126288Y-69940350D01*
X105127963Y-69937478D01*
X105864973Y-68713884D01*
X105866755Y-68711018D01*
X106637460Y-67508439D01*
X106639307Y-67505643D01*
X107443171Y-66324913D01*
X107445099Y-66322165D01*
X108281451Y-65164269D01*
X108283443Y-65161591D01*
X109151656Y-64027396D01*
X109153773Y-64024709D01*
X109204197Y-63962500D01*
X110053167Y-62915101D01*
X110055314Y-62912526D01*
X110613263Y-62262004D01*
X133272932Y-62262004D01*
X133291977Y-62516154D01*
X133291978Y-62516157D01*
X133348692Y-62764637D01*
X133441807Y-63001888D01*
X133569241Y-63222612D01*
X133728150Y-63421877D01*
X133914983Y-63595232D01*
X134125566Y-63738805D01*
X134125571Y-63738807D01*
X134125572Y-63738808D01*
X134125573Y-63738809D01*
X134247528Y-63797538D01*
X134355192Y-63849387D01*
X134355193Y-63849387D01*
X134355196Y-63849389D01*
X134598742Y-63924513D01*
X134850765Y-63962500D01*
X135105635Y-63962500D01*
X135357658Y-63924513D01*
X135601204Y-63849389D01*
X135830834Y-63738805D01*
X136041417Y-63595232D01*
X136228250Y-63421877D01*
X136387159Y-63222612D01*
X136514593Y-63001888D01*
X136607708Y-62764637D01*
X136664422Y-62516157D01*
X136683468Y-62262004D01*
X162372932Y-62262004D01*
X162391977Y-62516154D01*
X162391978Y-62516157D01*
X162448692Y-62764637D01*
X162541807Y-63001888D01*
X162669241Y-63222612D01*
X162828150Y-63421877D01*
X163014983Y-63595232D01*
X163225566Y-63738805D01*
X163225571Y-63738807D01*
X163225572Y-63738808D01*
X163225573Y-63738809D01*
X163347528Y-63797538D01*
X163455192Y-63849387D01*
X163455193Y-63849387D01*
X163455196Y-63849389D01*
X163698742Y-63924513D01*
X163950765Y-63962500D01*
X164205635Y-63962500D01*
X164457658Y-63924513D01*
X164701204Y-63849389D01*
X164930834Y-63738805D01*
X165141417Y-63595232D01*
X165328250Y-63421877D01*
X165487159Y-63222612D01*
X165614593Y-63001888D01*
X165707708Y-62764637D01*
X165764422Y-62516157D01*
X165783468Y-62262000D01*
X165764422Y-62007843D01*
X165707708Y-61759363D01*
X165614593Y-61522112D01*
X165487159Y-61301388D01*
X165328250Y-61102123D01*
X165141417Y-60928768D01*
X164930834Y-60785195D01*
X164930830Y-60785193D01*
X164930827Y-60785191D01*
X164930826Y-60785190D01*
X164701206Y-60674612D01*
X164701208Y-60674612D01*
X164457666Y-60599489D01*
X164457662Y-60599488D01*
X164457658Y-60599487D01*
X164336431Y-60581214D01*
X164205640Y-60561500D01*
X164205635Y-60561500D01*
X163950765Y-60561500D01*
X163950759Y-60561500D01*
X163793809Y-60585157D01*
X163698742Y-60599487D01*
X163698739Y-60599488D01*
X163698733Y-60599489D01*
X163455192Y-60674612D01*
X163225573Y-60785190D01*
X163225572Y-60785191D01*
X163014982Y-60928768D01*
X162828152Y-61102121D01*
X162828150Y-61102123D01*
X162669241Y-61301388D01*
X162541808Y-61522109D01*
X162448692Y-61759362D01*
X162448690Y-61759369D01*
X162391977Y-62007845D01*
X162372932Y-62261995D01*
X162372932Y-62262004D01*
X136683468Y-62262004D01*
X136683468Y-62262000D01*
X136664422Y-62007843D01*
X136607708Y-61759363D01*
X136514593Y-61522112D01*
X136387159Y-61301388D01*
X136228250Y-61102123D01*
X136041417Y-60928768D01*
X135830834Y-60785195D01*
X135830830Y-60785193D01*
X135830827Y-60785191D01*
X135830826Y-60785190D01*
X135601206Y-60674612D01*
X135601208Y-60674612D01*
X135357666Y-60599489D01*
X135357662Y-60599488D01*
X135357658Y-60599487D01*
X135236431Y-60581214D01*
X135105640Y-60561500D01*
X135105635Y-60561500D01*
X134850765Y-60561500D01*
X134850759Y-60561500D01*
X134693809Y-60585157D01*
X134598742Y-60599487D01*
X134598739Y-60599488D01*
X134598733Y-60599489D01*
X134355192Y-60674612D01*
X134125573Y-60785190D01*
X134125572Y-60785191D01*
X133914982Y-60928768D01*
X133728152Y-61102121D01*
X133728150Y-61102123D01*
X133569241Y-61301388D01*
X133441808Y-61522109D01*
X133348692Y-61759362D01*
X133348690Y-61759369D01*
X133291977Y-62007845D01*
X133272932Y-62261995D01*
X133272932Y-62262004D01*
X110613263Y-62262004D01*
X110985228Y-61828323D01*
X110987447Y-61825808D01*
X111947153Y-60767858D01*
X111949444Y-60765402D01*
X112938142Y-59734589D01*
X112940515Y-59732182D01*
X113957512Y-58729225D01*
X113959995Y-58726845D01*
X115004415Y-57752606D01*
X115006968Y-57750290D01*
X116078127Y-56805406D01*
X116080662Y-56803232D01*
X117177670Y-55888492D01*
X117180290Y-55886369D01*
X118302346Y-55002443D01*
X118305003Y-55000410D01*
X119451104Y-54148087D01*
X119453893Y-54146072D01*
X120623301Y-53325896D01*
X120626083Y-53324003D01*
X121817814Y-52536669D01*
X121820682Y-52534830D01*
X123033884Y-51780900D01*
X123036693Y-51779208D01*
X124270424Y-51059269D01*
X124273318Y-51057634D01*
X125526596Y-50372264D01*
X125529553Y-50370701D01*
X126801312Y-49720480D01*
X126804292Y-49719007D01*
X128093713Y-49104352D01*
X128096708Y-49102975D01*
X129402683Y-48524416D01*
X129405817Y-48523079D01*
X130727319Y-47981068D01*
X130730411Y-47979849D01*
X132066558Y-47474748D01*
X132069656Y-47473626D01*
X133419318Y-47005867D01*
X133422509Y-47004811D01*
X134784558Y-46574781D01*
X134787756Y-46573819D01*
X136161291Y-46181800D01*
X136164592Y-46180907D01*
X137548432Y-45827237D01*
X137551748Y-45826439D01*
X138944911Y-45511369D01*
X138948208Y-45510671D01*
X140349565Y-45234455D01*
X140352892Y-45233846D01*
X141761460Y-44996679D01*
X141764741Y-44996173D01*
X143179362Y-44798252D01*
X143182683Y-44797835D01*
X144602231Y-44639317D01*
X144605559Y-44638992D01*
X146028974Y-44519996D01*
X146032350Y-44519762D01*
X147458459Y-44440383D01*
X147461846Y-44440242D01*
X148889610Y-44400538D01*
X148893057Y-44400490D01*
X150321343Y-44400490D01*
X150324790Y-44400538D01*
G37*
%TD.AperFunction*%
%TD*%
M02*
