  0
SECTION
  2
HEADER
  9
$ANGBASE
  50
0.0
  9
$ANGDIR
  70
1
  9
$MEASUREMENT
  70
1
  0
ENDSEC
  0
SECTION
  2
TABLES
  0
TABLE
  2
LTYPE
  70
4
  0
LTYPE
  5
40F
  2
CONTINUOUS
  70
0
  3
Solid line
  72
65
  73
0
  40
0.0
  0
LTYPE
  5
410
  2
DASHDOT
 70
0
  3
Dash Dot ____ _ ____ _
 72
65
 73
4
 40
2.0
 49
1.25
 49
-0.25
 49
0.25
 49
-0.25
  0
LTYPE
  5
411
  2
DASHED
 70
0
  3
Dashed __ __ __ __ __
 72
65
 73
2
 40
0.75
 49
0.5
 49
-0.25
  0
LTYPE
  5
43B
  2
DOTTED
 70
0
  3
Dotted .  .  .  .
 72
65
 73
2
 40
0.2
 49
0.0
 49
-0.2
  0
ENDTAB
  0
TABLE
  2
STYLE
  70
4
  0
STYLE
  2
KICAD
  70
0
  40
0
  41
1
  42
1
  50
0
  71
0
  3
isocp.shx
  0
STYLE
  2
KICADB
  70
0
  40
0
  41
1
  42
1
  50
0
  71
0
  3
isocp.shx
  0
STYLE
  2
KICADI
  70
0
  40
0
  41
1
  42
1
  50
15
  71
0
  3
isocp.shx
  0
STYLE
  2
KICADBI
  70
0
  40
0
  41
1
  42
1
  50
15
  71
0
  3
isocp.shx
  0
ENDTAB
  0
TABLE
  2
LAYER
  70
1
  0
LAYER
  2
BLACK
  70
0
  62
7
  6
CONTINUOUS
  0
ENDTAB
  0
ENDSEC
  0
SECTION
  2
ENTITIES
0
LINE
8
BLACK
6
CONTINUOUS
10
164.1714139999999986
20
-118.0450139999999948
11
171.7571999999999832
21
-110.4592269999999985
0
LINE
8
BLACK
6
CONTINUOUS
10
164.1714139999999986
20
-73.7450139999999976
11
135.0429869999999823
21
-73.7450139999999976
0
LINE
8
BLACK
6
CONTINUOUS
10
158.607200000000006
20
-126.0450139999999948
11
149.607200000000006
21
-126.0450139999999948
0
LINE
8
BLACK
6
CONTINUOUS
10
171.7571999999999832
20
-81.3307999999999964
11
164.1714139999999986
21
-73.7450139999999976
0
LINE
8
BLACK
6
CONTINUOUS
10
135.0429869999999823
20
-73.7450139999999976
11
127.4572000000000003
21
-81.3307999999999964
0
LINE
8
BLACK
6
CONTINUOUS
10
180.7571999999999832
20
-102.3950139999999891
11
180.7571999999999832
21
-89.3950139999999891
0
LINE
8
BLACK
6
CONTINUOUS
10
135.0429869999999823
20
-118.0450139999999948
11
140.607200000000006
21
-118.0450139999999948
0
LINE
8
BLACK
6
CONTINUOUS
10
140.607200000000006
20
-118.0450139999999948
11
140.607200000000006
21
-126.0450139999999948
0
LINE
8
BLACK
6
CONTINUOUS
10
158.607200000000006
20
-118.0450139999999948
11
164.1714139999999986
21
-118.0450139999999948
0
LINE
8
BLACK
6
CONTINUOUS
10
171.7571999999999832
20
-102.3950139999999891
11
180.7571999999999832
21
-102.3950139999999891
0
LINE
8
BLACK
6
CONTINUOUS
10
171.7571999999999832
20
-89.3950139999999891
11
171.7571999999999832
21
-81.3307999999999964
0
LINE
8
BLACK
6
CONTINUOUS
10
140.607200000000006
20
-126.0450139999999948
11
149.607200000000006
21
-126.0450139999999948
0
LINE
8
BLACK
6
CONTINUOUS
10
180.7571999999999832
20
-89.3950139999999891
11
171.7571999999999832
21
-89.3950139999999891
0
LINE
8
BLACK
6
CONTINUOUS
10
171.7571999999999832
20
-110.4592269999999985
11
171.7571999999999832
21
-102.3950139999999891
0
CIRCLE
8
BLACK
10
149.607200000000006
20
-95.8950139999999891
40
52.
0
LINE
8
BLACK
6
CONTINUOUS
10
127.4572000000000003
20
-81.3307999999999964
11
127.4572000000000003
21
-110.4592269999999985
0
LINE
8
BLACK
6
CONTINUOUS
10
127.4572000000000003
20
-110.4592269999999985
11
135.0429869999999823
21
-118.0450139999999948
0
LINE
8
BLACK
6
CONTINUOUS
10
158.607200000000006
20
-118.0450139999999948
11
158.607200000000006
21
-126.0450139999999948
0
LINE
8
BLACK
6
CONTINUOUS
10
141.6681999999999846
20
-138.8919999999999959
11
142.6881999999999948
21
-139.9120000000000061
0
LINE
8
BLACK
6
CONTINUOUS
10
142.6881999999999948
20
-138.8919999999999959
11
141.6681999999999846
21
-139.9120000000000061
0
LINE
8
BLACK
6
CONTINUOUS
10
156.6681999999999846
20
-138.8919999999999959
11
157.6881999999999948
21
-139.9120000000000061
0
LINE
8
BLACK
6
CONTINUOUS
10
157.6881999999999948
20
-138.8919999999999959
11
156.6681999999999846
21
-139.9120000000000061
0
LINE
8
BLACK
6
CONTINUOUS
10
100.1149679999999904
20
-151.1098519999999894
11
100.1149679999999904
21
-149.1098519999999894
0
LINE
8
BLACK
6
CONTINUOUS
10
100.1149679999999904
20
-149.1098519999999894
11
100.591157999999993
21
-149.1098519999999894
0
LINE
8
BLACK
6
CONTINUOUS
10
100.591157999999993
20
-149.1098519999999894
11
100.8768729999999891
21
-149.2050899999999842
0
LINE
8
BLACK
6
CONTINUOUS
10
100.8768729999999891
20
-149.2050899999999842
11
101.067348999999993
21
-149.3955660000000023
0
LINE
8
BLACK
6
CONTINUOUS
10
101.067348999999993
20
-149.3955660000000023
11
101.162587000000002
21
-149.586041999999992
0
LINE
8
BLACK
6
CONTINUOUS
10
101.162587000000002
20
-149.586041999999992
11
101.2578249999999969
21
-149.9669939999999997
0
LINE
8
BLACK
6
CONTINUOUS
10
101.2578249999999969
20
-149.9669939999999997
11
101.2578249999999969
21
-150.2527089999999816
0
LINE
8
BLACK
6
CONTINUOUS
10
101.2578249999999969
20
-150.2527089999999816
11
101.162587000000002
21
-150.6336609999999894
0
LINE
8
BLACK
6
CONTINUOUS
10
101.162587000000002
20
-150.6336609999999894
11
101.067348999999993
21
-150.824136999999979
0
LINE
8
BLACK
6
CONTINUOUS
10
101.067348999999993
20
-150.824136999999979
11
100.8768729999999891
21
-151.0146139999999946
0
LINE
8
BLACK
6
CONTINUOUS
10
100.8768729999999891
20
-151.0146139999999946
11
100.591157999999993
21
-151.1098519999999894
0
LINE
8
BLACK
6
CONTINUOUS
10
100.591157999999993
20
-151.1098519999999894
11
100.1149679999999904
21
-151.1098519999999894
0
LINE
8
BLACK
6
CONTINUOUS
10
102.1149679999999904
20
-151.1098519999999894
11
102.1149679999999904
21
-149.7765179999999816
0
LINE
8
BLACK
6
CONTINUOUS
10
102.1149679999999904
20
-150.1574709999999868
11
102.2102059999999994
21
-149.9669939999999997
0
LINE
8
BLACK
6
CONTINUOUS
10
102.2102059999999994
20
-149.9669939999999997
11
102.3054439999999943
21
-149.8717560000000049
0
LINE
8
BLACK
6
CONTINUOUS
10
102.3054439999999943
20
-149.8717560000000049
11
102.4959199999999981
21
-149.7765179999999816
0
LINE
8
BLACK
6
CONTINUOUS
10
102.4959199999999981
20
-149.7765179999999816
11
102.6863969999999995
21
-149.7765179999999816
0
LINE
8
BLACK
6
CONTINUOUS
10
103.3530629999999917
20
-151.1098519999999894
11
103.3530629999999917
21
-149.7765179999999816
0
LINE
8
BLACK
6
CONTINUOUS
10
103.3530629999999917
20
-149.1098519999999894
11
103.2578249999999969
21
-149.2050899999999842
0
LINE
8
BLACK
6
CONTINUOUS
10
103.2578249999999969
20
-149.2050899999999842
11
103.3530629999999917
21
-149.3003279999999791
0
LINE
8
BLACK
6
CONTINUOUS
10
103.3530629999999917
20
-149.3003279999999791
11
103.4483010000000007
21
-149.2050899999999842
0
LINE
8
BLACK
6
CONTINUOUS
10
103.4483010000000007
20
-149.2050899999999842
11
103.3530629999999917
21
-149.1098519999999894
0
LINE
8
BLACK
6
CONTINUOUS
10
103.3530629999999917
20
-149.1098519999999894
11
103.3530629999999917
21
-149.3003279999999791
0
LINE
8
BLACK
6
CONTINUOUS
10
104.591157999999993
20
-151.1098519999999894
11
104.4006819999999891
21
-151.0146139999999946
0
LINE
8
BLACK
6
CONTINUOUS
10
104.4006819999999891
20
-151.0146139999999946
11
104.3054439999999943
21
-150.824136999999979
0
LINE
8
BLACK
6
CONTINUOUS
10
104.3054439999999943
20
-150.824136999999979
11
104.3054439999999943
21
-149.1098519999999894
0
LINE
8
BLACK
6
CONTINUOUS
10
105.6387769999999904
20
-151.1098519999999894
11
105.4483010000000007
21
-151.0146139999999946
0
LINE
8
BLACK
6
CONTINUOUS
10
105.4483010000000007
20
-151.0146139999999946
11
105.3530629999999917
21
-150.824136999999979
0
LINE
8
BLACK
6
CONTINUOUS
10
105.3530629999999917
20
-150.824136999999979
11
105.3530629999999917
21
-149.1098519999999894
0
LINE
8
BLACK
6
CONTINUOUS
10
107.9244920000000008
20
-151.1098519999999894
11
107.9244920000000008
21
-149.1098519999999894
0
LINE
8
BLACK
6
CONTINUOUS
10
107.9244920000000008
20
-149.1098519999999894
11
108.5911589999999904
21
-150.5384229999999945
0
LINE
8
BLACK
6
CONTINUOUS
10
108.5911589999999904
20
-150.5384229999999945
11
109.2578249999999969
21
-149.1098519999999894
0
LINE
8
BLACK
6
CONTINUOUS
10
109.2578249999999969
20
-149.1098519999999894
11
109.2578249999999969
21
-151.1098519999999894
0
LINE
8
BLACK
6
CONTINUOUS
10
111.067348999999993
20
-151.1098519999999894
11
111.067348999999993
21
-150.062232999999992
0
LINE
8
BLACK
6
CONTINUOUS
10
111.067348999999993
20
-150.062232999999992
11
110.9721109999999982
21
-149.8717560000000049
0
LINE
8
BLACK
6
CONTINUOUS
10
110.9721109999999982
20
-149.8717560000000049
11
110.7816349999999943
21
-149.7765179999999816
0
LINE
8
BLACK
6
CONTINUOUS
10
110.7816349999999943
20
-149.7765179999999816
11
110.4006819999999891
21
-149.7765179999999816
0
LINE
8
BLACK
6
CONTINUOUS
10
110.4006819999999891
20
-149.7765179999999816
11
110.2102059999999994
21
-149.8717560000000049
0
LINE
8
BLACK
6
CONTINUOUS
10
111.067348999999993
20
-151.0146139999999946
11
110.8768729999999891
21
-151.1098519999999894
0
LINE
8
BLACK
6
CONTINUOUS
10
110.8768729999999891
20
-151.1098519999999894
11
110.4006819999999891
21
-151.1098519999999894
0
LINE
8
BLACK
6
CONTINUOUS
10
110.4006819999999891
20
-151.1098519999999894
11
110.2102059999999994
21
-151.0146139999999946
0
LINE
8
BLACK
6
CONTINUOUS
10
110.2102059999999994
20
-151.0146139999999946
11
110.1149679999999904
21
-150.824136999999979
0
LINE
8
BLACK
6
CONTINUOUS
10
110.1149679999999904
20
-150.824136999999979
11
110.1149679999999904
21
-150.6336609999999894
0
LINE
8
BLACK
6
CONTINUOUS
10
110.1149679999999904
20
-150.6336609999999894
11
110.2102059999999994
21
-150.4431849999999997
0
LINE
8
BLACK
6
CONTINUOUS
10
110.2102059999999994
20
-150.4431849999999997
11
110.4006819999999891
21
-150.3479470000000049
0
LINE
8
BLACK
6
CONTINUOUS
10
110.4006819999999891
20
-150.3479470000000049
11
110.8768729999999891
21
-150.3479470000000049
0
LINE
8
BLACK
6
CONTINUOUS
10
110.8768729999999891
20
-150.3479470000000049
11
111.067348999999993
21
-150.2527089999999816
0
LINE
8
BLACK
6
CONTINUOUS
10
112.0197299999999956
20
-149.7765179999999816
11
112.0197299999999956
21
-151.7765179999999816
0
LINE
8
BLACK
6
CONTINUOUS
10
112.0197299999999956
20
-149.8717560000000049
11
112.2102059999999994
21
-149.7765179999999816
0
LINE
8
BLACK
6
CONTINUOUS
10
112.2102059999999994
20
-149.7765179999999816
11
112.5911589999999904
21
-149.7765179999999816
0
LINE
8
BLACK
6
CONTINUOUS
10
112.5911589999999904
20
-149.7765179999999816
11
112.7816349999999943
21
-149.8717560000000049
0
LINE
8
BLACK
6
CONTINUOUS
10
112.7816349999999943
20
-149.8717560000000049
11
112.8768729999999891
21
-149.9669939999999997
0
LINE
8
BLACK
6
CONTINUOUS
10
112.8768729999999891
20
-149.9669939999999997
11
112.9721109999999982
21
-150.1574709999999868
0
LINE
8
BLACK
6
CONTINUOUS
10
112.9721109999999982
20
-150.1574709999999868
11
112.9721109999999982
21
-150.7288989999999842
0
LINE
8
BLACK
6
CONTINUOUS
10
112.9721109999999982
20
-150.7288989999999842
11
112.8768729999999891
21
-150.9193750000000023
0
LINE
8
BLACK
6
CONTINUOUS
10
112.8768729999999891
20
-150.9193750000000023
11
112.7816349999999943
21
-151.0146139999999946
0
LINE
8
BLACK
6
CONTINUOUS
10
112.7816349999999943
20
-151.0146139999999946
11
112.5911589999999904
21
-151.1098519999999894
0
LINE
8
BLACK
6
CONTINUOUS
10
112.5911589999999904
20
-151.1098519999999894
11
112.2102059999999994
21
-151.1098519999999894
0
LINE
8
BLACK
6
CONTINUOUS
10
112.2102059999999994
20
-151.1098519999999894
11
112.0197299999999956
21
-151.0146139999999946
0
LINE
8
BLACK
6
CONTINUOUS
10
113.8292539999999917
20
-150.9193750000000023
11
113.9244920000000008
21
-151.0146139999999946
0
LINE
8
BLACK
6
CONTINUOUS
10
113.9244920000000008
20
-151.0146139999999946
11
113.8292539999999917
21
-151.1098519999999894
0
LINE
8
BLACK
6
CONTINUOUS
10
113.8292539999999917
20
-151.1098519999999894
11
113.7340159999999969
21
-151.0146139999999946
0
LINE
8
BLACK
6
CONTINUOUS
10
113.7340159999999969
20
-151.0146139999999946
11
113.8292539999999917
21
-150.9193750000000023
0
LINE
8
BLACK
6
CONTINUOUS
10
113.8292539999999917
20
-150.9193750000000023
11
113.8292539999999917
21
-151.1098519999999894
0
LINE
8
BLACK
6
CONTINUOUS
10
113.8292539999999917
20
-149.8717560000000049
11
113.9244920000000008
21
-149.9669939999999997
0
LINE
8
BLACK
6
CONTINUOUS
10
113.9244920000000008
20
-149.9669939999999997
11
113.8292539999999917
21
-150.062232999999992
0
LINE
8
BLACK
6
CONTINUOUS
10
113.8292539999999917
20
-150.062232999999992
11
113.7340159999999969
21
-149.9669939999999997
0
LINE
8
BLACK
6
CONTINUOUS
10
113.7340159999999969
20
-149.9669939999999997
11
113.8292539999999917
21
-149.8717560000000049
0
LINE
8
BLACK
6
CONTINUOUS
10
113.8292539999999917
20
-149.8717560000000049
11
113.8292539999999917
21
-150.062232999999992
0
LINE
8
BLACK
6
CONTINUOUS
10
96.4872000000000014
20
-153.885013999999984
11
97.5071999999999974
21
-154.9050139999999942
0
LINE
8
BLACK
6
CONTINUOUS
10
97.5071999999999974
20
-153.885013999999984
11
96.4872000000000014
21
-154.9050139999999942
0
LINE
8
BLACK
6
CONTINUOUS
10
101.162587000000002
20
-155.3098520000000065
11
100.0197299999999956
21
-155.3098520000000065
0
LINE
8
BLACK
6
CONTINUOUS
10
100.591157999999993
20
-155.3098520000000065
11
100.591157999999993
21
-153.3098520000000065
0
LINE
8
BLACK
6
CONTINUOUS
10
100.591157999999993
20
-153.3098520000000065
11
100.4006819999999891
21
-153.5955659999999909
0
LINE
8
BLACK
6
CONTINUOUS
10
100.4006819999999891
20
-153.5955659999999909
11
100.2102059999999994
21
-153.7860419999999806
0
LINE
8
BLACK
6
CONTINUOUS
10
100.2102059999999994
20
-153.7860419999999806
11
100.0197299999999956
21
-153.8812800000000038
0
LINE
8
BLACK
6
CONTINUOUS
10
102.0197299999999956
20
-155.1193749999999909
11
102.1149679999999904
21
-155.2146139999999832
0
LINE
8
BLACK
6
CONTINUOUS
10
102.1149679999999904
20
-155.2146139999999832
11
102.0197299999999956
21
-155.3098520000000065
0
LINE
8
BLACK
6
CONTINUOUS
10
102.0197299999999956
20
-155.3098520000000065
11
101.9244920000000008
21
-155.2146139999999832
0
LINE
8
BLACK
6
CONTINUOUS
10
101.9244920000000008
20
-155.2146139999999832
11
102.0197299999999956
21
-155.1193749999999909
0
LINE
8
BLACK
6
CONTINUOUS
10
102.0197299999999956
20
-155.1193749999999909
11
102.0197299999999956
21
-155.3098520000000065
0
LINE
8
BLACK
6
CONTINUOUS
10
103.3530629999999917
20
-153.3098520000000065
11
103.543539999999993
21
-153.3098520000000065
0
LINE
8
BLACK
6
CONTINUOUS
10
103.543539999999993
20
-153.3098520000000065
11
103.7340159999999969
21
-153.4050900000000013
0
LINE
8
BLACK
6
CONTINUOUS
10
103.7340159999999969
20
-153.4050900000000013
11
103.8292539999999917
21
-153.5003279999999961
0
LINE
8
BLACK
6
CONTINUOUS
10
103.8292539999999917
20
-153.5003279999999961
11
103.9244920000000008
21
-153.6908039999999858
0
LINE
8
BLACK
6
CONTINUOUS
10
103.9244920000000008
20
-153.6908039999999858
11
104.0197299999999956
21
-154.0717559999999935
0
LINE
8
BLACK
6
CONTINUOUS
10
104.0197299999999956
20
-154.0717559999999935
11
104.0197299999999956
21
-154.5479469999999935
0
LINE
8
BLACK
6
CONTINUOUS
10
104.0197299999999956
20
-154.5479469999999935
11
103.9244920000000008
21
-154.9288990000000013
0
LINE
8
BLACK
6
CONTINUOUS
10
103.9244920000000008
20
-154.9288990000000013
11
103.8292539999999917
21
-155.1193749999999909
0
LINE
8
BLACK
6
CONTINUOUS
10
103.8292539999999917
20
-155.1193749999999909
11
103.7340159999999969
21
-155.2146139999999832
0
LINE
8
BLACK
6
CONTINUOUS
10
103.7340159999999969
20
-155.2146139999999832
11
103.543539999999993
21
-155.3098520000000065
0
LINE
8
BLACK
6
CONTINUOUS
10
103.543539999999993
20
-155.3098520000000065
11
103.3530629999999917
21
-155.3098520000000065
0
LINE
8
BLACK
6
CONTINUOUS
10
103.3530629999999917
20
-155.3098520000000065
11
103.162587000000002
21
-155.2146139999999832
0
LINE
8
BLACK
6
CONTINUOUS
10
103.162587000000002
20
-155.2146139999999832
11
103.067348999999993
21
-155.1193749999999909
0
LINE
8
BLACK
6
CONTINUOUS
10
103.067348999999993
20
-155.1193749999999909
11
102.9721109999999982
21
-154.9288990000000013
0
LINE
8
BLACK
6
CONTINUOUS
10
102.9721109999999982
20
-154.9288990000000013
11
102.8768729999999891
21
-154.5479469999999935
0
LINE
8
BLACK
6
CONTINUOUS
10
102.8768729999999891
20
-154.5479469999999935
11
102.8768729999999891
21
-154.0717559999999935
0
LINE
8
BLACK
6
CONTINUOUS
10
102.8768729999999891
20
-154.0717559999999935
11
102.9721109999999982
21
-153.6908039999999858
0
LINE
8
BLACK
6
CONTINUOUS
10
102.9721109999999982
20
-153.6908039999999858
11
103.067348999999993
21
-153.5003279999999961
0
LINE
8
BLACK
6
CONTINUOUS
10
103.067348999999993
20
-153.5003279999999961
11
103.162587000000002
21
-153.4050900000000013
0
LINE
8
BLACK
6
CONTINUOUS
10
103.162587000000002
20
-153.4050900000000013
11
103.3530629999999917
21
-153.3098520000000065
0
LINE
8
BLACK
6
CONTINUOUS
10
104.7816349999999943
20
-153.5003279999999961
11
104.8768729999999891
21
-153.4050900000000013
0
LINE
8
BLACK
6
CONTINUOUS
10
104.8768729999999891
20
-153.4050900000000013
11
105.067348999999993
21
-153.3098520000000065
0
LINE
8
BLACK
6
CONTINUOUS
10
105.067348999999993
20
-153.3098520000000065
11
105.543539999999993
21
-153.3098520000000065
0
LINE
8
BLACK
6
CONTINUOUS
10
105.543539999999993
20
-153.3098520000000065
11
105.7340159999999969
21
-153.4050900000000013
0
LINE
8
BLACK
6
CONTINUOUS
10
105.7340159999999969
20
-153.4050900000000013
11
105.8292539999999917
21
-153.5003279999999961
0
LINE
8
BLACK
6
CONTINUOUS
10
105.8292539999999917
20
-153.5003279999999961
11
105.9244920000000008
21
-153.6908039999999858
0
LINE
8
BLACK
6
CONTINUOUS
10
105.9244920000000008
20
-153.6908039999999858
11
105.9244920000000008
21
-153.8812800000000038
0
LINE
8
BLACK
6
CONTINUOUS
10
105.9244920000000008
20
-153.8812800000000038
11
105.8292539999999917
21
-154.1669939999999883
0
LINE
8
BLACK
6
CONTINUOUS
10
105.8292539999999917
20
-154.1669939999999883
11
104.6863969999999995
21
-155.3098520000000065
0
LINE
8
BLACK
6
CONTINUOUS
10
104.6863969999999995
20
-155.3098520000000065
11
105.9244920000000008
21
-155.3098520000000065
0
LINE
8
BLACK
6
CONTINUOUS
10
107.162587000000002
20
-153.3098520000000065
11
107.3530639999999892
21
-153.3098520000000065
0
LINE
8
BLACK
6
CONTINUOUS
10
107.3530639999999892
20
-153.3098520000000065
11
107.543539999999993
21
-153.4050900000000013
0
LINE
8
BLACK
6
CONTINUOUS
10
107.543539999999993
20
-153.4050900000000013
11
107.6387780000000021
21
-153.5003279999999961
0
LINE
8
BLACK
6
CONTINUOUS
10
107.6387780000000021
20
-153.5003279999999961
11
107.7340159999999969
21
-153.6908039999999858
0
LINE
8
BLACK
6
CONTINUOUS
10
107.7340159999999969
20
-153.6908039999999858
11
107.8292539999999917
21
-154.0717559999999935
0
LINE
8
BLACK
6
CONTINUOUS
10
107.8292539999999917
20
-154.0717559999999935
11
107.8292539999999917
21
-154.5479469999999935
0
LINE
8
BLACK
6
CONTINUOUS
10
107.8292539999999917
20
-154.5479469999999935
11
107.7340159999999969
21
-154.9288990000000013
0
LINE
8
BLACK
6
CONTINUOUS
10
107.7340159999999969
20
-154.9288990000000013
11
107.6387780000000021
21
-155.1193749999999909
0
LINE
8
BLACK
6
CONTINUOUS
10
107.6387780000000021
20
-155.1193749999999909
11
107.543539999999993
21
-155.2146139999999832
0
LINE
8
BLACK
6
CONTINUOUS
10
107.543539999999993
20
-155.2146139999999832
11
107.3530639999999892
21
-155.3098520000000065
0
LINE
8
BLACK
6
CONTINUOUS
10
107.3530639999999892
20
-155.3098520000000065
11
107.162587000000002
21
-155.3098520000000065
0
LINE
8
BLACK
6
CONTINUOUS
10
107.162587000000002
20
-155.3098520000000065
11
106.9721109999999982
21
-155.2146139999999832
0
LINE
8
BLACK
6
CONTINUOUS
10
106.9721109999999982
20
-155.2146139999999832
11
106.8768729999999891
21
-155.1193749999999909
0
LINE
8
BLACK
6
CONTINUOUS
10
106.8768729999999891
20
-155.1193749999999909
11
106.7816349999999943
21
-154.9288990000000013
0
LINE
8
BLACK
6
CONTINUOUS
10
106.7816349999999943
20
-154.9288990000000013
11
106.6863969999999995
21
-154.5479469999999935
0
LINE
8
BLACK
6
CONTINUOUS
10
106.6863969999999995
20
-154.5479469999999935
11
106.6863969999999995
21
-154.0717559999999935
0
LINE
8
BLACK
6
CONTINUOUS
10
106.6863969999999995
20
-154.0717559999999935
11
106.7816349999999943
21
-153.6908039999999858
0
LINE
8
BLACK
6
CONTINUOUS
10
106.7816349999999943
20
-153.6908039999999858
11
106.8768729999999891
21
-153.5003279999999961
0
LINE
8
BLACK
6
CONTINUOUS
10
106.8768729999999891
20
-153.5003279999999961
11
106.9721109999999982
21
-153.4050900000000013
0
LINE
8
BLACK
6
CONTINUOUS
10
106.9721109999999982
20
-153.4050900000000013
11
107.162587000000002
21
-153.3098520000000065
0
LINE
8
BLACK
6
CONTINUOUS
10
108.6863969999999995
20
-155.3098520000000065
11
108.6863969999999995
21
-153.9765179999999987
0
LINE
8
BLACK
6
CONTINUOUS
10
108.6863969999999995
20
-154.1669939999999883
11
108.7816349999999943
21
-154.0717559999999935
0
LINE
8
BLACK
6
CONTINUOUS
10
108.7816349999999943
20
-154.0717559999999935
11
108.9721109999999982
21
-153.9765179999999987
0
LINE
8
BLACK
6
CONTINUOUS
10
108.9721109999999982
20
-153.9765179999999987
11
109.2578259999999943
21
-153.9765179999999987
0
LINE
8
BLACK
6
CONTINUOUS
10
109.2578259999999943
20
-153.9765179999999987
11
109.4483019999999982
21
-154.0717559999999935
0
LINE
8
BLACK
6
CONTINUOUS
10
109.4483019999999982
20
-154.0717559999999935
11
109.543539999999993
21
-154.2622329999999806
0
LINE
8
BLACK
6
CONTINUOUS
10
109.543539999999993
20
-154.2622329999999806
11
109.543539999999993
21
-155.3098520000000065
0
LINE
8
BLACK
6
CONTINUOUS
10
109.543539999999993
20
-154.2622329999999806
11
109.6387780000000021
21
-154.0717559999999935
0
LINE
8
BLACK
6
CONTINUOUS
10
109.6387780000000021
20
-154.0717559999999935
11
109.8292539999999917
21
-153.9765179999999987
0
LINE
8
BLACK
6
CONTINUOUS
10
109.8292539999999917
20
-153.9765179999999987
11
110.1149679999999904
21
-153.9765179999999987
0
LINE
8
BLACK
6
CONTINUOUS
10
110.1149679999999904
20
-153.9765179999999987
11
110.3054449999999918
21
-154.0717559999999935
0
LINE
8
BLACK
6
CONTINUOUS
10
110.3054449999999918
20
-154.0717559999999935
11
110.4006830000000008
21
-154.2622329999999806
0
LINE
8
BLACK
6
CONTINUOUS
10
110.4006830000000008
20
-154.2622329999999806
11
110.4006830000000008
21
-155.3098520000000065
0
LINE
8
BLACK
6
CONTINUOUS
10
111.3530639999999892
20
-155.3098520000000065
11
111.3530639999999892
21
-153.9765179999999987
0
LINE
8
BLACK
6
CONTINUOUS
10
111.3530639999999892
20
-154.1669939999999883
11
111.4483019999999982
21
-154.0717559999999935
0
LINE
8
BLACK
6
CONTINUOUS
10
111.4483019999999982
20
-154.0717559999999935
11
111.6387779999999879
21
-153.9765179999999987
0
LINE
8
BLACK
6
CONTINUOUS
10
111.6387779999999879
20
-153.9765179999999987
11
111.9244929999999982
21
-153.9765179999999987
0
LINE
8
BLACK
6
CONTINUOUS
10
111.9244929999999982
20
-153.9765179999999987
11
112.1149689999999879
21
-154.0717559999999935
0
LINE
8
BLACK
6
CONTINUOUS
10
112.1149689999999879
20
-154.0717559999999935
11
112.2102069999999969
21
-154.2622329999999806
0
LINE
8
BLACK
6
CONTINUOUS
10
112.2102069999999969
20
-154.2622329999999806
11
112.2102069999999969
21
-155.3098520000000065
0
LINE
8
BLACK
6
CONTINUOUS
10
112.2102069999999969
20
-154.2622329999999806
11
112.3054449999999918
21
-154.0717559999999935
0
LINE
8
BLACK
6
CONTINUOUS
10
112.3054449999999918
20
-154.0717559999999935
11
112.4959209999999956
21
-153.9765179999999987
0
LINE
8
BLACK
6
CONTINUOUS
10
112.4959209999999956
20
-153.9765179999999987
11
112.7816349999999943
21
-153.9765179999999987
0
LINE
8
BLACK
6
CONTINUOUS
10
112.7816349999999943
20
-153.9765179999999987
11
112.9721119999999956
21
-154.0717559999999935
0
LINE
8
BLACK
6
CONTINUOUS
10
112.9721119999999956
20
-154.0717559999999935
11
113.0673499999999905
21
-154.2622329999999806
0
LINE
8
BLACK
6
CONTINUOUS
10
113.0673499999999905
20
-154.2622329999999806
11
113.0673499999999905
21
-155.3098520000000065
0
LINE
8
BLACK
6
CONTINUOUS
10
116.9721119999999956
20
-153.2146139999999832
11
115.2578269999999918
21
-155.7860419999999806
0
LINE
8
BLACK
6
CONTINUOUS
10
119.5435409999999905
20
-153.3098520000000065
11
119.7340179999999918
21
-153.3098520000000065
0
LINE
8
BLACK
6
CONTINUOUS
10
119.7340179999999918
20
-153.3098520000000065
11
119.9244939999999957
21
-153.4050900000000013
0
LINE
8
BLACK
6
CONTINUOUS
10
119.9244939999999957
20
-153.4050900000000013
11
120.0197319999999905
21
-153.5003279999999961
0
LINE
8
BLACK
6
CONTINUOUS
10
120.0197319999999905
20
-153.5003279999999961
11
120.1149699999999996
21
-153.6908039999999858
0
LINE
8
BLACK
6
CONTINUOUS
10
120.1149699999999996
20
-153.6908039999999858
11
120.2102079999999944
21
-154.0717559999999935
0
LINE
8
BLACK
6
CONTINUOUS
10
120.2102079999999944
20
-154.0717559999999935
11
120.2102079999999944
21
-154.5479469999999935
0
LINE
8
BLACK
6
CONTINUOUS
10
120.2102079999999944
20
-154.5479469999999935
11
120.1149699999999996
21
-154.9288990000000013
0
LINE
8
BLACK
6
CONTINUOUS
10
120.1149699999999996
20
-154.9288990000000013
11
120.0197319999999905
21
-155.1193749999999909
0
LINE
8
BLACK
6
CONTINUOUS
10
120.0197319999999905
20
-155.1193749999999909
11
119.9244939999999957
21
-155.2146139999999832
0
LINE
8
BLACK
6
CONTINUOUS
10
119.9244939999999957
20
-155.2146139999999832
11
119.7340179999999918
21
-155.3098520000000065
0
LINE
8
BLACK
6
CONTINUOUS
10
119.7340179999999918
20
-155.3098520000000065
11
119.5435409999999905
21
-155.3098520000000065
0
LINE
8
BLACK
6
CONTINUOUS
10
119.5435409999999905
20
-155.3098520000000065
11
119.3530650000000009
21
-155.2146139999999832
0
LINE
8
BLACK
6
CONTINUOUS
10
119.3530650000000009
20
-155.2146139999999832
11
119.2578269999999918
21
-155.1193749999999909
0
LINE
8
BLACK
6
CONTINUOUS
10
119.2578269999999918
20
-155.1193749999999909
11
119.162588999999997
21
-154.9288990000000013
0
LINE
8
BLACK
6
CONTINUOUS
10
119.162588999999997
20
-154.9288990000000013
11
119.0673509999999879
21
-154.5479469999999935
0
LINE
8
BLACK
6
CONTINUOUS
10
119.0673509999999879
20
-154.5479469999999935
11
119.0673509999999879
21
-154.0717559999999935
0
LINE
8
BLACK
6
CONTINUOUS
10
119.0673509999999879
20
-154.0717559999999935
11
119.162588999999997
21
-153.6908039999999858
0
LINE
8
BLACK
6
CONTINUOUS
10
119.162588999999997
20
-153.6908039999999858
11
119.2578269999999918
21
-153.5003279999999961
0
LINE
8
BLACK
6
CONTINUOUS
10
119.2578269999999918
20
-153.5003279999999961
11
119.3530650000000009
21
-153.4050900000000013
0
LINE
8
BLACK
6
CONTINUOUS
10
119.3530650000000009
20
-153.4050900000000013
11
119.5435409999999905
21
-153.3098520000000065
0
LINE
8
BLACK
6
CONTINUOUS
10
121.0673509999999879
20
-155.1193749999999909
11
121.162588999999997
21
-155.2146139999999832
0
LINE
8
BLACK
6
CONTINUOUS
10
121.162588999999997
20
-155.2146139999999832
11
121.0673509999999879
21
-155.3098520000000065
0
LINE
8
BLACK
6
CONTINUOUS
10
121.0673509999999879
20
-155.3098520000000065
11
120.9721129999999931
21
-155.2146139999999832
0
LINE
8
BLACK
6
CONTINUOUS
10
120.9721129999999931
20
-155.2146139999999832
11
121.0673509999999879
21
-155.1193749999999909
0
LINE
8
BLACK
6
CONTINUOUS
10
121.0673509999999879
20
-155.1193749999999909
11
121.0673509999999879
21
-155.3098520000000065
0
LINE
8
BLACK
6
CONTINUOUS
10
122.4006839999999983
20
-153.3098520000000065
11
122.5911609999999996
21
-153.3098520000000065
0
LINE
8
BLACK
6
CONTINUOUS
10
122.5911609999999996
20
-153.3098520000000065
11
122.7816369999999893
21
-153.4050900000000013
0
LINE
8
BLACK
6
CONTINUOUS
10
122.7816369999999893
20
-153.4050900000000013
11
122.8768749999999983
21
-153.5003279999999961
0
LINE
8
BLACK
6
CONTINUOUS
10
122.8768749999999983
20
-153.5003279999999961
11
122.9721129999999931
21
-153.6908039999999858
0
LINE
8
BLACK
6
CONTINUOUS
10
122.9721129999999931
20
-153.6908039999999858
11
123.0673509999999879
21
-154.0717559999999935
0
LINE
8
BLACK
6
CONTINUOUS
10
123.0673509999999879
20
-154.0717559999999935
11
123.0673509999999879
21
-154.5479469999999935
0
LINE
8
BLACK
6
CONTINUOUS
10
123.0673509999999879
20
-154.5479469999999935
11
122.9721129999999931
21
-154.9288990000000013
0
LINE
8
BLACK
6
CONTINUOUS
10
122.9721129999999931
20
-154.9288990000000013
11
122.8768749999999983
21
-155.1193749999999909
0
LINE
8
BLACK
6
CONTINUOUS
10
122.8768749999999983
20
-155.1193749999999909
11
122.7816369999999893
21
-155.2146139999999832
0
LINE
8
BLACK
6
CONTINUOUS
10
122.7816369999999893
20
-155.2146139999999832
11
122.5911609999999996
21
-155.3098520000000065
0
LINE
8
BLACK
6
CONTINUOUS
10
122.5911609999999996
20
-155.3098520000000065
11
122.4006839999999983
21
-155.3098520000000065
0
LINE
8
BLACK
6
CONTINUOUS
10
122.4006839999999983
20
-155.3098520000000065
11
122.2102079999999944
21
-155.2146139999999832
0
LINE
8
BLACK
6
CONTINUOUS
10
122.2102079999999944
20
-155.2146139999999832
11
122.1149699999999996
21
-155.1193749999999909
0
LINE
8
BLACK
6
CONTINUOUS
10
122.1149699999999996
20
-155.1193749999999909
11
122.0197319999999905
21
-154.9288990000000013
0
LINE
8
BLACK
6
CONTINUOUS
10
122.0197319999999905
20
-154.9288990000000013
11
121.9244939999999957
21
-154.5479469999999935
0
LINE
8
BLACK
6
CONTINUOUS
10
121.9244939999999957
20
-154.5479469999999935
11
121.9244939999999957
21
-154.0717559999999935
0
LINE
8
BLACK
6
CONTINUOUS
10
121.9244939999999957
20
-154.0717559999999935
11
122.0197319999999905
21
-153.6908039999999858
0
LINE
8
BLACK
6
CONTINUOUS
10
122.0197319999999905
20
-153.6908039999999858
11
122.1149699999999996
21
-153.5003279999999961
0
LINE
8
BLACK
6
CONTINUOUS
10
122.1149699999999996
20
-153.5003279999999961
11
122.2102079999999944
21
-153.4050900000000013
0
LINE
8
BLACK
6
CONTINUOUS
10
122.2102079999999944
20
-153.4050900000000013
11
122.4006839999999983
21
-153.3098520000000065
0
LINE
8
BLACK
6
CONTINUOUS
10
124.7816369999999893
20
-153.9765179999999987
11
124.7816369999999893
21
-155.3098520000000065
0
LINE
8
BLACK
6
CONTINUOUS
10
124.3054459999999892
20
-153.2146139999999832
11
123.8292560000000009
21
-154.6431849999999883
0
LINE
8
BLACK
6
CONTINUOUS
10
123.8292560000000009
20
-154.6431849999999883
11
125.0673509999999879
21
-154.6431849999999883
0
LINE
8
BLACK
6
CONTINUOUS
10
126.2102079999999944
20
-153.3098520000000065
11
126.4006849999999957
21
-153.3098520000000065
0
LINE
8
BLACK
6
CONTINUOUS
10
126.4006849999999957
20
-153.3098520000000065
11
126.5911609999999996
21
-153.4050900000000013
0
LINE
8
BLACK
6
CONTINUOUS
10
126.5911609999999996
20
-153.4050900000000013
11
126.6863989999999944
21
-153.5003279999999961
0
LINE
8
BLACK
6
CONTINUOUS
10
126.6863989999999944
20
-153.5003279999999961
11
126.7816369999999893
21
-153.6908039999999858
0
LINE
8
BLACK
6
CONTINUOUS
10
126.7816369999999893
20
-153.6908039999999858
11
126.8768749999999983
21
-154.0717559999999935
0
LINE
8
BLACK
6
CONTINUOUS
10
126.8768749999999983
20
-154.0717559999999935
11
126.8768749999999983
21
-154.5479469999999935
0
LINE
8
BLACK
6
CONTINUOUS
10
126.8768749999999983
20
-154.5479469999999935
11
126.7816369999999893
21
-154.9288990000000013
0
LINE
8
BLACK
6
CONTINUOUS
10
126.7816369999999893
20
-154.9288990000000013
11
126.6863989999999944
21
-155.1193749999999909
0
LINE
8
BLACK
6
CONTINUOUS
10
126.6863989999999944
20
-155.1193749999999909
11
126.5911609999999996
21
-155.2146139999999832
0
LINE
8
BLACK
6
CONTINUOUS
10
126.5911609999999996
20
-155.2146139999999832
11
126.4006849999999957
21
-155.3098520000000065
0
LINE
8
BLACK
6
CONTINUOUS
10
126.4006849999999957
20
-155.3098520000000065
11
126.2102079999999944
21
-155.3098520000000065
0
LINE
8
BLACK
6
CONTINUOUS
10
126.2102079999999944
20
-155.3098520000000065
11
126.0197319999999905
21
-155.2146139999999832
0
LINE
8
BLACK
6
CONTINUOUS
10
126.0197319999999905
20
-155.2146139999999832
11
125.9244939999999957
21
-155.1193749999999909
0
LINE
8
BLACK
6
CONTINUOUS
10
125.9244939999999957
20
-155.1193749999999909
11
125.8292560000000009
21
-154.9288990000000013
0
LINE
8
BLACK
6
CONTINUOUS
10
125.8292560000000009
20
-154.9288990000000013
11
125.7340179999999918
21
-154.5479469999999935
0
LINE
8
BLACK
6
CONTINUOUS
10
125.7340179999999918
20
-154.5479469999999935
11
125.7340179999999918
21
-154.0717559999999935
0
LINE
8
BLACK
6
CONTINUOUS
10
125.7340179999999918
20
-154.0717559999999935
11
125.8292560000000009
21
-153.6908039999999858
0
LINE
8
BLACK
6
CONTINUOUS
10
125.8292560000000009
20
-153.6908039999999858
11
125.9244939999999957
21
-153.5003279999999961
0
LINE
8
BLACK
6
CONTINUOUS
10
125.9244939999999957
20
-153.5003279999999961
11
126.0197319999999905
21
-153.4050900000000013
0
LINE
8
BLACK
6
CONTINUOUS
10
126.0197319999999905
20
-153.4050900000000013
11
126.2102079999999944
21
-153.3098520000000065
0
LINE
8
BLACK
6
CONTINUOUS
10
127.638779999999997
20
-153.5003279999999961
11
127.7340179999999918
21
-153.4050900000000013
0
LINE
8
BLACK
6
CONTINUOUS
10
127.7340179999999918
20
-153.4050900000000013
11
127.9244939999999957
21
-153.3098520000000065
0
LINE
8
BLACK
6
CONTINUOUS
10
127.9244939999999957
20
-153.3098520000000065
11
128.4006849999999815
21
-153.3098520000000065
0
LINE
8
BLACK
6
CONTINUOUS
10
128.4006849999999815
20
-153.3098520000000065
11
128.5911609999999996
21
-153.4050900000000013
0
LINE
8
BLACK
6
CONTINUOUS
10
128.5911609999999996
20
-153.4050900000000013
11
128.6863989999999944
21
-153.5003279999999961
0
LINE
8
BLACK
6
CONTINUOUS
10
128.6863989999999944
20
-153.5003279999999961
11
128.7816369999999893
21
-153.6908039999999858
0
LINE
8
BLACK
6
CONTINUOUS
10
128.7816369999999893
20
-153.6908039999999858
11
128.7816369999999893
21
-153.8812800000000038
0
LINE
8
BLACK
6
CONTINUOUS
10
128.7816369999999893
20
-153.8812800000000038
11
128.6863989999999944
21
-154.1669939999999883
0
LINE
8
BLACK
6
CONTINUOUS
10
128.6863989999999944
20
-154.1669939999999883
11
127.543541999999988
21
-155.3098520000000065
0
LINE
8
BLACK
6
CONTINUOUS
10
127.543541999999988
20
-155.3098520000000065
11
128.7816369999999893
21
-155.3098520000000065
0
LINE
8
BLACK
6
CONTINUOUS
10
129.5435420000000022
20
-153.3098520000000065
11
129.5435420000000022
21
-153.6908039999999858
0
LINE
8
BLACK
6
CONTINUOUS
10
130.3054469999999867
20
-153.3098520000000065
11
130.3054469999999867
21
-153.6908039999999858
0
LINE
8
BLACK
6
CONTINUOUS
10
133.2578289999999868
20
-156.0717559999999935
11
133.1625899999999945
21
-155.9765179999999987
0
LINE
8
BLACK
6
CONTINUOUS
10
133.1625899999999945
20
-155.9765179999999987
11
132.9721140000000048
21
-155.6908039999999858
0
LINE
8
BLACK
6
CONTINUOUS
10
132.9721140000000048
20
-155.6908039999999858
11
132.8768759999999816
21
-155.5003279999999961
0
LINE
8
BLACK
6
CONTINUOUS
10
132.8768759999999816
20
-155.5003279999999961
11
132.7816379999999867
21
-155.2146139999999832
0
LINE
8
BLACK
6
CONTINUOUS
10
132.7816379999999867
20
-155.2146139999999832
11
132.6863999999999919
21
-154.7384229999999832
0
LINE
8
BLACK
6
CONTINUOUS
10
132.6863999999999919
20
-154.7384229999999832
11
132.6863999999999919
21
-154.3574710000000039
0
LINE
8
BLACK
6
CONTINUOUS
10
132.6863999999999919
20
-154.3574710000000039
11
132.7816379999999867
21
-153.8812800000000038
0
LINE
8
BLACK
6
CONTINUOUS
10
132.7816379999999867
20
-153.8812800000000038
11
132.8768759999999816
21
-153.5955659999999909
0
LINE
8
BLACK
6
CONTINUOUS
10
132.8768759999999816
20
-153.5955659999999909
11
132.9721140000000048
21
-153.4050900000000013
0
LINE
8
BLACK
6
CONTINUOUS
10
132.9721140000000048
20
-153.4050900000000013
11
133.1625899999999945
21
-153.1193749999999909
0
LINE
8
BLACK
6
CONTINUOUS
10
133.1625899999999945
20
-153.1193749999999909
11
133.2578289999999868
21
-153.0241369999999961
0
LINE
8
BLACK
6
CONTINUOUS
10
133.9244950000000074
20
-153.5003279999999961
11
134.0197330000000022
21
-153.4050900000000013
0
LINE
8
BLACK
6
CONTINUOUS
10
134.0197330000000022
20
-153.4050900000000013
11
134.2102089999999919
21
-153.3098520000000065
0
LINE
8
BLACK
6
CONTINUOUS
10
134.2102089999999919
20
-153.3098520000000065
11
134.6863999999999919
21
-153.3098520000000065
0
LINE
8
BLACK
6
CONTINUOUS
10
134.6863999999999919
20
-153.3098520000000065
11
134.8768759999999816
21
-153.4050900000000013
0
LINE
8
BLACK
6
CONTINUOUS
10
134.8768759999999816
20
-153.4050900000000013
11
134.9721140000000048
21
-153.5003279999999961
0
LINE
8
BLACK
6
CONTINUOUS
10
134.9721140000000048
20
-153.5003279999999961
11
135.0673519999999996
21
-153.6908039999999858
0
LINE
8
BLACK
6
CONTINUOUS
10
135.0673519999999996
20
-153.6908039999999858
11
135.0673519999999996
21
-153.8812800000000038
0
LINE
8
BLACK
6
CONTINUOUS
10
135.0673519999999996
20
-153.8812800000000038
11
134.9721140000000048
21
-154.1669939999999883
0
LINE
8
BLACK
6
CONTINUOUS
10
134.9721140000000048
20
-154.1669939999999883
11
133.8292569999999841
21
-155.3098520000000065
0
LINE
8
BLACK
6
CONTINUOUS
10
133.8292569999999841
20
-155.3098520000000065
11
135.0673519999999996
21
-155.3098520000000065
0
LINE
8
BLACK
6
CONTINUOUS
10
137.4483050000000048
20
-155.3098520000000065
11
137.4483050000000048
21
-153.3098520000000065
0
LINE
8
BLACK
6
CONTINUOUS
10
138.3054479999999842
20
-155.3098520000000065
11
138.3054479999999842
21
-154.2622329999999806
0
LINE
8
BLACK
6
CONTINUOUS
10
138.3054479999999842
20
-154.2622329999999806
11
138.2102099999999893
21
-154.0717559999999935
0
LINE
8
BLACK
6
CONTINUOUS
10
138.2102099999999893
20
-154.0717559999999935
11
138.0197339999999997
21
-153.9765179999999987
0
LINE
8
BLACK
6
CONTINUOUS
10
138.0197339999999997
20
-153.9765179999999987
11
137.7340189999999893
21
-153.9765179999999987
0
LINE
8
BLACK
6
CONTINUOUS
10
137.7340189999999893
20
-153.9765179999999987
11
137.5435429999999997
21
-154.0717559999999935
0
LINE
8
BLACK
6
CONTINUOUS
10
137.5435429999999997
20
-154.0717559999999935
11
137.4483050000000048
21
-154.1669939999999883
0
LINE
8
BLACK
6
CONTINUOUS
10
139.5435429999999997
20
-155.3098520000000065
11
139.3530669999999816
21
-155.2146139999999832
0
LINE
8
BLACK
6
CONTINUOUS
10
139.3530669999999816
20
-155.2146139999999832
11
139.2578289999999868
21
-155.1193749999999909
0
LINE
8
BLACK
6
CONTINUOUS
10
139.2578289999999868
20
-155.1193749999999909
11
139.1625909999999919
21
-154.9288990000000013
0
LINE
8
BLACK
6
CONTINUOUS
10
139.1625909999999919
20
-154.9288990000000013
11
139.1625909999999919
21
-154.3574710000000039
0
LINE
8
BLACK
6
CONTINUOUS
10
139.1625909999999919
20
-154.3574710000000039
11
139.2578289999999868
21
-154.1669939999999883
0
LINE
8
BLACK
6
CONTINUOUS
10
139.2578289999999868
20
-154.1669939999999883
11
139.3530669999999816
21
-154.0717559999999935
0
LINE
8
BLACK
6
CONTINUOUS
10
139.3530669999999816
20
-154.0717559999999935
11
139.5435429999999997
21
-153.9765179999999987
0
LINE
8
BLACK
6
CONTINUOUS
10
139.5435429999999997
20
-153.9765179999999987
11
139.8292579999999816
21
-153.9765179999999987
0
LINE
8
BLACK
6
CONTINUOUS
10
139.8292579999999816
20
-153.9765179999999987
11
140.0197339999999997
21
-154.0717559999999935
0
LINE
8
BLACK
6
CONTINUOUS
10
140.0197339999999997
20
-154.0717559999999935
11
140.1149719999999945
21
-154.1669939999999883
0
LINE
8
BLACK
6
CONTINUOUS
10
140.1149719999999945
20
-154.1669939999999883
11
140.2102099999999893
21
-154.3574710000000039
0
LINE
8
BLACK
6
CONTINUOUS
10
140.2102099999999893
20
-154.3574710000000039
11
140.2102099999999893
21
-154.9288990000000013
0
LINE
8
BLACK
6
CONTINUOUS
10
140.2102099999999893
20
-154.9288990000000013
11
140.1149719999999945
21
-155.1193749999999909
0
LINE
8
BLACK
6
CONTINUOUS
10
140.1149719999999945
20
-155.1193749999999909
11
140.0197339999999997
21
-155.2146139999999832
0
LINE
8
BLACK
6
CONTINUOUS
10
140.0197339999999997
20
-155.2146139999999832
11
139.8292579999999816
21
-155.3098520000000065
0
LINE
8
BLACK
6
CONTINUOUS
10
139.8292579999999816
20
-155.3098520000000065
11
139.5435429999999997
21
-155.3098520000000065
0
LINE
8
BLACK
6
CONTINUOUS
10
141.3530669999999816
20
-155.3098520000000065
11
141.1625909999999919
21
-155.2146139999999832
0
LINE
8
BLACK
6
CONTINUOUS
10
141.1625909999999919
20
-155.2146139999999832
11
141.0673529999999971
21
-155.0241369999999961
0
LINE
8
BLACK
6
CONTINUOUS
10
141.0673529999999971
20
-155.0241369999999961
11
141.0673529999999971
21
-153.3098520000000065
0
LINE
8
BLACK
6
CONTINUOUS
10
142.8768770000000075
20
-155.2146139999999832
11
142.6864009999999894
21
-155.3098520000000065
0
LINE
8
BLACK
6
CONTINUOUS
10
142.6864009999999894
20
-155.3098520000000065
11
142.3054479999999842
21
-155.3098520000000065
0
LINE
8
BLACK
6
CONTINUOUS
10
142.3054479999999842
20
-155.3098520000000065
11
142.1149719999999945
21
-155.2146139999999832
0
LINE
8
BLACK
6
CONTINUOUS
10
142.1149719999999945
20
-155.2146139999999832
11
142.0197339999999997
21
-155.0241369999999961
0
LINE
8
BLACK
6
CONTINUOUS
10
142.0197339999999997
20
-155.0241369999999961
11
142.0197339999999997
21
-154.2622329999999806
0
LINE
8
BLACK
6
CONTINUOUS
10
142.0197339999999997
20
-154.2622329999999806
11
142.1149719999999945
21
-154.0717559999999935
0
LINE
8
BLACK
6
CONTINUOUS
10
142.1149719999999945
20
-154.0717559999999935
11
142.3054479999999842
21
-153.9765179999999987
0
LINE
8
BLACK
6
CONTINUOUS
10
142.3054479999999842
20
-153.9765179999999987
11
142.6864009999999894
21
-153.9765179999999987
0
LINE
8
BLACK
6
CONTINUOUS
10
142.6864009999999894
20
-153.9765179999999987
11
142.8768770000000075
21
-154.0717559999999935
0
LINE
8
BLACK
6
CONTINUOUS
10
142.8768770000000075
20
-154.0717559999999935
11
142.9721150000000023
21
-154.2622329999999806
0
LINE
8
BLACK
6
CONTINUOUS
10
142.9721150000000023
20
-154.2622329999999806
11
142.9721150000000023
21
-154.4527089999999987
0
LINE
8
BLACK
6
CONTINUOUS
10
142.9721150000000023
20
-154.4527089999999987
11
142.0197339999999997
21
-154.6431849999999883
0
LINE
8
BLACK
6
CONTINUOUS
10
143.7340199999999868
20
-155.2146139999999832
11
143.9244960000000049
21
-155.3098520000000065
0
LINE
8
BLACK
6
CONTINUOUS
10
143.9244960000000049
20
-155.3098520000000065
11
144.3054479999999842
21
-155.3098520000000065
0
LINE
8
BLACK
6
CONTINUOUS
10
144.3054479999999842
20
-155.3098520000000065
11
144.4959249999999997
21
-155.2146139999999832
0
LINE
8
BLACK
6
CONTINUOUS
10
144.4959249999999997
20
-155.2146139999999832
11
144.5911629999999946
21
-155.0241369999999961
0
LINE
8
BLACK
6
CONTINUOUS
10
144.5911629999999946
20
-155.0241369999999961
11
144.5911629999999946
21
-154.9288990000000013
0
LINE
8
BLACK
6
CONTINUOUS
10
144.5911629999999946
20
-154.9288990000000013
11
144.4959249999999997
21
-154.7384229999999832
0
LINE
8
BLACK
6
CONTINUOUS
10
144.4959249999999997
20
-154.7384229999999832
11
144.3054479999999842
21
-154.6431849999999883
0
LINE
8
BLACK
6
CONTINUOUS
10
144.3054479999999842
20
-154.6431849999999883
11
144.0197339999999997
21
-154.6431849999999883
0
LINE
8
BLACK
6
CONTINUOUS
10
144.0197339999999997
20
-154.6431849999999883
11
143.8292579999999816
21
-154.5479469999999935
0
LINE
8
BLACK
6
CONTINUOUS
10
143.8292579999999816
20
-154.5479469999999935
11
143.7340199999999868
21
-154.3574710000000039
0
LINE
8
BLACK
6
CONTINUOUS
10
143.7340199999999868
20
-154.3574710000000039
11
143.7340199999999868
21
-154.2622329999999806
0
LINE
8
BLACK
6
CONTINUOUS
10
143.7340199999999868
20
-154.2622329999999806
11
143.8292579999999816
21
-154.0717559999999935
0
LINE
8
BLACK
6
CONTINUOUS
10
143.8292579999999816
20
-154.0717559999999935
11
144.0197339999999997
21
-153.9765179999999987
0
LINE
8
BLACK
6
CONTINUOUS
10
144.0197339999999997
20
-153.9765179999999987
11
144.3054479999999842
21
-153.9765179999999987
0
LINE
8
BLACK
6
CONTINUOUS
10
144.3054479999999842
20
-153.9765179999999987
11
144.4959249999999997
21
-154.0717559999999935
0
LINE
8
BLACK
6
CONTINUOUS
10
145.2578299999999842
20
-156.0717559999999935
11
145.3530680000000075
21
-155.9765179999999987
0
LINE
8
BLACK
6
CONTINUOUS
10
145.3530680000000075
20
-155.9765179999999987
11
145.5435439999999971
21
-155.6908039999999858
0
LINE
8
BLACK
6
CONTINUOUS
10
145.5435439999999971
20
-155.6908039999999858
11
145.638781999999992
21
-155.5003279999999961
0
LINE
8
BLACK
6
CONTINUOUS
10
145.638781999999992
20
-155.5003279999999961
11
145.7340199999999868
21
-155.2146139999999832
0
LINE
8
BLACK
6
CONTINUOUS
10
145.7340199999999868
20
-155.2146139999999832
11
145.8292579999999816
21
-154.7384229999999832
0
LINE
8
BLACK
6
CONTINUOUS
10
145.8292579999999816
20
-154.7384229999999832
11
145.8292579999999816
21
-154.3574710000000039
0
LINE
8
BLACK
6
CONTINUOUS
10
145.8292579999999816
20
-154.3574710000000039
11
145.7340199999999868
21
-153.8812800000000038
0
LINE
8
BLACK
6
CONTINUOUS
10
145.7340199999999868
20
-153.8812800000000038
11
145.638781999999992
21
-153.5955659999999909
0
LINE
8
BLACK
6
CONTINUOUS
10
145.638781999999992
20
-153.5955659999999909
11
145.5435439999999971
21
-153.4050900000000013
0
LINE
8
BLACK
6
CONTINUOUS
10
145.5435439999999971
20
-153.4050900000000013
11
145.3530680000000075
21
-153.1193749999999909
0
LINE
8
BLACK
6
CONTINUOUS
10
145.3530680000000075
20
-153.1193749999999909
11
145.2578299999999842
21
-153.0241369999999961
0
LINE
8
BLACK
6
CONTINUOUS
10
148.8768780000000049
20
-156.0717559999999935
11
148.7816389999999842
21
-155.9765179999999987
0
LINE
8
BLACK
6
CONTINUOUS
10
148.7816389999999842
20
-155.9765179999999987
11
148.5911629999999946
21
-155.6908039999999858
0
LINE
8
BLACK
6
CONTINUOUS
10
148.5911629999999946
20
-155.6908039999999858
11
148.4959249999999997
21
-155.5003279999999961
0
LINE
8
BLACK
6
CONTINUOUS
10
148.4959249999999997
20
-155.5003279999999961
11
148.4006870000000049
21
-155.2146139999999832
0
LINE
8
BLACK
6
CONTINUOUS
10
148.4006870000000049
20
-155.2146139999999832
11
148.3054489999999817
21
-154.7384229999999832
0
LINE
8
BLACK
6
CONTINUOUS
10
148.3054489999999817
20
-154.7384229999999832
11
148.3054489999999817
21
-154.3574710000000039
0
LINE
8
BLACK
6
CONTINUOUS
10
148.3054489999999817
20
-154.3574710000000039
11
148.4006870000000049
21
-153.8812800000000038
0
LINE
8
BLACK
6
CONTINUOUS
10
148.4006870000000049
20
-153.8812800000000038
11
148.4959249999999997
21
-153.5955659999999909
0
LINE
8
BLACK
6
CONTINUOUS
10
148.4959249999999997
20
-153.5955659999999909
11
148.5911629999999946
21
-153.4050900000000013
0
LINE
8
BLACK
6
CONTINUOUS
10
148.5911629999999946
20
-153.4050900000000013
11
148.7816389999999842
21
-153.1193749999999909
0
LINE
8
BLACK
6
CONTINUOUS
10
148.7816389999999842
20
-153.1193749999999909
11
148.8768780000000049
21
-153.0241369999999961
0
LINE
8
BLACK
6
CONTINUOUS
10
149.638781999999992
20
-153.9765179999999987
11
149.638781999999992
21
-155.3098520000000065
0
LINE
8
BLACK
6
CONTINUOUS
10
149.638781999999992
20
-154.1669939999999883
11
149.7340199999999868
21
-154.0717559999999935
0
LINE
8
BLACK
6
CONTINUOUS
10
149.7340199999999868
20
-154.0717559999999935
11
149.9244960000000049
21
-153.9765179999999987
0
LINE
8
BLACK
6
CONTINUOUS
10
149.9244960000000049
20
-153.9765179999999987
11
150.2102109999999868
21
-153.9765179999999987
0
LINE
8
BLACK
6
CONTINUOUS
10
150.2102109999999868
20
-153.9765179999999987
11
150.4006870000000049
21
-154.0717559999999935
0
LINE
8
BLACK
6
CONTINUOUS
10
150.4006870000000049
20
-154.0717559999999935
11
150.4959249999999997
21
-154.2622329999999806
0
LINE
8
BLACK
6
CONTINUOUS
10
150.4959249999999997
20
-154.2622329999999806
11
150.4959249999999997
21
-155.3098520000000065
0
LINE
8
BLACK
6
CONTINUOUS
10
151.7340199999999868
20
-155.3098520000000065
11
151.5435439999999971
21
-155.2146139999999832
0
LINE
8
BLACK
6
CONTINUOUS
10
151.5435439999999971
20
-155.2146139999999832
11
151.4483060000000023
21
-155.1193749999999909
0
LINE
8
BLACK
6
CONTINUOUS
10
151.4483060000000023
20
-155.1193749999999909
11
151.3530679999999791
21
-154.9288990000000013
0
LINE
8
BLACK
6
CONTINUOUS
10
151.3530679999999791
20
-154.9288990000000013
11
151.3530679999999791
21
-154.3574710000000039
0
LINE
8
BLACK
6
CONTINUOUS
10
151.3530679999999791
20
-154.3574710000000039
11
151.4483060000000023
21
-154.1669939999999883
0
LINE
8
BLACK
6
CONTINUOUS
10
151.4483060000000023
20
-154.1669939999999883
11
151.5435439999999971
21
-154.0717559999999935
0
LINE
8
BLACK
6
CONTINUOUS
10
151.5435439999999971
20
-154.0717559999999935
11
151.7340199999999868
21
-153.9765179999999987
0
LINE
8
BLACK
6
CONTINUOUS
10
151.7340199999999868
20
-153.9765179999999987
11
152.0197349999999972
21
-153.9765179999999987
0
LINE
8
BLACK
6
CONTINUOUS
10
152.0197349999999972
20
-153.9765179999999987
11
152.2102109999999868
21
-154.0717559999999935
0
LINE
8
BLACK
6
CONTINUOUS
10
152.2102109999999868
20
-154.0717559999999935
11
152.3054489999999817
21
-154.1669939999999883
0
LINE
8
BLACK
6
CONTINUOUS
10
152.3054489999999817
20
-154.1669939999999883
11
152.4006870000000049
21
-154.3574710000000039
0
LINE
8
BLACK
6
CONTINUOUS
10
152.4006870000000049
20
-154.3574710000000039
11
152.4006870000000049
21
-154.9288990000000013
0
LINE
8
BLACK
6
CONTINUOUS
10
152.4006870000000049
20
-154.9288990000000013
11
152.3054489999999817
21
-155.1193749999999909
0
LINE
8
BLACK
6
CONTINUOUS
10
152.3054489999999817
20
-155.1193749999999909
11
152.2102109999999868
21
-155.2146139999999832
0
LINE
8
BLACK
6
CONTINUOUS
10
152.2102109999999868
20
-155.2146139999999832
11
152.0197349999999972
21
-155.3098520000000065
0
LINE
8
BLACK
6
CONTINUOUS
10
152.0197349999999972
20
-155.3098520000000065
11
151.7340199999999868
21
-155.3098520000000065
0
LINE
8
BLACK
6
CONTINUOUS
10
152.9721159999999998
20
-153.9765179999999987
11
153.7340199999999868
21
-153.9765179999999987
0
LINE
8
BLACK
6
CONTINUOUS
10
153.2578299999999842
20
-153.3098520000000065
11
153.2578299999999842
21
-155.0241369999999961
0
LINE
8
BLACK
6
CONTINUOUS
10
153.2578299999999842
20
-155.0241369999999961
11
153.3530679999999791
21
-155.2146139999999832
0
LINE
8
BLACK
6
CONTINUOUS
10
153.3530679999999791
20
-155.2146139999999832
11
153.5435439999999971
21
-155.3098520000000065
0
LINE
8
BLACK
6
CONTINUOUS
10
153.5435439999999971
20
-155.3098520000000065
11
153.7340199999999868
21
-155.3098520000000065
0
LINE
8
BLACK
6
CONTINUOUS
10
155.9244970000000023
20
-153.9765179999999987
11
155.9244970000000023
21
-155.9765179999999987
0
LINE
8
BLACK
6
CONTINUOUS
10
155.9244970000000023
20
-154.0717559999999935
11
156.114972999999992
21
-153.9765179999999987
0
LINE
8
BLACK
6
CONTINUOUS
10
156.114972999999992
20
-153.9765179999999987
11
156.4959259999999972
21
-153.9765179999999987
0
LINE
8
BLACK
6
CONTINUOUS
10
156.4959259999999972
20
-153.9765179999999987
11
156.6864019999999869
21
-154.0717559999999935
0
LINE
8
BLACK
6
CONTINUOUS
10
156.6864019999999869
20
-154.0717559999999935
11
156.7816399999999817
21
-154.1669939999999883
0
LINE
8
BLACK
6
CONTINUOUS
10
156.7816399999999817
20
-154.1669939999999883
11
156.8768780000000049
21
-154.3574710000000039
0
LINE
8
BLACK
6
CONTINUOUS
10
156.8768780000000049
20
-154.3574710000000039
11
156.8768780000000049
21
-154.9288990000000013
0
LINE
8
BLACK
6
CONTINUOUS
10
156.8768780000000049
20
-154.9288990000000013
11
156.7816399999999817
21
-155.1193749999999909
0
LINE
8
BLACK
6
CONTINUOUS
10
156.7816399999999817
20
-155.1193749999999909
11
156.6864019999999869
21
-155.2146139999999832
0
LINE
8
BLACK
6
CONTINUOUS
10
156.6864019999999869
20
-155.2146139999999832
11
156.4959259999999972
21
-155.3098520000000065
0
LINE
8
BLACK
6
CONTINUOUS
10
156.4959259999999972
20
-155.3098520000000065
11
156.114972999999992
21
-155.3098520000000065
0
LINE
8
BLACK
6
CONTINUOUS
10
156.114972999999992
20
-155.3098520000000065
11
155.9244970000000023
21
-155.2146139999999832
0
LINE
8
BLACK
6
CONTINUOUS
10
158.0197349999999972
20
-155.3098520000000065
11
157.8292589999999791
21
-155.2146139999999832
0
LINE
8
BLACK
6
CONTINUOUS
10
157.8292589999999791
20
-155.2146139999999832
11
157.7340209999999843
21
-155.0241369999999961
0
LINE
8
BLACK
6
CONTINUOUS
10
157.7340209999999843
20
-155.0241369999999961
11
157.7340209999999843
21
-153.3098520000000065
0
LINE
8
BLACK
6
CONTINUOUS
10
159.6387829999999894
20
-155.3098520000000065
11
159.6387829999999894
21
-154.2622329999999806
0
LINE
8
BLACK
6
CONTINUOUS
10
159.6387829999999894
20
-154.2622329999999806
11
159.5435449999999946
21
-154.0717559999999935
0
LINE
8
BLACK
6
CONTINUOUS
10
159.5435449999999946
20
-154.0717559999999935
11
159.353069000000005
21
-153.9765179999999987
0
LINE
8
BLACK
6
CONTINUOUS
10
159.353069000000005
20
-153.9765179999999987
11
158.9721159999999998
21
-153.9765179999999987
0
LINE
8
BLACK
6
CONTINUOUS
10
158.9721159999999998
20
-153.9765179999999987
11
158.7816399999999817
21
-154.0717559999999935
0
LINE
8
BLACK
6
CONTINUOUS
10
159.6387829999999894
20
-155.2146139999999832
11
159.4483069999999998
21
-155.3098520000000065
0
LINE
8
BLACK
6
CONTINUOUS
10
159.4483069999999998
20
-155.3098520000000065
11
158.9721159999999998
21
-155.3098520000000065
0
LINE
8
BLACK
6
CONTINUOUS
10
158.9721159999999998
20
-155.3098520000000065
11
158.7816399999999817
21
-155.2146139999999832
0
LINE
8
BLACK
6
CONTINUOUS
10
158.7816399999999817
20
-155.2146139999999832
11
158.6864019999999869
21
-155.0241369999999961
0
LINE
8
BLACK
6
CONTINUOUS
10
158.6864019999999869
20
-155.0241369999999961
11
158.6864019999999869
21
-154.8336610000000064
0
LINE
8
BLACK
6
CONTINUOUS
10
158.6864019999999869
20
-154.8336610000000064
11
158.7816399999999817
21
-154.6431849999999883
0
LINE
8
BLACK
6
CONTINUOUS
10
158.7816399999999817
20
-154.6431849999999883
11
158.9721159999999998
21
-154.5479469999999935
0
LINE
8
BLACK
6
CONTINUOUS
10
158.9721159999999998
20
-154.5479469999999935
11
159.4483069999999998
21
-154.5479469999999935
0
LINE
8
BLACK
6
CONTINUOUS
10
159.4483069999999998
20
-154.5479469999999935
11
159.6387829999999894
21
-154.4527089999999987
0
LINE
8
BLACK
6
CONTINUOUS
10
160.3054499999999791
20
-153.9765179999999987
11
161.0673539999999946
21
-153.9765179999999987
0
LINE
8
BLACK
6
CONTINUOUS
10
160.591163999999992
20
-153.3098520000000065
11
160.591163999999992
21
-155.0241369999999961
0
LINE
8
BLACK
6
CONTINUOUS
10
160.591163999999992
20
-155.0241369999999961
11
160.6864019999999869
21
-155.2146139999999832
0
LINE
8
BLACK
6
CONTINUOUS
10
160.6864019999999869
20
-155.2146139999999832
11
160.8768780000000049
21
-155.3098520000000065
0
LINE
8
BLACK
6
CONTINUOUS
10
160.8768780000000049
20
-155.3098520000000065
11
161.0673539999999946
21
-155.3098520000000065
0
LINE
8
BLACK
6
CONTINUOUS
10
162.4959259999999972
20
-155.2146139999999832
11
162.3054499999999791
21
-155.3098520000000065
0
LINE
8
BLACK
6
CONTINUOUS
10
162.3054499999999791
20
-155.3098520000000065
11
161.9244970000000023
21
-155.3098520000000065
0
LINE
8
BLACK
6
CONTINUOUS
10
161.9244970000000023
20
-155.3098520000000065
11
161.7340209999999843
21
-155.2146139999999832
0
LINE
8
BLACK
6
CONTINUOUS
10
161.7340209999999843
20
-155.2146139999999832
11
161.6387829999999894
21
-155.0241369999999961
0
LINE
8
BLACK
6
CONTINUOUS
10
161.6387829999999894
20
-155.0241369999999961
11
161.6387829999999894
21
-154.2622329999999806
0
LINE
8
BLACK
6
CONTINUOUS
10
161.6387829999999894
20
-154.2622329999999806
11
161.7340209999999843
21
-154.0717559999999935
0
LINE
8
BLACK
6
CONTINUOUS
10
161.7340209999999843
20
-154.0717559999999935
11
161.9244970000000023
21
-153.9765179999999987
0
LINE
8
BLACK
6
CONTINUOUS
10
161.9244970000000023
20
-153.9765179999999987
11
162.3054499999999791
21
-153.9765179999999987
0
LINE
8
BLACK
6
CONTINUOUS
10
162.3054499999999791
20
-153.9765179999999987
11
162.4959259999999972
21
-154.0717559999999935
0
LINE
8
BLACK
6
CONTINUOUS
10
162.4959259999999972
20
-154.0717559999999935
11
162.591163999999992
21
-154.2622329999999806
0
LINE
8
BLACK
6
CONTINUOUS
10
162.591163999999992
20
-154.2622329999999806
11
162.591163999999992
21
-154.4527089999999987
0
LINE
8
BLACK
6
CONTINUOUS
10
162.591163999999992
20
-154.4527089999999987
11
161.6387829999999894
21
-154.6431849999999883
0
LINE
8
BLACK
6
CONTINUOUS
10
164.3054499999999791
20
-155.3098520000000065
11
164.3054499999999791
21
-153.3098520000000065
0
LINE
8
BLACK
6
CONTINUOUS
10
164.3054499999999791
20
-155.2146139999999832
11
164.1149739999999895
21
-155.3098520000000065
0
LINE
8
BLACK
6
CONTINUOUS
10
164.1149739999999895
20
-155.3098520000000065
11
163.7340209999999843
21
-155.3098520000000065
0
LINE
8
BLACK
6
CONTINUOUS
10
163.7340209999999843
20
-155.3098520000000065
11
163.5435449999999946
21
-155.2146139999999832
0
LINE
8
BLACK
6
CONTINUOUS
10
163.5435449999999946
20
-155.2146139999999832
11
163.4483069999999998
21
-155.1193749999999909
0
LINE
8
BLACK
6
CONTINUOUS
10
163.4483069999999998
20
-155.1193749999999909
11
163.353069000000005
21
-154.9288990000000013
0
LINE
8
BLACK
6
CONTINUOUS
10
163.353069000000005
20
-154.9288990000000013
11
163.353069000000005
21
-154.3574710000000039
0
LINE
8
BLACK
6
CONTINUOUS
10
163.353069000000005
20
-154.3574710000000039
11
163.4483069999999998
21
-154.1669939999999883
0
LINE
8
BLACK
6
CONTINUOUS
10
163.4483069999999998
20
-154.1669939999999883
11
163.5435449999999946
21
-154.0717559999999935
0
LINE
8
BLACK
6
CONTINUOUS
10
163.5435449999999946
20
-154.0717559999999935
11
163.7340209999999843
21
-153.9765179999999987
0
LINE
8
BLACK
6
CONTINUOUS
10
163.7340209999999843
20
-153.9765179999999987
11
164.1149739999999895
21
-153.9765179999999987
0
LINE
8
BLACK
6
CONTINUOUS
10
164.1149739999999895
20
-153.9765179999999987
11
164.3054499999999791
21
-154.0717559999999935
0
LINE
8
BLACK
6
CONTINUOUS
10
165.0673549999999921
20
-156.0717559999999935
11
165.1625929999999869
21
-155.9765179999999987
0
LINE
8
BLACK
6
CONTINUOUS
10
165.1625929999999869
20
-155.9765179999999987
11
165.353069000000005
21
-155.6908039999999858
0
LINE
8
BLACK
6
CONTINUOUS
10
165.353069000000005
20
-155.6908039999999858
11
165.4483069999999998
21
-155.5003279999999961
0
LINE
8
BLACK
6
CONTINUOUS
10
165.4483069999999998
20
-155.5003279999999961
11
165.5435449999999946
21
-155.2146139999999832
0
LINE
8
BLACK
6
CONTINUOUS
10
165.5435449999999946
20
-155.2146139999999832
11
165.6387829999999894
21
-154.7384229999999832
0
LINE
8
BLACK
6
CONTINUOUS
10
165.6387829999999894
20
-154.7384229999999832
11
165.6387829999999894
21
-154.3574710000000039
0
LINE
8
BLACK
6
CONTINUOUS
10
165.6387829999999894
20
-154.3574710000000039
11
165.5435449999999946
21
-153.8812800000000038
0
LINE
8
BLACK
6
CONTINUOUS
10
165.5435449999999946
20
-153.8812800000000038
11
165.4483069999999998
21
-153.5955659999999909
0
LINE
8
BLACK
6
CONTINUOUS
10
165.4483069999999998
20
-153.5955659999999909
11
165.353069000000005
21
-153.4050900000000013
0
LINE
8
BLACK
6
CONTINUOUS
10
165.353069000000005
20
-153.4050900000000013
11
165.1625929999999869
21
-153.1193749999999909
0
LINE
8
BLACK
6
CONTINUOUS
10
165.1625929999999869
20
-153.1193749999999909
11
165.0673549999999921
21
-153.0241369999999961
  0
ENDSEC
  0
EOF
