M48
; DRILL file {KiCad 8.0.1} date 2024-04-24T20:44:42+0200
; FORMAT={-:-/ absolute / metric / decimal}
; #@! TF.CreationDate,2024-04-24T20:44:42+02:00
; #@! TF.GenerationSoftware,Kicad,Pcbnew,8.0.1
; #@! TF.FileFunction,Plated,1,2,PTH
FMAT,2
METRIC
; #@! TA.AperFunction,Plated,PTH,ViaDrill
T1C0.300
; #@! TA.AperFunction,Plated,PTH,ComponentDrill
T2C1.000
; #@! TA.AperFunction,Plated,PTH,ComponentDrill
T3C1.020
; #@! TA.AperFunction,Plated,PTH,ComponentDrill
T4C1.100
; #@! TA.AperFunction,Plated,PTH,ComponentDrill
T5C1.800
%
G90
G05
T1
X110.978Y-94.862
X139.778Y-68.762
X151.178Y-128.462
X154.178Y-144.562
X156.478Y-143.462
T2
X108.356Y-76.926
X108.356Y-79.466
X108.356Y-82.006
X108.356Y-84.546
X108.356Y-87.086
X108.356Y-89.626
X108.356Y-92.166
X108.356Y-94.706
X108.356Y-97.246
X108.356Y-99.786
X108.356Y-102.326
X108.356Y-104.866
X108.356Y-107.406
X108.356Y-109.946
X108.356Y-112.486
X123.596Y-76.926
X123.596Y-79.466
X123.596Y-82.006
X123.596Y-84.546
X123.596Y-87.086
X123.596Y-89.626
X123.596Y-92.166
X123.596Y-94.706
X123.596Y-97.246
X123.596Y-99.786
X123.596Y-102.326
X123.596Y-104.866
X123.596Y-107.406
X123.596Y-109.946
X123.596Y-112.486
T3
X108.338Y-76.902
X108.338Y-79.442
X108.338Y-81.982
X108.338Y-84.522
X108.338Y-87.062
X108.338Y-89.602
X108.338Y-92.142
X108.338Y-94.682
X108.338Y-97.222
X108.338Y-99.762
X108.338Y-102.302
X108.338Y-104.842
X108.338Y-107.382
X108.338Y-109.922
X108.338Y-112.462
X123.578Y-76.902
X123.578Y-79.442
X123.578Y-81.982
X123.578Y-84.522
X123.578Y-87.062
X123.578Y-89.602
X123.578Y-92.142
X123.578Y-94.682
X123.578Y-97.222
X123.578Y-99.762
X123.578Y-102.302
X123.578Y-104.842
X123.578Y-107.382
X123.578Y-109.922
X123.578Y-112.462
X145.178Y-135.462
X145.178Y-138.462
X148.178Y-135.462
X148.178Y-138.462
X151.178Y-135.462
X151.178Y-138.462
X154.178Y-135.462
X154.178Y-138.462
T4
X102.698Y-88.982
X102.698Y-91.522
X102.698Y-94.062
X102.698Y-97.562
X102.698Y-100.102
X102.698Y-102.642
X121.398Y-127.362
X123.938Y-127.362
X126.478Y-127.362
X129.018Y-127.362
T5
X134.978Y-57.262
X134.978Y-62.262
X164.078Y-57.262
X164.078Y-62.262
M30
