%TF.GenerationSoftware,KiCad,Pcbnew,8.0.1*%
%TF.CreationDate,2024-04-24T20:44:49+02:00*%
%TF.ProjectId,Connectors_card,436f6e6e-6563-4746-9f72-735f63617264,rev?*%
%TF.SameCoordinates,Original*%
%TF.FileFunction,Soldermask,Bot*%
%TF.FilePolarity,Negative*%
%FSLAX46Y46*%
G04 Gerber Fmt 4.6, Leading zero omitted, Abs format (unit mm)*
G04 Created by KiCad (PCBNEW 8.0.1) date 2024-04-24 20:44:49*
%MOMM*%
%LPD*%
G01*
G04 APERTURE LIST*
G04 Aperture macros list*
%AMRoundRect*
0 Rectangle with rounded corners*
0 $1 Rounding radius*
0 $2 $3 $4 $5 $6 $7 $8 $9 X,Y pos of 4 corners*
0 Add a 4 corners polygon primitive as box body*
4,1,4,$2,$3,$4,$5,$6,$7,$8,$9,$2,$3,0*
0 Add four circle primitives for the rounded corners*
1,1,$1+$1,$2,$3*
1,1,$1+$1,$4,$5*
1,1,$1+$1,$6,$7*
1,1,$1+$1,$8,$9*
0 Add four rect primitives between the rounded corners*
20,1,$1+$1,$2,$3,$4,$5,0*
20,1,$1+$1,$4,$5,$6,$7,0*
20,1,$1+$1,$6,$7,$8,$9,0*
20,1,$1+$1,$8,$9,$2,$3,0*%
G04 Aperture macros list end*
%ADD10R,1.650000X1.650000*%
%ADD11C,1.650000*%
%ADD12C,1.020000*%
%ADD13R,1.520000X1.520000*%
%ADD14C,1.520000*%
%ADD15RoundRect,0.102000X-0.765000X-0.765000X0.765000X-0.765000X0.765000X0.765000X-0.765000X0.765000X0*%
%ADD16C,1.734000*%
%ADD17C,3.000000*%
%ADD18R,3.000000X3.000000*%
%ADD19R,1.700000X1.700000*%
%ADD20O,1.700000X1.700000*%
G04 APERTURE END LIST*
D10*
%TO.C,J3*%
X102698200Y-102642000D03*
D11*
X102698200Y-100102000D03*
X102698200Y-97562000D03*
%TD*%
D10*
%TO.C,J5*%
X129018200Y-127362000D03*
D11*
X126478200Y-127362000D03*
X123938200Y-127362000D03*
X121398200Y-127362000D03*
%TD*%
D12*
%TO.C,J6*%
X157178200Y-139402000D03*
X142178200Y-139402000D03*
D13*
X145178200Y-135462000D03*
D14*
X148178200Y-135462000D03*
X151178200Y-135462000D03*
X154178200Y-135462000D03*
X145178200Y-138462000D03*
X148178200Y-138462000D03*
X151178200Y-138462000D03*
X154178200Y-138462000D03*
%TD*%
D15*
%TO.C,U1*%
X108338200Y-76902000D03*
D16*
X108338200Y-79442000D03*
X108338200Y-81982000D03*
X108338200Y-84522000D03*
X108338200Y-87062000D03*
X108338200Y-89602000D03*
X108338200Y-92142000D03*
X108338200Y-94682000D03*
X108338200Y-97222000D03*
X108338200Y-99762000D03*
X108338200Y-102302000D03*
X108338200Y-104842000D03*
X108338200Y-107382000D03*
X108338200Y-109922000D03*
X108338200Y-112462000D03*
D15*
X123578200Y-76902000D03*
D16*
X123578200Y-79442000D03*
X123578200Y-81982000D03*
X123578200Y-84522000D03*
X123578200Y-87062000D03*
X123578200Y-89602000D03*
X123578200Y-92142000D03*
X123578200Y-94682000D03*
X123578200Y-97222000D03*
X123578200Y-99762000D03*
X123578200Y-102302000D03*
X123578200Y-104842000D03*
X123578200Y-107382000D03*
X123578200Y-109922000D03*
X123578200Y-112462000D03*
%TD*%
D17*
%TO.C,J1*%
X134978200Y-62262000D03*
D18*
X134978200Y-57262000D03*
%TD*%
D19*
%TO.C,J7*%
X108356200Y-76926000D03*
D20*
X108356200Y-79466000D03*
X108356200Y-82006000D03*
X108356200Y-84546000D03*
X108356200Y-87086000D03*
X108356200Y-89626000D03*
X108356200Y-92166000D03*
X108356200Y-94706000D03*
X108356200Y-97246000D03*
X108356200Y-99786000D03*
X108356200Y-102326000D03*
X108356200Y-104866000D03*
X108356200Y-107406000D03*
X108356200Y-109946000D03*
X108356200Y-112486000D03*
%TD*%
D19*
%TO.C,J8*%
X123596200Y-76926000D03*
D20*
X123596200Y-79466000D03*
X123596200Y-82006000D03*
X123596200Y-84546000D03*
X123596200Y-87086000D03*
X123596200Y-89626000D03*
X123596200Y-92166000D03*
X123596200Y-94706000D03*
X123596200Y-97246000D03*
X123596200Y-99786000D03*
X123596200Y-102326000D03*
X123596200Y-104866000D03*
X123596200Y-107406000D03*
X123596200Y-109946000D03*
X123596200Y-112486000D03*
%TD*%
D10*
%TO.C,J4*%
X102698200Y-94062000D03*
D11*
X102698200Y-91522000D03*
X102698200Y-88982000D03*
%TD*%
D17*
%TO.C,J2*%
X164078200Y-62262000D03*
D18*
X164078200Y-57262000D03*
%TD*%
M02*
